<?xml version="1.0" encoding="iso-8859-1"?>
<!-- Generator: Adobe Illustrator 19.0.0, SVG Export Plug-In . SVG Version: 6.00 Build 0)  -->
<svg version="1.1" id="Capa_1" xmlns="http://www.w3.org/2000/svg" xmlns:xlink="http://www.w3.org/1999/xlink" x="0px" y="0px"
	 viewBox="0 0 512 512" style="enable-background:new 0 0 512 512;" xml:space="preserve">
<g>
	<path style="fill:#FFFFFF;" d="M398.461,129.283c1.066-0.387,1.815-1.09,2.474-1.711c0.263-0.246,0.522-0.493,0.803-0.712
		l0.849-0.665l-0.727-0.796c-1.256-1.376-2.611-2.821-4.15-4.031l-1.123-0.884l-0.445,1.358c-0.19,0.58-0.474,1.09-0.802,1.44
		c-0.164,0.177-0.354,0.263-0.581,0.263c-0.487,0-1.043-0.426-1.057-0.999c-0.011-0.361,0.092-0.73,0.21-1.158
		c0.063-0.232,0.128-0.467,0.188-0.753c0.023-0.145,0.056-0.272,0.088-0.393l0.235-0.882l-0.856-0.315
		c-0.848-0.312-1.591-0.531-2.347-0.691c-0.933-0.188-1.975-0.28-3.188-0.28h-1.01l0.01,1.01c0.003,0.326-0.034,0.641-0.069,0.955
		c-0.072,0.65-0.155,1.386,0.033,2.233c0.275,1.232,0.903,2.46,1.87,3.654c1.888,2.314,4.684,3.752,7.298,3.752
		C396.958,129.677,397.73,129.545,398.461,129.283z"/>
	<path style="fill:#FFFFFF;" d="M453.449,192.377l-2.103,1.216l2.35,0.617c3.029,0.795,5.669,1.652,8.069,2.62l1.332,0.537
		l0.042-1.435c0.049-1.68,0.248-3.435,0.44-5.131c0.158-1.392,0.322-2.831,0.408-4.257l0.159-2.624l-1.863,1.855
		C459.91,188.139,456.939,190.361,453.449,192.377z"/>
	<path style="fill:#FFFFFF;" d="M452.685,179.569l0.504,1.625l1.175-1.231c2.241-2.35,4.29-4.875,6.271-7.318
		c0.613-0.755,1.227-1.512,1.848-2.267l1.176-1.428l-1.838-0.202c-0.871-0.096-1.738-0.269-2.573-0.514
		c-1.357-0.405-2.568-1.099-3.852-1.833c-0.843-0.482-1.715-0.981-2.643-1.4c-0.135-0.06-0.27-0.114-0.401-0.165l-0.212-0.085
		l-1.981-0.833l0.639,2.052c0.654,2.1,0.789,4.415,0.92,6.655C451.85,174.936,451.988,177.324,452.685,179.569z"/>
	<path style="fill:#FFFFFF;" d="M445.889,163.497c-0.923-0.099-1.876-0.2-2.791-0.35c-0.818-0.139-1.658-0.33-2.496-0.566
		l-1.587-0.448l0.337,1.614c0.673,3.229,1.158,6.272,1.484,9.303l0.236,2.195l1.494-1.626c2.347-2.552,4.314-5.309,6.012-8.428
		l0.696-1.278l-1.442-0.191C447.187,163.636,446.538,163.566,445.889,163.497z"/>
	<path style="fill:#FFFFFF;" d="M444.448,184.611l-0.657-2.539l-1.213,1.014c-1.753,1.466-3.394,3.058-4.98,4.596l-2.276,2.198
		l2.248,0.591c0.285,0.078,0.568,0.154,0.851,0.223c2.347,0.579,4.688,1.092,6.697,1.527l1.761,0.381l-0.607-1.696
		C445.543,188.875,444.986,186.707,444.448,184.611z"/>
	<path style="fill:#FFFFFF;" d="M434.683,160.412c-1.794-0.813-3.604-1.739-5.298-2.614c-0.62-0.326-1.22-0.63-1.829-0.925
		l-1.753-0.848l0.332,1.918c0.464,2.683,0.831,5.351,1.09,7.93l0.177,1.751l1.414-1.048c2.008-1.488,4.024-2.966,6.045-4.447
		l1.381-1.011L434.683,160.412z"/>
	<path style="fill:#FFFFFF;" d="M430.499,177.032c-0.52,0-0.851,0.31-1.092,0.536c-0.163,0.153-0.348,0.326-0.651,0.502
		c-0.928,0.541-1.743,1.396-2.462,2.151c-0.287,0.301-0.566,0.595-0.844,0.858c-0.353,0.335-0.728,0.745-1.124,1.179
		c-0.309,0.338-0.631,0.692-0.968,1.034l-0.864,0.875l1.034,0.667c2.259,1.458,4.769,2.674,7.673,3.72l1.252,0.451l0.085-1.328
		c0.025-0.404,0.06-0.858,0.097-1.34c0.295-3.906,0.434-6.766-0.463-8.008C431.67,177.632,431.236,177.032,430.499,177.032z"/>
	<path style="fill:#FFFFFF;" d="M413.903,160.629l0.278,1.646l1.32-1.022c1.842-1.426,8.089-6.244,8.089-6.244l-1.679-0.632
		c-2.877-1.083-5.646-1.769-8.467-2.097l-1.457-0.17l0.375,1.419C412.987,155.887,413.506,158.275,413.903,160.629z"/>
	<path style="fill:#FFFFFF;" d="M414.899,169.969c-0.288,0-0.596,0.031-0.91,0.09c-1.498,0.275-2.844,1.419-4.205,2.666
		l-1.027,0.942l1.221,0.671c2.574,1.416,4.751,3.268,6.761,5.044l1.662,1.468v-2.829c-0.013-0.383-0.004-0.824,0.005-1.294
		c0.038-2.01,0.085-4.511-1.243-5.864C416.58,170.27,415.818,169.969,414.899,169.969z"/>
	<path style="fill:#FFFFFF;" d="M406.343,169.875c-0.078-0.406-0.129-0.894-0.184-1.407c-0.123-1.148-0.261-2.436-0.707-3.417
		c-0.004-0.436-0.132-0.797-0.381-1.077c-0.197-0.221-0.558-0.485-1.155-0.485c-0.026,0-0.055,0-0.082,0.002
		c-0.206-0.053-0.413-0.08-0.616-0.08c-0.548,0-1.061,0.187-1.531,0.556l-0.38,0.171c-0.447,0.203-0.896,0.407-1.348,0.583
		c-0.725,0.281-1.45,0.472-2.324,0.693l-2.133,0.539l1.809,1.252c2.677,1.853,5.417,3.352,7.744,4.573l1.807,0.948l-0.357-2.008
		L406.343,169.875z"/>
</g>
<g>
	<path style="fill:#A472A5;" d="M436.209,248.105l-2.584,0.669l2.388,1.194c4.417,2.208,8.753,4.68,12.886,7.346l0.552,0.356
		l0.546-0.365c19.054-12.748,34.609-30.808,43.803-50.855l0.039-0.085l0.022-0.091c0.206-0.831,0.45-1.708,0.725-2.607l-1.809-0.814
		C478.478,226.293,458.388,242.364,436.209,248.105z"/>
	<path style="fill:#A472A5;" d="M309.649,109.567c-2.574,3.846-4.922,8.048-2.948,13.402c0.605,1.639,1.412,3.188,2.194,4.686
		c0.646,1.237,1.313,2.517,1.84,3.808c1.22,2.973,1.634,5.654,1.266,8.193c-0.185,1.251-0.793,2.659-1.436,4.15
		c-1.079,2.499-2.194,5.083-1.528,7.482c0.451,1.641,1.795,2.643,3.095,3.611c0.784,0.585,1.596,1.188,2.146,1.901
		c1.072,1.4,1.85,2.954,2.674,4.598c0.51,1.018,1.036,2.071,1.642,3.086c3.608,6.049,10.621,9.034,16.808,11.669
		c1.355,0.577,2.686,1.143,3.95,1.727c2.421,1.12,4.889,2.33,7.275,3.5c5.898,2.891,11.998,5.881,18.268,7.98
		c6.055,2.03,12.406,2.131,18.549,2.23c2.863,0.046,5.823,0.093,8.692,0.338c8.463,0.732,16.788,2.284,24.744,4.613
		c2.708,0.796,5.477,1.746,8.407,2.752c8.102,2.78,16.479,5.655,24.704,5.654c4.927,0,9.233-1.029,13.164-3.146l1.139-0.507
		l-0.805-0.942l-0.148-0.44l-0.432-0.171c-5.641-2.228-11.666-3.404-17.492-4.542c-4.105-0.802-8.35-1.631-12.383-2.817
		c-5.359-1.577-9.663-3.6-13.157-6.184c-1.606-1.188-3.11-2.454-4.566-3.678c-2.953-2.484-6.008-5.053-9.884-6.919
		c-5.085-2.456-9.399-5.208-13.577-8.66c-0.841-0.696-1.675-1.407-2.51-2.119c-3.54-3.019-7.2-6.141-11.542-8.195
		c-2.871-1.353-5.939-2.176-8.905-2.972c-5.95-1.597-11.571-3.105-15.142-8.617c-0.251-0.387-0.041-0.84,0.029-0.969
		c0.199-0.366,0.547-0.612,0.865-0.612c0.081,0,0.162,0.015,0.245,0.045c5.583,2.032,11.523,3.02,18.159,3.019
		c0.376,0,0.753-0.003,1.128-0.009c2.147-0.035,4.316-0.193,6.414-0.347c2.342-0.171,4.763-0.349,7.127-0.349
		c1.145,0,2.192,0.04,3.2,0.122c2.688,0.225,5.343,1.005,7.909,1.76c2.71,0.797,5.513,1.621,8.448,1.84
		c1.23,0.093,2.44,0.144,3.636,0.193c3.399,0.141,6.61,0.273,9.875,1.386c3.204,1.101,6.29,2.702,9.274,4.251
		c0.945,0.491,1.891,0.982,2.84,1.457c5.438,2.739,10.179,3.61,15.811,4.465c2.199,0.333,4.161,1.326,6.238,2.377
		c2.222,1.124,4.52,2.287,7.141,2.579c0.4,0.044,0.801,0.066,1.204,0.066c3.615,0,7.582-1.746,10.61-4.67l0.043-0.041l0.038-0.046
		c2.996-3.674,3.982-8.283,2.704-12.644c-1.618-5.499-6.232-8.661-13.341-9.146l-1.072-0.07c-3.423-0.218-6.656-0.425-9.677-2.114
		c-1.085-0.609-2.108-1.227-3.11-1.831c-2.728-1.645-5.303-3.198-8.601-4.315c-0.645-0.217-1.3-0.43-1.959-0.645
		c-5.113-1.664-10.401-3.384-13.586-7.692c-1.637-2.213-2.332-5.037-3.004-7.768c-1.072-4.353-2.181-8.854-7.004-11.263
		c-3.029-1.509-6.391-2.057-9.641-2.587c-2.597-0.423-5.282-0.861-7.696-1.792c-4.767-1.833-7.718-5.164-9.568-10.799
		c-4.075-12.387-9.091-18.409-15.332-18.409c-1.576,0-3.218,0.412-4.877,1.223c-4.589,2.237-9.137,4.245-14.317,4.245
		c-1.115,0-2.262-0.092-3.406-0.273c-2.433-0.391-4.416-1.365-6.515-2.396c-1.018-0.5-2.069-1.017-3.202-1.481
		c-1.072-0.441-2.175-0.665-3.276-0.665c-2.223,0-4.182,0.918-5.517,2.586c-0.614,0.77-1.057,1.689-1.485,2.578
		c-0.359,0.747-0.699,1.452-1.113,2.03c-1.664,2.305-3.814,4.447-6.573,6.548c-0.823,0.623-2.015,1.232-3.275,1.877
		c-2.068,1.058-4.206,2.152-5.317,3.615c-1.217,1.6-0.803,4.09-0.402,6.498c0.244,1.471,0.497,2.993,0.284,3.944
		C313.374,104.017,311.481,106.838,309.649,109.567z M468.358,148.544c1.819,1.403,2.473,3.947,1.702,6.138
		c-0.05-0.364-0.084-0.738-0.119-1.122c-0.158-1.741-0.339-3.713-2.228-5.168c-0.642-0.498-1.338-0.859-2.054-1.124
		C466.671,147.545,467.587,147.947,468.358,148.544z M460.078,151.884c0.328-0.525,0.756-0.78,1.308-0.78
		c0.505,0,1.064,0.216,1.571,0.608c1.136,0.882,1.795,2.526,1.533,3.824c-0.182,0.898-0.77,1.488-1.737,1.747
		c-0.079,0.011-0.157,0.025-0.235,0.047c-0.224,0.064-0.461,0.096-0.706,0.096c-0.954,0-2.078-0.517-2.439-1.676
		C458.977,154.501,459.442,152.907,460.078,151.884z M377.02,133.62c-0.518-0.8-0.852-1.644-1.068-2.523
		c0.147,0.501,0.34,0.996,0.593,1.481c1.028,1.956,2.641,3.189,4.31,4.279C378.995,136.257,377.695,134.656,377.02,133.62z
		 M370.506,109.445c0.552-3.354,4.462-7.608,8.07-7.608c0.645,0,1.26,0.14,1.839,0.419c-0.787,0.449-1.629,0.773-2.448,1.088
		c-2.228,0.857-4.531,1.744-5.696,4.965c-1.477,4.04,0.833,6.485,3.115,8.46l0.235,0.203l0.309,0.034
		c0.388,0.044,0.796,0.056,1.194,0.066l1.565,0.041l-0.621-1.438c-0.411-0.951-0.458-2.24-0.13-3.535
		c0.529-2.063,1.975-3.879,3.868-4.971c-0.249,0.332-0.514,0.661-0.784,0.998c-0.674,0.839-1.37,1.707-1.91,2.733
		c-1.021,1.969-0.868,3.72-0.584,5.173l0.183,0.93l0.938-0.132c0.816-0.114,1.637-0.269,2.457-0.423
		c1.42-0.267,2.762-0.52,4.071-0.568c0.302-0.011,0.606-0.017,0.912-0.017c2.431,0,4.841,0.356,6.969,1.031
		c2.439,0.774,4.664,2.048,6.436,3.684c0.96,0.881,1.801,1.913,2.614,2.911c1.751,2.149,3.561,4.372,6.695,5.367
		c0.196,0.062,0.273,0.156,0.255,0.317c-0.007,0.056-0.054,0.334-0.395,0.362c-0.251,0.021-0.494,0.033-0.732,0.033h-0.001
		c-1.048,0-1.999-0.212-2.908-0.648l-1.257-0.602l-0.168,1.383c-0.425,3.484-2.204,7.758-5.784,9.201
		c2.383-2.884,4.602-5.641,5.384-9.3l-1.771-0.818c-0.495,0.645-1.235,1.242-2.143,1.73c-1.147,0.621-2.432,0.936-3.816,0.936
		c-1.3,0-2.66-0.289-3.935-0.836c-3.668-1.569-7.33-5.845-6.85-10.016l-1.909-0.515c-0.981,2.247-1.986,4.883-1.491,7.748
		c0.581,3.423,2.948,4.879,5.518,6.015c-2.816-0.194-4.844-1.697-5.747-4.284c-0.948-2.699-0.465-5.877,1.479-9.717l0.795-1.572
		l-1.758,0.123c-1.068,0.075-1.874,0.108-2.613,0.108c-2.708,0-4.523-0.48-5.887-1.556l-0.083-0.066l-0.096-0.047
		C371.524,115.674,370.105,111.845,370.506,109.445z M373.658,138.831c-2.897-1.84-4.046-6.012-4.747-10.536
		C369.545,132.049,370.598,136.019,373.658,138.831z"/>
	<path style="fill:#A472A5;" d="M442.4,292.263c-14.66-12.538-34.228-18.378-61.582-18.378c-11.473,0-22.815,0.961-33.782,1.891
		l-0.591,0.05c-13.762,1.168-28.414,2.308-42.94,2.308c-20.717,0-37.896-2.31-54.061-7.267
		c-14.669-4.501-28.596-10.833-41.395-18.822c-13.042-8.14-21.919-16.167-27.934-25.264c-16.311-24.629-6.096-55.362,11.263-74.893
		c18.434-20.722,45.654-35.108,72.816-38.482l0.947-0.118l-0.073-0.951c-0.48-6.252,0.563-12.401,3.101-18.276
		c4.72-10.902,13.475-15.783,20.058-15.783c2.158,0,4.316,0.462,6.417,1.373c4.287,1.855,7.119,5.643,7.575,10.132
		c0.443,4.367-1.505,8.524-5.211,11.12c-0.042,0.03-0.1,0.045-0.171,0.045c-0.183,0-0.401-0.101-0.531-0.245
		c-0.074-0.083-0.107-0.163-0.1-0.241l0.025-0.25c0.191-1.887,0.431-4.237-0.873-6.131c-1.197-1.76-2.642-2.129-3.642-2.129
		c-1.754,0-3.585,1.133-4.9,3.035c-2.666,3.882-2.44,9.297-1.436,12.755l0.272,0.941l0.946-0.254
		c2.394-0.642,5.041-0.655,7.601-0.669c0,0,2.396-0.014,3.048-0.014c2.851,0,5.91,0.049,8.966,0.41l0.597,0.07l0.343-0.494
		c0.365-0.528,0.72-1.065,1.067-1.597c1.742-2.696,3.144-5.221,2.631-8.831c-0.118-0.846-0.359-1.65-0.593-2.428
		c-0.25-0.832-0.486-1.618-0.552-2.378c-0.131-1.558,0.374-2.695,1.688-3.801l0.916-0.771l-0.922-0.764
		c-6.117-5.07-8.643-12.94-9.685-18.649l-0.173-0.951l-0.956,0.141c-4.97,0.731-10.167,0.907-15.193,1.078
		c-3.775,0.128-7.68,0.26-11.477,0.626c-10.894,1.052-20.871,2.818-30.503,5.4c-34.291,9.198-62.348,26.223-81.136,49.233
		c-9.564,11.723-17.232,25.952-24.861,46.138c-5.477,14.47-8.2,28.013-8.324,41.405l0.008,0.136l0.013,0.081
		c0.777,5.04,1.582,10.252,2.787,15.333c2.36,9.955,5.372,19.088,8.948,27.145c7.224,16.29,17.522,30.185,29.782,40.18
		c12.221,9.963,28.276,17.273,49.085,22.347c10.581,2.582,20.257,4.225,29.582,5.025c3.808,0.323,7.838,0.473,12.685,0.473
		c3.577,0,7.211-0.082,10.725-0.163c1.872-0.042,3.746-0.085,5.706-0.121l0.19-0.02c0.732-0.074,1.471-0.149,2.211-0.233
		c10.077-1.235,19.654-3.115,31.128-5.443c14.684-2.986,31.325-6.37,47.608-6.37c3.609,0,7.15,0.167,10.525,0.495
		c7.164,0.699,14.805,2.384,22.094,4.871l1.116,0.381l0.193-1.163c1.063-6.386-0.223-13.933-3.929-23.069
		c-0.05-0.121-0.024-0.159-0.006-0.186c0.074-0.11,0.288-0.225,0.516-0.225c0.24,0,0.31,0.12,0.335,0.163
		c9.823,17.136,5.175,30.962-2.45,38.186c-12.163,11.525-28.337,15.171-39.763,16.2c-2.893,0.261-5.949,0.394-9.083,0.394
		c-5.393,0-11.277-0.386-17.987-1.18c-2.027-0.245-4.056-0.528-6.086-0.811c-5.472-0.764-11.131-1.554-16.771-1.554
		c-1.318,0-2.614,0.043-3.852,0.13c-12.329,0.854-23.488,5.556-31.833,9.556l0.721,1.859c8.549-2.574,18.363-2.842,26.249-3.058
		c1.592-0.043,3.263-0.065,4.964-0.065c7.479,0,15.089,0.42,22.447,0.826c5.851,0.323,11.899,0.657,17.861,0.779
		c1.62,0.034,3.242,0.053,4.867,0.053c15.421,0,27.521-1.803,38.077-5.674c8.036-2.94,15.237-7.322,21.405-13.025
		c10.951-10.135,19.885-21.61,11.18-36.818c-0.035-0.063-0.143-0.251,0.028-0.546c0.151-0.26,0.421-0.415,0.594-0.415
		c0.038,0,0.119,0,0.232,0.144c1.643,2.087,2.923,4.41,3.803,6.904l1.943-0.333c0-2.332-0.344-4.67-1.024-6.98
		c1.733,3.341,2.412,6.936,2.021,10.716c-0.196,1.869-0.658,4.554-1.75,6.727c-4.547,9.093,0.311,13.958,5.452,19.109
		c1.249,1.252,2.541,2.545,3.723,3.928c6.249,7.311,9.856,15.884,10.432,24.794c0.969,15.165-6.03,28.664-20.24,39.037
		c-11.396,8.318-27.253,14.452-43.507,16.83c-5.273,0.772-10.759,1.164-16.305,1.164c-25.683,0-50.822-8.283-75.133-16.293
		c-2.69-0.886-5.376-1.771-8.059-2.643c-16.164-5.252-33.456-10.526-51.514-12.274c-4.684-0.452-9.533-0.682-14.415-0.682
		c-24.683,0-51.113,5.837-74.425,16.437c-14.597,6.64-29.006,14.194-42.828,22.452c-21.296,12.708-41.785,27.478-60.898,43.9
		l1.19,1.601c10.72-6.859,22.163-14.124,33.853-20.908c25.122-14.579,48.137-24.733,70.361-31.043l0.091-0.026l0.085-0.043
		c19.794-9.952,43.064-15.211,67.293-15.211c7.184,0,14.441,0.467,21.569,1.389c15.819,2.05,31.056,6.354,45.286,12.789
		c6.191,2.802,12.294,6.087,18.195,9.264c9.538,5.135,19.401,10.444,29.976,13.905c12.588,4.12,26.178,6.208,40.393,6.208
		c18.147-0.001,37.322-3.489,55.451-10.088c29.763-10.841,50.645-33.587,57.292-62.405
		C476.283,344.947,465.395,311.927,442.4,292.263z"/>
	<path style="fill:#A472A5;" d="M69.523,175.172c12.797-0.294,26.173-2.932,39.759-7.839c8.815-3.202,15.659-6.402,21.537-10.072
		c1.107-0.691,2.296-1.356,3.555-2.061c4.259-2.382,9.086-5.083,11.467-9.525l0.637-1.187l-1.32-0.266
		c-0.251-0.05-0.518-0.076-0.79-0.076c-2.205,0-4.732,1.68-6.96,3.163c-0.917,0.61-1.783,1.187-2.494,1.554
		c-5.054,2.597-10.509,4.921-16.676,7.107c-12.161,4.298-25.057,7.025-38.328,8.106c-4.025,0.327-8.125,0.493-12.185,0.493
		c-8.968,0-18.042-0.804-26.969-2.391c-6.74-1.203-13.329-2.85-19.585-4.896c-0.609-0.199-1.241-0.4-1.889-0.606
		c-2.722-0.867-5.806-1.849-8.524-3.137l-1.064,1.675c15.832,13.076,35.705,19.987,57.47,19.986
		C67.948,175.2,68.736,175.191,69.523,175.172z"/>
	<path style="fill:#A472A5;" d="M120.598,186.978l-0.075,0.153c-0.708,1.439-1.271,2.784-1.72,4.112
		c-1.474,4.37-2.305,9.01-3.037,13.103c-0.864,4.816-1.635,9.728-2.381,14.479c-0.722,4.603-1.469,9.363-2.299,14.023
		c-3.804,21.382-9.49,36.659-18.438,49.535c-14.045,20.217-35.653,36.382-62.489,46.748l0.553,1.914
		c27.245-5.341,51.631-19.504,68.666-39.88c10.921-13.073,18.461-28.954,22.409-47.199c1.523-7.017,2.424-14.497,3.294-21.731
		c0.577-4.794,1.174-9.751,1.946-14.521c0.553-3.409,0.978-6.808,1.389-10.095c0.972-7.768,1.89-15.105,4.364-22.633l-1.795-0.848
		c-2.965,4.673-6.419,8.953-10.266,12.721L120.598,186.978z"/>
</g>
<g>
	<path style="fill:#6B476B;" d="M501.107,280.424c-3.036-5.332-6.177-10.846-5.593-16.875c0.434-4.501,2.988-8.384,8.04-12.22
		l-0.924-1.744c-4.956,1.671-10.493,2.564-15.847,3.428c-2.93,0.472-5.696,0.918-8.36,1.482l-5.568,1.175
		c-3.27,0.691-6.537,1.382-9.81,2.064c-0.878,0.183-1.747,0.384-2.613,0.583c-0.976,0.225-1.946,0.449-2.92,0.645l-2.891,0.581
		l2.648,1.297c1.3,0.637,2.52,1.67,3.756,2.76c0.545,0.484,1.081,0.966,1.612,1.445c3.267,2.938,6.353,5.714,10.382,7.905
		c4.028,2.203,8.274,4.146,12.381,6.026l1.56,0.715c1.147,0.528,2.297,1.046,3.447,1.564c1.247,0.562,2.493,1.123,3.731,1.695
		c0.313,0.145,0.834,0.448,1.438,0.8c1.534,0.893,3.637,2.116,5.216,2.415l0.342,0.065c0,0,0.638-0.338,0.803-0.429
		c0.243-0.133,0.487-0.267,0.74-0.391l0.93-0.454l-0.486-0.914C502.484,282.841,501.798,281.637,501.107,280.424z"/>
	<path style="fill:#6B476B;" d="M501.3,361.377c0.092-6.363-0.281-12.668-1.108-18.74l-0.21-1.538l-0.01,0.006l-0.012-0.082
		c-0.998-6.666-2.541-13.27-4.587-19.628l-0.405-1.259l-0.016,0.01l-0.144-0.425c-1.866-5.526-4.103-10.854-6.647-15.835l-0.69-1.35
		l-0.015,0.018c-3.171-6.014-6.811-11.644-10.821-16.732l-0.878-1.114l-0.016,0.025l-0.115-0.142
		c-3.822-4.715-8.082-9.169-12.662-13.238l-1.119-0.995l-0.008,0.024l-0.103-0.089c-4.085-3.526-8.38-6.772-12.765-9.649
		l-0.139-0.091l-0.161-0.042c-0.224-0.057-0.398-0.211-0.507-0.331l-0.088-0.098l-0.11-0.071c-0.518-0.336-1.05-0.658-1.579-0.978
		l-2.486-1.52l0.004,0.034c-4.959-2.944-10.182-5.626-15.553-7.964l-2.088-0.909l0.017,0.048
		c-5.643-2.358-11.509-4.438-17.458-6.173l-0.442-0.129v-0.001l-0.212-0.061l-1.323-0.386l0.009,0.023
		c-4.819-1.345-9.754-2.512-14.694-3.458l-1.226-0.235c0-0.001-0.002-0.008-0.002-0.008l-0.601-0.109
		c-2.788-0.505-5.239-0.91-7.497-1.236c-3.486-0.499-7.181-0.932-10.979-1.286l-0.878-0.082l-0.013-0.014l-0.393-0.035
		c-0.233-0.021-0.477-0.035-0.711-0.055l-0.596-0.055l0.009,0.01c-3.667-0.308-7.427-0.558-11.229-0.723l-1.341-0.058l0,0
		l-0.023-0.001l-0.33-0.014l0.001,0.002l-0.254-0.009c-4.165-0.151-8.463-0.228-12.772-0.228c-1.531,0-3.063,0.009-4.595,0.028
		l-1.909,0.023l0.004,0.006c-5.334,0.077-11.077,0.258-18.008,0.571l-1.784,0.081l0.014,0.02
		c-5.309,0.279-10.739,0.703-15.998,1.117l-4.794,0.375l0,0c-4.747,0.361-9.749,0.717-14.719,0.897l-0.567,0.021l-0.001-0.003
		l-0.689,0.022c-2.223,0.073-4.291,0.109-6.321,0.109h-0.001c-3.18,0-6.124-0.087-9.002-0.268l-0.846-0.053l-0.225-0.016
		c-1.491-0.108-2.837-0.228-4.115-0.367c-2.161-0.231-4.404-0.583-6.859-1.076l-0.55-0.11l-0.482-0.106
		c-4.631-1.018-8.979-2.471-12.92-4.319l-0.456-0.214l0.001-0.012l-0.597-0.295c-3.483-1.722-6.705-3.799-9.575-6.174l-0.552-0.456
		l-0.347-0.305c-1.276-1.122-2.416-2.233-3.483-3.395l-0.655-0.713L223,219.453c-0.519-0.607-1.027-1.214-1.517-1.849
		c-1.711-2.228-3.156-4.681-4.298-7.291l-0.404-0.925l-0.235-0.626c-1.103-2.936-1.778-5.962-2.01-8.995l-0.063-0.839l0.005-0.002
		l-0.018-0.709c-0.09-3.378,0.328-6.712,1.242-9.909l0.304-1.065l0.133-0.406c0.76-2.3,1.768-4.538,2.992-6.646
		c0.117-0.199,0.241-0.394,0.366-0.59l0.253-0.401l0.686-1.111l0.192-0.286c1.642-2.444,3.558-4.792,5.695-6.979l0.489-0.5
		l0.393-0.383c2.232-2.172,4.665-4.202,7.233-6.032l0.809-0.576l0.562-0.38c2.753-1.864,5.743-3.612,8.889-5.195l0.851-0.428
		l0.004,0.005l0.707-0.338c2.666-1.273,5.398-2.437,8.118-3.455c0.771-0.287,1.553-0.554,2.334-0.821l1.19-0.407l-0.002-0.003
		l0.17-0.056c3.379-1.109,6.904-2.042,10.478-2.77l1.162-0.237l0.379-0.07c2.792-0.511,5.534-0.891,8.149-1.127l1.237-0.112
		l-0.002-0.006l0.418-0.031c2.186-0.16,4.367-0.242,6.48-0.242c0.674,0,1.348,0.008,2.021,0.024l0.434-1.912
		c-3.861-1.729-7.446-4.087-10.656-7.007l-0.928-0.844l-0.001-0.01l-0.251-0.248c-5.573-5.504-9.407-12.344-11.088-19.779
		l-0.626,0.07c0.021-0.423,0.041-0.844,0.062-1.27l0.103-2.047l-1.27,0.268c-3.266,0.689-6.589,1.51-9.89,2.422l0.002-0.015
		l-0.644,0.185c-0.031,0.009-0.062,0.016-0.093,0.024l-0.657,0.185v0.006l-0.108,0.031c-4.801,1.377-9.619,3.024-14.329,4.89
		l0.003-0.021l-1.599,0.658c-4.89,2.013-9.687,4.323-14.274,6.861l-0.001-0.015l-0.741,0.421l-0.233,0.13v0.002l-0.414,0.235
		c-4.973,2.827-9.675,5.963-14.005,9.316l-0.003-0.03l-0.804,0.647l-0.124,0.097v0.002l-0.518,0.417
		c-5.416,4.357-10.316,9.208-14.574,14.419l-0.011-0.017l-0.884,1.119c-3.507,4.441-6.518,9.088-8.953,13.811
		c-1.211,2.346-2.276,4.777-3.185,7.229l-0.022-0.03l-0.322,0.958l-0.027,0.076l0.001,0.002l-0.264,0.785
		c-1.787,5.32-2.82,10.74-3.086,16.117l-0.027-0.02l-0.011,0.744l-0.011,0.247l0.007,0.005l-0.014,0.921
		c-0.079,5.476,0.674,10.762,2.219,15.738l-0.077-0.035l0.818,2.244c0.934,2.562,1.998,4.87,3.252,7.054
		c1.887,3.302,4.259,6.553,7.027,9.682l-0.116-0.022l2.209,2.279c4.275,4.413,9.436,8.593,15.759,12.772l-0.032,0.013l1.641,1.051
		c3.55,2.274,7.497,4.573,12.072,7.032c0.767,0.405,1.538,0.791,2.308,1.181l-0.035,0.012l2.169,1.079
		c5.483,2.726,11.287,5.207,17.252,7.374l-0.01,0.008l1.732,0.607c5.693,1.994,11.564,3.713,17.451,5.109l0.74,0.175l0.004-0.006
		l1.115,0.253c5.208,1.182,10.752,2.159,16.478,2.912l-0.021,0.025l1.803,0.22c6.201,0.758,12.64,1.225,19.136,1.387l0.322,0.008
		l-0.003,0.006l1.519,0.026c1.112,0.019,2.226,0.029,3.34,0.029c2.929,0,5.934-0.067,8.93-0.2c1.673-0.069,3.348-0.16,5.033-0.259
		l-0.004,0.007l1.975-0.129c6.684-0.437,13.518-1.052,20.127-1.646l0.232-0.021l-0.001,0.003l1.949-0.177
		c4.04-0.367,8.215-0.744,12.321-1.068l1.593-0.122c6.993-0.534,13.145-0.85,18.805-0.967l0.771-0.016l0.001-0.003l0.91-0.012
		c0.897-0.012,1.795-0.018,2.692-0.018c3.74,0,7.411,0.107,10.918,0.316l1.19,0.08c4.655,0.313,9.256,0.844,13.673,1.579l0.719,0.12
		l0.009-0.017l0.798,0.145c1.65,0.299,3.102,0.585,4.435,0.873c3.959,0.865,7.91,2.077,11.744,3.602l0.41,0.163l-0.001,0.001
		l1.101,0.467c3.33,1.414,6.682,3.148,9.959,5.153l0.696,0.426l0.005-0.005l0.759,0.488c2.113,1.358,4.202,2.866,6.388,4.61
		l0.396,0.315l0.492,0.405c3.35,2.757,6.54,5.865,9.483,9.236l0.372,0.427h0.002l0.376,0.442c3.209,3.783,6.123,7.933,8.676,12.332
		l0.565,1.003c2.309,4.095,4.284,8.366,5.888,12.732l0.252,0.671l0.415,1.218c1.558,4.575,2.731,9.281,3.489,13.987l0.081,0.506
		l0.003,0.001l0.115,0.779c0.781,5.306,1.06,10.806,0.831,16.347l-0.05,0.944c-0.306,5.761-1.197,11.532-2.649,17.152l-0.147,0.566
		l-0.18,0.662c-1.232,4.536-2.879,9.045-4.894,13.403L465.819,393l0.017,0.02l-0.406,0.834c-1.472,3.024-3.088,5.921-4.819,8.634
		c-0.102,0.17-0.213,0.333-0.323,0.496l-0.351,0.522l0.003,0.018l-0.591,0.878c-2.842,4.224-6.115,8.219-9.73,11.875l-0.27,0.272
		l-0.001,0.019l-0.867,0.846c-3.07,2.994-6.392,5.773-10.157,8.496l-0.341,0.246l-0.005,0.037l-1.314,0.902
		c-3.736,2.568-7.819,4.974-12.134,7.152l-0.149,0.075l-1.04,0.509c-4.397,2.151-9.193,4.13-14.258,5.884l-0.481,0.167l-0.001,0.004
		l-0.857,0.286c-3.365,1.122-6.866,2.148-10.407,3.064l-1.561,0.395c-0.982,0.249-1.957,0.487-2.938,0.714
		c-3.893,0.889-7.84,1.648-11.731,2.257l-0.509,0.079l-0.003,0.006l-0.839,0.124c-5.033,0.741-10.169,1.253-15.268,1.521
		l-0.283,0.015l-1.008,0.045c-2.178,0.096-4.38,0.145-6.545,0.145c-2.979,0-5.983-0.092-8.93-0.274l-0.635-0.039l-0.003,0.005
		l-0.365-0.025c-5.396-0.372-10.802-1.071-16.075-2.073l-1.375-0.279c-5.341-1.085-10.541-2.49-15.455-4.176l-0.835-0.287l0,0
		l-0.148-0.052c-2.201-0.774-4.375-1.614-6.463-2.498c-2.117-0.892-4.322-1.896-6.743-3.068l-0.751-0.364l-0.001,0.001l-0.255-0.125
		c-4.408-2.155-8.792-4.511-13.033-6.793l0.001-0.002l-0.992-0.536c-4.467-2.412-8.854-4.76-13.39-6.98l0.005-0.007l-1.086-0.524
		c-2.778-1.34-5.351-2.496-7.863-3.533c-1.82-0.753-3.836-1.523-6.343-2.427l-0.738-0.266l-0.005,0.008l-0.009-0.003
		c-3.261-1.162-6.599-2.218-10.205-3.231l-0.066-0.018l0.001-0.004l-0.412-0.112l-0.381-0.107l-0.001,0.003l-0.35-0.095
		c-5.273-1.43-10.727-2.611-16.21-3.512l-0.274-0.045l0.002-0.008l-1.109-0.169c-2.357-0.358-4.505-0.639-6.559-0.855
		c-2.317-0.26-4.698-0.464-7.279-0.625l-0.854-0.053l-0.002,0.006l-0.432-0.023c-2.706-0.146-5.492-0.22-8.281-0.22
		c-2.053,0-4.158,0.04-6.26,0.119l-0.244,0.009l0.002-0.014l-1.197,0.055c-9.297,0.427-18.692,1.659-27.926,3.662l0.322,1.971
		c7.017-0.776,14.052-1.17,20.909-1.17c2.235,0,4.487,0.042,6.692,0.125l0.963,0.036l0.004,0.012l0.651,0.032
		c5.084,0.247,9.679,0.654,14.045,1.242l0.922,0.124l0.006,0.015l0.553,0.08c4.632,0.666,9.119,1.521,13.337,2.542l1.512,0.366
		l-0.001-0.005l0.337,0.086c4.98,1.275,9.812,2.811,14.358,4.564l1.115,0.43l0.003,0.028l0.556,0.226
		c2.985,1.21,5.567,2.355,7.895,3.5l1.012,0.499v0.015l0.543,0.279c2.418,1.24,4.619,2.463,6.803,3.776
		c2.255,1.117,4.416,2.29,6.232,3.29l1.628,0.896v-0.001l0.236,0.132c1.628,0.91,3.24,1.833,4.84,2.749
		c1.229,0.704,2.451,1.403,3.668,2.09c0.844,0.475,4.421,2.506,5.336,3.025l0.001,0.009l2.56,1.457
		c3.528,2.008,7.061,4.019,10.605,6l1.179,0.659v0.007l0.467,0.257c2.983,1.643,5.438,2.968,7.735,4.173
		c1.092,0.561,2.175,1.112,3.267,1.663l0.734,0.371l-0.001,0.008l0.65,0.324c5.255,2.617,10.418,4.969,15.347,6.99l1.225,0.502
		l0.001-0.008c5.599,2.253,10.848,4.086,16.044,5.601l1.441,0.42l-0.002-0.018l0.293,0.081c5.59,1.554,11.138,2.747,16.49,3.546
		l1.759,0.262l-0.01-0.023l0.013,0.002c5.491,0.753,11.016,1.18,16.419,1.27l1.501,0.025l-0.011-0.027l1.001,0.003
		c5.334,0,10.606-0.299,15.671-0.888l1.511-0.175l-0.008-0.015l0.392-0.051c4.99-0.652,9.845-1.554,14.429-2.681l1.961-0.482
		l-0.019-0.015c2.108-0.548,4.191-1.142,6.19-1.77c1.986-0.626,4.032-1.336,6.082-2.108l1.335-0.503l-0.006-0.007l0.345-0.136
		c4.825-1.901,9.536-4.109,14.005-6.563l0.397-0.217l0.003,0.01l1.093-0.62c5.663-3.21,11.092-6.892,16.133-10.94l0.639-0.513
		l0.001,0.001l0.068-0.057l0.148-0.119l-0.002-0.002l0.567-0.469c1.979-1.638,3.869-3.301,5.617-4.942
		c2.783-2.62,6.404-6.134,9.722-10.096l0.429-0.513l0.001,0.001l0.074-0.092l0.39-0.466l-0.009-0.004l0.154-0.19
		c2.28-2.811,4.392-5.725,6.273-8.657c2.036-3.146,3.919-6.482,5.757-10.201l0.046-0.094l0.004,0.003l0.2-0.418l0.19-0.384
		l-0.004-0.002l0.118-0.245c3.545-7.377,6.288-15.274,8.153-23.471l0.328-1.44l-0.021,0.003l0.027-0.127
		c1.518-7.123,2.39-14.455,2.592-21.791l0.039-1.436l-0.033,0.011L501.3,361.377z"/>
	<path style="fill:#6B476B;" d="M504.805,246.144c-7.029-6.98-11.394-16.136-12.289-25.776c-0.086-1.003-0.126-2.081-0.126-3.395
		l-1.877-0.48c-8.565,15.652-19.922,28.738-33.755,38.894l0.818,1.78c1.211-0.282,2.467-0.521,3.681-0.754
		c1.111-0.212,2.215-0.423,3.288-0.664c5.026-1.104,10.068-2.155,14.336-3.037c2.368-0.487,4.789-1.088,7.35-1.724
		c5.952-1.477,12.107-3.004,17.891-3.136l2.35-0.053L504.805,246.144z"/>
	<path style="fill:#6B476B;" d="M489.191,299.567l0.812-1.704c1.918-4.032,4.979-7.568,8.853-10.225l1.941-1.332l-2.306-0.473
		c-1.387-0.285-2.827-0.927-4.22-1.548c-0.494-0.22-0.982-0.438-1.462-0.637c-4.535-1.865-9.379-4.005-14.807-6.542
		c-1.964-0.917-3.547-1.693-4.981-2.44l-1.186,1.577c6.345,6.657,11.862,13.957,16.401,21.696L489.191,299.567z"/>
	<path style="fill:#6B476B;" d="M419.797,48.952l1.015,1.912l0.798-2.012c2.18-5.497,1.399-11.663-2.141-16.917l-1.603-2.379
		l-0.021,0.261c-1.962-2.281-4.356-4.207-7.141-5.715c-1.706-0.92-3.508-1.669-5.357-2.227l-3.103-0.936l0.174,0.215
		c-1.964-0.39-3.966-0.6-5.972-0.6c-0.24,0-0.48,0.003-0.717,0.008c-0.519,0.011-1.025,0.042-1.534,0.095l-2.186,0.226l0.082,0.077
		c-1.762,0.33-3.469,0.823-5.119,1.302c-1.223,0.355-2.488,0.722-3.758,1.016l-1.395,0.322l0.782,1.198
		c1.209,1.851,2.228,3.884,3.03,6.042l0.134,0.359l0.028,0.015l0.292,0.927c0.814,2.589,1.235,5.233,1.254,7.864
		c0.004,0.276-0.134,0.575-0.376,0.821c-0.255,0.258-0.581,0.412-0.875,0.412c-0.167,0-0.317-0.05-0.454-0.15
		c-3.648-2.697-8.248-4.622-13.301-5.569l-0.365,1.444c-1.147-0.325-2.303-0.607-3.47-0.807c-1.425-0.244-2.862-0.29-4.252-0.334
		c-0.571-0.019-1.143-0.037-1.71-0.069l-0.441-0.025l-0.315,0.31c-0.467,0.458-0.947,0.9-1.429,1.345
		c-1.264,1.166-2.57,2.371-3.644,3.855c-0.939,1.305-1.797,2.77-2.552,4.354l-1.042,2.188l0.132-0.047
		c-0.471,1.203-0.903,2.456-1.261,3.767c-0.304,1.115-0.553,2.276-0.762,3.551l-0.281,1.71l0.055-0.021l-0.021,0.192
		c-0.267,2.403-0.321,4.93-0.164,7.511l0.03,0.492l-0.009,0.005l0.02,0.184l0.056,0.917l0.056-0.032
		c0.073,0.563,0.154,1.12,0.244,1.648c0.239,1.42,0.447,2.647,0.21,3.863l-0.208,1.065l1.078,0.12
		c0.836,0.094,1.683,0.141,2.517,0.141c3.65,0,7.257-0.892,10.72-2.654c2.699-1.38,5.135-2.052,7.446-2.052
		c3.04,0,6.008,1.191,9.074,3.643l1.75,1.4l-0.128-2.238c-0.074-1.299-0.061-2.672,0.039-4.082l0.033-0.465l-0.018-0.018
		l0.171-1.374c0.158-1.268,0.386-2.503,0.678-3.671l0.122-0.491l-0.021-0.025l0.345-1.136c0.525-1.734,1.208-3.4,2.028-4.954
		l0.254-0.482l-0.019-0.033l0.514-0.84c0.584-0.956,1.24-1.887,2.007-2.848l0.123-0.154l0.63-0.701
		c1.21-1.348,2.553-2.529,3.991-3.512l0.389-0.266l0.002-0.022l0.873-0.516c1.121-0.663,2.307-1.229,3.531-1.688
		c0.366-0.141,0.741-0.262,1.117-0.375l0.683-0.205v-0.008l0.225-0.059c1.777-0.468,3.618-0.706,5.471-0.706
		c0.198,0,0.398,0.003,0.596,0.008l0.733,0.021l0.621,0.065c1.271,0.132,2.526,0.4,3.733,0.795l0.618,0.203l0.209,0.084
		c0.521,0.21,1.132,0.469,1.725,0.8C417.087,45.394,418.81,47.092,419.797,48.952z"/>
	<path style="fill:#6B476B;" d="M406.885,84.267l1.406-0.014c1.334-0.014,2.304-0.215,2.957-0.608
		c3.004-1.769,4.224-6.007,2.56-8.89c-0.346-0.6-0.76-1.079-1.082-1.429l-1.54-1.674l-0.031,0.367
		c-1.347-0.895-3.043-1.557-5.076-1.948l-0.354-0.068l-0.001-0.001l-0.029-0.004l-1.294-0.249l0.026,0.08
		c-0.343-0.044-0.691-0.096-1.017-0.121c-0.852-0.069-1.684-0.104-2.476-0.104c-0.94,0-1.861,0.049-2.736,0.147l-1.671,0.186
		l0.062,0.089c-2.327,0.433-4.469,1.202-6.354,2.331l-0.003,0.002l-0.007-0.005l-0.177,0.116l-1.188,0.711l0.092,0.06
		c-0.83,0.599-1.623,1.243-2.334,1.961l-0.599,0.605l0.502,0.688c1.089,1.491,1.998,3.068,2.7,4.689
		c0.528,1.217,0.942,2.553,1.289,3.709l0.914,3.051l0.994-3.026c0.176-0.536,0.385-1.092,0.622-1.653l0.058-0.137l0.068-0.634
		l1.514-2.104c1.096-1.522,2.385-2.699,3.832-3.498l0.375-0.207l0.046-0.171l0.803-0.196c0.073-0.018,0.148-0.045,0.203-0.067
		c0.803-0.281,1.676-0.429,2.525-0.429c0.559,0,1.104,0.063,1.621,0.187l0.66,0.159l0.593,0.307c0.75,0.389,1.314,0.871,1.733,1.49
		c0.127,0.18,0.238,0.374,0.34,0.592l0.164,0.356l0.099,0.423c0.239,1.02,0.127,2.199-0.345,3.603L406.885,84.267z"/>
	<path style="fill:#6B476B;" d="M401.738,333.841c-15.815,16.954-43.467,19.917-54.622,20.403c-2.415,0.106-4.878,0.157-7.531,0.157
		c-0.001,0-0.001,0-0.002,0c-6.938,0-13.933-0.363-21.086-0.767l-0.162,1.993c7.686,0.818,15.174,2.046,22.254,3.651
		c9.03,2.044,36.511,8.264,45.896,24.359l1.862-0.566c-1.065-17.097,3.639-28.3,13.978-33.297l0.696-0.337l-0.151-0.759
		c-0.936-4.69-0.747-9.359,0.561-13.876L401.738,333.841z"/>
	<path style="fill:#6B476B;" d="M274.612,355.223l-0.123,1.991c8.068,1.068,15.969,3.473,23.482,7.147
		c14.115,6.884,26.748,17.985,37.547,32.995l0.795,1.105l0.816-1.089c4.096-5.461,11.8-7.337,18.798-8.453
		c4.523-0.723,9.249-1.089,14.045-1.089c4.835,0,9.771,0.354,15.092,1.082l2.035,0.278l-1.036-1.773
		c-4.565-7.818-10.425-13.267-18.996-17.665c-8.557-4.392-18.612-7.693-31.645-10.39c-17.704-3.674-35.525-4.18-52.146-4.18
		C280.389,355.184,277.499,355.2,274.612,355.223z"/>
	<path style="fill:#6B476B;" d="M353.756,33.425l0.773-0.189v-0.002l0.561-0.109c2.042-0.396,4.232-0.597,6.511-0.597
		c0.695,0,1.392,0.019,2.089,0.053l0.196,0.01l1.135,0.089c1.461,0.114,3.025,0.325,4.777,0.641l1.181,0.242
		c3.95,0.809,8.014,2.075,12.077,3.764l1.733,0.72l-0.368-1.84c-1.283-6.41-4.574-12.176-9.518-16.673l-2.248-2.045l0.046,0.23
		c-3.13-2.371-6.603-4.125-10.341-5.207c-0.582-0.164-1.163-0.307-1.756-0.45l-0.487,0.95c-0.531-0.464-1.094-0.905-1.704-1.311
		l-0.181-0.12l-0.213-0.035c-1.977-0.32-4.02-0.482-6.069-0.482c-2.256,0-4.569,0.196-6.876,0.583l-3.352,0.563l0.217,0.093
		c-4.297,1.037-8.492,2.679-12.477,4.897l0.213,0.805c-0.489,0.004-0.977,0.017-1.465,0.051l-0.243,0.017l-0.208,0.126
		c-1.64,0.997-3.16,2.03-4.517,3.069c-2.157,1.64-4.266,3.556-6.265,5.693l-0.919,0.983h-0.001l-0.006,0.006l-1.348,1.441
		l0.172-0.041c-3.475,4.234-6.185,8.908-8.046,13.926l1.211,0.755c-0.38,0.294-0.763,0.589-1.169,0.896l-0.603-0.062l-0.244,0.779
		c-0.597,1.903-1.065,3.817-1.391,5.684c-0.35,1.972-0.558,4.029-0.635,6.291l-0.098,2.839l0.12-0.139
		c0.095,3.226,0.513,6.399,1.277,9.438l0.801,3.188l0.08-0.223c0.757,2.194,1.779,4.472,3.219,7.146l0.38,0.704l-0.004,0.007
		l0.268,0.487c0.015,0.028,0.031,0.055,0.046,0.083l0.304,0.564l0.004-0.011c0.23,0.414,0.46,0.828,0.693,1.243
		c0.633,1.129,1.27,2.265,1.885,3.426l0.54,0.886l0.898-0.521c3.503-2.03,7.124-4.129,10.102-7.107
		c1.466-1.465,2.605-3.479,3.705-5.426c2.059-3.642,4.003-7.082,7.83-7.082c0.324,0,0.664,0.024,1.009,0.072
		c0.757,0.106,1.521,0.298,2.269,0.569l2.688,0.975l-1.494-2.438c-0.4-0.652-0.73-1.252-1.012-1.833l-0.143-0.295l-0.099-0.052
		l-0.516-1.329c-0.633-1.627-1.095-3.354-1.375-5.134l-0.063-0.399l-0.028-0.021l-0.112-1.15c-0.135-1.388-0.153-2.792-0.057-4.174
		l0.036-0.527l-0.005-0.004l0.113-0.904c0.147-1.179,0.402-2.387,0.757-3.591l0.158-0.537l-0.003-0.003l0.263-0.703
		c0.578-1.548,1.311-2.959,2.181-4.194l0.233-0.331l-0.01-0.061l0.798-0.901c0.613-0.692,1.236-1.289,1.901-1.819
		c1.292-1.021,2.689-1.921,4.15-2.676l0.574-0.297v-0.01l0.948-0.415C350.602,34.33,352.131,33.821,353.756,33.425z"/>
	<path style="fill:#6B476B;" d="M304.702,111.602l0.803-1.434l-1.642-0.055c-1.117-0.037-2.239-0.092-3.359-0.146l-1.143-0.054
		v-0.001l-0.322-0.014l-0.435-0.021l-0.001,0.001l-1.198-0.054c-0.695-0.033-1.395-0.066-2.089-0.081l-1.092-0.023l0,0h-0.022
		l-0.825-0.017l-0.003,0.013l-0.459-0.002c-1.898-0.01-3.602-0.038-5.235-0.27l-1.964-0.279l0.943,1.745
		c1.231,2.278,2.995,4.039,5.39,5.386l1.781,1.002l-0.02-0.135c1.127,0.493,2.362,0.936,3.778,1.351l0.579,0.17v0.004l0.183,0.05
		l1.097,0.322l-0.01-0.029c1.189,0.318,3.318,0.883,3.318,0.883l-0.037-1.337c-0.02-0.686,0.016-1.322,0.108-1.936
		C303.08,115.035,303.676,113.434,304.702,111.602z"/>
	<path style="fill:#6B476B;" d="M289.612,80.216l-0.274-0.023l0.093-0.133l-2.056,0.113c-2.344,0.129-4.638,0.745-6.628,1.777
		c-0.434,0.22-0.877,0.475-1.376,0.789l0.005-0.116l-1.082,0.821l-0.048,0.032v0.004l-0.56,0.424
		c-1.993,1.512-3.77,3.408-5.285,5.633l-0.035-0.209l-1.392,2.52c-1.09,1.972-1.983,4.119-2.685,6.381l-0.035-0.033l-0.206,0.796
		c-0.003,0.012-0.007,0.023-0.011,0.035l-0.186,0.655l0.016,0.012l-0.035,0.137c-0.746,2.881-1.15,5.762-1.202,8.553
		c0,0.019,0,0.038,0,0.057l-0.061-0.055l0.092,2.375c0.145,3.737,0.864,7.412,2.114,10.936l-0.099-0.038l0.923,2.174
		c1.563,3.68,3.752,7.092,6.497,10.162l-0.105,0.01l1.49,1.502c4.165,4.196,9.35,7.41,14.993,9.294l0.312,0.104l-0.012,0.017
		l1.372,0.392c3.409,0.975,6.956,1.469,10.541,1.469c0.424,0,0.85-0.007,1.275-0.021l0.682-0.022l0.228-0.643
		c0.18-0.506,0.366-1.013,0.553-1.518c0.955-2.587,1.857-5.031,1.774-7.175c-0.142-3.653-1.781-6.762-3.367-9.768
		c-1.025-1.945-1.995-3.782-2.584-5.751l-0.296-0.988l-0.979,0.326c-0.789,0.263-1.645,0.41-2.613,0.45l-0.426,0.017l-0.546-0.027
		c-1.789-0.088-3.733-0.605-5.622-1.496l-0.832-0.392l0.001-0.015l-0.563-0.319c-1.226-0.693-2.357-1.504-3.362-2.412l-0.409-0.369
		l0.006-0.006l-0.628-0.687c-1.494-1.633-2.651-3.535-3.442-5.655l-0.227-0.607l-0.171-0.576c-0.536-1.81-0.798-3.68-0.778-5.556
		l0.007-0.684l0.049-0.583c0.09-1.065,0.245-2.05,0.472-2.99c0.046-0.175,0.102-0.359,0.156-0.534l0.211-0.674l0.096-0.268
		c0.413-1.151,0.973-2.291,1.619-3.297l0.581-0.904l0.041,0.001l0.307-0.381c0.64-0.794,1.315-1.453,2.01-1.958l0.341-0.248
		l0.497-0.278c0.906-0.506,1.854-0.762,2.817-0.762c0.097,0,0.194,0.003,0.293,0.008l0.631,0.034l0.627,0.172l0.264,0.066
		c0.845,0.276,1.563,0.727,2.194,1.377l0.303,0.313l0.254,0.363c0.779,1.116,1.265,2.613,1.402,4.327l0.232,2.89l1.599-2.419
		c1.26-1.905,1.813-4.321,1.56-6.803l-0.033-0.323l0.055-0.008l-0.101-0.443l-0.038-0.37l-0.044,0.011l-0.059-0.258
		c-0.396-1.744-1.209-3.342-2.344-4.617c-0.058-0.066-0.118-0.125-0.221-0.22l-0.035-0.04l0.131-0.048l-0.558-0.432l-0.024-0.028
		l-0.007,0.003l-0.835-0.647C294.816,81.376,292.326,80.44,289.612,80.216z"/>
	<path style="fill:#6B476B;" d="M155.069,418.935c-1.751,0.909-3.553,1.788-5.294,2.639c-4.338,2.118-8.823,4.308-13.01,7.174
		c-7.223,4.94-13.683,10.554-19.199,16.686c-7.378,8.192-12.368,16.065-15.257,24.07c-2.772,7.683-3.177,15.16-1.353,25.001
		l0.08,0.432l0.756,0.471c0.187,0.114,0.372,0.228,0.554,0.346l1.901,1.229l-0.372-2.233c-1.255-7.541,1.786-16.016,7.938-22.116
		c8.5-8.423,20.857-11.972,32.808-15.404c1.718-0.493,3.418-0.982,5.084-1.478l0.884-0.264l-0.191-0.902
		c-2.862-13.499-0.708-25.941,5.91-34.134L155.069,418.935z"/>
	<path style="fill:#6B476B;" d="M112.955,447.875c6.054-7.432,13.088-13.914,20.91-19.267c4.628-3.169,10.767-7.135,17.214-9.696
		l-0.57-1.909c-25.273,5.2-66.242,17.213-129.968,61.317l0.827,1.788c6.552-1.748,13.572-2.635,20.867-2.635
		c17.707,0,36.959,5.254,54.21,14.794l1.941,1.074l-0.48-2.166C96.604,485.312,95.462,469.352,112.955,447.875z"/>
	<path style="fill:#6B476B;" d="M134.26,398.929c2.9-1.265,5.995-2.608,9.156-3.89l-0.508-1.918
		c-8.881,1.179-17.808,3.263-27.29,6.371c-2.353,0.77-4.698,1.555-7.043,2.339c-9.003,3.011-18.313,6.126-27.756,8.266
		c-12.576,2.849-24.959,4.385-36.805,4.565c-0.51,0.008-1.016,0.012-1.519,0.012c-4.599,0-8.548-0.382-12.115-1.166
		c2.546,0.335,5.296,0.509,8.296,0.509c4.257,0,8.393-0.312,12.605-0.659c12.268-1.003,24.732-3.276,37.05-6.754
		c5.822-1.644,11.862-3.792,17.704-5.871c11.544-4.106,23.479-8.353,35.396-9.446l-0.02-1.993
		c-7.938-0.574-16.066-2.112-24.163-4.569c-7.093-2.145-14.012-5.019-20.565-8.544c-3.245-1.744-6.388-3.886-9.426-5.957
		c-3.276-2.233-6.665-4.543-10.237-6.399l-1.43-0.744l-0.031,1.612c-0.181,9.478-6.399,18.805-18.483,27.724
		c-10.567,7.78-23.371,12.976-37.025,15.026l-1.274,0.191l0.502,1.187l0.785,1.879l0.411,1.078
		c7.62,19.959,6.556,43.327-2.779,60.986l1.559,1.205c21.389-19.57,44.794-36.954,69.565-51.668
		C103.678,413.478,118.966,405.614,134.26,398.929z"/>
	<path style="fill:#6B476B;" d="M12.777,149.677l-2.006,1.048l2.125,0.777c1.161,0.425,2.319,0.885,3.471,1.342
		c1.773,0.704,3.606,1.432,5.388,2.001c5.984,1.917,12.078,3.461,18.11,4.591c8.996,1.691,18.331,2.548,27.744,2.548
		c2.95,0,5.947-0.085,8.906-0.253c12.551-0.706,24.991-2.992,36.978-6.795c6.821-2.165,13.844-5.14,22.101-9.363l-0.688-1.863
		c-6.637,1.586-13.061,2.391-19.099,2.391c-2.46,0-4.855-0.138-7.118-0.411c-8.453-1.026-17.041-4.015-27.846-9.693
		c-17.324-9.101-31.272-21.134-41.453-35.766l-1.812,0.709c1.552,11.182-1.242,21.765-8.543,32.354
		C25.068,139.04,19.634,146.094,12.777,149.677z"/>
	<path style="fill:#6B476B;" d="M80.261,133.726c7.745,4.124,18.058,9.001,29.148,10.112c1.538,0.155,3.133,0.233,4.742,0.233
		c6.839,0,13.505-1.413,19.386-2.66l0.023-1.951c-13.446-3.191-25.699-17.074-34.873-28.813
		C87.935,96.907,83.743,81.27,79.304,64.715l-1.928-7.15l-0.954,3.624c-2.078,7.891-6.05,15.679-11.486,22.523
		c-4.324,5.445-13.202,14.581-24.085,14.581l-1.973-0.002l1.164,1.592C49.918,113.391,63.45,124.777,80.261,133.726z"/>
	<path style="fill:#6B476B;" d="M94.01,275.355c9.892-16.615,13.324-35.484,16.644-53.733c0.835-4.596,1.858-10.044,3.121-15.597
		l-1.848-0.711c-2.364,4.207-5.27,8.151-7.807,11.519c-7.256,9.643-15.63,17.774-24.891,24.168
		c-14.929,10.33-32.738,16.018-50.148,16.018c-4.867,0-9.726-0.44-14.441-1.309l-2.826-0.521l1.894,2.163
		c9.839,11.24,10.828,26.078,9.926,36.545c-1.497,17.216-5.839,29.539-13.273,37.672l-1.628,1.781l3.245-0.144l0.128-0.042
		C51.628,320.441,78.419,301.531,94.01,275.355z"/>
	<path style="fill:#6B476B;" d="M13.711,251.226l-2.406,1.314l2.688,0.543c5.008,1.012,10.17,1.525,15.344,1.525
		c16.272,0,32.428-4.927,46.721-14.248c8.914-5.822,17.089-13.259,24.299-22.106l0.79-0.969c5.386-6.603,12.089-14.82,14.206-23.484
		l0.656-2.686l-2.223,1.645c-3.552,2.628-7.226,4.816-10.92,6.504c-7.501,3.425-15.758,5.09-25.243,5.09
		c-11.825,0-23.923-2.659-34.197-5.26l-1.969-0.498l0.806,1.865c3.719,8.602,2.677,19.577-2.721,28.642
		C33.205,239.747,21.765,246.827,13.711,251.226z"/>
</g>
<g>
	<path style="fill:#231F20;" d="M510.89,246.777c-9.729-7.154-15.551-18.817-15.568-30.892c-0.006-4.14,0.943-8.012,2.245-11.78
		c0.87-2.093,1.685-4.213,2.454-6.355c2.271-5.526,4.598-11.022,5.023-17.023c0.005-0.07-0.01-0.132-0.025-0.194
		c0.223-0.995,0.438-1.993,0.642-2.995c0.566-2.785-3.176-3.734-4.193-1.156c-6.625,16.8-15.001,32.609-27.689,45.683
		c-11.172,11.511-25.331,20.198-40.512,25.459c-2.133-1-4.294-1.956-6.484-2.853c-34.785-14.239-73.133-15.263-110.159-13.292
		c-18.806,1.001-38.146,4.068-56.961,2.054c-17.037-1.824-35.799-10.415-41.022-28.201c-5.65-19.237,11.106-35.153,26.559-43.28
		c18.325-9.638,39.015-12.086,59.418-10.028c0.033,0.003,0.061-0.002,0.093,0c0.152,1.752,0.992,3.258,3.073,4.296
		c6.989,3.482,7.145,12.535,13.584,17.168c7.644,5.5,17.673,8.739,26.23,12.553c9.714,4.33,19.174,8.479,29.961,8.871
		c12.086,0.439,23.75,1.287,35.468,4.561c17.813,4.977,38.634,16.546,55.416,2.519c0.996-0.833,0.622-2.517-0.402-3.115
		c-0.659-0.386-1.325-0.744-1.994-1.089c1.567-4.702,0.571-10.651,0.016-15.226c-0.168-1.386-1.551-1.983-2.65-1.098
		c-4.566,3.677-8.899,7.242-14.005,10.034c-1.537-3.554-2.227-7.784-3.202-11.405c-0.301-1.119-1.83-1.915-2.862-1.165
		c-2.982,2.166-5.86,4.559-8.121,7.447c-0.114-3.268-0.119-6.726-0.743-9.79c-0.266-1.308-0.742-2.801-2.263-3.158
		c-1.385-0.326-2.488,0.737-3.501,1.478c-1.598,1.168-3.055,2.522-4.494,3.877c-1.209,1.139-1.891,3.186-3.211,1.313
		c-1.298-1.841,0.183-7.115-0.375-9.335c-0.439-1.742-1.133-3.152-2.962-3.762c-2.914-0.971-6.056,1.163-8.424,3.56
		c-0.297-1.25-0.6-2.498-0.914-3.744c-0.442-1.755-0.626-3.986-2.186-5.159c-3.125-2.347-7.233,1.604-10.103,3.473
		c-0.403-0.31-0.805-0.622-1.205-0.952c-3.723-3.082-7.278-6.399-11.36-9.015c-5.532-3.543-12.918-4.328-19.188-6.709
		c2.338,0.316,4.686,0.541,7.047,0.607c7.07,0.201,14.347-1.514,21.361-0.263c3.425,0.611,6.154,2.38,9.392,3.42
		c2.651,0.852,5.399,0.882,8.158,0.939c0.032,0.001,0.061,0.005,0.093,0.005c0.736,3.435,1.286,6.885,1.697,10.393
		c0.127,1.079,1.366,2.27,2.484,1.426c3.029-2.287,6.059-4.573,9.088-6.86c0.574,3.735,0.948,7.476,1.132,11.264
		c0.063,1.305,1.607,2.525,2.846,1.633c3.003-2.16,5.987-4.347,8.972-6.531c0.887,4.247,1.47,8.5,1.722,12.869
		c0.1,1.727,2.043,2.524,3.332,1.38c2.82-2.502,5.225-5.255,7.286-8.31c0.621,4.54-0.191,9.264,2.302,13.529
		c0.688,1.177,2.248,1.297,3.212,0.414c4.589-4.201,9.457-9.113,12.184-14.787c4.914-1.088,9.08-4.62,10.758-9.708
		c5.583-8.376,1.642-20.842-9.709-23.326c-5.175-1.133-9.801-0.382-14.57-3.282c-3.292-2.002-6.193-3.881-9.838-5.212
		c-3.603-1.316-7.5-2.194-10.848-4.118c-4.454-2.561-5.411-6.466-6.57-11.129c-1.554-6.256-4.924-10.111-10.989-12.247
		c-6.112-2.152-14.413-2.205-19.171-7.044c-0.63-0.64-1.153-1.344-1.602-2.09c0.257-1.845,0.228-3.705,0.751-5.638
		c0.437-1.61,1.01-3.227,2.034-4.567c3.81-4.988,6.521-1.912,7.227,2.93c-0.732,1.299,0.232,2.559,1.56,2.719
		c4.614,0.554,9.627-0.319,11.496-5.171c1.731-4.495-0.539-9.239-4.29-11.865c-6.732-4.712-20.29-4.501-26.107,2.18
		c-0.459-7.828,1.198-16.008,7.144-21.598c3.273-3.077,7.689-5.021,12.178-5.287c3.959-0.234,14.909,2.114,11.474,8.709
		c-1.047,2.011,1.463,4.036,3.157,2.436c10.104-9.548,5.4-24.674-4.507-32.253c-8.478-6.486-25.733-10.287-34.605-2.255
		c-3.635-4.58-8.457-8.272-13.84-10.549c-14.387-6.087-31.524-2.152-44.023,6.449c-11.312,7.785-20.408,19.786-23.004,33.439
		c-0.845,4.442-1.043,9.58-0.439,14.701c-8.245-1.25-17.099-0.319-25.291,0.413c-8.995,0.804-17.944,2.157-26.799,3.925
		c-17.319,3.457-34.173,9.623-49.496,18.434c-13.818,7.945-26.527,18.06-36.947,30.148c-4.123,4.782-7.412,13.219-12.66,16.5
		c-4.142,2.591-10.764,1.781-15.233,0.628c-6.264-1.616-11.743-5.499-16.422-9.845c-7.177-6.668-14.386-14.029-19.783-22.228
		C87.461,88.212,81.654,68.363,78.951,50.14c-0.326-2.201-4.054-2.169-4.413,0c-1.663,10.053-4.235,19.368-10.012,27.918
		c-5.939,8.79-15.386,18.369-26.801,17.407c-0.073-0.015-0.145-0.022-0.219-0.024c-0.3-0.029-0.6-0.06-0.902-0.103
		c-1.178-0.169-2.561,0.73-2.1,2.1c3.745,11.135-1.196,23.478-7.5,32.711c-5.5,8.057-13.612,19.266-24.636,17.943
		c-2.265-0.272-3.037,2.787-1.738,4.196c17.359,18.826,43.703,27.383,68.868,26.715c14.536-0.386,28.955-3.632,42.512-8.805
		c8.948-3.415,18.028-7.526,25.525-13.576c-2.345,1.893-4.425,7.515-6.228,10.302c-2.65,4.097-5.476,8.089-8.622,11.822
		c-5.869,6.964-12.754,13.05-21.059,16.915c-19.795,9.212-42.482,3.427-62.653-1.606c-1.817-0.453-4.022,1.742-2.689,3.498
		c7.666,10.104,4.852,23.498-2.642,32.919c-7.381,9.279-18.036,14.551-28.05,20.406c-1.685,0.985-1.596,3.374,0,4.379
		c13.281,8.365,15.631,25.287,14.22,39.687c-0.774,7.898-2.243,15.879-5.459,23.179c-1.98,4.493-18.206,21.968-3.906,18.324
		c34.646-2.575,67.774-14.833,90.859-42.06c11.248-13.267,18.932-28.802,22.942-45.716c1.798-7.587,2.949-15.314,3.809-23.063
		c2.126,10.691,5.582,21.203,9.678,30.606c7.039,16.159,17.563,30.977,31.452,41.95c14.391,11.37,31.793,18.018,49.463,22.343
		c15.82,3.872,33.709,7.285,50.451,5.545c9.118-0.108,18.327-1.519,27.095-3.009c16.878-2.868,33.576-7.096,50.651-8.692
		c15.049-1.406,30.091-0.303,44.35,4.459c-2.809,6.489-9.323,11.28-15.257,14.646c-14.214,8.062-30.885,9.404-46.885,8.202
		c-15.386-1.156-30.077-4.889-45.46-1.452c-14.64,3.271-28.61,10.673-41.225,18.608c-1.916,1.205-0.683,4.793,1.624,3.852
		c35.551-14.511,71.75,11.314,90.427,40.006c1.23,1.889,3.777,1.398,4.536-0.593c3.226-8.463,15.628-9.681,23.265-10.451
		c9.223-0.931,18.684-0.468,27.702,1.721c1.356,0.329,3.095-0.68,2.955-2.251c-1.176-13.172-3.54-33.031,12.443-38.514
		c1.268-0.435,2-1.63,1.685-2.967c-1.406-5.963-1.13-11.997,1.439-17.595c0.624-1.359,1.369-2.643,2.15-3.907
		c9.178,6.07,17.022,14.319,20.361,24.837c5.164,16.269-3.731,33.187-16.455,43.173c-13.349,10.477-31.206,15.597-47.871,17.317
		c-32.784,3.383-64.156-9.028-94.756-18.912c-16.887-5.454-34.097-10.375-51.84-11.956c-17.335-1.545-34.678,1.52-51.989,2.771
		c-0.845,0.061-1.69,0.122-2.535,0.183c-8.136,0.588-15.765,1.572-23.726,0.034c-8.859-1.712-17.513-2.404-26.163-5.32
		c-7.576-2.555-14.881-5.929-21.722-10.068c-6.47-3.914-12.245-8.817-19.335-11.62c-1.836-0.726-3.265,1.348-2.942,2.942
		c2.693,13.301-10.762,24.346-20.664,30.68c-10.339,6.613-22.054,10.671-34.248,11.968c-1.834,0.195-2.896,1.853-2.049,3.57
		c6.379,12.935,8.483,27.753,6.165,41.987c-2.284,14.023-8.825,25.688-17.17,36.958c-1.102,1.488,0.993,3.245,2.422,2.422
		c28.921-16.656,66.326-8.116,93.413,9.316c0.281,0.458,0.681,0.683,1.102,0.718c2.099,1.384,4.141,2.815,6.101,4.297
		c1.993,1.508,4.673-1.405,3.377-3.377c-6.751-10.271-0.01-22.602,9.117-28.682c9.921-6.609,22.509-9.143,33.769-12.532
		c1.291-0.388,2.025-1.694,1.706-3.004c-3.561-14.631-2.039-32.369,12.436-40.492c12.612-1.45,25.385-1.569,38.012-0.292
		c16.018,1.62,31.538,5.963,46.191,12.471c7.42,4.906,15.485,9.089,23.106,13.564c8.898,5.224,17.853,10.389,26.971,15.222
		c18.129,9.61,37.194,17.388,57.597,20.411c37.532,5.561,76.582-3.802,105.781-28.472c39.512-33.384,51.245-92.608,30.042-139.738
		c-0.931-2.07-1.932-4.091-2.972-6.085c2.572-6.584,7.484-11.884,14.266-14.456c1.521-0.577,2.103-2,1.415-3.479
		c-2.597-5.587-6.975-10.931-8.126-17.075c-1.522-8.124,5.535-12.897,11.507-16.643C512.461,249.771,512.276,247.797,510.89,246.777
		z M412.94,75.249c1.419,2.463,0.276,6.073-2.198,7.538c-0.583,0.345-1.507,0.453-2.457,0.468c0.46-1.371,0.689-2.79,0.365-4.149
		c0.725-0.247,1.399-0.689,1.876-1.228c0.938-1.058,1.344-2.456,1.466-3.873C412.344,74.382,412.672,74.786,412.94,75.249z
		 M405.887,71.052c1.776,0.344,3.561,0.942,4.998,1.973c-0.326,2.079-0.845,4.277-2.567,5.107c-0.119-0.254-0.259-0.506-0.429-0.753
		c-0.553-0.802-1.281-1.378-2.09-1.794C406.28,74.14,406.345,72.434,405.887,71.052z M493.627,203.373
		c-0.267,0.882-0.513,1.768-0.74,2.656c-9.358,20.409-25.017,38.115-43.444,50.444c-4.171-2.694-8.507-5.163-12.984-7.402
		C460.723,242.789,480.491,224.915,493.627,203.373z M470.645,289.609c-1.843,1.558-3.747,3.047-5.775,4.359
		c-3.396,2.198-7.188,3.918-11.179,4.634c-2.948-3.376-6.152-6.508-9.599-9.346c3.907-0.767,7.296-3.148,10.27-5.924
		c3.1-2.893,6.465-6.978,7.937-11.225c4.489,3.986,8.688,8.355,12.555,13.115C474.058,287.017,472.062,288.412,470.645,289.609z
		 M475.85,286.44c4.093,5.192,7.669,10.778,10.754,16.636c-2.923,3.222-7.12,4.556-11.221,5.918
		c-3.594,1.194-7.893,2.99-11.956,3.299c-2.617-4.558-5.618-8.851-8.978-12.811c4.562-0.725,8.741-2.663,12.644-5.374
		c2.325-1.614,4.568-3.414,6.661-5.317C474.554,288.066,475.306,287.3,475.85,286.44z M458.938,275.427
		c-1.31,2.195-2.881,4.234-4.656,6.072c-3.108,3.217-6.805,5.864-11.094,7.027c-2.079-1.661-4.231-3.231-6.472-4.676
		c3.255-2.818,5.99-6.559,7.384-10.445c1.618-4.512,1.672-9.263,1.058-13.939c0.753,0.462,1.517,0.907,2.261,1.385
		c0.267,0.307,0.61,0.534,0.998,0.637c4.419,2.9,8.644,6.095,12.664,9.565C460.382,272.515,459.775,274.024,458.938,275.427z
		 M444.073,258.801c0.406,4.486,0.364,9.152-1.071,13.401c-1.551,4.595-4.711,7.458-7.764,10.734
		c-3.216-1.972-6.574-3.735-10.086-5.225c2.821-4.304,4-10.246,4.266-15.054c0.217-3.921-0.126-8.27-1.471-12.15
		C433.507,252.928,438.895,255.694,444.073,258.801z M426.567,249.925c1.409,4.199,1.679,9.094,1.354,13.152
		c-0.231,2.881-0.827,5.733-1.767,8.466c-0.668,1.945-1.631,3.721-2.539,5.53c-3.81-1.519-7.778-2.749-11.891-3.649
		c-1.488-0.326-2.98-0.612-4.474-0.879c0.32-0.629,0.632-1.263,0.914-1.91c0.59-1.354,1.099-2.744,1.513-4.162
		c0.85-2.91,1.321-5.941,1.432-8.969c0.182-4.986-0.779-9.547-2.566-13.99C414.685,245.302,420.708,247.443,426.567,249.925z
		 M407.614,243.245c1.82,5.051,2.441,10.738,1.957,15.954c-0.294,3.177-1.005,6.305-2.126,9.293
		c-0.491,1.309-1.093,2.561-1.738,3.796c-4.57-0.757-9.159-1.274-13.764-1.582c2.255-5.06,2.573-11.544,2.391-16.899
		c-0.155-4.556-0.708-9.779-2.361-14.289C397.237,240.535,402.461,241.777,407.614,243.245z M382.69,237.947
		c2.491,0.36,4.977,0.776,7.458,1.23c0.575,1.861,1.206,3.707,1.624,5.619c0.681,3.114,1.066,6.289,1.155,9.475
		c0.085,3.035-0.103,6.069-0.542,9.072c-0.359,2.458-1.042,4.853-1.459,7.292c-4.611-0.279-9.234-0.371-13.866-0.313
		c1.839-6.463,1.844-13.667,0.617-20.136c-0.922-4.857-2.591-9.906-5.911-13.524C375.414,237.008,379.058,237.421,382.69,237.947z
		 M370.479,236.532c3.587,4.004,5.223,9.82,6.034,14.953c1.027,6.504,0.353,12.629-1.138,18.87
		c-6.28,0.123-12.573,0.487-18.865,0.968c0.879-1.655,1.303-3.63,1.732-5.381c1.045-4.263,1.933-8.578,2.26-12.963
		c0.397-5.319,0.072-12.103-2.504-17.262C362.165,235.897,366.327,236.163,370.479,236.532z M356.061,235.633
		c0.984,2.062,1.911,4.111,2.432,6.424c0.768,3.409,0.914,6.926,0.699,10.405c-0.391,6.343-1.626,13.062-4.14,18.972
		c-4.194,0.331-8.387,0.705-12.574,1.085c3.145-5.86,3.692-13.992,2.926-20.146c-0.771-6.195-3.108-11.934-6.662-16.943
		C344.517,235.364,350.293,235.421,356.061,235.633z M337.484,235.449c3.618,5.159,6.006,11.191,6.659,17.467
		c0.389,3.739,0.195,7.54-0.575,11.219c-0.634,3.03-1.924,5.727-2.991,8.556c-6.78,0.616-13.546,1.226-20.278,1.661
		c1.604-2.496,2.536-5.903,3.182-8.463c0.958-3.8,1.332-7.754,1.126-11.665c-0.336-6.404-2.147-12.867-5.748-18.189
		C325.056,235.748,331.269,235.536,337.484,235.449z M317.622,236.101c3.224,5.696,5.317,11.881,5.556,18.521
		c0.131,3.657-0.244,7.319-1.154,10.865c-0.51,1.988-1.185,3.944-2.038,5.811c-0.492,1.077-1.131,2.095-1.614,3.173
		c-1.687,0.1-3.373,0.191-5.056,0.264c-4.08,0.177-8.149,0.233-12.205,0.17c5.362-11.877,3.877-26.556-3.107-37.413
		C304.575,236.978,311.127,236.429,317.622,236.101z M297.271,237.549c6.608,11.537,7.029,25.158,2.006,37.311
		c-6.388-0.157-12.741-0.608-19.036-1.379c3.958-4.84,5.245-12.83,5.224-18.804c-0.018-5.381-1.133-11.34-3.893-16.151
		C286.801,238.328,292.041,237.955,297.271,237.549z M280.307,238.565c2.229,5.315,3.809,10.537,3.717,16.528
		c-0.05,3.258-0.54,6.496-1.472,9.618c-0.913,3.058-2.592,5.664-3.776,8.572c-5.613-0.733-11.184-1.692-16.693-2.939
		c1.341-1.758,2.312-3.993,3.091-5.858c1.308-3.131,2.117-6.446,2.445-9.822c0.551-5.673-0.446-11.171-2.725-16.265
		C270.007,238.725,275.152,238.732,280.307,238.565z M259.663,237.964c1.38,0.151,2.764,0.269,4.149,0.369
		c2.051,4.87,2.832,10.29,2.404,15.537c-0.254,3.113-0.943,6.188-2.064,9.105c-0.973,2.53-2.652,4.642-3.92,6.952
		c-5.857-1.392-11.645-3.081-17.347-5.086c8.421-6.534,10.619-17.726,9.824-27.972C255.003,237.338,257.325,237.709,259.663,237.964
		z M251.66,236.656c0.06,5.539,0.106,11.032-2.021,16.288c-1.87,4.62-4.882,8.059-8.472,11.29c-5.81-2.114-11.533-4.542-17.142-7.33
		c4.709-1.57,8.577-7.104,10.802-11.215c2.265-4.184,3.485-8.738,3.706-13.428C242.691,234.212,247.111,235.655,251.66,236.656z
		 M227.695,225.428c3.003,2.497,6.288,4.58,9.765,6.306c-0.289,4.628-1.607,9.171-3.858,13.238c-1.267,2.29-2.814,4.433-4.609,6.338
		c-1.777,1.886-3.994,3.281-5.689,5.224c-1.236-0.622-2.474-1.237-3.699-1.893c-4.009-2.147-8.057-4.462-12-6.987
		c2.103-0.838,4.123-2.185,5.913-3.384c2.636-1.765,5.082-3.813,7.204-6.175C223.947,234.507,226.534,230.146,227.695,225.428z
		 M226.766,224.651c-1.572,4.901-3.98,9.309-7.652,13.093c-2.019,2.08-4.285,3.916-6.71,5.501c-1.976,1.291-4.213,2.234-6.216,3.475
		c-5.676-3.737-11.097-7.923-15.78-12.756c5.542,1.07,11.493,0.569,16.68-1.178c3.498-1.178,6.794-2.935,9.726-5.176
		c2.262-1.729,4.818-3.895,6.399-6.427C224.342,222.415,225.53,223.567,226.766,224.651z M220.69,218.212
		c0.5,0.651,1.022,1.274,1.55,1.889c-1.925,1.995-3.559,4.231-5.777,6.003c-3.016,2.409-6.459,4.298-10.128,5.503
		c-5.927,1.946-11.75,1.846-17.558,0.633c-2.782-3.078-5.268-6.401-7.341-10.015c-1.28-2.231-2.319-4.542-3.18-6.9
		c6.22,2.842,13.134,3.855,19.974,2.912c6.014-0.829,13.179-3.289,18.045-7.524C217.41,213.32,218.868,215.84,220.69,218.212z
		 M213.54,199.84c0.241,3.15,0.937,6.265,2.071,9.276c-1.972,1.443-3.905,2.904-6.122,4.046c-3.255,1.676-6.764,2.853-10.37,3.488
		c-7.207,1.27-14.607,0.154-21.325-2.628c-1.743-5.266-2.52-10.768-2.435-16.289C186.162,205.499,201.485,204.964,213.54,199.84z
		 M175.392,196.281c0.233-5.498,1.292-10.99,3.058-16.253c8.021,10.865,23.74,10.268,36.285,8.003
		c-0.951,3.366-1.368,6.801-1.271,10.213c-6.656,2.528-13.345,4.392-20.616,3.999C186.532,201.9,180.537,199.832,175.392,196.281z
		 M218.267,179.684c-1.287,2.215-2.305,4.505-3.079,6.834c-12.35,2.37-28.53,3.534-36.308-7.741
		c0.941-2.618,2.055-5.174,3.326-7.639c2.519-4.886,5.513-9.417,8.858-13.646c3.243,5.238,6.706,10.311,11.67,14.122
		c4.438,3.408,10.369,6.39,16.165,7.062C218.691,179.014,218.467,179.34,218.267,179.684z M219.8,177.242
		c-5.794-1.282-11.091-2.825-16.046-6.529c-5.001-3.738-8.701-8.837-11.986-14.102c4.33-5.334,9.237-10.163,14.606-14.475
		c0.55,5.748,2.259,11.252,5.411,16.197c2.844,4.462,8.081,11.1,13.826,11.789C223.47,172.315,221.515,174.683,219.8,177.242z
		 M226.513,169.227c-0.031-0.027-0.06-0.056-0.1-0.076c-2.934-1.432-5.433-2.737-7.858-5.007c-2.292-2.145-4.288-4.593-5.936-7.264
		c-2.877-4.662-4.774-10.025-5.304-15.495c4.521-3.547,9.34-6.751,14.373-9.615c0.413,6.235,1.588,12.547,3.843,18.306
		c1.737,4.439,4.442,9.755,8.33,13.019C231.251,164.954,228.791,167.001,226.513,169.227z M235.25,162.126
		c-1.637-1.766-3.305-3.45-4.672-5.513c-1.755-2.649-3.151-5.523-4.23-8.509c-1.985-5.491-2.793-11.185-3.644-16.903
		c4.698-2.616,9.561-4.961,14.54-7.007c-0.78,5.906-0.396,12.017,0.856,17.795c0.75,3.462,1.834,6.861,3.267,10.101
		c0.723,1.635,1.613,3.429,2.885,4.778C241.149,158.428,238.126,160.178,235.25,162.126z M254.028,152.605
		c-2.752,1.032-5.501,2.194-8.202,3.488c-1.673-2.053-2.947-4.054-3.992-6.725c-1.16-2.963-2.048-6.035-2.661-9.157
		c-1.087-5.537-1.118-11.011-0.608-16.547c4.764-1.904,9.614-3.56,14.493-4.963c-0.87,5.647-1.516,11.286-1.088,17.038
		c0.399,5.362,1.506,11.368,4.422,16.033C255.603,152.045,254.811,152.311,254.028,152.605z M257.759,151.302
		c-2.404-5.56-4.118-10.808-4.474-16.982c-0.303-5.253,0.015-10.58,0.535-15.834c3.518-0.993,7.046-1.865,10.564-2.605
		c-0.318,6.242-0.667,12.41,0.045,18.67c0.529,4.65,1.337,9.892,3.92,13.956C264.772,149.236,261.233,150.167,257.759,151.302z
		 M269.909,148.197c-2.953-4.817-3.867-10.587-4.383-16.172c-0.425-4.601-0.588-9.277-0.598-13.924
		c1.745,7.704,5.758,14.748,11.362,20.268c0.252,2.221,0.705,4.403,1.296,6.587c0.182,0.673,0.34,1.402,0.564,2.093
		C275.391,147.308,272.639,147.689,269.909,148.197z M296.287,90.971c-0.683-0.707-1.526-1.281-2.597-1.625
		c-0.103-0.033-0.203-0.053-0.305-0.081c0.229-1.007,0.513-1.956,1.351-2.853c0.752-0.804,1.698-1.219,2.651-1.637
		c0.072,0.076,0.151,0.142,0.221,0.22c1.056,1.174,1.767,2.633,2.122,4.179C298.458,89.356,297.183,90.054,296.287,90.971z
		 M299.934,90.444c0.219,2.162-0.234,4.384-1.407,6.154c-0.142-1.753-0.63-3.459-1.579-4.821c0.48-0.323,0.97-0.626,1.51-0.869
		C298.94,90.691,299.435,90.561,299.934,90.444z M291.913,89.023c-1.317-0.067-2.544,0.261-3.656,0.875
		c-1.084-1.636-1.33-3.755-0.7-5.658c0.398-1.2,1.29-2.065,1.976-3.03c2.425,0.207,4.763,1.018,6.671,2.498
		C294.12,84.487,292.262,86.809,291.913,89.023z M285.887,84.836c-0.405,2.139,0.153,4.092,1.436,5.656
		c-0.809,0.59-1.547,1.321-2.205,2.138c-4.227-0.063-5.747-4.613-5.854-8.632c0.621-0.418,1.262-0.811,1.935-1.159
		c1.892-0.978,4.056-1.548,6.236-1.664C286.626,82.312,286.091,83.758,285.887,84.836z M292.54,115.425
		c-2.008-1.13-3.741-2.662-4.995-4.987c1.76,0.248,3.577,0.263,5.368,0.272C292.483,112.252,292.31,113.881,292.54,115.425z
		 M290.879,120.315c-0.105,1.176-0.071,2.357-0.438,3.536c-0.63,2.028-1.925,3.802-3.476,5.225c-2.133,1.957-6.18,4.582-9.568,4.88
		c-2.858-3.063-5.213-6.6-6.881-10.517c2.286,0.884,5.111,0.706,7.413-0.023c2.912-0.922,7.3-2.803,9.416-5.643
		C288.369,118.701,289.573,119.569,290.879,120.315z M283.886,118.84c-1.328,0.954-2.791,1.749-4.278,2.426
		c-3.31,1.506-6.82,2.041-9.774,0.452c-1.26-3.44-2.019-7.131-2.176-10.996c1.373,1.243,2.992,2.092,5.215,2.181
		c3.113,0.125,6.983-0.42,9.73-2.242c0.814,2.199,2.04,4.231,3.636,5.977C285.506,117.413,284.784,118.195,283.886,118.84z
		 M280.397,91.592c0.862,1.137,2.29,2.179,3.732,2.408c-0.718,1.125-1.299,2.334-1.723,3.507c-2.296-0.21-4.406-0.864-6.425-2.153
		c-1.165-0.743-2.498-1.744-2.829-3.172c-0.144-0.624-0.094-1.322,0.035-2.026c1.418-2.087,3.119-3.944,5.103-5.458
		C278.189,87.145,278.934,89.661,280.397,91.592z M274.023,95.712c2.16,1.721,5.228,3.127,8.066,2.766
		c-0.057,0.197-0.119,0.395-0.166,0.587c-0.257,1.035-0.416,2.091-0.5,3.153c-2.259,0.721-4.383,1.143-6.808,0.416
		c-2.051-0.615-3.879-2-5.612-3.33c0.685-2.42,1.634-4.781,2.845-6.97C272.051,93.54,272.741,94.69,274.023,95.712z
		 M275.073,104.023c2.031,0.469,4.34,0.372,6.29-0.458c-0.02,1.979,0.259,3.956,0.816,5.849c-2.617,1.358-5.327,2.095-8.38,2.234
		c-2.493,0.114-4.454-0.795-6.166-2.195c-0.003-0.346-0.013-0.69-0.006-1.038c0.057-2.715,0.453-5.552,1.174-8.334
		C270.638,101.812,272.48,103.424,275.073,104.023z M279.816,146.906c-0.981-2.388-1.806-4.865-2.312-7.402
		c3.208,2.919,6.875,5.369,10.912,7.177C285.547,146.609,282.677,146.691,279.816,146.906z M292.788,143.851
		c-5.565-1.858-10.56-4.977-14.602-9.045c3.408-0.323,7.042-2.615,9.342-4.583c2.194-1.876,5.056-5.807,4.808-9.147
		c1.911,0.896,3.976,1.484,6.003,1.59c1.129,3.7,1.276,7.318,0.015,11.191c-0.75,2.304-1.878,4.461-3.152,6.515
		C294.47,141.554,293.581,142.68,292.788,143.851z M297.874,117.554c-1.338-0.392-2.622-0.838-3.838-1.378
		c-0.225-1.928-0.307-3.669,0.124-5.451c0.379,0.004,0.76,0.005,1.133,0.015c0.905,0.025,1.813,0.073,2.72,0.115
		C297.326,112.973,297.213,115.642,297.874,117.554z M298.757,113.87c0.049-1.047,0.321-2.003,0.596-2.958
		c1.491,0.075,2.982,0.151,4.473,0.197c-0.929,1.66-1.676,3.405-1.983,5.374c-0.114,0.731-0.137,1.433-0.122,2.122
		c-0.868-0.233-1.73-0.459-2.581-0.692C299.086,116.574,298.693,115.237,298.757,113.87z M305.929,145.764
		c-3.994,0.129-7.864-0.372-11.514-1.408c0.944-1.307,1.763-2.736,2.53-4.054c1.328-2.279,2.462-4.708,3.083-7.281
		c0.808-3.346,0.889-7.207-0.63-10.352c0.988-0.035,1.961-0.183,2.891-0.496c1.561,5.211,5.688,9.6,5.908,15.265
		C308.29,139.798,306.978,142.799,305.929,145.764z M462.988,186.482c-0.191,3.15-0.76,6.324-0.85,9.425
		c-2.674-1.081-5.411-1.932-8.189-2.661C457.223,191.356,460.326,189.133,462.988,186.482z M443.22,183.851
		c0.64,2.468,1.251,4.994,2.107,7.391c-2.215-0.482-4.439-0.969-6.662-1.516c-0.456-0.112-0.908-0.244-1.362-0.363
		C439.246,187.485,441.143,185.596,443.22,183.851z M426.142,181.8c0.953-0.909,1.97-2.193,3.121-2.864
		c1.33-0.775,0.992-1.568,2.1-0.025c0.885,1.233,0.352,6.028,0.174,8.703c-2.608-0.943-5.125-2.109-7.462-3.623
		C424.83,183.227,425.521,182.392,426.142,181.8z M414.174,171.039c3.952-0.746,3.146,4.415,3.222,7.016
		c0.005,0.183,0.006,0.379,0.005,0.581c-2.152-1.9-4.344-3.743-6.943-5.171C411.659,172.361,412.918,171.276,414.174,171.039z
		 M400.319,165.651c0.644-0.252,1.269-0.552,1.903-0.829c0.466-0.409,0.969-0.514,1.508-0.316c0.549-0.081,0.785,0.17,0.708,0.751
		c0.669,1.211,0.658,3.441,0.919,4.808c0.053,0.276,0.112,0.55,0.167,0.825c-2.637-1.381-5.175-2.801-7.639-4.511
		C398.706,166.176,399.525,165.962,400.319,165.651z M414.887,160.462c-0.41-2.422-0.926-4.811-1.558-7.184
		c2.922,0.335,5.6,1.048,8.227,2.037C419.334,157.03,417.11,158.746,414.887,160.462z M428.219,165.775
		c-0.274-2.683-0.642-5.346-1.099-8.004c0.596,0.296,1.191,0.594,1.8,0.909c1.762,0.912,3.537,1.821,5.347,2.642
		C432.247,162.802,430.232,164.287,428.219,165.775z M441.826,172.945c-0.335-3.159-0.845-6.284-1.501-9.397
		c0.857,0.231,1.723,0.437,2.607,0.583c1.588,0.263,3.188,0.368,4.766,0.577C446.052,167.743,444.112,170.462,441.826,172.945z
		 M453.637,179.27c-1.327-4.284-0.518-9.2-1.891-13.592c0.198,0.077,0.398,0.144,0.595,0.233c2.257,1.021,4.213,2.559,6.617,3.281
		c0.917,0.275,1.838,0.454,2.753,0.555C459.054,172.972,456.532,176.238,453.637,179.27z M403.326,70.703
		c0.517,0.043,1.055,0.109,1.598,0.189c0.305,1.217-0.119,2.734-0.606,4.138c-1.536-0.366-3.222-0.246-4.707,0.272
		c-0.037,0.013-0.071,0.03-0.107,0.043c0.062-0.824-0.026-1.673-0.166-2.285c-0.195-0.857-0.55-1.63-1.027-2.315
		C399.928,70.566,401.605,70.559,403.326,70.703z M397.506,70.864c0.509,0.83,0.827,1.779,0.921,2.765
		c0.081,0.853-0.191,1.62-0.394,2.384c-1.635,0.901-3.036,2.225-4.167,3.793c-0.026-2.644-0.942-5.188-3.114-6.593
		C392.822,71.969,395.094,71.222,397.506,70.864z M390.198,73.568c2.926,2.088,2.271,5.966,1.925,9.308
		c-0.244,0.566-0.467,1.143-0.65,1.732c-0.395-1.309-0.802-2.605-1.331-3.823c-0.753-1.734-1.705-3.364-2.811-4.881
		C388.233,74.996,389.193,74.226,390.198,73.568z M387.477,89.2c1.798,5.481,4.703,9.325,10.166,11.426
		c5.522,2.123,11.946,1.692,17.247,4.338c7.372,3.679,5.284,12.814,9.653,18.731c3.794,5.138,10.289,6.754,16.031,8.693
		c4.4,1.486,7.545,3.83,11.539,6.067c3.54,1.983,7.216,2.042,11.168,2.308c5.58,0.376,10.722,2.55,12.447,8.428
		c1.242,4.234,0.13,8.481-2.517,11.736c-2.912,2.805-7.123,4.76-11.01,4.327c-4.766-0.531-8.506-4.22-13.345-4.954
		c-5.728-0.869-10.241-1.713-15.503-4.362c-4.028-2.028-7.961-4.293-12.243-5.759c-4.584-1.569-9.011-1.279-13.762-1.634
		c-5.603-0.419-10.714-3.132-16.349-3.596c-5.617-0.462-11.226,0.47-16.839,0.563c-6.479,0.107-12.826-0.724-18.924-2.947
		c-1.681-0.612-3.262,1.568-2.321,3.02c5.63,8.689,15.971,7.948,24.455,11.953c5.226,2.467,9.435,6.529,13.839,10.172
		c4.309,3.564,8.75,6.363,13.786,8.793c5.623,2.713,9.369,6.861,14.285,10.501c4.028,2.983,8.68,4.934,13.467,6.341
		c9.792,2.879,20.271,3.566,29.793,7.324c0.037,0.098,0.082,0.185,0.139,0.258c-14.232,7.659-31.233-1.141-45.521-5.339
		c-8.126-2.388-16.5-3.925-24.937-4.651c-9.026-0.777-18.296,0.396-27.012-2.522c-8.747-2.928-17.076-7.572-25.438-11.438
		c-7.055-3.262-16.12-5.963-20.317-12.998c-1.533-2.571-2.551-5.391-4.387-7.786c-1.541-2.01-4.46-2.945-5.069-5.166
		c-0.932-3.393,2.47-7.706,2.99-11.223c0.448-3.033-0.178-5.916-1.326-8.72c-1.185-2.894-2.941-5.527-4.024-8.461
		c-1.769-4.795,0.192-8.539,2.847-12.496c1.897-2.828,3.827-5.715,4.592-9.09c0.617-2.719-1.71-7.888-0.059-10.063
		c1.614-2.124,6.147-3.594,8.402-5.305c2.565-1.946,4.891-4.136,6.777-6.753c0.999-1.386,1.547-3.287,2.579-4.575
		c1.838-2.295,4.906-2.74,7.628-1.619c3.435,1.415,6.139,3.335,9.939,3.94c6.926,1.103,12.287-1.114,18.315-4.059
		C379.34,67.383,385.003,81.66,387.477,89.2z M320.171,69.093c5.013-3.839,12.339-7.409,18.436-4.192
		c0.328,0.661,0.679,1.305,1.069,1.918c-0.803-0.281-1.626-0.499-2.479-0.616c-7.66-1.055-9.127,8.461-13.382,12.717
		c-2.902,2.903-6.434,4.946-9.955,6.982c-0.957-1.805-1.964-3.554-2.936-5.314C313.371,76.218,316.028,72.265,320.171,69.093z
		 M310.276,79.394c-1.25-2.323-2.389-4.701-3.248-7.266c1.043-2.798,2.28-5.14,4.488-7.325c2.385-2.36,5.167-4.324,8.147-5.86
		c4.828-2.488,12.136-4.59,16.724-1.127c0.292,1.839,0.769,3.639,1.438,5.332c-5.206-2.556-12.447,0.873-16.764,3.785
		C316.685,69.886,312.402,74.323,310.276,79.394z M382.666,71c-5.738-4.586-11.147-4.995-17.599-1.7
		c-4.005,2.046-8.28,2.9-12.663,2.416c0.388-2.003-0.253-3.921-0.503-6.217c4.46-2.386,9.43-3.766,14.509-3.853
		c5.663-0.097,12.117,1.112,16.296,5.144C382.611,68.19,382.593,69.598,382.666,71z M367.671,60.353
		c-5.596-0.079-11.044,1.304-15.858,4.029c-0.155-2.449-0.116-4.906,0.154-7.339c1.609-0.759,3.29-1.263,5.253-1.515
		c3.55-0.456,7.173-0.507,10.743-0.281c5.504,0.349,11.95,1.394,15.638,5.842c-0.305,1.247-0.542,2.515-0.702,3.797
		C379.36,61.305,372.053,60.415,367.671,60.353z M368.964,53.841c-4.25-0.329-8.622-0.293-12.839,0.384
		c-1.281,0.206-2.642,0.506-3.912,0.989c0.188-1.16,0.428-2.313,0.738-3.453c0.407-1.499,0.909-2.976,1.51-4.41
		c1.812-0.587,3.63-1.134,5.546-1.448c3.668-0.601,7.459-0.628,11.135-0.072c5.993,0.907,11.985,3.044,15.014,8.436
		c-0.853,1.628-1.553,3.347-2.094,5.129C380.257,55.404,374.395,54.261,368.964,53.841z M349.129,48.785
		c-1.464,4.564-2.138,9.527-1.852,14.315c0.142,2.382,0.24,5.337,1.265,7.639c-4.842-2.638-7.453-11.953-7.671-16.599
		c-0.347-7.37,3.505-13.629,10.552-16.123c1.334-0.472,2.718-0.871,4.138-1.195C352.437,40.293,350.258,45.265,349.129,48.785z
		 M386.945,52.854c-2.384-4.979-9.77-7.152-14.594-7.979c-5.374-0.921-11.839-0.8-17.294,1.142c0.698-1.466,1.508-2.876,2.465-4.195
		c1.411-1.946,3.277-3.423,4.954-5.066c1.949,0.104,3.923,0.052,5.859,0.384c2.916,0.5,5.762,1.408,8.439,2.664
		c5.077,2.383,8.732,5.953,12.251,10.102C388.265,50.84,387.567,51.822,386.945,52.854z M393.977,45.332
		c-1.549,1.066-2.936,2.3-4.165,3.667c-2.93-4.63-7.878-8.259-12.709-10.537c-1.443-0.68-3.145-1.378-4.957-1.962
		c4.702,0.886,9.171,2.647,12.894,5.389c1.376,1.014,3.315-0.36,3.302-1.895c-0.023-2.808-0.483-5.542-1.303-8.151
		c1.625,1.339,3.041,3.06,4.201,4.635C393.197,39.132,394.277,42.032,393.977,45.332z M420.681,48.485
		c-1.119-2.114-3.015-3.916-5.127-5.075c-0.595-0.326-1.211-0.599-1.837-0.845c1.517-1.434,2.538-3.307,3.346-5.319
		c0.411-1.023,1.451-3.097,1.58-4.757C421.844,37.241,422.862,42.979,420.681,48.485z M410.234,24.988
		c2.768,1.498,5.143,3.435,7.015,5.654c-0.037,0.081-0.05,0.172-0.011,0.267c0.743,1.848-0.915,5.338-1.651,7.021
		c-0.7,1.601-1.635,3.025-2.754,4.325c-1.279-0.42-2.6-0.707-3.945-0.842c1.7-3.901,1.019-9.21-0.562-12.878
		c-0.765-1.775-1.841-3.94-3.266-5.703C406.847,23.377,408.584,24.095,410.234,24.988z M395.754,21.56
		c2.545-0.055,5.095,0.216,7.569,0.805c1.974,2.088,3.356,5.06,4.21,7.461c1.477,4.151,0.72,7.525-0.07,11.502
		c-2.141-0.063-4.299,0.185-6.356,0.731c1.698-6.906-1.51-15.463-6.811-20.405C394.776,21.607,395.259,21.57,395.754,21.56z
		 M392.333,21.931c2.84,2.569,5.139,5.403,6.526,9.161c1.356,3.677,1.476,7.418,1.31,11.238c-0.4,0.124-0.796,0.256-1.185,0.401
		c-1.312,0.489-2.537,1.083-3.684,1.762c0.115-3.189-1.112-6.088-3.101-8.658c-1.501-1.94-3.363-4.147-5.632-5.337
		c-0.806-2.188-1.85-4.284-3.122-6.245C386.469,23.556,389.298,22.491,392.333,21.931z M383.44,36.4
		c-3.853-1.598-8.011-2.948-12.257-3.821c2.913-2.905,3.901-8.049,3.046-12.305C378.877,24.503,382.175,30.108,383.44,36.4z
		 M362.094,13.476c3.798,1.101,7.267,2.911,10.283,5.248c0.681,2.144,1.046,4.244,0.693,6.641c-0.401,2.722-1.668,4.767-3.002,6.989
		c-1.651-0.305-3.312-0.537-4.972-0.673c0.86-2.093,0.853-4.835,0.698-6.895c-0.208-2.782-0.948-5.582-2.328-8.019
		c-0.811-1.434-1.871-2.688-3.097-3.733C360.946,13.169,361.521,13.31,362.094,13.476z M357.859,12.529
		c1.971,1.316,3.636,3.048,4.762,5.266c1.242,2.447,1.834,5.221,1.883,7.955c0.036,1.996-0.571,3.902-0.763,5.836
		c-2.986-0.153-5.956,0.002-8.836,0.561c0.733-4.1-0.391-8.91-2.015-12.488c-1.475-3.252-4.37-5.614-7.654-7.026
		C349.407,11.935,353.663,11.855,357.859,12.529z M342.617,13.159c3.866,1.752,7.393,3.301,9.217,7.546
		c1.694,3.941,1.632,7.694,1.687,11.751c-1.606,0.389-3.184,0.895-4.712,1.564c-0.109-4.737-3.324-9.66-6.88-12.298
		c-3.481-2.582-7.721-3.694-11.977-3.647C333.921,15.863,338.204,14.178,342.617,13.159z M323.846,22.061
		c1.417-1.077,2.901-2.08,4.435-3.012c4.231-0.281,8.51,0.558,12.069,3.032c2.291,1.593,4.221,3.751,5.444,6.268
		c1.053,2.167,1.313,4.212,1.436,6.427c-1.491,0.771-2.934,1.688-4.313,2.779c-0.741,0.586-1.41,1.241-2.026,1.943
		c-0.97-4.908-4.554-8.983-9.202-10.997c-4.479-1.94-9.342-1.968-13.978-0.857C319.599,25.622,321.637,23.739,323.846,22.061z
		 M316.608,28.838c4.236-1.108,8.621-1.464,12.905-0.087c5.812,1.869,9.38,6.344,10.288,12.127
		c-0.948,1.347-1.713,2.836-2.296,4.419c-3.59-4.102-8.55-6.73-14.081-7.145c-5.281-0.396-11.839,1.448-15.656,5.474
		C309.778,38.205,312.806,33.193,316.608,28.838z M305.62,51.499c0.331-1.886,0.795-3.737,1.359-5.553
		c0.106,0.012,0.214-0.007,0.315-0.082c2.27-1.693,4.274-3.491,6.914-4.616c2.776-1.183,5.792-1.764,8.812-1.589
		c5.421,0.314,10.435,2.959,14.036,6.949c-0.36,1.212-0.622,2.466-0.786,3.743c-4.096-4.81-12.672-3.465-17.742-1.373
		c-4.802,1.981-10.046,4.64-13.523,8.68C305.066,55.592,305.264,53.531,305.62,51.499z M317.024,51.005
		c3.285-1.524,6.827-2.812,10.501-2.722c3.494,0.085,5.985,1.498,8.596,3.563c-0.099,1.441-0.084,2.897,0.054,4.342
		c-4.342-2.656-10.499-1.533-15.22,0.535c-5.016,2.197-12.57,6.885-14.688,12.794c-0.819-3.268-1.236-6.639-1.277-10.013
		C307.924,55.584,312.659,53.031,317.024,51.005z M65.717,84.337c5.253-6.615,9.469-14.548,11.673-22.889
		c4.746,17.565,8.855,34.919,20.509,49.82c8.081,10.333,21.059,25.755,35.437,29.17c-7.831,1.656-15.578,3.239-23.826,2.408
		c-10.183-1.026-19.839-5.244-28.782-10.003c-15.458-8.225-29.515-19.381-39.882-33.55C50.781,99.307,59.7,91.912,65.717,84.337z
		 M29.856,133.863c7.089-10.271,10.373-21.099,8.718-33.065c10.682,15.359,25.224,27.372,41.808,36.082
		c8.831,4.638,18.217,8.589,28.19,9.799c8.547,1.037,17.867,0.08,26.569-1.993c-7.057,3.604-14.234,6.849-21.954,9.301
		c-11.902,3.779-24.261,6.042-36.729,6.745c-12.155,0.686-24.437-0.033-36.405-2.281c-6.088-1.143-12.095-2.669-17.994-4.556
		c-2.878-0.92-5.834-2.24-8.821-3.338C20.114,146.969,25.571,140.074,29.856,133.863z M130.287,156.415
		c-6.679,4.172-13.962,7.299-21.35,9.973c-12.647,4.579-25.965,7.474-39.439,7.787c-21.682,0.504-42.627-6.075-59.172-19.734
		c3.427,1.621,7.292,2.733,10.535,3.793c6.444,2.105,13.047,3.738,19.721,4.927c12.995,2.314,26.25,2.978,39.408,1.91
		c13.135-1.065,26.155-3.764,38.582-8.161c5.729-2.027,11.391-4.374,16.794-7.161c2.651-1.368,6.812-5.103,9.592-4.542
		C142.062,150.617,135.269,153.304,130.287,156.415z M40.398,229.616c5.184-8.702,6.828-20.18,2.786-29.551
		c19.703,4.987,41.044,8.81,60.094,0.11c3.944-1.801,7.644-4.048,11.106-6.617c-2.177,8.886-9.525,17.572-14.808,24.062
		c-6.865,8.436-14.952,15.956-24.071,21.903C57.398,251.33,35.37,256.38,14.19,252.101
		C24.371,246.547,34.487,239.539,40.398,229.616z M11.097,332.239c9.245-10.104,12.376-24.917,13.53-38.251
		c1.175-13.573-1.386-27.262-10.163-37.296c22.698,4.185,46.349-1.731,65.337-14.865c9.655-6.679,18.071-15.025,25.122-24.396
		c2.657-3.532,5.523-7.453,7.876-11.624c-1.176,5.182-2.181,10.401-3.133,15.638c-3.359,18.469-6.776,37.043-16.514,53.397
		c-18.007,30.242-48.896,46.92-81.348,57.368C11.568,332.218,11.333,332.233,11.097,332.239z M126.042,207.557
		c-1.939,11.983-2.715,24.584-5.23,36.193c-3.725,17.191-10.88,33.227-22.202,46.772c-17.13,20.492-41.821,34.391-68.094,39.538
		c24.886-9.605,47.666-25.102,62.953-47.107c10.427-15.009,15.43-32.109,18.6-49.927c1.686-9.48,2.976-19.027,4.677-28.505
		c0.783-4.358,1.585-8.752,3-12.957c0.479-1.422,1.05-2.731,1.677-3.988c3.945-3.871,7.44-8.22,10.41-12.903
		C128.244,185.595,127.858,196.337,126.042,207.557z M355.772,387.932c-7.155,1.143-15.094,3.038-19.44,8.841
		c-9.952-13.829-22.479-25.776-37.918-33.314c-7.759-3.788-15.715-6.168-23.793-7.236c20.292-0.16,40.644-0.019,60.599,4.114
		c10.727,2.222,21.608,5.289,31.389,10.305c8.397,4.306,14.146,9.66,18.589,17.281C375.411,386.583,365.664,386.352,355.772,387.932
		z M401.891,348.871c-12.926,6.25-15.385,20.768-14.542,34.258c-8.684-14.898-31.738-21.481-46.535-24.826
		c-7.373-1.667-14.85-2.867-22.377-3.669c9.568,0.536,19.136,1.031,28.722,0.612c19.023-0.831,41.825-6.259,55.309-20.718
		C401.128,339.153,400.923,344.013,401.891,348.871z M20.197,408.43c13.52-2.023,26.402-7.053,37.471-15.21
		c9.434-6.953,18.66-16.506,18.89-28.51c6.831,3.556,12.863,8.699,19.65,12.353c6.597,3.553,13.577,6.447,20.748,8.622
		c7.848,2.38,16.091,4.002,24.382,4.611c-18.193,1.662-36.163,10.518-53.275,15.345c-12.039,3.396-24.394,5.7-36.863,6.724
		c-9.589,0.788-21.099,1.602-30.34-2.354C20.644,409.482,20.425,408.953,20.197,408.43z M21.41,411.42
		c6.98,3.515,14.356,4.375,22.618,4.247c12.455-0.193,24.875-1.845,37.016-4.594c11.905-2.696,23.311-6.836,34.887-10.633
		c9.058-2.971,17.916-5.107,27.11-6.326c-3.134,1.274-6.202,2.596-9.182,3.899c-15.654,6.841-30.866,14.709-45.552,23.432
		c-25.001,14.851-48.315,32.201-69.732,51.786C28.366,454.711,28.76,430.67,21.41,411.42z M96.926,491.393
		c-22.632-12.516-50.935-18.888-75.817-12.251c39.365-27.235,82.256-51.417,129.599-61.16c-6.214,2.467-12.272,6.284-17.407,9.796
		c-7.924,5.42-15.059,12.021-21.122,19.461C102.866,458.67,93.496,475.955,96.926,491.393z M149.419,454.794
		c-13.139,3.919-28.37,7.283-38.312,17.131c-6.031,5.974-9.589,14.76-8.213,22.985c-0.315-0.199-0.638-0.391-0.956-0.588
		c-1.564-8.425-1.754-16,1.309-24.482c3.194-8.843,8.812-16.794,15.06-23.734c5.645-6.269,12.062-11.77,19.018-16.534
		c5.802-3.974,12.09-6.579,18.202-9.752C147.967,429.184,146.843,442.621,149.419,454.794z M133.587,417.681
		c-24.759,7.034-48.305,18.216-70.582,31.139c-11.469,6.653-22.708,13.773-33.899,20.935c18.966-16.289,39.31-31.005,60.76-43.803
		c13.816-8.243,28.09-15.737,42.736-22.397c26.722-12.151,58.723-18.534,88.33-15.669c17.555,1.699,34.591,6.803,51.298,12.233
		c32.367,10.52,65.338,22.87,99.951,17.806c28.85-4.221,66.824-22.171,64.594-56.921c-0.606-9.45-4.548-18.215-10.666-25.375
		c-5.994-7.015-14.333-11.368-9.035-21.947c1.117-2.23,1.63-4.972,1.848-7.071c0.498-4.817-0.677-9.309-3.337-13.318
		c-0.449-0.677-1.737-0.262-1.4,0.59c1.136,2.863,1.749,5.859,1.742,8.893c-0.897-2.549-2.222-4.978-3.961-7.193
		c-1.14-1.452-3.378,0.405-2.504,1.932c8.422,14.71-0.262,25.659-10.996,35.593c-6.094,5.64-13.274,9.962-21.066,12.817
		c-13.613,4.989-28.207,5.862-42.578,5.561c-15.113-0.316-30.191-1.949-45.319-1.543c-8.058,0.216-17.942,0.524-26.513,3.1
		c9.95-4.77,20.216-8.684,31.469-9.463c8.91-0.617,17.715,1.178,26.522,2.229c9.038,1.079,18.191,1.615,27.273,0.794
		c14.664-1.324,29.494-6.168,40.362-16.468c11.398-10.803,9.988-26.568,2.631-39.408c-0.787-1.372-3.269-0.441-2.639,1.112
		c2.78,6.851,5.12,15.027,3.865,22.53c-7.556-2.577-15.241-4.226-22.318-4.915c-19.614-1.91-39.293,1.996-58.431,5.887
		c-10.301,2.094-20.602,4.155-31.042,5.429c-0.796,0.097-1.591,0.173-2.387,0.254c-9.665,0.162-19.257,0.624-28.925-0.196
		c-9.924-0.842-19.763-2.634-29.434-4.995c-17.391-4.246-34.668-10.722-48.684-22.146c-12.947-10.553-22.766-24.613-29.508-39.818
		c-3.834-8.647-6.706-17.775-8.889-26.97c-1.201-5.061-1.989-10.182-2.772-15.303c0.125-14.076,3.13-27.519,8.25-41.061
		c6.162-16.299,13.623-32.281,24.709-45.86c20.516-25.131,49.673-40.604,80.618-48.9c9.956-2.669,20.078-4.389,30.337-5.376
		c8.818-0.848,17.954-0.422,26.725-1.706c1.363,7.511,4.532,14.687,10.03,19.234c-1.338,1.126-2.223,2.522-2.043,4.652
		c0.138,1.625,0.916,3.213,1.15,4.859c0.461,3.247-0.784,5.527-2.48,8.148c-0.343,0.529-0.694,1.052-1.046,1.573
		c-3.653-0.426-7.377-0.434-11.041-0.406c-2.968,0.022-6.079-0.066-8.949,0.707c-1.086-3.716-0.965-8.621,1.299-11.905
		c1.75-2.539,4.864-3.887,6.888-0.919c1.144,1.679,0.872,3.823,0.678,5.726c-0.118,1.155,1.439,2.011,2.369,1.359
		c8.679-6.078,7.141-18.802-2.537-22.994c-11.99-5.194-23.245,4.42-27.787,14.932c-2.701,6.249-3.653,12.63-3.185,18.751
		c-27.773,3.448-54.836,17.897-73.436,38.815c-18.298,20.577-27.664,51.473-11.357,76.107c7.097,10.721,17.448,18.817,28.247,25.559
		c12.957,8.089,27.023,14.448,41.624,18.926c32.127,9.852,64.373,7.806,97.382,5.008c31.748-2.691,69.245-6.027,95.223,16.195
		c22.848,19.545,33.516,51.875,26.762,81.177c-6.795,29.481-28.629,51.485-56.651,61.69c-30.118,10.968-64.426,13.946-95.195,3.876
		c-17.017-5.57-31.845-15.791-48.068-23.128c-14.466-6.543-29.833-10.835-45.573-12.873
		C192.946,399.869,160.864,403.977,133.587,417.681z M195.088,409.915c-9.303-0.352-18.623,0.034-27.749,1.046
		c9.134-1.977,18.406-3.21,27.765-3.639C194.985,408.2,194.95,409.102,195.088,409.915z M210.853,411.247
		c-4.686-0.63-9.408-1.027-14.138-1.25c-0.141-0.396-0.26-0.803-0.281-1.27c-0.022-0.488,0.024-0.971,0.093-1.452
		c4.799-0.178,9.619-0.163,14.457,0.099C210.7,408.654,210.55,409.965,210.853,411.247z M225.609,412.986
		c0.035,0.321,0.09,0.674,0.164,1.034c-4.424-1.067-8.911-1.91-13.432-2.562c-0.103-0.221-0.195-0.453-0.252-0.722
		c-0.23-1.093-0.07-2.206,0.171-3.292c2.407,0.15,4.817,0.351,7.231,0.614c2.177,0.238,4.351,0.527,6.518,0.859
		C225.648,410.237,225.459,411.592,225.609,412.986z M242.098,419.072c-4.717-1.822-9.552-3.337-14.463-4.595
		c-0.279-0.665-0.538-1.346-0.587-2.116c-0.071-1.096,0.076-2.171,0.336-3.224c5.421,0.88,10.801,2.044,16.106,3.486
		C242.538,414.676,241.922,416.969,242.098,419.072z M243.793,419.767c-0.172-1.622-0.195-3.162,0.258-4.923
		c0.169-0.659,0.393-1.281,0.638-1.89c3.417,0.958,6.805,2.018,10.146,3.205c-1.427,1.95-2.815,4.603-3.081,7.14
		C249.147,422.011,246.484,420.853,243.793,419.767z M260.109,427.868c-2.222-1.346-4.491-2.599-6.793-3.78
		c0.005-0.944,0.012-1.893,0.221-2.84c0.378-1.714,1.076-3.361,2.04-4.83c2.116,0.764,4.221,1.558,6.299,2.415
		c2.645,1.09,5.242,2.274,7.813,3.513c-1.91,2.59-3.553,5.833-3.307,8.827C264.311,430.033,262.226,428.913,260.109,427.868z
		 M276.765,437.039c-2.8-1.58-5.637-3.224-8.514-4.837c-0.193-1.703-0.333-3.323,0.207-5.149c0.458-1.549,1.189-2.972,2.07-4.304
		c4.589,2.24,9.09,4.659,13.589,7.083c-1.906,2.697-3.356,6.248-3.313,9.505C279.457,438.571,278.113,437.8,276.765,437.039z
		 M282.584,440.35c-0.074-1.615-0.145-3.217,0.255-4.907c0.443-1.871,1.197-3.559,2.204-5.114c4.35,2.344,8.702,4.681,13.136,6.854
		c-2.173,2.934-3.575,6.826-2.915,10.351C291.021,445.168,286.804,442.757,282.584,440.35z M304.614,452.609
		c-2.59-1.353-5.157-2.747-7.714-4.159c-0.179-2.055-0.415-3.945,0.111-6.081c0.425-1.724,1.162-3.298,2.173-4.699
		c2.239,1.081,4.497,2.122,6.79,3.093c2.154,0.912,4.333,1.745,6.528,2.519c-1.757,3.173-4.069,7.102-4.633,10.987
		C306.784,453.719,305.695,453.173,304.614,452.609z M324.529,461.932c-5.169-2.12-10.258-4.459-15.278-6.96
		c0.19-1.267,0.422-2.525,0.837-3.774c0.867-2.609,2.132-5.073,3.379-7.515c0.01-0.021,0.009-0.04,0.017-0.061
		c5.108,1.749,10.314,3.144,15.583,4.209c-2.034,3.051-3.137,6.749-3.883,10.297C325.061,458.718,324.72,460.263,324.529,461.932z
		 M341.702,467.991c-5.42-1.576-10.74-3.466-15.981-5.576c0.244-2.879,1.325-6.344,1.665-7.604c0.652-2.424,1.586-4.654,2.834-6.744
		c5.424,1.045,10.911,1.755,16.428,2.13c-1.956,3.347-3.186,6.997-4.142,10.858C342.016,463.033,341.435,465.68,341.702,467.991z
		 M343.423,468.471c-0.844-3.025,0.131-6.294,1.007-9.593c0.787-2.964,1.756-5.923,3.229-8.613
		c5.181,0.315,10.384,0.356,15.58,0.128c-0.166,0.305-0.327,0.616-0.481,0.933c-1.294,2.658-2.426,5.462-3.154,8.329
		c-0.958,3.773-1.403,8.553,0.182,12.337C354.229,471.162,348.78,469.96,343.423,468.471z M361.537,472.234
		c-1.169-4.105-1.679-7.768-0.602-12.211c0.729-3.007,1.756-6.832,3.609-9.689c5.139-0.269,10.27-0.778,15.36-1.534
		c-0.534,1.106-0.898,2.312-1.243,3.523c-0.99,3.48-1.847,7.05-2.117,10.667c-0.225,3.015-0.034,7.16,1.299,10.501
		C372.387,473.398,366.939,472.969,361.537,472.234z M379.789,473.497c-0.454-0.887-0.862-1.805-1.141-2.819
		c-0.734-2.667-0.87-5.445-0.65-8.194c0.349-4.363,1.169-9.728,3.261-13.892c3.962-0.622,7.9-1.379,11.798-2.272
		c0.992-0.227,1.977-0.47,2.962-0.715c-2.305,4.283-3.522,9.103-3.409,14.006c0.092,3.975,1.026,9.131,3.261,13.003
		C390.535,473.231,385.161,473.513,379.789,473.497z M397.75,472.374c-0.705-1.241-1.414-2.484-1.932-3.831
		c-1.096-2.852-1.76-5.879-1.891-8.932c-0.214-5.028,1.009-9.883,3.27-14.3c3.671-0.94,7.297-1.999,10.859-3.19
		c-1.598,4.742-2.062,9.839-1.441,14.828c0.522,4.195,1.885,9.883,5.451,12.765C407.35,470.868,402.567,471.747,397.75,472.374z
		 M420.14,467.464c-2.096,0.662-4.211,1.259-6.339,1.811c-3.756-4.001-5.498-8.585-5.968-14.189
		c-0.384-4.585,0.255-9.084,1.581-13.425c4.934-1.705,9.742-3.665,14.368-5.927c-1.864,4.882-2.667,10.061-2.223,15.357
		c0.36,4.283,1.454,10.594,4.613,14.28C424.181,466.121,422.171,466.822,420.14,467.464z M427.83,464.732
		c-5.901-8.434-6.309-19.959-2.846-29.594c4.251-2.141,8.348-4.533,12.243-7.215c-0.062,0.56-0.107,1.064-0.158,1.436
		c-0.469,3.481-0.387,7.009,0.04,10.49c0.752,6.124,2.342,12.533,4.615,18.373C437.239,460.684,432.596,462.858,427.83,464.732z
		 M443.2,457.406c-1.42-4.771-3.214-9.412-4.171-14.339c-0.585-3.006-0.932-6.06-0.939-9.125c-0.001-0.658,0.401-4.423,0.821-7.223
		c3.61-2.603,7.051-5.447,10.264-8.586c-0.195,4.554,0.354,9.11,1.74,13.522c1.025,3.263,2.45,6.41,4.253,9.316
		c1.069,1.722,2.419,3.92,4.036,5.578C454.169,450.593,448.812,454.223,443.2,457.406z M466.183,440.498
		c-1.805,1.695-3.666,3.327-5.571,4.905c-1.384-1.719-3.018-3.325-4.182-5.168c-1.762-2.793-3.166-5.804-4.18-8.947
		c-1.49-4.616-2.154-9.475-1.916-14.301c3.582-3.634,6.883-7.628,9.85-12.023c0.215,2.212,0.387,4.43,0.901,6.6
		c0.704,2.974,1.907,5.865,3.529,8.456c1.56,2.49,3.488,4.767,5.706,6.694c1.556,1.351,3.467,2.985,5.503,3.779
		C472.84,434.048,469.564,437.322,466.183,440.498z M483.065,420.673c-1.908,2.959-3.987,5.817-6.218,8.572
		c-1.912-1.45-4.237-2.464-6.059-4.105c-2.197-1.978-4.061-4.296-5.557-6.844c-1.498-2.552-2.598-5.312-3.22-8.207
		c-0.455-2.119-0.66-4.248-1.016-6.356c0.159-0.243,0.322-0.48,0.478-0.726c1.796-2.824,3.412-5.736,4.853-8.717
		c2.14,3.383,5.275,6.368,8.225,8.747c4.019,3.24,9.035,6.422,14.146,7.532c0.021,0.004,0.04-0.001,0.06,0.001
		C487.047,414.033,485.166,417.414,483.065,420.673z M489.312,409.444c-0.036-0.026-0.063-0.056-0.109-0.076
		c-4.998-2.184-9.688-4.105-13.982-7.586c-3.248-2.633-5.664-5.779-8.232-8.927c2.027-4.394,3.688-8.928,4.954-13.559
		c6.562,6.09,16.685,8.265,25.441,6.886C495.561,394.219,492.866,402.031,489.312,409.444z M497.72,384.633
		c-9.362,1.304-17.954-0.967-25.446-6.585c1.464-5.683,2.365-11.497,2.676-17.349c7.523,4.333,17.047,5.134,25.34,2.32
		C500.088,370.297,499.228,377.543,497.72,384.633z M500.303,361.359c-4.628,1.062-9.066,2.103-13.953,1.684
		c-3.88-0.332-7.858-1.404-11.352-3.259c0.236-5.521-0.03-11.069-0.839-16.567c3.56,2.021,7.719,2.866,11.854,2.84
		c4.355-0.027,9.36-0.871,13.182-3.283C500.035,348.931,500.392,355.152,500.303,361.359z M498.967,341.173
		c-7.962,4.053-16.963,4.755-25.004,0.742c-0.777-4.779-1.952-9.516-3.536-14.156c3.664,0.931,7.988,0.017,11.414-0.877
		c4.224-1.103,8.806-2.671,12.58-5.177C496.464,328.045,497.978,334.568,498.967,341.173z M493.86,320.042
		c-7.134,4.523-15.699,8.044-23.982,6.154c-0.047-0.129-0.089-0.258-0.136-0.387c-1.644-4.467-3.645-8.754-5.942-12.84
		c4.374-0.089,8.873-1.709,12.869-3.044c3.605-1.205,8.058-2.535,10.599-5.583C489.845,309.392,492.036,314.649,493.86,320.042z
		 M489.095,297.437c-4.673-7.981-10.24-15.287-16.533-21.886c1.65,0.864,3.332,1.673,5.018,2.461
		c4.903,2.29,9.843,4.503,14.848,6.564c1.856,0.764,3.863,1.825,5.864,2.234C494.335,289.521,491.15,293.119,489.095,297.437z
		 M494.518,263.456c-0.752,7.737,4.206,14.438,7.721,21.06c-0.43,0.208-0.84,0.443-1.256,0.668
		c-2.016-0.378-5.229-2.587-6.419-3.137c-2.388-1.104-4.796-2.163-7.185-3.263c-4.659-2.145-9.374-4.256-13.881-6.707
		c-4.581-2.491-7.965-5.818-11.809-9.225c-1.267-1.123-2.551-2.213-3.981-2.914c1.841-0.364,3.677-0.835,5.541-1.225
		c5.128-1.075,10.254-2.162,15.381-3.245c7.614-1.608,16.616-2.337,24.323-4.934C498.674,253.785,495.064,257.841,494.518,263.456z
		 M478.685,251.735c-4.79,0.988-9.576,1.988-14.352,3.042c-2.273,0.502-4.662,0.874-6.987,1.419
		c14.333-10.523,25.692-23.966,34.047-39.223c-0.006,1.157,0.022,2.315,0.129,3.476c0.933,10.131,5.486,19.362,12.577,26.399
		C495.717,247.044,486.602,250.102,478.685,251.735z"/>
	<path style="fill:#231F20;" d="M369.516,109.28c-0.474,2.859,1.203,7.113,3.932,8.455c2.425,1.909,5.767,1.899,9.191,1.657
		c-1.644,3.257-2.766,6.969-1.531,10.505c1.319,3.775,4.624,5.286,8.421,4.917c0.738-0.072,0.835-0.973,0.169-1.249
		c-2.988-1.242-5.826-2.365-6.43-5.904c-0.434-2.543,0.425-4.891,1.421-7.177c-0.529,4.598,3.363,9.303,7.45,11.051
		c2.755,1.179,5.939,1.31,8.62-0.139c0.926-0.501,1.83-1.185,2.46-2.001c-0.823,3.827-3.38,6.673-6.013,9.882
		c-0.366,0.447-0.026,1.084,0.562,0.965c4.692-0.947,7.252-5.743,7.826-10.419c1.209,0.578,2.551,0.854,4.152,0.714
		c1.479-0.129,1.86-2.162,0.357-2.638c-4.255-1.347-5.875-5.248-8.931-8.059c-1.946-1.79-4.296-3.102-6.816-3.899
		c-2.619-0.828-5.484-1.158-8.221-1.056c-2.164,0.081-4.419,0.686-6.627,0.999c-0.297-1.526-0.323-2.957,0.492-4.516
		c1.007-1.925,2.703-3.333,3.68-5.289c0.152-0.305-0.102-0.711-0.463-0.602c-2.958,0.892-5.471,3.378-6.251,6.421
		c-0.351,1.372-0.358,2.921,0.183,4.171c-0.373-0.001-0.744-0.014-1.11-0.056c-2.227-1.927-4.065-3.974-2.833-7.363
		c1.507-4.145,5.149-3.814,8.213-5.836c0.421-0.277,0.432-0.867,0-1.142C376.568,98.581,370.272,104.719,369.516,109.28z
		 M388.026,119.075c1.046,0,2.054,0.068,2.996,0.262c0.8,0.165,1.515,0.391,2.197,0.642c-0.038,0.156-0.074,0.315-0.111,0.493
		c-0.149,0.706-0.423,1.365-0.405,2.097c0.041,1.649,2.168,2.686,3.371,1.396c0.439-0.471,0.792-1.111,1.021-1.809
		c1.409,1.105,2.665,2.429,4.027,3.911c-0.969,0.768-1.732,1.818-3.005,2.275c-3.071,1.102-6.54-0.668-8.473-3.048
		c-0.775-0.954-1.405-2.029-1.675-3.244C387.73,120.975,388.036,120.073,388.026,119.075z"/>
	<path style="fill:#231F20;" d="M377.434,132.109c-1.421-2.713-0.712-5.97-1.27-8.887c-0.182-0.949-1.756-0.741-1.693,0.229
		c0.237,3.676-0.398,7.454,1.714,10.71c1.512,2.332,3.876,4.191,6.761,3.904c0.471-0.047,0.671-0.63,0.245-0.905
		C380.998,135.745,378.693,134.515,377.434,132.109z"/>
	<path style="fill:#231F20;" d="M376.566,139.683c-4.802-2.621-6.04-7.432-6.816-12.474c-0.198-1.287-2.14-0.736-1.953,0.538
		c0.761,5.176,2.217,12.305,8.477,13.012C376.858,140.825,377.042,139.943,376.566,139.683z"/>
	<path style="fill:#231F20;" d="M462.788,158.291c0.072-0.014,0.143-0.019,0.214-0.039c3.612-0.972,2.986-5.451,0.57-7.326
		c-1.41-1.094-3.298-1.233-4.34,0.428c-0.824,1.314-1.292,3.186-0.818,4.695C459.024,157.984,461.133,158.764,462.788,158.291z"/>
	<path style="fill:#231F20;" d="M460.814,147.452c2.165,0.151,4.508,0.356,6.287,1.73c2.259,1.744,1.529,4.366,2.198,6.803
		c0.147,0.535,0.897,0.632,1.178,0.154c1.595-2.718,1.029-6.429-1.508-8.389c-2.223-1.717-5.451-1.97-8.155-2.122
		C459.638,145.561,459.651,147.371,460.814,147.452z"/>
</g>
<g>
</g>
<g>
</g>
<g>
</g>
<g>
</g>
<g>
</g>
<g>
</g>
<g>
</g>
<g>
</g>
<g>
</g>
<g>
</g>
<g>
</g>
<g>
</g>
<g>
</g>
<g>
</g>
<g>
</g>
</svg>
