<?xml version="1.0" encoding="iso-8859-1"?>
<!-- Generator: Adobe Illustrator 19.0.0, SVG Export Plug-In . SVG Version: 6.00 Build 0)  -->
<svg version="1.1" id="Capa_1" xmlns="http://www.w3.org/2000/svg" xmlns:xlink="http://www.w3.org/1999/xlink" x="0px" y="0px"
	 viewBox="0 0 512.002 512.002" style="enable-background:new 0 0 512.002 512.002;" xml:space="preserve">
<g>
	<path style="fill:#FFFFFF;" d="M496.893,202.54c-0.884,2.08-2.723,6.41-4.812,8.469l-1.023,1.009l1.301,0.609
		c1.302,0.609,2.459,1.27,3.438,1.961l1.005,0.71l0.489-1.129c1.805-4.17,2.295-7.918,1.498-11.457l-0.682-3.029L496.893,202.54z"/>
	<path style="fill:#FFFFFF;" d="M488.831,191.119c0.226,0.788,0.455,1.592,0.699,2.414c-0.536,0.803-0.641,1.068-0.384,1.553
		l0.283,0.533h0.602c0.54,0,0.585-0.06,1.701-1.571c0.538-0.667,1.021-1.305,1.471-1.941c0.902-1.245,1.723-2.468,2.513-3.745
		c0.606-0.99,1.199-2.035,1.811-3.194l0.718-1.359l-1.534-0.105c-2.071-0.143-4.036-0.69-6.117-1.27
		c-1.11-0.309-2.259-0.629-3.42-0.88l-1.941-0.419l0.819,1.81C487.255,185.601,488.021,188.281,488.831,191.119z"/>
	<path style="fill:#FFFFFF;" d="M479.978,207.467l-1.057,1.369l1.75,0.276c0.147,0.023,0.299,0.047,0.454,0.08
		c1.246,0.251,3.139,0.653,5.181,1.241l1.657,0.477l-0.408-1.675c-0.226-0.925-0.321-1.915-0.422-2.964
		c-0.198-2.043-0.401-4.156-1.615-5.991l-0.969-1.465l-0.765,1.581c-0.349,0.72-0.712,1.626-1.064,2.502
		c-0.369,0.918-0.788,1.959-1.009,2.292C481.238,205.899,480.689,206.624,479.978,207.467z"/>
	<path style="fill:#FFFFFF;" d="M478.602,191.974l1.086,2.263l0.768-2.389c1.01-3.144,1.646-6.29,1.944-9.617l0.109-1.225
		l-1.221,0.143c-2.61,0.304-5.149,1.256-7.325,2.124l-1.487,0.594l1.186,1.076C475.553,186.658,477.123,188.892,478.602,191.974z"/>
	<path style="fill:#FFFFFF;" d="M467.38,205.958l-0.715,1.166l1.328,0.328c2.177,0.536,4.456,0.769,6.42,0.945l1.296,0.116
		l-0.222-1.282c-0.364-2.107-1.172-5.003-2.959-6.838l-0.763-0.783l-0.712,0.83c-1.154,1.343-2.126,2.956-3.066,4.516
		L467.38,205.958z"/>
	<path style="fill:#FFFFFF;" d="M466.056,191.59l0.763,1.325l0.909-1.23c1.161-1.572,1.893-3.355,2.175-5.299l0.229-1.572
		l-1.517,0.474c-0.856,0.268-1.617,0.465-2.325,0.604c-0.734,0.145-1.478,0.25-2.249,0.361l-1.832,0.263l1.224,1.388
		C464.404,189.004,465.262,190.21,466.056,191.59z"/>
	<path style="fill:#FFFFFF;" d="M456.176,199.912c0.699,0.577,1.37,1.183,2.043,1.79c0.535,0.483,1.072,0.967,1.624,1.439
		l1.326,1.134l0.309-1.717c0.047-0.265,0.082-0.517,0.094-0.76c0.114-2.012-0.224-3.963-0.975-5.645l-0.614-1.374l-1.029,1.098
		c-0.783,0.836-1.683,1.645-2.752,2.473l-0.989,0.766L456.176,199.912z"/>
	<path style="fill:#FFFFFF;" d="M448.262,186.106l-1.831-0.182l0.843,1.636c0.712,1.382,1.384,2.913,2.114,4.819l0.702,1.833
		l1.07-1.645c0.489-0.752,1.034-1.534,1.668-2.393l0.384-0.532c0.352-0.491,0.716-0.998,1.102-1.454l1.305-1.539l-3.118-0.165
		C451.072,186.384,449.662,186.245,448.262,186.106z"/>
	<path style="fill:#FFFFFF;" d="M438.38,161.441l0.826,0.876l0.205,0.224c0.116,0.128,0.243,0.268,0.392,0.423
		c1.355,1.412,3.058,2.396,4.924,2.849c0.635,0.155,1.322,0.233,2.043,0.233c3.072,0,6.066-1.362,7.628-3.469l0.781-1.054
		l-1.524-0.59c-0.966-0.374-1.925-0.746-2.892-1.093l-1.483-0.532l0.149,1.568c0.05,0.524,0.038,1.103-0.036,1.632
		c-0.01,0.075-0.189,0.131-0.344,0.131c-0.154,0-0.334-0.056-0.344-0.132c-0.106-0.782-0.082-1.608,0.065-2.268l0.226-1.011
		l-1.018-0.19c-0.763-0.143-1.52-0.215-2.249-0.215c-2.207,0-4.279,0.643-6.335,1.967L438.38,161.441z"/>
</g>
<g>
	<path style="fill:#FFD160;" d="M506.498,164.582l-0.039-0.053c-6.654-9.081-18.045-11.568-28.199-13.186
		c-4.954-0.792-9.928-1.998-14.739-3.164c-6.025-1.46-12.255-2.971-18.535-3.693c-3.621-0.415-7.854-1.161-11.808-3.543
		c-0.879-0.529-1.794-1.233-2.762-1.979c-2.188-1.684-4.449-3.425-6.755-3.425c-2.089,0-3.746,1.362-5.064,4.165
		c-0.219,0.464-0.436,0.937-0.654,1.413c-2.127,4.636-4.326,9.43-9.35,9.43c-0.559,0-1.154-0.058-1.772-0.171
		c-0.599-0.109-1.214-0.265-1.864-0.43c-1.241-0.315-2.525-0.641-3.78-0.641c-1.803,0-3.199,0.676-4.265,2.062
		c-1.358,1.753-1.498,4.16-1.622,6.283c-0.037,0.634-0.071,1.247-0.141,1.808c-0.438,3.562-1.427,5.932-3.305,7.925
		c-1.083,1.146-2.269,2.128-3.416,3.078c-2.566,2.124-5.22,4.32-6.489,8.273c-1.276,3.972-1.418,9.092-0.387,14.052
		c0.85,4.053,2.759,9.639,7.024,13.239c3.215,2.71,6.944,3.098,10.55,3.473c0.988,0.103,2.011,0.209,3.016,0.362
		c3.093,0.465,5.537,1.568,7.928,3.579c0.417,0.347,0.82,0.712,1.223,1.077c1.518,1.374,3.088,2.794,5.32,3.336
		c0.861,0.211,1.82,0.309,3.017,0.309c0.59,0,1.184-0.023,1.776-0.046c0.564-0.021,1.126-0.044,1.681-0.044
		c0.367,0,0.731,0.01,1.088,0.036c3.007,0.229,5.802,1.219,8.76,2.268c1.489,0.528,3.029,1.074,4.587,1.508
		c4.839,1.35,9.854,1.631,14.705,1.903c0.92,0.052,1.84,0.104,2.759,0.162c4.643,0.298,9.165,1.075,13.825,2.375l0.114,0.032
		c4.378,1.224,9.827,2.746,15.023,2.746c4.9,0,8.719-1.418,11.35-4.215c1.621-1.723,2.214-3.441,1.763-5.105
		c-0.968-3.572-6.523-5.591-10.619-6.8c-3.396-0.999-7.022-1.264-10.53-1.52c-4.683-0.342-9.105-0.666-13.071-2.572
		c-2.22-1.063-3.888-2.658-5.654-4.347c-0.693-0.664-1.395-1.334-2.14-1.984c-2.763-2.413-5.718-2.944-8.576-3.457
		c-1.576-0.283-3.207-0.576-4.832-1.186c-1.766-0.661-3.307-1.711-4.939-2.822c-1.21-0.825-2.462-1.678-3.824-2.365
		c-4.035-2.022-8.579-2.816-12.973-3.585c-0.69-0.121-1.376-0.241-2.057-0.365c-0.229-0.042-0.497-0.146-0.529-0.579
		c-0.032-0.433,0.216-0.995,0.669-1.149c6.061-2.037,12.26-2.298,16.984-2.298c2.729,0,5.526,0.102,8.23,0.201
		c2.719,0.099,5.53,0.202,8.29,0.202c6.417,0,11.274-0.568,15.751-1.84c2.018-0.573,3.946-1.418,5.809-2.236
		c2.192-0.962,4.263-1.87,6.483-2.382c1.047-0.242,2.093-0.36,3.197-0.36c2.24,0,4.42,0.496,6.438,1.031
		c2.878,0.774,6.218,1.6,9.446,1.6c2.484,0,4.565-0.51,6.109-1.476l0.19-0.112l0.036-0.035c4.524-2.942,5.1-8.294,1.575-14.705
		L506.498,164.582z M439.982,176.353c-1.905,0-3.593-1.631-4.459-3.028c-1.114-1.799-1.376-4.005-0.776-6.555l0.07-0.299
		c-0.362,2.352,0.003,4.56,1.059,6.306c1.107,1.838,2.834,2.731,4.545,3.546C440.275,176.343,440.129,176.353,439.982,176.353z
		 M455.324,169.73c0.122-0.414,0.27-0.831,0.422-1.259c0.173-0.488,0.345-0.977,0.487-1.471c0.174-0.6,0.287-1.233,0.365-2.054
		l0.104-1.087l0.066,0.619C456.964,166.307,456.464,168.499,455.324,169.73z M465.567,160.757c-0.551,1.607-1.687,2.421-3.375,2.421
		h-0.001c-0.609,0-1.254-0.11-1.917-0.328l-1.012,1.664c1.513,1.485,2.229,3.68,1.965,6.022c-0.236,2.094-1.214,3.952-2.728,5.251
		c0.224-0.695,0.537-1.375,0.862-2.08c0.523-1.135,1.064-2.309,1.278-3.656c0.391-2.397-0.316-4.483-2.16-6.378l-2.019-2.075
		l0.092,0.866l-1.662,1.684c-1.943,1.969-5.097,3.292-7.848,3.292c-1.759,0-5.463-1.127-7.5-2.962l-2.498-2.251l0.911,3.436
		c0.47,1.779,1.003,3.795,3.129,5.193c1.604,1.053,3.403,1.439,5.142,1.813c0.527,0.113,1.041,0.224,1.539,0.349
		c-0.262,0.02-0.527,0.029-0.795,0.029c-3.75,0-7.31-1.9-8.856-4.72c-0.073-0.137-0.192-0.608-0.279-0.952
		c-0.29-1.149-0.564-2.235-1.39-2.642l-1.118-0.551l-0.043,0.177l-2.058,1.343c-0.188,0.123-0.335,0.194-0.416,0.209
		c-0.183,0.028-0.362,0.042-0.538,0.042c-1.529,0-3.016-1.101-3.787-2.805c-0.97-2.151-0.354-4.047,0.334-5.259
		c0.997-1.757,2.817-3.236,4.753-3.99c-0.195,0.182-0.396,0.365-0.6,0.55c-1.124,1.021-2.285,2.077-2.974,3.534
		c-0.902,1.916-0.568,3.143-0.129,3.835c0.53,0.835,1.497,1.315,2.652,1.315c1.033-0.001,2.145-0.378,3.13-1.062
		c1.117-0.771,2.008-1.593,2.869-2.388c1.872-1.727,3.35-3.091,6.354-3.215c0.142-0.006,0.286-0.009,0.433-0.009
		c4.574,0,11.264,2.733,14.61,5.968l0.211,0.204l0.288,0.058c0.403,0.081,0.767,0.12,1.11,0.12c1.462,0,2.535-0.738,3.103-2.134
		c0.458-1.128,0.433-2.27-0.074-3.304c-0.534-1.091-1.481-1.873-2.406-2.415c1.169,0.305,2.214,0.993,2.894,1.943
		C465.612,157.698,466.164,159.012,465.567,160.757z M496.808,172.859c-0.068,0.017-0.142,0.025-0.22,0.025
		c-0.261,0-0.568-0.089-0.89-0.258l-0.133-0.07l-0.147-0.028c-0.142-0.026-0.263-0.064-0.378-0.116
		c-0.902-0.413-1.434-1.527-1.163-2.421c0.26-0.829,1.129-1.43,2.066-1.43c0.058,0,0.117,0.002,0.176,0.007
		c1.051,0.088,1.838,0.881,1.959,1.966C498.174,171.464,497.675,172.648,496.808,172.859z M502.419,172.332
		c-0.197-0.741-0.201-1.651-0.205-2.602c-0.007-1.801-0.015-3.842-1.483-5.225c-0.61-0.578-1.375-0.881-2.332-0.922
		c0.218-0.021,0.419-0.031,0.611-0.031c0.733,0,1.302,0.153,1.739,0.471c0.998,0.719,1.237,2.296,1.448,3.689l0.129,0.84
		C502.527,169.834,502.751,171.26,502.419,172.332z"/>
	<path style="fill:#FFD160;" d="M383.717,456.406c0.742-0.131,1.486-0.197,2.213-0.197c3.439,0,6.65,1.473,9.3,4.279l1.063,1.428
		l0.667-1.65c2.358-5.83-3.857-8.756-9.341-11.338c-2.726-1.284-5.544-2.611-6.814-4.105c-3.496-4.107-2.018-10.26-0.714-15.689
		c0.244-1.014,0.479-1.994,0.671-2.92c2.369-11.415,2.653-21.108,0.894-30.506c-1.037-5.548-2.809-10.908-4.523-16.092
		c-0.668-2.021-1.336-4.042-1.964-6.079l-0.468-1.519l-1.167,1.08c-5.327,4.929-13.831,11.699-24.094,15.96l-0.716,0.297l0.11,0.768
		c1.039,7.263,1.56,14.763,2.063,22.015c0.224,3.235,0.456,6.581,0.731,9.857c0.514,6.085,1.091,12.287,1.601,17.76
		c0.131,1.397,0.329,2.848,0.519,4.252c0.527,3.879,1.072,7.89,0.392,11.451c-0.031,0.067-0.06,0.135-0.085,0.208l-0.383,1.156
		l1.208,0.151c2.458,0.309,4.588,1.152,6.329,2.506c2.578,2.013,3.985,4.859,4.708,9.515l1.976-0.309
		c0.051,0.324-0.124,0.584-0.23,0.651c0.399-0.256,2.757-0.688,9.068-0.688c2.435,0,4.311,0.064,4.658,0.091
		c0.596,0.04,1.201,0.07,1.809,0.101c1.794,0.091,3.65,0.185,5.347,0.531c0.325,0.067,0.804,0.258,1.311,0.46
		c0.933,0.372,1.989,0.793,2.943,0.793c0.314,0,0.605-0.046,0.875-0.138c3.026-1.057,3.189-2.918,3.017-3.934
		c-0.697-4.112-9.536-9.031-12.754-9.031c-0.458,0-0.518-0.605-0.518-0.611C383.377,456.467,383.636,456.42,383.717,456.406z"/>
	<path style="fill:#FFD160;" d="M81.342,490.67c12.779,3.741,26.43,5.559,41.734,5.559c2.979,0,6.082-0.07,9.22-0.209l2.425-0.107
		c4.865-0.218,9.896-0.443,14.822-0.443c6.533,0,11.901,0.39,16.894,1.228l0.57-1.901c-6.206-2.743-13.52-3.793-19.974-4.72
		c-1.22-0.175-2.411-0.346-3.559-0.523c-5.445-0.84-10.998-1.552-16.367-2.241c-7.301-0.937-14.851-1.906-22.21-3.205
		c-6.958-1.238-12.534-2.541-17.549-4.101l-0.154-0.048c0,0-0.604,0.009-0.828,0.009c-14.082,0-29.746-7.93-38.977-19.731
		c-4.865-6.226-7.913-13.757-9.057-22.387c-1.058-7.92-1.353-14.395-0.901-19.878c0-0.258,0-0.526,0.01-0.803
		c0.197-11.319,3.85-23.408,10.286-34.04c6.929-11.453,17.211-20.036,31.434-26.241c3.334-1.455,6.783-2.811,10.118-4.123
		c4.263-1.677,8.672-3.411,12.913-5.376c1.674-0.774,3.336-1.567,4.995-2.359c5.365-2.56,10.913-5.207,16.683-7.077
		c11.392-3.681,23.361-5.626,34.614-5.626c4.903,0,9.705,0.368,14.271,1.092l1.06,0.168l0.093-1.069
		c0.257-2.962,1.201-6.053,2.032-8.779l0.22-0.721c0.77-2.572,1.996-4.546,3.552-6.423c-1.351,2.207-2.567,4.549-3.176,7.255
		c-0.053,0.234-0.096,0.468-0.138,0.702l1.838,0.698c2.768-4.558,6.059-8.213,10.057-11.172c0.082-0.06,0.134-0.067,0.166-0.067
		c0.166,0,0.426,0.203,0.533,0.495c0.103,0.278-0.014,0.377-0.072,0.427c-13.382,11.499-16.234,27.983-18.993,43.925
		c-0.476,2.753-0.969,5.599-1.507,8.362c-1.318,6.742-3.153,14.387-8.265,19.784c-0.98,1.035-2.085,1.937-3.255,2.891
		c-1.921,1.568-3.909,3.188-5.289,5.441c-2.578,4.178-2.715,9.346-2.838,13.977c-0.198,6.937-0.252,13.992-0.304,20.815
		c-0.022,2.866-0.044,5.73-0.076,8.594l-0.038,3.507c-0.04,3.599-0.08,7.195-0.102,10.8c-0.002,0.654-0.039,1.365-0.075,2.102
		c-0.11,2.201-0.235,4.695,0.45,6.708c1.344,3.896,4.872,4.97,8.072,5.671c7.545,1.648,15.605,1.859,21.783,1.859
		c2.152,0,4.286-0.029,6.374-0.066l0.391-0.002l1.283,0.006c2.065,0,5.909,0,7.092-3.591c0.648-1.968-0.135-4.488-1.136-5.995
		c-2.077-3.136-6.444-4.661-13.352-4.661c-0.942,0-1.841,0.026-2.639,0.057c2.444-0.457,5.188-0.902,7.771-0.902
		c4.757,0,7.927,1.466,9.978,4.613l0.41,0.628l0.718-0.217c0.714-0.216,1.449-0.388,2.185-0.51l1.069-0.178l-0.263-1.052
		c-0.053-0.209-0.078-0.458-0.11-0.774c-0.021-0.21-0.045-0.439-0.078-0.688c-0.382-3.034-2.005-5.354-4.704-6.713
		c-0.448-0.219-0.938-0.41-1.457-0.568l-0.189-0.058l-0.732,0.069c-3.042,0.285-6.188,0.581-9.317,0.581
		c-4.308,0-7.686-0.59-10.326-1.804c-4.139-1.902-3.891-8.876-3.376-12.861c1.329-10.096,6.541-17.701,15.937-23.25l0.31-0.215
		l0.082-0.205l0.259,0.046l0.311-0.175c1.529-0.859,3.116-1.648,4.706-2.339l0.364-0.156c14.002-6.122,25.549-11.572,36.076-21.22
		c5.208-4.783,10.093-10.329,14.932-16.957c2.417-3.307,4.275-6.9,6.073-10.375c0.865-1.672,1.76-3.401,2.7-5.063l0.074-0.132
		l0.032-0.148c1.395-6.424,2.646-13.724,2.282-21.284c1.169,5.342,1.344,10.391,0.516,15.079l1.933,0.491
		c1.158-3.462,1.927-6.993,2.307-10.568c0.281,9.348-1.952,16.267-6.799,21.352l-1.424,1.494l2.724,0.254
		c4.115,0.385,8.002,0.749,12.056,0.749c2.14,0,4.121-0.102,6.057-0.313c7.006-0.765,13.955-2.36,20.674-3.903l3.765-0.859
		l0.012-0.787c0.056-3.883,0.715-7.738,1.958-11.458l0.388-1.159l-0.952-0.118c-1.869-8.264,3.812-15.084,8.396-19.07
		c-1.932,2.444-3.44,4.692-4.695,6.978c-1.067,1.934-1.551,4.084-1.94,5.813l1.849,0.707c1.177-2.113,2.566-4.199,4.158-6.246
		c-3.318,4.767-5.55,9.478-6.663,14.074c-2.209,9.117,0.056,18.339,2.246,27.257l0.115,0.467c3.884,15.804,6.328,31.923,7.263,47.91
		c0.478,8.126,0.432,16.628-0.14,25.991c-0.27,4.502-0.608,8.407-1.035,11.941c-0.087,0.728-0.211,1.486-0.336,2.255
		c-0.704,4.309-1.579,9.671,4.073,11.838c3.654,1.393,8.161,2.07,13.778,2.07c3.713,0,7.422-0.298,10.56-0.589
		c0.44-0.041,0.945-0.07,1.487-0.101c2.805-0.162,6.646-0.382,8.282-2.579c0.749-1.006,0.948-2.277,0.591-3.777
		c-1.212-5.092-7.215-8.425-11.984-9.732c-0.083-0.023-0.115-0.048-0.118-0.048c-0.005-0.02,0-0.095,0.057-0.173
		c0.068-0.092,0.15-0.107,0.23-0.107c0.017,0,0.033,0,0.05,0.001c3.788,0.546,7.616,2.375,10.241,4.892l1.467,1.407l0.219-2.021
		c0.021-0.19,0.11-0.363,0.283-0.541c1.125-1.191,1.623-2.479,1.483-3.83c-0.327-3.138-3.967-5.664-7.178-7.893
		c-1.289-0.895-2.508-1.74-3.133-2.399c-2.153-2.289-3.462-5.478-4.119-10.039c-1.351-9.289-1.675-20.3-0.912-31.004
		c0.388-5.393,1.572-10.772,2.717-15.975c1.349-6.129,2.744-12.467,2.875-18.935c0.172-8.19,0.017-16.019-0.462-23.261
		c-0.04-0.675-0.09-1.35-0.141-2.024c0,0-0.041-0.492-0.052-0.625l1.206-0.738c12.271-7.502,21.759-17.084,28.2-28.482
		c7.78-13.789,8.226-27.71,8.698-42.448c0.415-12.771,3.008-25.059,7.706-36.525c2.427-5.931,5.37-11.319,8.746-16.014l0.335-0.464
		c1.978-2.75,4.22-5.866,6.938-7.923l1.892-1.432l-2.346-0.354l-0.584-0.079c-3.908-0.615-6.861-1.955-9.295-4.215
		c-6.487-6.021-8.58-16.445-8.401-23.538c0.018-0.632,0.063-1.296,0.136-2.03l-1.865-0.592
		c-6.961,12.287-14.851,26.213-14.119,43.416c0.098,2.316,0.247,4.639,0.392,6.886c0.846,13.127,1.645,25.527-7.634,36.393
		c-6.412,7.503-15.833,11.807-25.847,11.807c-3.788,0-7.515-0.624-11.077-1.853c-11.439-3.944-17.268-13.231-23.44-23.063
		c-1.572-2.505-3.198-5.095-4.915-7.572c-6.594-9.502-13.621-19.694-22.116-32.075l-0.779-1.136
		c-7.682-11.203-15.626-22.788-17.204-36.324c-1.475-12.69,3.283-24.879,7.593-34.081c2.093-4.469,4.475-8.906,6.78-13.197
		c0.867-1.615,1.734-3.229,2.589-4.85c3.05-5.78,6.506-12.331,6.265-19.4c-0.282-8.467-6.745-13.197-12.781-16.966
		c-5.867-3.657-11.971-7.154-17.874-10.536l-0.948-0.543c-12.723-7.282-25.417-14.19-37.242-20.572
		c-2.207-1.19-4.414-2.406-6.627-3.625c-10.376-5.717-21.105-11.629-32.571-15.189c-11.282-3.493-22.824-4.373-33.616-4.804
		l-0.251,1.977c8.8,1.902,17.349,4.608,25.41,8.042c19.05,8.112,37.203,19.241,54.757,30.002
		c5.761,3.532,11.718,7.184,17.596,10.659c3.512,2.076,7.04,4.128,10.57,6.181c3.034,1.765,6.068,3.53,9.092,5.31
		c0.601,0.354,1.225,0.704,1.857,1.06c3.258,1.83,6.627,3.724,8.322,6.819c4.083,7.443-3.181,18.537-7.988,25.877
		c-0.838,1.28-1.615,2.466-2.268,3.529c-2.05,3.342-4.123,6.672-6.196,10.003c-4.876,7.833-9.918,15.934-14.58,24.084
		c-0.331,0.581-0.689,1.181-1.055,1.798c-2.039,3.428-4.35,7.314-4.386,11.277c-0.037,3.429,1.622,6.625,3.086,9.446
		c0.231,0.446,0.461,0.888,0.681,1.326l1.189,2.357c2.335,4.63,4.749,9.418,7.175,14.101c12.53,24.221,26.29,45.395,42.063,64.733
		l0.162,0.199l0.237,0.096c6.214,2.522,11.435,6.455,15.524,11.697c0.12,0.15,0.192,0.31,0.228,0.505l0.053,0.256l0.155,0.196
		c0.731,0.924,1.488,1.879,2.441,2.736c2.888,2.573,8.464,3.745,12.422,3.745c0.728,0,1.412-0.037,2.047-0.111
		c-1.689,1.184-3.761,1.802-6.08,1.802c-4.196,0-8.596-1.997-11.48-5.211l-1.81-2.017c0.006-0.046,0.055-0.43,0.055-0.43
		l-0.496-1.042l-0.113-0.117c-8.15-8.468-18.68-12.583-32.19-12.583c-11.05,0-22.438,2.731-33.098,5.683l-0.456,0.126l-0.192,0.432
		c-0.172,0.389-0.591,0.431-0.764,0.431c-0.196,0-0.394-0.049-0.557-0.14l-0.434-0.166l-0.503,0.128
		c-0.102,0.029-0.209,0.043-0.321,0.043c-0.611,0-1.193-0.422-1.326-0.964c-0.451-1.802-1.044-3.619-1.763-5.401l-0.256-0.635
		l-0.684,0.009c-14.399,0.184-27.086,6.831-39.355,13.259c-1.994,1.044-3.983,2.086-5.975,3.099
		c-6.16,3.125-13.489,6.591-21.142,8.605c-6.366,1.679-13.047,2.404-19.508,3.106c-1.998,0.217-3.996,0.434-5.988,0.678
		c-30.759,3.747-58.045,17.275-76.831,38.093c-19.739,21.867-29.407,52.804-25.861,82.757c1.907,16.086,7.518,30.887,16.226,42.803
		C47.42,476.319,61.009,484.724,81.342,490.67z M290.188,289.304c0.672,3.822,2.514,6.63,5.326,8.12
		c2.767,1.469,6.811,2.346,10.817,2.345c0.309,0,0.613-0.005,0.912-0.015c-0.981,0.21-2.053,0.318-3.193,0.318
		c-3.739,0-7.664-1.151-10.242-3.003c-2.732-1.971-3.995-4.921-3.835-8.986L290.188,289.304z"/>
	<path style="fill:#FFD160;" d="M321.797,136.58l1.168,1.262l0.719-0.963c2.311-3.096,5.051-6.742,7.847-10.312
		c0.36-0.461,0.732-0.907,1.099-1.348c1.625-1.949,3.304-3.965,3.559-6.819c0.23-2.582-0.684-4.984-1.568-7.306
		c-0.201-0.528-0.401-1.053-0.583-1.572c-3.71-10.635-8.186-18.97-14.088-26.232c-18.748-23.047-46.921-41.651-81.474-53.802
		c-15.243-5.37-31.794-9.518-50.596-12.683c-11.695-1.969-25.557-3.982-39.692-3.982c-1.711,0-3.42,0.03-5.08,0.089l-0.416,1.892
		c2.032,1.029,4.21,2.238,6.66,3.697l0.126,0.075l0.143,0.036c6.296,1.575,12.634,3.577,18.765,5.513
		c2.508,0.792,5.01,1.582,7.507,2.343c9.694,2.95,20.953,6.389,31.887,9.886l4.766,1.52c16.832,5.362,34.236,10.907,50.738,17.889
		c16.266,6.881,34.55,15.337,45.672,28.65c3.662,4.386,7.781,11.318,6.608,19.436c-1.05,7.257-5.783,13.129-10.54,18.521
		l-0.944,1.07l1.329,0.522c3.611,1.419,6.938,3.451,9.884,6.039C317.603,132.041,319.735,134.349,321.797,136.58z"/>
	<path style="fill:#FFD160;" d="M313.653,152.77L313.653,152.77l0.071-0.097l0.315-0.615l-0.351-0.495
		c-1.077-1.519-2.071-3.085-2.955-4.653c-0.672-1.194-1.335-2.415-2.001-3.644c-2.384-4.397-4.849-8.943-8.066-12.751l-1.102-1.303
		l-0.599,1.598c-0.711,1.897-1.745,3.757-2.745,5.556c-0.575,1.034-1.169,2.103-1.705,3.182c-2.062,4.173-3.984,8.536-5.716,12.97
		c-3.023,7.78-5.479,15.754-7.303,23.7c-1.943,8.532-3.206,17.209-3.753,25.788c-0.273,4.304-0.382,8.629-0.322,12.86
		c0.017,1.077,0.084,2.171,0.149,3.229c0.125,2.043,0.254,4.154,0.018,6.147l-0.043,0.367l0.206,0.307
		c6.38,9.527,12.086,18.169,17.307,27.44c1.26,2.264,2.665,4.498,4.177,6.64l1.78-0.846c-1.607-5.751-2.441-12.018-3.111-17.053
		c-1.375-10.33-1.68-20.724-0.904-30.892C298.196,194.546,302.049,171.898,313.653,152.77z"/>
	<path style="fill:#FFD160;" d="M186.363,446.319c1.229,1.482,3.316,1.6,5.335,1.713l0.118,0.007
		c1.555,0.088,3.317,0.188,4.541,1.049c0.802,0.564,1.722,1.595,2.462,2.759l0.426,0.67l0.749-0.263
		c1.398-0.491,2.853-0.751,4.208-0.751c1.749,0,4.244,0.435,6.205,2.505c3.164,3.338,3.636,9.103,3.636,12.242v1.031l1.031-0.032
		c0.438-0.014,0.877-0.02,1.318-0.02c2.976,0,6.075,0.289,9.072,0.568c1.722,0.161,3.503,0.326,5.219,0.431
		c0.129,0.007,0.438,0.053,0.836,0.109c0.956,0.135,2.4,0.339,3.358,0.339c0.6,0,1.208-0.063,1.585-0.518
		c0.3-0.36,1.212-1.457-0.892-5.572c-1.359-2.603-3.687-4.191-5.984-5.272c1.56,0.034,3.163,0.553,4.647,1.506l2.127,1.366
		l-0.688-2.736c-0.71-2.831-1.444-5.758-4.409-7.76c-2.461-1.66-5.446-2.085-8.333-2.496c-1.22-0.173-2.373-0.337-3.463-0.589
		c-6.566-1.504-12.026-4.703-15.374-9.009c-5.346-6.886-6.059-20.836,3.15-33.127l2.201-2.937l-3.387,1.415
		c-2.39,0.999-4.944,1.932-7.414,2.834c-2.748,1.005-5.591,2.043-8.319,3.207c-1.783,0.752-3.51,1.573-5.132,2.439l-0.685,0.366
		l0.184,0.754c0.83,3.397,0.844,7.165,0.856,10.81c0.005,1.358,0.01,2.701,0.056,4.008c0.107,3.018,0.196,6.035,0.284,9.053
		l0.006,0.21c0.02,0.688-0.118,1.62-0.262,2.606C185.268,441.71,184.856,444.515,186.363,446.319z"/>
</g>
<path style="fill:#F26646;" d="M507.708,149.665l-1.002-2.586c-0.549-1.417-1.291-2.75-2.204-3.96l-0.877-1.164l-0.77,1.237
	c-0.486,0.782-1.037,1.579-1.732,2.509l-0.45,0.602l-0.128,0.16c-0.934,1.161-1.872,2.168-2.866,3.08l-0.866,0.793l-0.113,0.018
	l-0.202,0.158c-0.148,0.116-0.291,0.238-0.434,0.36c-0.156,0.133-0.311,0.268-0.479,0.389l-1.335,0.97l1.478,0.735
	c3.845,1.912,6.98,4.309,9.316,7.124l1.172,1.412l0.551-1.749c0.283-0.898,0.495-1.806,0.667-2.71l0.207,0.336l0.161-3.217
	c0.079-1.583-0.056-3.147-0.385-4.658L507.708,149.665z"/>
<path style="fill:#FF8E69;" d="M424.331,220.994c-1.059-0.083-2.08-0.119-3.071-0.154c-3.584-0.128-6.68-0.237-9.782-2.586
	c-0.762-0.579-1.46-1.213-2.136-1.827c-1.614-1.466-3.282-2.982-5.818-3.733c-1.402-0.427-2.825-0.58-4.163-0.699l-0.693-0.062
	l-0.299,0.629c-0.18,0.379-0.379,0.748-0.588,1.118c-0.213,0.379-0.437,0.748-0.67,1.127l-0.178,0.289l-0.333,0.502
	c-1.016,1.529-2.197,3.053-3.338,4.525c-0.744,0.96-1.505,1.95-2.227,2.942l-0.01-0.018l-0.304,0.444l-0.399,0.557l0.01,0.011
	l-0.224,0.327c-0.411,0.601-0.794,1.203-1.138,1.791c-1.5,2.567-2.911,5.316-4.206,8.17l-0.015-0.022l-0.713,1.65
	c-1.314,3.04-2.484,6.199-3.477,9.388c-0.289,0.92-0.556,1.849-0.815,2.777l-0.02-0.019l-0.429,1.636
	c-0.984,3.749-1.8,7.834-2.496,12.462l-0.034-0.032l-0.263,1.94c-0.537,3.955-0.961,8.188-1.332,13.258l-0.015-0.011l-0.12,1.78
	c-0.2,2.962-0.39,5.935-0.57,8.919l-0.108,1.457l0.005,0.004l-0.065,0.707c-0.309,3.359-0.876,6.756-1.686,10.095l-0.104,0.43
	l-0.191,0.733c-0.701,2.68-1.584,5.354-2.702,8.175l-0.221,0.559l-0.222,0.534c-1.033,2.483-2.271,5.026-3.68,7.558l-0.492,0.884
	l-0.029,0.049c-1.285,2.206-2.647,4.309-4.049,6.253l-0.602,0.818c-2.033,2.76-4.387,5.51-6.999,8.173l-0.127,0.161l-0.644,0.639
	c-2.666,2.647-5.586,5.145-8.679,7.424l-0.857,0.632c-2.122,1.514-4.311,2.931-6.51,4.208c-0.08,0.046-0.16,0.077-0.269,0.102
	l-1.66,0.391l1.152,1.257c0.301,0.329,0.577,0.688,0.856,1.042l-0.977,0.365c1.126,7.256,2.262,15.826,2.148,24.373
	c-0.066,4.933-1.082,9.627-2.304,14.815l-0.415,1.764l2.463-0.847c3.335-1.145,6.484-2.227,9.646-3.489l0.041-0.017l-0.001,0.011
	l1.513-0.63c3.928-1.636,7.14-3.287,10.179-5.247l-0.001,0.019l1.63-1.109c2.938-1.999,5.791-4.217,8.48-6.59l0.001,0.041
	l1.638-1.525c2.273-2.116,4.511-4.424,6.659-6.873c0.605-0.707,1.202-1.418,1.787-2.132l-0.006,0.095l1.982-2.584
	c3.77-4.915,7.181-10.354,10.138-16.164l0.07-0.139l0.002,0.009l1.189-2.494c1.814-3.804,3.408-7.624,4.739-11.355l0.071-0.199
	l0.013,0.023l0.711-2.11c1.208-3.585,2.283-7.247,3.19-10.877c0.071-0.274,0.133-0.549,0.194-0.821
	c0.037-0.166,0.075-0.331,0.114-0.495l0.014,0.013l0.165-0.751l0.006-0.026l0,0l0.206-0.937c0.931-4.229,1.714-8.747,2.464-14.219
	l0.054-0.396l0.005,0.001l0.142-1.069c0.315-2.383,0.612-4.77,0.909-7.156c0.14-1.129,0.512-4.075,0.677-5.384l0.003-0.001
	l0.092-0.7c0.521-3.96,1.055-7.438,1.632-10.632l0.076-0.417l0.009,0.001l0.173-0.903c0.639-3.324,1.313-6.242,2.06-8.915
	c0.189-0.666,0.378-1.322,0.576-1.987l0.214-0.717l0,0l0.245-0.809c0.813-2.684,1.671-5.256,2.551-7.644l0.44-1.194h-0.002
	l0.109-0.287c1.112-2.934,2.27-5.693,3.441-8.202l0.249-0.533l0.013,0.005l0.392-0.808c1.995-4.108,4.023-7.669,6.198-10.887
	l0.797-1.179l0.228-0.32c1.704-2.388,3.488-4.565,5.301-6.472l1.208-1.271l-1.709-0.393
	C428.108,221.456,426.174,221.141,424.331,220.994z"/>
<path style="fill:#F26646;" d="M416.4,70.953c-4.006-3.885-9.26-6.438-13.389-8.229l-1.142,1.586l0.193,0.214
	c1.615,1.795,3.141,3.49,4.036,5.657c0.458,1.116,0.79,2.328,0.986,3.602l0.099,0.642l-0.002,0.001l0.056,0.642
	c0.152,1.761,0.089,3.618-0.195,5.677l-0.191,1.385l-0.043,0.025l-0.087,0.446c-0.461,2.377-1.16,4.762-1.837,7.068l-1.095,3.767
	l0.036-0.021c-0.493,1.881-1.006,4.18-1.185,6.546c-0.01,0.08-0.012,0.16-0.011,0.263l-0.28,2.576l0.235-0.208
	c0.039,1.888,0.271,3.829,0.71,5.934l0.048,0.231l-0.013,0.007l0.146,0.634l0.124,0.596l0.022-0.015
	c0.457,1.908,0.989,3.77,1.559,5.729l0.635,2.201l0.002,0.099l0.005,0.009v0.337l0.147,0.09l0.049,0.171l0.117-0.07l0.166,0.101
	c3.13,1.906,5.839,3.747,8.28,5.628l0.36,0.277l0.93,0.756c2.39,1.944,4.416,3.86,6.194,5.859l0.391,0.44l0.574-0.128
	c0.364-0.082,0.714-0.122,1.071-0.122c0.146,0,0.296,0.007,0.449,0.021c1.293,0.119,2.607,0.641,4.134,1.641l2.187,1.433
	l-0.672-2.526c-0.669-2.514-1.439-5.438-2.112-8.33l-0.115-0.491l-0.014-0.006l-0.218-0.999c-0.257-1.179-0.496-2.349-0.713-3.528
	l-0.09-0.488l-0.023-0.012l-0.202-1.284c-0.332-2.113-0.56-4.388-0.74-7.375l-0.029-0.486l-0.006-0.004l-0.074-1.646
	c-0.069-1.523-0.119-3.036-0.169-4.597l-0.013-0.384l-0.005-0.006l-0.062-1.754c-0.085-2.41-0.182-4.251-0.311-5.958
	c-0.028-0.431-0.065-0.861-0.102-1.3l-0.002-0.027l0.029,0.022l-0.279-2.349c-0.21-1.765-0.516-3.456-0.876-5.083l0.173,0.137
	l-0.891-3.019c-1.171-3.968-2.828-7.229-5.064-9.969l-0.157-0.192l0.179,0.009L416.4,70.953z"/>
<g>
	<path style="fill:#FF8E69;" d="M399.138,460.792l1.268,0.009c1.191,0.008,2.561,0.24,4.07,0.688
		c2.147,0.642,3.678,2.079,4.962,4.658l0.521,1.046l0.953-0.677c0.752-0.534,1.692-0.808,2.875-0.836l1.008-0.024l-0.032-1.007
		c-0.104-3.26-2.222-6.052-5.807-7.66c-2.978-1.348-5.478-1.646-8.548-1.689l-1.275-0.018l0.287,1.242
		c0.249,1.076,0.256,2.097,0.024,3.035L399.138,460.792z"/>
	<path style="fill:#FF8E69;" d="M398.153,461.936l-0.282,0.282l-0.734,0.625l0.441,0.728c1.081,1.779,1.644,3.362,1.675,4.704
		l0.027,1.16l1.143-0.198c0.731-0.126,1.501-0.175,2.321-0.228c0.504-0.031,1.013-0.047,1.523-0.047c1.071,0,2.134,0.07,3.161,0.21
		l1.589,0.216l-0.505-1.522c-0.632-1.904-1.861-4.545-5.216-5.487c-1.223-0.347-2.562-0.516-4.093-0.516
		c-0.196,0-0.392,0.003-0.587,0.008L398.153,461.936z"/>
</g>
<g>
	<path style="fill:#F26646;" d="M395.726,116.476l-2.01-1.169c-2.54-1.478-5.08-2.957-7.61-4.455l-1.19-0.71
		c-3.49-2.082-6.603-4.017-9.516-5.918l-0.466-0.305l-0.017,0.008l-0.899-0.598c-2.579-1.716-5.106-3.503-7.52-5.311l0.005-0.002
		l-1.456-1.102c-0.691-0.523-1.373-1.057-2.045-1.601c-1.403-1.133-2.785-2.286-4.16-3.445l-1.299-1.107
		c-2.426-2.069-4.82-4.19-6.634-5.806l-0.533-0.476l-0.001,0.001l-0.629-0.57c-2.009-1.819-4.019-3.639-6.018-5.459l-0.187-0.17
		l0.005-0.003l-0.988-0.897c-1.952-1.772-3.914-3.544-5.886-5.306l-0.162-0.145l0.006-0.004l-0.936-0.833
		c-2.004-1.784-4.049-3.565-6.076-5.294l-0.573-0.489l-0.004,0.003l-0.628-0.528c-1.396-1.175-2.811-2.33-4.238-3.475l-0.522-0.419
		l-0.017,0.009l-0.637-0.504c-3.949-3.126-7.623-5.796-11.232-8.163l-2.883-1.89l1.424,3.14c1.814,3.999,4.208,8.04,7.319,12.352
		l0.979,1.357l0.015-0.031c1.368,1.828,2.818,3.659,4.43,5.59l0.723,0.865l-0.002,0.008l0.345,0.407
		c0.011,0.013,0.023,0.026,0.034,0.039l0.208,0.249l0.001-0.006c0.733,0.853,1.469,1.698,2.252,2.594
		c0.565,0.648,1.139,1.286,1.714,1.924c0.385,0.427,0.77,0.854,1.152,1.284l1.357,1.53l0.005-0.028
		c1.775,1.962,3.592,3.938,5.545,6.027l0.938,1.003l0.001,0.011l7.146,7.593v-0.019l1.333,1.413
		c1.213,1.286,2.426,2.571,3.633,3.859l0.648,0.692l-0.001,0.015l0.293,0.313c1.918,2.048,3.826,4.116,5.725,6.175l0.573,0.621
		l-0.001,0.006l1.674,1.81c1.8,1.946,3.599,3.893,5.424,5.814l1.32,1.389l0.003-0.018c2.806,2.93,5.354,5.48,7.758,7.76l0.11,0.104
		l1.97,1.948l-0.012-0.144c2.063,1.859,4.291,3.755,6.986,5.939l1.668,1.352v-0.021c1.844,1.474,3.697,2.935,5.555,4.389
		l1.387,1.086v0.009l0.359,0.283c1.711,1.35,3.533,2.793,5.331,4.284l0.504,0.418l-0.185,1.104l1.026-0.406l0.026,0.022l0.005-0.034
		l0.59-0.234c0.795-0.315,1.661-0.468,2.647-0.468c0.812,0,1.709,0.109,2.665,0.324l0.134,0.03c0.893,0.202,1.739,0.393,2.55,0.547
		l0.37,0.07l-0.008,0.028l0.322,0.031l0.37,0.07l0.004-0.034l0.482,0.047c0.373,0.037,0.737,0.056,1.093,0.056
		c3.039,0,5.118-1.468,6.74-4.758c0.467-0.944,0.854-1.924,1.228-2.872c0.419-1.061,0.815-2.063,1.315-3.022
		c0.595-1.15,1.285-2.134,2.05-2.925l0.779-0.805l-0.888-0.683c-0.159-0.122-0.325-0.241-0.49-0.358l0.009-0.005l-0.564-0.399
		l-0.434-0.316l-0.006,0.005l-0.297-0.21c-1.277-0.903-2.441-1.705-3.565-2.465l0.037-0.006l-2.16-1.418
		c-2.013-1.321-4.159-2.674-6.519-4.112l0.024-0.004l-2.268-1.364c-2.631-1.582-5.318-3.15-7.957-4.687L395.726,116.476z"/>
	<path style="fill:#F26646;" d="M359.944,170.551c0.464-0.01,0.927-0.031,1.412-0.061l0.706-0.045l0.002,0.012l1.511-0.102
		c1.941-0.132,3.949-0.268,5.925-0.268c0.538,0,1.076,0.01,1.609,0.033l0.388,0.017l0.744,0.061
		c2.038,0.166,3.759,0.557,5.261,1.194l1.219,0.517l0.012,0.093l0.404,0.249c0.309,0.191,0.599,0.4,0.89,0.627l0.785,0.613
		l0.616-0.783c0.06-0.076,0.116-0.155,0.17-0.233c0.038-0.054,0.074-0.108,0.136-0.183c1.246-1.567,2.78-2.773,4.265-3.939
		c2.904-2.281,5.908-4.64,6.456-9.562c0.375-3.345,0.899-6.786,2.186-9.284l0.393-0.763l-0.695-0.504
		c-0.237-0.172-0.473-0.333-0.71-0.484l-0.024-0.015l0.238-0.073l-2.259-1.115c-2.454-1.211-5.089-1.8-8.056-1.8
		c-1.388,0-2.824,0.128-4.392,0.39l-0.264,0.044l-0.207,0.17c-0.744,0.612-1.448,1.21-2.122,1.814l-0.712-1.32
		c-2.671,0.688-5.373,1.622-7.986,2.526l-1.041,0.359l-0.06,0.059l-1.995,0.631l-0.587,0.192c-2.828,0.917-5.376,1.625-7.79,2.165
		l-0.216,0.049l-0.073,0.056l-1.994,0.368c-2.657,0.491-5.228,0.744-7.642,0.753l-0.345,0.001l-0.034,0.027l-1.283-0.057
		c-2.288-0.101-4.474-0.436-6.499-0.995l-0.494-0.136l-0.022,0.018l-1.103-0.383c-2.013-0.698-3.943-1.689-5.902-3.031l-0.646-0.442
		l-0.002,0.002l-0.368-0.275c-1.233-0.922-2.49-2.007-3.844-3.318l-0.4-0.387l-0.014,0.004l-0.524-0.525
		c-1.69-1.69-3.333-3.53-4.922-5.309l-0.474-0.531l0.002-0.001l-0.16-0.176l-0.274-0.307l-0.003,0.001l-0.791-0.871
		c-0.206-0.229-0.413-0.459-0.619-0.679c-1.184-1.284-2.459-2.501-3.779-3.648l0.08-0.019l-1.637-1.29
		c-1.318-1.039-2.73-2.005-4.192-2.885l0.059-0.032l-1.621-0.877c-3.086-1.67-6.298-2.855-9.545-3.52l-0.812,1.771
		c2.052,1.586,3.983,3.56,5.901,6.032l0.256,0.33l0.423,0.566c0.849,1.135,1.718,2.404,2.657,3.879l0.716,1.124l-0.004,0.015
		l0.212,0.356c0.407,0.685,0.814,1.369,1.212,2.065c0.935,1.631,1.972,3.318,3.169,5.158l0.445,0.683l-0.005,0.012l0.29,0.429
		c0.012,0.018,0.024,0.035,0.037,0.053l0.356,0.548l0.008-0.022c1.461,2.126,2.895,4.023,4.366,5.758l1.335,1.576l0.009-0.047
		c2.191,2.396,4.41,4.432,6.786,6.223l1.842,1.389l-0.01-0.092c0.968,0.662,1.959,1.3,2.975,1.883
		c0.918,0.523,1.932,1.059,3.101,1.637l1.74,0.861l-0.011-0.067c1.953,0.877,3.895,1.635,5.778,2.241l1.599,0.515l-0.008-0.04
		l0.117,0.034c3.49,1.011,7.077,1.702,10.66,2.055l1.782,0.176l-0.021-0.042c1.407,0.095,2.799,0.151,4.138,0.151
		C358.741,170.58,359.348,170.57,359.944,170.551z"/>
</g>
<g>
	<path style="fill:#FF8E69;" d="M345.529,463.217l1.775,0.122c1.01,0.069,2.067,0.29,2.966,0.619
		c2.698,1.014,4.997,3.295,6.342,6.326l0.507,1.018l0.916-0.52c0.239-0.135,0.526-0.228,0.792-0.255
		c0.461-0.048,0.917-0.073,1.358-0.073c0.934,0,1.838,0.11,2.69,0.327l1.339,0.342l-0.094-1.378c-0.319-4.67-1.914-7.999-4.74-9.892
		c-2.828-1.901-6.084-2.203-9.233-2.495c-0.573-0.053-1.146-0.107-1.714-0.169l-1.298-0.143l0.2,1.29
		c0.199,1.285-0.055,2.406-0.778,3.429L345.529,463.217z"/>
	<path style="fill:#FF8E69;" d="M343.529,464.886l0.764,1.348c0.537,0.946,0.926,1.909,1.158,2.861
		c0.246,1.015,0.31,1.948,0.192,2.774l-0.178,1.247l1.255-0.11c0.38-0.033,0.767-0.046,1.153-0.046c0.832,0,1.668,0.06,2.477,0.119
		l0.279,0.02c0.215,0.014,0.454,0.025,0.708,0.035c0.893,0.039,2.116,0.093,2.77,0.375l0.25,0.107l0.27-0.034
		c0.09-0.011,0.17-0.012,0.243-0.012c0.018,0,1.316,0,1.316,0l-0.29-1.229c-0.05-0.211-0.102-0.422-0.155-0.558
		c-0.826-2.755-2.725-5.122-5.083-6.333c-1.106-0.565-2.248-0.828-3.595-0.828c-0.644,0-1.274,0.058-1.882,0.113L343.529,464.886z"
		/>
	<path style="fill:#FF8E69;" d="M157.097,23.601c5.817,4.213,11.112,8.928,15.717,13.991c0.097,0.113,0.174,0.235,0.256,0.409
		l0.166,0.349l0.357,0.146c9.843,4.038,19.387,9.301,28.616,14.392c2.337,1.289,4.671,2.576,7.007,3.843
		c12.048,6.523,26.295,14.321,40.611,22.704c1.406,0.822,2.908,1.651,4.455,2.504c7,3.862,14.934,8.239,18.945,14.832l0.48,0.773
		l0.687-0.334c1.588-0.156,3.268-0.232,5.133-0.232c3.658,0,7.442,0.3,11.102,0.59c2.112,0.168,4.296,0.341,6.398,0.451
		c1.013,0.055,2.052,0.087,3.103,0.12c4.079,0.126,8.296,0.258,11.889,1.745l1.561,0.646l-0.184-1.679
		c-0.099-0.904-0.224-1.654-0.392-2.365c-2.147-8.909-9.712-15.37-16.062-20.003c-12.292-8.981-26.894-16.417-47.347-24.108
		c-12.539-4.726-25.481-8.978-37.998-13.09c-4.693-1.542-9.386-3.083-14.068-4.652c-5.537-1.854-11.25-3.641-16.774-5.369
		c-7.496-2.344-15.247-4.769-22.74-7.416L157.097,23.601z"/>
	<path style="fill:#FF8E69;" d="M289.786,121.51c0.631-0.027,1.258-0.04,1.882-0.04c3.212,0,6.344,0.365,9.309,1.083l0.621,0.151
		l0.397-0.5l0.081-0.113c4.268-4.738,10.113-11.227,11.226-18.814l0.293-1.999l-1.768,0.979c-2.224,1.232-4.633,2.32-6.962,3.373
		c-2.184,0.986-4.441,2.006-6.567,3.152c-4.763,2.569-9.36,5.453-13.661,8.569c-4.86,3.511-9.541,7.502-13.913,11.864
		c-1.179,1.184-2.327,2.591-3.438,3.953c-1.598,1.959-3.251,3.984-5.075,5.468l-0.16,0.13l-0.095,0.183
		c-5.115,9.785-10.804,22.816-9.389,36.854c1.344,13.385,8.891,24.686,16.19,35.615c0.712,1.066,1.421,2.128,2.117,3.181
		c0.772,1.183,1.553,2.356,2.335,3.528l1.811,2.716l0.021-3.264c0.004-0.622,0.015-1.245,0.025-1.861
		c0.016-0.914,0.031-1.817,0.025-2.685c0-4.226,0.171-8.498,0.507-12.701c0.656-8.35,1.94-16.684,3.817-24.772
		c2.013-8.664,4.701-17.101,7.99-25.075c0.401-0.971,0.806-1.982,1.222-3.018c2.526-6.299,5.389-13.439,9.723-18.048l0.682-0.726
		l-0.723-0.685c-2.625-2.489-5.458-4.236-8.664-5.34c-0.466-0.16-0.448-0.552-0.431-0.669
		C289.242,121.823,289.349,121.529,289.786,121.51z"/>
	<path style="fill:#FF8E69;" d="M295.068,394.989c1.473-0.438,3.026-0.928,4.75-1.499l0.815-0.27l-0.144-0.847
		c-0.261-1.535-0.531-3.06-0.813-4.579c-0.651-3.438-1.46-6.897-2.241-10.243c-1.154-4.94-2.348-10.047-3.04-15.122
		c-0.116-0.883-0.205-1.77-0.264-2.637l-0.08-1.19l-4.603,1.14v-0.003l-0.996,0.237c-2.284,0.544-4.164,0.971-5.916,1.344
		l-0.289,0.061l-0.616,0.128c-4.087,0.848-7.713,1.422-11.085,1.753l-1.09,0.107c-1.834,0.159-3.642,0.242-5.375,0.242l0,0
		c-1.282,0-2.549-0.044-3.765-0.131l-1.265-0.09v0.002c-3.551-0.346-6.814-1.107-9.692-2.271l-0.572-0.231
		c0,0-0.604,0.537-0.633,0.559l-0.194,0.15l-0.106,0.213c-0.049,0.1-0.096,0.201-0.129,0.3l-0.071,0.215l0.027,0.224
		c0.046,0.369,0.09,0.753,0.135,1.128l-0.756-0.149c-3.215,6.785-7.746,12.927-10.982,16.887c-0.472,0.581-0.964,1.151-1.456,1.711
		l-0.347,0.395l0.006,0.025l-0.334,0.374c-5.056,5.66-10.911,10.571-17.401,14.597l-2.085,1.293l2.394,0.533
		c3.946,0.878,8.65,1.817,13.747,2.201l-0.026,0.034l1.243,0.056l0.044,0.003v-0.001l0.644,0.029
		c0.448,0.021,0.905,0.041,1.362,0.051c3.078,0.073,6.06,0.11,8.864,0.11h0.68l0.003-0.007l0.951-0.003
		c2.852-0.01,5.507-0.053,8.117-0.13l0.583-0.017l0.017-0.032l1.461-0.03c0.478-0.01,0.955-0.02,1.427-0.041
		c4.374-0.211,8.757-0.586,13.025-1.117l0.689-0.085l0.005-0.02l0.716-0.096c3.92-0.525,7.363-1.091,10.525-1.731l0.189-0.038
		l-0.005,0.016l1.71-0.371c3.831-0.831,7.316-1.706,10.657-2.676l0.083-0.024l-0.001,0.009L295.068,394.989z"/>
	<path style="fill:#FF8E69;" d="M270.41,127.968l0.124-0.124c3.964-3.906,8.345-7.633,13.021-11.077
		c7.235-5.316,16.732-11.736,26.025-14.209l-0.197-1.964c-2.111-0.128-4.224-0.288-6.336-0.448
		c-2.963-0.225-6.026-0.457-9.041-0.593c-1.772-0.077-3.572-0.114-5.383-0.151c-4.246-0.086-8.636-0.176-12.789-0.809l-1.684-0.256
		l0.597,1.596c0.045,0.122,0.094,0.241,0.142,0.359c0.071,0.174,0.142,0.347,0.2,0.536c2.804,9.037-1.756,18.125-6.251,25.935
		L270.41,127.968z"/>
	<path style="fill:#FF8E69;" d="M231.67,210.259l-1.887,0.478c0.181,11.913-1.452,24.042-3.031,35.771
		c-1.2,8.915-2.442,18.135-2.888,27.235l-0.069,1.411l1.354-0.403c12.107-3.61,22.514-5.366,31.816-5.366
		c4.437,0,8.621,0.419,12.436,1.245l3.202,0.693l-2.27-2.363C254.077,252.03,242.319,230.678,231.67,210.259z"/>
	<path style="fill:#FF8E69;" d="M222.181,270.997c0.656-9.987,2.049-20.083,3.396-29.848c1.585-11.489,3.225-23.37,3.685-35.198
		l0.011-0.272l-0.129-0.24c-0.775-1.44-1.638-2.929-2.551-4.504c-4.493-7.749-9.585-16.532-7-24.357
		c2.706-8.162,8.117-15.85,13.35-23.285c1.928-2.739,3.749-5.327,5.45-7.946c4.225-6.521,7.661-12.084,10.702-18.04
		c0.474-0.929,1.062-1.981,1.683-3.095c2.781-4.982,6.242-11.183,5.32-16.229L255.736,106l-1.36,1.487
		c-5.152,5.638-10.972,10.928-16.599,16.042c-4.887,4.442-9.94,9.035-14.565,13.86c-10.969,11.453-21.097,23.257-30.104,35.086
		c-9.174,12.044-17.783,24.845-25.585,38.046c-3.927,6.64-7.714,13.173-10.887,20.09c-1.938,4.204-3.342,8.051-4.29,11.76
		c-0.818,3.176-1.036,6.294-1.246,9.311l-0.201,2.849l1.764-1.357c7.866-6.052,17.616-9.385,27.453-9.385
		c3.991,0,7.916,0.553,11.669,1.644c12.697,3.688,23.077,13.123,28.478,25.889L222.181,270.997z"/>
	<path style="fill:#FF8E69;" d="M53.379,85.238c9.497,20.139,5.888,42.319,1.105,61.359l-0.669,2.662l2.225-1.607
		c28.123-20.327,59.712-34.638,93.89-42.536c17.477-4.048,35.546-6.304,53.706-6.704c2.771-0.062,5.338-0.092,7.847-0.092
		c13.817,0,25.48,0.979,35.657,2.993l0.688-1.851c-0.366-0.208-0.733-0.416-1.08-0.619c-2.825-1.689-5.649-3.388-8.474-5.086
		l-0.402-0.242c-6.039-3.648-12.02-7.223-17.777-10.625c-4.496-2.664-9.071-5.442-13.495-8.127
		c-18.122-11-36.862-22.374-56.791-30.164c-12.381-4.831-25.639-7.845-40.532-9.214c-5.095-0.467-10.359-0.541-15.45-0.611
		c-5.419-0.076-11.023-0.154-16.419-0.708l-0.095-0.01l-0.095,0.008c-14.254,1.26-27.337,4.489-38.235,7.476
		c-0.061,0.016-0.121,0.023-0.176,0.023c-0.071,0-0.139-0.013-0.206-0.038l-0.321-0.122l-0.328,0.101
		c-9.76,3.004-19.972,5.259-28.982,7.249l-2.551,0.564l2.275,1.284c3.265,1.843,6.653,3.596,9.929,5.291
		C32.855,63.257,46.299,70.213,53.379,85.238z"/>
	<path style="fill:#FF8E69;" d="M249.139,459.186c-1.125-3.274-2.85-5.533-5.276-6.907c-1.263-0.709-2.575-1.04-4.128-1.04
		c-0.703,0-1.398,0.066-1.995,0.127l-1.35,0.139l0.532,1.248c0.898,2.105,1.202,4.344,0.855,6.303l-0.276,1.56l1.527-0.422
		c0.572-0.158,1.19-0.238,1.838-0.238c1.197,0,2.479,0.264,3.818,0.788c0.54,0.207,1.114,0.467,1.709,0.774l0.711,0.368l0.514-0.614
		c0.27-0.322,0.639-0.628,1.098-0.911l0.681-0.42L249.139,459.186z"/>
	<path style="fill:#FF8E69;" d="M245.282,461.918c-1.69-0.947-3.521-1.448-5.295-1.448c-0.691,0-1.378,0.076-2.042,0.225
		l-0.927,0.208l0.16,0.936c0.092,0.536,0.365,1.313,0.682,2.212c0.371,1.057,0.792,2.254,0.893,3.011l0.128,0.961l0.964-0.097
		c2.016-0.204,3.835-0.302,5.562-0.302c0.72,0,1.438,0.018,2.154,0.056l1.358,0.073l-0.335-1.318
		C248.2,464.935,247.599,463.225,245.282,461.918z"/>
	<path style="fill:#FF8E69;" d="M231.253,115.173c-7.87,3.643-14.944,7.083-21.627,10.518
		c-15.483,7.954-29.122,15.875-41.696,24.216c-29.357,19.474-53.119,41.859-70.623,66.535l-1.08,1.522l1.865,0.056l0.29,0.004
		c0.41,0,0.83-0.024,1.236-0.048c0.341-0.02,0.671-0.04,0.972-0.04c0.114,0,0.224,0.003,0.337,0.012
		c3.138,0.206,6.274,0.698,9.321,1.461c6.264,1.576,12.448,4.362,17.882,8.058c7.978,5.419,14.444,12.771,18.698,21.261l1.612,3.215
		l0.279-3.586c0.867-11.128,7.722-22.899,13.23-32.357c0.529-0.909,1.044-1.793,1.539-2.651
		c7.989-13.867,16.953-27.418,26.642-40.277c9.724-12.9,19.969-24.951,30.451-35.818c0.928-0.962,1.862-1.935,2.803-2.915
		c8.628-8.987,17.551-18.279,27.656-25.257l-0.961-1.742c-2.492,1.064-5.064,2.096-7.552,3.094
		C238.804,111.929,234.952,113.475,231.253,115.173z"/>
	<path style="fill:#FF8E69;" d="M208.328,101.172c-1.577,0-3.158,0.019-4.74,0.06c-17.805,0.445-35.853,2.765-53.641,6.896
		c-33.911,7.869-66.66,22.676-94.708,42.822l-1.997,1.434l2.431,0.367c13.06,1.971,24.963,9.402,32.658,20.387
		c7.731,11.035,10.541,24.303,7.914,37.343c-0.068,0.315-0.315,0.999-0.533,1.602l1.749,0.929
		c17.127-23.513,40.073-44.985,68.198-63.818c13.609-9.105,28.163-17.534,44.494-25.769c7.679-3.874,15.558-7.622,23.418-11.139
		c0.801-0.358,1.608-0.723,2.419-1.09c4.318-1.954,8.784-3.973,13.32-5.388l-0.206-1.95l-4.858-0.452
		C232.528,102.306,220.411,101.172,208.328,101.172z"/>
	<path style="fill:#FF8E69;" d="M207.147,465.788l0.896-0.126c0.274-0.039,0.567-0.058,0.896-0.058c0.676,0,1.398,0.085,1.952,0.159
		l1.157,0.154l-0.024-1.167c-0.075-3.547-0.801-6.474-2.158-8.703c-1.903-3.099-5.455-3.364-8.589-3.599l-2.049-0.158l0.587,1.487
		c0.545,1.383,0.661,2.633,0.325,3.518l-0.436,1.149l1.214,0.193c1.219,0.193,2.27,0.627,3.214,1.328
		c1.341,0.988,2.205,2.512,2.801,4.943L207.147,465.788z"/>
	<path style="fill:#FF8E69;" d="M195.034,468.663l1.546-0.136c0.448-0.039,0.901-0.058,1.358-0.058c1.952,0,4.179,0.338,6.621,1.006
		l0.523-1.931c0.358,0.096,0.549,0.359,0.6,0.485c-0.065-0.16-0.232-0.866-0.366-1.433c-0.696-2.94-1.307-5.25-2.295-6.032
		c-1.214-0.954-6.289-1.031-6.339-1.031c-0.418,0-0.892,0-1.216,0.428l-0.335,0.447l0.197,0.517c0.814,2.14,0.893,4.368,0.222,6.273
		L195.034,468.663z"/>
	<path style="fill:#FF8E69;" d="M104.17,378.785c3.64-0.654,7.393-1.066,11.155-1.225l0.879-0.037l0.001-0.004l0.694-0.018
		c0.869-0.022,1.737-0.034,2.605-0.034c2.208,0,4.428,0.075,6.601,0.222l0.9,0.061l0.002-0.012l0.58,0.05
		c2.448,0.21,4.719,0.469,6.941,0.793l0.851,0.124l0.005-0.015l0.681,0.109c2.998,0.48,6.047,1.078,9.062,1.777l0.264,0.061
		l1.135,0.276c3.041,0.74,6.021,1.565,8.858,2.453l0.784,0.245l0.006-0.011l0.602,0.2c0.161,0.054,0.804,0.251,0.804,0.251
		c0.07,0.026,0.133,0.06,0.197,0.091l0.735,0.366l0.504-0.636c4.795-6.055,6.334-13.782,7.823-21.255l0.939-4.666
		c1.516-7.54,3.083-15.338,5.694-22.56l0.494-1.367l-1.453,0.026c-3.304,0.06-6.608,0.131-9.892,0.23l-1.338,0.04l0.004,0.011
		c-3.247,0.113-6.447,0.288-9.511,0.521l-1.079,0.083l0.002,0.012c-3.764,0.315-7.295,0.747-10.79,1.325l-1.106,0.183l0.004,0.016
		l-0.019,0.003c-4.628,0.815-9.117,1.944-13.344,3.356l-0.825,0.275l-0.071,0.018l-0.177,0.051
		c-4.674,1.632-9.117,3.722-12.914,5.553l-0.939,0.453l0.003,0.007l-1.552,0.755c-2.311,1.126-4.701,2.289-7.072,3.376
		c-1.51,0.687-3.14,1.396-5.285,2.299l-0.248,0.105l-0.003-0.006l-0.799,0.328c-2.299,0.943-4.607,1.857-6.915,2.771
		c-1.313,0.52-2.626,1.04-3.938,1.566l-0.485,0.194l-0.11-0.143l-0.697,0.459c-4.742,1.912-8.776,3.78-12.333,5.708l-1.409,0.764
		l0.016,0.011c-4.295,2.427-7.986,5.019-11.272,7.924l-0.338,0.299l-0.004-0.003l-0.193,0.177l-0.556,0.491l0.02,0.011
		c-2.852,2.646-5.42,5.645-7.627,8.926l-0.163,0.243l-0.02-0.013l-0.398,0.634l-0.164,0.244l0.009,0.003
		c-0.104,0.165-0.209,0.326-0.315,0.486c-0.116,0.174-0.231,0.349-0.354,0.544c-1.63,2.698-3.037,5.539-4.302,8.684l-0.289,0.718
		l-0.015-0.002l-0.284,0.754c-1.065,2.825-1.986,5.832-2.815,9.194l-0.083,0.336l-0.004-0.001l-0.097,0.413l-0.142,0.575h0.007
		c-0.705,3.002-1.346,6.298-1.958,10.077l-0.102,0.631h-0.027l-0.114,0.856l-0.085,0.569l0.01,0.109
		c0.178,2.052,0.265,4.113,0.327,5.859l0.04,1.129l0.007-0.001c0.127,3.342,0.27,6.376,0.702,9.484l0.101,0.728l-0.022,0.013
		l0.102,0.561l0.061,0.441l0.009-0.007l0.005,0.033c0.625,3.494,1.471,6.836,2.517,9.934l0.343,1.018l-0.003,0.004l0.053,0.143
		l0.301,0.892l0.026-0.044c1.145,3.001,2.553,5.834,4.205,8.416l0.875,1.368l0.006-0.01c0.027,0.041,0.055,0.084,0.092,0.138
		c1.674,2.387,3.663,4.679,5.91,6.811l1.206,1.144l0.016-0.057c1.683,1.496,3.546,2.935,5.538,4.277l1.383,0.932l0.004-0.044
		c1.589,0.994,2.925,1.758,4.186,2.393c1.294,0.661,2.71,1.292,4.454,1.988l0.894-1.781c-3.003-1.842-5.729-3.956-8.104-6.282
		l-0.82-0.804c-1.614-1.677-3.073-3.485-4.338-5.377l-0.326-0.488l0.007-0.007l-0.544-0.876c-0.263-0.423-0.524-0.843-0.774-1.3
		c-1.03-1.847-1.96-3.879-2.767-6.043l-0.319-0.857l-0.082-0.239c-0.894-2.605-1.566-5.317-1.998-8.061l-0.009-0.056l0.014,0.001
		l-0.161-1.23c-0.384-2.927-0.516-5.819-0.393-8.596l0.035-0.794l0.033-0.47c0.131-1.881,0.356-3.72,0.667-5.464l0.094-0.529
		l-0.002-0.002l0.232-1.098c0.46-2.181,1.051-4.306,1.755-6.316l0.353-1.006l-0.01-0.003l0.047-0.124
		c0.729-1.906,1.547-3.72,2.428-5.386l0.403-0.745l0.405-0.713c1.174-2.064,2.485-4.06,3.898-5.932l0.372-0.493l0.505-0.64
		c1.163-1.474,2.382-2.875,3.625-4.167l0.164-0.171l1.077-1.06c1.877-1.848,3.852-3.578,5.871-5.143l0.418-0.324l0.97-0.71
		c2.71-1.982,5.629-3.8,8.675-5.402l0.67-0.353l-0.002-0.01l0.88-0.437c2.86-1.42,5.824-2.658,8.809-3.679l0.793-0.271
		c0,0-0.002-0.014-0.002-0.016l0.604-0.182c0.111-0.033,0.521-0.173,0.618-0.203c2.508-0.776,5.067-1.424,7.607-1.924l0.195-0.038
		v0.004L104.17,378.785z"/>
</g>
<g>
	<path style="fill:#231F20;" d="M459.54,153.909c-0.528,0.108-0.48,0.885,0,1.022c2.308,0.654,5.309,2.538,4.16,5.371
		c-0.608,1.498-1.783,1.671-3.087,1.414c-3.633-3.511-10.98-6.447-15.78-6.245c-4.836,0.204-6.263,3.368-9.746,5.784
		c-2.651,1.838-5.886,0.77-4.18-2.842c1.04-2.203,3.465-3.503,4.876-5.443c0.159-0.218-0.057-0.589-0.325-0.558
		c-5.01,0.578-10.264,5.874-7.882,11.15c0.956,2.118,2.997,3.714,5.388,3.337c0.281-0.044,0.548-0.185,0.807-0.36
		c-0.576,2.473-0.503,5.049,0.9,7.312c1.423,2.295,4.104,4.251,6.841,3.219c0.497-0.187,0.746-0.977,0.164-1.255
		c-1.875-0.899-3.82-1.696-4.947-3.557c-1.211-2-1.264-4.411-0.728-6.63c0.652,0.325,0.87,2.509,1.231,3.17
		c2.281,4.168,7.842,6.028,12.326,4.952c0.662-0.159,0.538-1.026-0.008-1.229c-2.588-0.965-5.556-0.946-7.914-2.5
		c-1.872-1.233-2.287-2.984-2.761-4.802c2.216,2,6.116,3.229,8.163,3.229c2.853,0,6.34-1.342,8.565-3.595
		c-0.066,0.627-0.15,1.252-0.329,1.871c-0.415,1.434-1.086,2.777-1.23,4.275c-0.036,0.376,0.402,0.503,0.675,0.382
		c2.28-1.013,3.336-4.293,3.042-7.01c1.432,1.478,2.272,3.192,1.894,5.523c-0.397,2.447-2.047,4.402-2.409,6.858
		c-0.064,0.432,0.352,0.877,0.79,0.608c4.843-2.97,5.612-9.932,1.927-13.557c2.621,0.862,5.492,0.374,6.551-2.722
		C468.022,156.672,463.72,153.05,459.54,153.909z M444.967,164.843c-1.695-0.416-3.24-1.322-4.448-2.576
		c-0.233-0.242-0.415-0.453-0.582-0.64c2.298-1.475,4.802-2.175,7.851-1.606c-0.19,0.854-0.189,1.807-0.078,2.625
		c0.18,1.323,2.493,1.324,2.673,0c0.079-0.581,0.096-1.231,0.037-1.866c1.059,0.379,2.114,0.795,3.175,1.206
		C451.733,164.494,447.748,165.525,444.967,164.843z"/>
	<path style="fill:#231F20;" d="M509.308,165.167c-0.331-0.78-0.709-1.52-1.111-2.239c0.534-0.195,1.001-0.6,1.242-1.27
		c2.938-8.158,1.72-16.775-4.632-22.929c-0.911-0.882-2.634-0.796-3.254,0.419c-2.232,4.372-5.33,8.005-8.791,11.409
		c-0.583-0.229-1.17-0.45-1.764-0.657c-5.952-2.072-12.269-2.728-18.434-3.883c-5.9-1.106-11.525-3.045-17.348-4.44
		c-5.338-1.279-11.191-0.891-16.36-2.718c-1.451-0.513-2.812-1.408-4.143-2.425c0.729-7.395-4.096-15.836-4.898-22.947
		c-0.942-8.351-0.494-16.818-1.993-25.115c-1.202-6.649-3.747-13.345-8.397-18.364c-5.715-6.168-14.006-8.999-21.383-12.565
		c-1.462-0.707-3.514,0.477-2.936,2.258c1.52,4.686,6.016,7.311,7.636,11.901c2.206,6.248-0.472,12.931-2.161,18.944
		c-2.089,7.44-2.764,16.331,0.193,23.717c-1.333-0.75-2.666-1.49-3.991-2.225c-11.237-6.233-22.026-12.644-32.005-20.798
		c-18.713-15.291-35.152-33.405-56.73-44.829c-1.374-0.728-3.69,0.531-2.958,2.274c8.656,20.596,25.484,36.364,39.924,52.94
		c7.655,8.787,15.361,17.608,23.736,25.723c4.561,4.419,9.401,8.991,14.524,13.14c-2.362,0.003-4.717,0.302-6.859,0.786
		c-11.846,2.676-22.829,9.319-35.418,7.106c-6.685-1.175-11.283-4.991-15.547-9.38c2.802-3.32,5.585-6.644,8.315-10.028
		c2.096-2.598,5.673-5.759,6.366-9.209c0.671-3.341-1.285-7.143-2.344-10.206c-1.532-4.435-3.198-8.844-5.247-13.069
		c-7.611-15.694-21.048-28.592-34.574-39.263c-28.988-22.868-64.231-35.816-100.187-42.814c-21.236-4.133-43.492-7.543-65.087-4.624
		c-2.661,0.36-2.005,4.036,0,4.765c12.032,4.373,22.744,11.089,31.983,19.741c-10.667-3.073-21.761-4.139-32.894-4.573
		c-16.033-0.626-32.195-1.054-48.22-0.051c-12.692,0.795-26.022,2.298-38.155,6.63c-14.639,2.436-29.173,6.62-43.613,9.927
		c-2.194,0.502-2.35,3.494-0.601,4.596C18.359,61.638,39.798,65.94,49.741,85.526c10.832,21.339,4.815,45.833-1.265,67.604
		c-0.469,1.678,0.831,3.158,2.474,3.248c14.745,0.802,28.467,8.222,36.184,21.07c4.197,6.988,6.354,15.111,6.276,23.257
		c-0.036,3.789-0.574,7.509-1.544,11.167c-0.577,2.178-1.566,4.522-0.781,6.785c1.626,4.685,7.563,3.126,11.396,3.462
		c6.764,0.592,13.366,2.672,19.307,5.943c12.016,6.617,21.195,17.612,24.884,30.87c0.494,1.775,2.789,2.389,4.096,1.081
		c10.375-10.385,25.758-15.124,40.059-11.068c10.386,2.946,19.124,10.326,24.222,19.718c-13.586,0.329-25.934,6.357-37.903,12.464
		c-6.955,3.549-13.902,7.202-21.284,9.799c-8.681,3.054-17.736,4.017-26.833,5.01c-29.655,3.238-56.748,15.156-78.083,36.309
		c-21.022,20.842-33.216,49.276-32.786,78.978c0.445,30.724,14.444,62.098,43.128,75.779c17.276,8.24,36.678,12.421,55.77,12.925
		c19.991,0.528,40.483-3.772,59.801,3.227c2.436,0.883,3.519-2.273,2.259-3.88c-4.749-6.057-12.019-8.564-19.29-10.212
		c-9.381-2.126-18.952-3.334-28.487-4.525c-19.822-2.477-42.876-4.537-59.825-16.179c-14.268-9.8-19.463-28.496-15.52-44.907
		c4.113-17.114,17.894-30.046,33.724-36.735c20.756-8.77,44.014-6.449,65.046,0.104c-5.989,5.281-9.023,10.177-9.519,18.478
		c-0.602,10.069-0.237,20.286-0.353,30.374c-0.059,5.106-0.106,10.212-0.179,15.317c-0.061,4.242-0.87,9.305,0.933,13.319
		c2.958,6.588,11.263,7.131,17.514,7.769c4.582,0.467,9.182,0.765,13.786,0.893c4.443,0.123,9.685,0.723,14.032-0.451
		c0.859-0.232,1.614-0.572,2.286-0.984c1.765,0.383,3.397,0.37,5.348,0.482c2.716,0.156,5.332,0.726,7.95,1.44
		c1.543,0.421,3.011-1.037,2.585-2.583c-0.199-0.722-0.411-1.278-0.086-1.911c1.492,0.464,2.977,1.059,4.526,1.394
		c2.3,0.498,4.665,0.605,7.016,0.71c4.372,0.196,8.744,0.391,13.116,0.587c1.189,0.053,2.413,0.101,3.533-0.301
		c0.391-0.14,0.712-0.332,0.991-0.554c0.337,0.217,0.728,0.35,1.123,0.338c3.613-0.108,7.256-0.087,10.861-0.273
		c1.534-0.079,2.424-1.613,1.711-2.982c-0.791-1.518-1.033-3.291-1.977-4.723c0.445-0.328,0.895-0.712,1.44-1.08
		c0.917-0.62,1.117-1.597,0.678-2.586c-1.564-3.524-3.659-7.092-7.161-8.986c-3.015-1.631-5.537-1.375-8.304-0.429
		c-0.558-0.827-1.197-1.587-1.913-2.236c-4.679-4.242-11.624-3.59-17.278-5.506c-8.846-2.998-14.167-9.577-14.169-19.044
		c-0.002-8.293,5.104-14.078,7.55-21.438c1.006-0.51,2.006-1.035,2.994-1.584c4.399,2.608,9.801,3.354,14.845,3.819
		c8.388,0.773,16.932,0.712,25.342,0.454c15.531-0.476,31.51-2.311,46.194-7.679c1.008,6.767,1.714,13.574,2.066,20.413
		c0.465,9.025,0.541,18.083,0.096,27.11c-0.214,4.349-0.557,8.688-0.995,13.021c-0.402,3.982-1.849,9.123-0.462,12.99
		c1.746,4.871,7.804,5.99,12.283,6.597c8.435,1.142,17.096,1.365,25.56,0.425c1.988-0.221,3.814-0.695,5.221-1.537
		c2.092,0.705,4.526,0.112,6.741,0.246c1.734,0.105,4.222,1.07,5.993,0.539c1.474-0.442,1.956-1.481,1.962-2.678
		c0.195,0.004,0.4,0.003,0.636,0.013c1.826,0.074,3.149,0.077,4.912,0.841c1.305,0.566,3.349-0.049,3.183-1.826
		c-0.055-0.592-0.113-1.189-0.177-1.786c3.088,0.774,6.267,0.475,9.479,0.547c3.831,0.086,7.66,0.313,11.475,0.676
		c2.635,0.251,6.837,1.408,9.581,0.09c0.85,0.172,1.807,0.107,2.768,0.03c3.343-0.268,6.424-0.161,9.77,0.16
		c1.209,0.116,2.33-1.364,1.902-2.497c-0.124-0.328-0.247-0.657-0.371-0.987c1.256-0.222,2.485-0.493,3.797-0.42
		c1.143,0.064,1.982-0.988,2.039-2.039c0.254-4.706-1.913-9.164-6.194-11.344c-3.261-1.661-8.486-3.558-12.127-1.901
		c-0.705-1.254-1.658-2.395-2.772-3.287c-3.373-2.702-7.917-3.297-11.27-5.969c-5.339-4.255-2.055-12.298-0.984-18.014
		c3.427-18.293,1.354-38.143-7.787-54.634c11.858-11.756,20.032-26.706,25.305-42.469c6.098-18.23,6.408-36.915,10.132-55.572
		c1.85-9.267,4.779-18.329,8.702-26.928c3.674-8.055,8.703-15.198,13.008-22.857c3.745,0.976,7.489,2.008,11.419,2.251
		c7.879,0.487,15.38,0.588,23.05,2.745c4.616,1.298,9.191,3.183,13.899,3.069c7.234,1.083,17.76-1.376,18.814-9.748
		c0.267-2.118-0.325-3.936-1.459-5.5c3.466-6.057,2.736-12.767-0.003-18.962c-0.526-1.19-2.29-0.977-2.876,0
		c-1.263,2.106-2.59,4.17-3.806,6.305c-0.578,1.016-1.377,2.128-1.78,3.224c-0.904,2.459-0.338,2.53-0.918-0.201
		c-0.665-3.132-1.787-7.679-4.217-9.937c-0.569-0.529-1.339-0.611-2.02-0.261c-1.393,0.716-1.742,2.19-2.447,3.533
		c-0.972,1.853-2.1,3.535-3.379,5.117c-0.806-3.433-2.404-6.868-5.346-8.544c-0.764-0.435-1.666-0.277-2.3,0.297
		c-2.239,2.025-3.874,5.199-5.186,8.222c-0.388-0.173-0.773-0.358-1.151-0.566c-0.332-0.182-0.651-0.378-0.963-0.581
		c0.522-3.747-0.396-7.134-1.91-10.713c-0.349-0.825-1.564-0.815-2.117-0.273c-1.44,1.41-2.837,2.866-4.255,4.301
		c-1.014-0.639-2.111-1.174-3.36-1.528c-0.08-0.023-0.162-0.037-0.243-0.059c0.04-0.048,0.087-0.087,0.123-0.142
		c0.987-1.553,1.969-3.103,3.076-4.575c0.879-1.168,2.055-2.291,2.664-3.64c1.228,0.008,2.456-0.013,3.68-0.083
		c1.611,2.419,3.148,4.831,4.386,7.495c0.512,1.101,2.012,1.052,2.791,0.36c2.492-2.216,4.019-4.84,4.636-7.864
		c2.57,2.641,3.959,6.133,5.262,9.682c0.516,1.405,2.799,2.13,3.566,0.466c1.644-3.566,2.8-7.156,3.504-10.882
		c0.284,0.686,0.543,1.387,0.771,2.11c0.73,2.316,0.613,4.833,1.31,7.096c0.534,1.732,0.984,2.913,3.033,2.925
		c2.626,0.015,4.185-2.708,5.608-4.596c2.393-3.173,4.425-6.594,6.116-10.184c2.788-0.76,5.354-2.267,7.293-4.44
		C513.358,174.772,512.567,169.444,509.308,165.167z M239.739,466.927c-0.199-1.506-1.391-4.208-1.576-5.258
		c2.234-0.495,4.563-0.043,6.627,1.12c1.887,1.063,2.432,2.357,2.826,3.888C244.993,466.545,242.318,466.672,239.739,466.927z
		 M243.375,453.155c2.486,1.408,3.93,3.761,4.816,6.357c-0.523,0.319-0.981,0.683-1.335,1.12c-0.602-0.308-1.216-0.587-1.817-0.823
		c-2.064-0.812-4.286-1.129-6.274-0.576c0.402-2.264,0.009-4.689-0.923-6.874C239.679,452.171,241.437,452.058,243.375,453.155z
		 M408.547,457.896c2.897,1.307,5.114,3.664,5.212,6.781c-1.245,0.037-2.424,0.317-3.431,1.021
		c-1.167-2.346-2.753-4.323-5.561-5.164c-1.383-0.415-2.895-0.718-4.355-0.729c0.28-1.132,0.249-2.329-0.017-3.508
		C403.255,456.344,405.67,456.599,408.547,457.896z M398.644,462.868c1.484-0.034,2.971,0.077,4.38,0.473
		c2.594,0.729,3.795,2.609,4.541,4.837c-1.621-0.214-3.269-0.268-4.886-0.169c-0.785,0.048-1.619,0.107-2.43,0.238
		c-0.038-1.721-0.823-3.567-1.819-5.195C398.5,462.99,398.579,462.932,398.644,462.868z M503.701,143.72
		c0.889,1.182,1.574,2.429,2.075,3.724c-0.523-0.296-1.068-0.534-1.553-0.709c-0.808-0.292-1.561-0.417-2.304-0.433
		C502.544,145.472,503.146,144.617,503.701,143.72z M501.324,147.089c0.895,0.105,1.779,0.343,2.549,0.652
		c0.985,0.396,1.714,1.089,2.508,1.695c0.358,1.514,0.503,3.076,0.424,4.671c-1.703-2.757-5.191-4.11-8.448-3.83
		C499.428,149.294,500.413,148.226,501.324,147.089z M497.111,151.299c2.018-0.33,4.058-0.128,5.908,0.949
		c1.695,0.986,2.375,2.579,3.577,3.881c-0.171,1.102-0.432,2.212-0.783,3.324c-2.59-3.125-5.922-5.532-9.64-7.383
		C496.501,151.829,496.796,151.554,497.111,151.299z M429.235,132.18c-1.449-0.947-2.957-1.649-4.597-1.798
		c-0.641-0.059-1.249-0.01-1.824,0.122c-1.931-2.176-4.062-4.145-6.315-5.976c1.377-0.653,2.693-1.429,4.343-1.633
		c2.175-0.268,4.3,0.079,6.271,0.921C427.763,126.61,428.494,129.401,429.235,132.18z M408.33,143.589
		c0.768-2.043,1.972-3.934,3.376-5.596c1.962-2.322,4.592-3.944,6.793-5.962c0.268,0.194,0.541,0.381,0.809,0.578
		c-0.902,0.928-1.647,2.044-2.228,3.161c-0.989,1.901-1.6,3.989-2.547,5.91c-1.83,3.709-4.057,4.423-6.837,4.157
		C407.89,145.086,408.054,144.323,408.33,143.589z M406.243,145.626c-0.838-0.152-1.721-0.354-2.655-0.563
		c-2.441-0.547-4.36-0.417-5.891,0.186c0.723-4.345,2.584-8.456,5.765-11.569c2.875-2.813,6.25-4.074,9.87-5.241
		c1.419,0.948,2.822,1.922,4.216,2.913c-2.924,1.618-5.67,4.362-7.548,6.756C408.533,139.98,406.56,142.919,406.243,145.626z
		 M426.764,122.308c-1.891-0.748-3.92-1.043-6.017-0.815c-1.786,0.194-4.042,0.758-5.556,1.987
		c-2.662-2.054-5.481-3.926-8.369-5.689c-0.003-0.012-0.007-0.023-0.01-0.035c3.106-1.422,6.63-2.145,10.009-1.972
		c1.898,0.097,3.783,0.472,5.57,1.121c1.307,0.475,2.445,1.235,3.656,1.851C426.261,119.939,426.503,121.124,426.764,122.308z
		 M425.721,116.94c-2.576-1.599-6.212-2.233-8.9-2.356c-3.71-0.17-7.107,0.663-10.199,2.509c-0.755-2.655-1.552-5.222-2.146-7.827
		c2.73-1.519,5.776-2.398,8.892-2.8c2.467-0.319,5.053-0.435,7.457,0.335c1.76,0.563,2.791,1.727,4.148,2.669
		C425.122,111.966,425.338,114.458,425.721,116.94z M424.861,107.316c-2.511-2.18-7.566-2.44-10.153-2.215
		c-3.693,0.322-7.428,1.158-10.436,3.222c-0.387-1.875-0.644-3.78-0.69-5.758c0.889-0.894,1.763-1.808,2.877-2.445
		c2.235-1.279,4.948-1.699,7.488-1.76c4.491-0.109,7.911,1.402,10.743,4.356C424.741,104.25,424.792,105.784,424.861,107.316z
		 M424.307,94.644c0.147,1.975,0.234,3.953,0.307,5.932c-2.503-2.415-6.469-3.539-9.756-3.646
		c-3.858-0.125-8.294,0.795-11.232,3.397c0.005-0.082,0.002-0.162,0.008-0.244c0.187-2.496,0.742-4.914,1.401-7.311
		c2.824-1.725,6.108-2.693,9.425-2.756c2.065-0.039,4.137,0.267,6.087,0.952c1.479,0.52,2.502,1.397,3.646,2.284
		C424.234,93.717,424.273,94.182,424.307,94.644z M423.954,91.041c-2.29-1.749-6.633-2.255-8.699-2.297
		c-3.528-0.071-6.861,0.863-9.814,2.578c0.82-2.828,1.704-5.644,2.264-8.531c4.595-2.666,10.917-0.964,15.172,2.223
		C423.364,86.997,423.708,89.022,423.954,91.041z M422.395,83.236c-2.331-1.832-4.859-2.698-8.305-3.04
		c-1.973-0.196-4.162-0.048-6.057,0.685c0.273-1.956,0.372-3.943,0.202-5.899c1.186-0.668,2.436-1.2,3.837-1.502
		c1.927-0.415,3.648-0.067,5.444,0.142C419.827,76.45,421.365,79.749,422.395,83.236z M402.614,63.639
		c4.75,2.064,9.449,4.502,13.086,8.027c-2.531-0.128-5.353,0.693-7.628,1.966c-0.204-1.305-0.538-2.591-1.05-3.835
		C406.027,67.38,404.301,65.522,402.614,63.639z M404.722,122.967c2.413,1.469,4.81,2.965,7.174,4.515
		c-7.876,1.25-14.047,9.365-15.158,17.056c-1.767-1.458-3.557-2.881-5.352-4.295c-0.057-1.115-0.185-2.241-0.114-3.323
		c0.177-2.685,1.113-5.351,2.646-7.561C396.476,125.668,400.423,123.469,404.722,122.967z M393.751,149.055
		c-1.376,2.68-1.913,6.239-2.288,9.624c-0.766,6.908-6.722,8.225-10.514,12.987c-0.11,0.138-0.201,0.287-0.305,0.429
		c-0.316-0.254-0.645-0.483-0.981-0.698c-0.56-4.262-0.117-8.452,1.818-12.546c2.295-4.855,6.377-9.059,11.612-10.255
		C393.313,148.744,393.533,148.893,393.751,149.055z M403.162,122.022c-3.724,0.68-7.158,2.575-9.622,5.626
		c-2.325,2.879-3.886,7.171-3.908,11.215c-2.119-1.661-4.234-3.326-6.334-5.012c0.153-3.638,0.885-7.296,2.856-10.396
		c2.122-3.339,5.1-5.163,8.687-6.336C397.624,118.738,400.403,120.362,403.162,122.022z M311.108,53.073
		c3.857,2.526,7.551,5.258,11.157,8.105c-1.119,0.506-2.161,1.497-2.832,2.334c-0.314,0.392-0.768,1.042-1.107,1.736
		C315.548,61.411,313.065,57.388,311.108,53.073z M319.155,66.363c0.292-0.68,0.637-1.312,1.1-1.902
		c0.479-0.612,1.032-1.149,1.676-1.587c0.472-0.321,1.012-0.514,1.505-0.78c1.418,1.136,2.823,2.289,4.215,3.458
		c-1.889,1.337-3.414,4.133-3.945,6.562C322.135,70.235,320.613,68.32,319.155,66.363z M327.254,76.255
		c-0.836-0.95-1.665-1.908-2.486-2.873c0.405-1.473,0.834-2.89,1.655-4.291c0.695-1.187,1.476-1.903,2.428-2.529
		c2.041,1.736,4.061,3.499,6.066,5.282c-1.198,0.843-2.198,2.048-2.908,3.23c-0.747,1.244-1.603,2.812-1.892,4.372
		C329.16,78.385,328.198,77.328,327.254,76.255z M331.089,80.532c0.11-1.693,1.165-3.531,1.981-4.836
		c0.834-1.333,1.784-2.189,2.936-2.875c1.967,1.759,3.925,3.529,5.878,5.305c-1.573,0.956-2.785,2.847-3.456,4.346
		c-0.577,1.29-1.272,2.923-1.426,4.49C335.015,84.833,333.045,82.689,331.089,80.532z M338.174,88.216
		c-0.196-1.93,0.878-4.306,1.649-5.803c0.844-1.64,1.927-2.437,3.23-3.226c2.005,1.825,4.01,3.649,6.025,5.461
		c-3.188,1.616-5.754,5.51-5.731,9.062C341.619,91.882,339.894,90.051,338.174,88.216z M344.691,95.135
		c-0.328-2.155,0.366-4.396,1.617-6.197c1.081-1.556,2.446-2.401,3.939-3.242c2.196,1.965,4.405,3.915,6.642,5.827
		c-0.648,0.177-1.292,0.382-1.833,0.773c-1.3,0.941-2.396,2.265-3.265,3.608c-0.998,1.541-1.629,3.21-1.738,4.914
		C348.271,98.92,346.481,97.027,344.691,95.135z M350.998,101.839c0.168-2.968,1.495-5.705,3.79-7.795
		c0.951-0.866,2.05-1.177,3.108-1.665c1.479,1.252,2.966,2.494,4.474,3.71c0.685,0.552,1.379,1.088,2.073,1.624
		c-1.92,0.713-3.803,2.387-4.882,3.651c-1.656,1.94-2.601,4.214-2.837,6.662C354.82,105.958,352.914,103.893,350.998,101.839z
		 M357.617,108.989c0.356-2.724,1.394-5.328,3.336-7.334c0.955-0.986,2.1-1.81,3.339-2.402c0.495-0.237,0.971-0.389,1.429-0.565
		c2.531,1.905,5.116,3.723,7.745,5.469c-2.904,1.312-5.37,3.868-6.879,6.528c-0.744,1.311-1.77,3.478-2.2,5.577
		C362.108,113.86,359.861,111.426,357.617,108.989z M373.44,125.371c-2.727-2.588-5.366-5.262-7.964-7.976
		c0.263-2.461,1.52-5.128,2.643-6.839c1.763-2.683,4.021-4.225,6.733-5.491c3.14,2.048,6.33,4.015,9.549,5.936
		c-3.204,0.918-6.144,2.47-8.319,5.222c-2.357,2.982-2.75,5.985-2.482,9.296C373.548,125.469,373.493,125.421,373.44,125.371z
		 M382.427,133.152c-2.485-2.01-4.934-4.07-7.311-6.234c-0.018-0.511-0.098-1.036-0.173-1.618c-0.356-2.769,0.151-5.247,1.731-7.582
		c2.07-3.058,5.374-4.926,8.867-6.036c2.549,1.512,5.112,3.002,7.676,4.492C386.222,118.224,382.29,126.045,382.427,133.152z
		 M379.3,146.134c4.058-0.684,8.049-0.557,11.842,1.321c-4.501,1.381-8.399,5.846-10.439,9.657
		c-2.109,3.94-3.241,8.778-2.808,13.364c-1.72-0.739-3.612-1.113-5.574-1.279c-0.826-4.576-1.907-9.287-0.398-13.784
		C373.333,151.209,376.142,148.734,379.3,146.134z M359.029,231.383c0.634,7.761,1.663,15.866-0.837,23.421
		c-4.754,14.37-19.548,23.371-34.498,20.775c-7.29-1.266-13.381-5.387-18.386-10.678c-1.278-7.916-3.703-15.671-4.67-23.669
		c-1.177-9.737-1.362-19.543-0.613-29.321c1.537-20.057,7.721-37.844,15.776-55.99c3.329,3.895,7.224,7.244,11.792,9.963
		c7.174,4.269,15.312,6.818,23.58,7.799c8.803,1.045,17.713-1.408,25.86,1.744c-7.993,9.676-14.413,21.939-17.098,34.07
		C358.325,216.771,358.426,223.998,359.029,231.383z M278.426,214.853c-0.066-4.262,0.043-8.529,0.315-12.783
		c0.552-8.63,1.811-17.201,3.737-25.632c1.832-8.021,4.271-15.888,7.257-23.554c1.706-4.379,3.595-8.685,5.681-12.897
		c1.456-2.939,3.338-5.756,4.489-8.826c4.04,4.778,6.892,10.788,9.959,16.238c0.931,1.654,1.943,3.227,3.011,4.745
		c-0.013,0.02-0.028,0.034-0.041,0.055c-10.351,16.992-15.334,38.288-16.83,57.935c-0.788,10.351-0.465,20.808,0.905,31.097
		c0.74,5.556,1.565,11.534,3.142,17.193c-1.507-2.141-2.885-4.347-4.123-6.55c-5.345-9.508-11.307-18.498-17.344-27.513
		C278.948,221.235,278.475,218.006,278.426,214.853z M276.043,100.531c-0.101-0.326-0.238-0.632-0.356-0.949
		c5.971,0.906,12.283,0.706,18.271,0.971c5.112,0.226,10.245,0.73,15.362,1.033c-9.463,2.524-18.924,8.914-26.355,14.375
		c-4.635,3.407-9.033,7.129-13.129,11.17c-0.042,0.041-0.087,0.084-0.129,0.126C274.46,118.99,278.919,109.815,276.043,100.531z
		 M271.437,129.923c4.276-4.275,8.887-8.217,13.784-11.764c4.319-3.128,8.861-5.97,13.555-8.502
		c4.358-2.351,9.187-4.112,13.533-6.524c-1.029,7.017-6.252,13.046-10.975,18.284c-0.049,0.055-0.082,0.113-0.124,0.169
		c-3.666-0.898-7.506-1.247-11.464-1.077c-1.807,0.078-2.11,2.522-0.42,3.102c3.281,1.126,5.979,2.918,8.3,5.118
		c-5.192,5.523-8.287,14.458-11.143,21.374c-3.372,8.164-6.04,16.621-8.036,25.223c-1.901,8.192-3.185,16.537-3.845,24.921
		c-0.335,4.251-0.503,8.515-0.503,12.778c0,1.464-0.048,3.001-0.05,4.549c-0.781-1.171-1.562-2.342-2.339-3.52
		c-7.755-11.747-16.697-23.914-18.148-38.358c-1.285-12.784,3.426-25.073,9.28-36.285
		C266.051,136.8,268.621,132.738,271.437,129.923z M311.663,144.117c-1.079-1.656-2.129-3.349-3.14-5.108
		c-0.401-0.697-0.809-1.392-1.224-2.081c0.286-1.093,0.884-2.023,1.757-2.759c1.081-0.911,2.43-1.457,3.82-1.801
		c1.441,1.219,2.818,2.54,4.121,3.957c0.304,0.331,0.605,0.667,0.907,1.001C315.029,138.592,312.673,141.147,311.663,144.117z
		 M318.87,138.392c1.775,1.978,3.536,3.967,5.392,5.831c-1.89,0.385-3.704,1.546-4.948,2.915c-0.994,1.093-1.898,2.706-2.228,4.341
		c-1.676-1.971-3.227-4.062-4.7-6.249C313.568,142.1,315.744,139.721,318.87,138.392z M307.777,133.504
		c-0.458,0.438-1.007,1.136-1.419,1.908c-0.852-1.352-1.748-2.67-2.691-3.941c0.978-1.306,2.432-2.073,3.836-2.933
		c1.475,0.879,2.903,1.852,4.269,2.93C310.306,131.815,308.925,132.406,307.777,133.504z M302.977,130.557
		c-1.8-2.313-3.793-4.433-6.088-6.21c3.273,0.676,6.369,1.852,9.275,3.424C304.909,128.448,303.775,129.403,302.977,130.557z
		 M376.079,146.824c-2.294,2.084-4.092,4.911-5.094,7.545c-1.818,4.778-0.902,9.865,0.167,14.752
		c-2.755-0.123-5.605,0.102-8.288,0.277c-0.398-1.878-1.058-3.693-1.135-5.68c-0.112-2.901,0.411-5.856,1.617-8.505
		c0.995-2.186,2.371-4.021,4-5.606C370.242,148.61,373.169,147.573,376.079,146.824z M356.597,152.765
		c2.679-0.6,5.318-1.363,7.872-2.192c0.193-0.063,0.389-0.132,0.583-0.196c-1.264,1.495-2.31,3.173-3.075,4.939
		c-1.65,3.804-2.605,9.997-0.687,14.176c-0.463,0.025-0.92,0.045-1.368,0.059c-2.136,0.068-4.274,0.013-6.404-0.15
		c-0.887-3.359-1.551-6.569-0.763-10.143c0.454-2.059,1.231-3.999,2.722-5.528C355.826,153.374,356.206,153.062,356.597,152.765z
		 M346.448,154.012c2.61-0.015,5.228-0.292,7.82-0.767c-3.51,4.323-4.364,11.079-1.938,16.056c-3.548-0.345-7.059-1.029-10.48-2.017
		c-0.267-1.346-0.41-3.265-0.409-3.57c0.004-1.83,0.456-3.677,1.278-5.308C343.602,156.654,344.925,155.22,346.448,154.012z
		 M338.021,152.952c2.211,0.604,4.457,0.931,6.718,1.028c-1.656,1.414-3.011,3.132-3.832,5.354
		c-0.663,1.796-1.209,4.932-0.733,7.445c-2.109-0.681-4.173-1.498-6.189-2.425c-0.263-2.903-0.409-5.838,1.081-8.498
		C335.767,154.604,336.956,153.812,338.021,152.952z M336.34,152.435c-3.093,2.91-4.241,7.026-3.537,11.362
		c-1.031-0.505-2.052-1.033-3.05-1.607c-1.27-0.73-2.476-1.508-3.631-2.326c-0.581-4.133,1.04-7.87,4.077-10.587
		C332.071,150.561,334.091,151.649,336.34,152.435z M329.155,148.537c-3.056,2.521-4.52,6.629-4.098,10.546
		c-2.449-1.843-4.635-3.894-6.652-6.1c-0.017-0.531-0.012-1.062,0.106-1.603c0.292-1.341,0.991-2.551,1.924-3.546
		c1.39-1.481,2.994-2.24,4.774-2.691C326.467,146.352,327.767,147.502,329.155,148.537z M143.142,13.916
		c14.922-0.539,29.844,1.391,44.567,3.873c17.11,2.885,34.053,6.877,50.435,12.641c30.566,10.754,60.358,28.082,81.025,53.494
		c6.345,7.802,10.626,16.464,13.926,25.927c0.953,2.734,2.358,5.536,2.097,8.456c-0.281,3.141-2.522,5.174-4.45,7.641
		c-2.669,3.415-5.271,6.863-7.862,10.329c-2.218-2.397-4.442-4.839-6.929-7.021c-3.122-2.74-6.542-4.791-10.182-6.226
		c4.87-5.514,9.706-11.58,10.785-19.041c1.091-7.543-2.073-14.52-6.83-20.214c-11.422-13.674-30.001-22.143-46.048-28.933
		c-18.084-7.651-36.906-13.469-55.591-19.441c-10.604-3.389-21.248-6.652-31.898-9.893c-8.692-2.645-17.457-5.65-26.321-7.863
		C147.668,16.332,145.434,15.075,143.142,13.916z M157.685,22.792c13.051,4.611,26.51,8.433,39.53,12.792
		c17.367,5.815,34.889,11.266,52.032,17.723c16.454,6.197,32.845,13.564,47.11,23.98c6.619,4.834,13.678,11.132,15.675,19.437
		c0.182,0.758,0.292,1.502,0.368,2.24c-4.71-1.951-10.326-1.676-15.312-1.94c-7.48-0.396-15.496-1.552-22.945-0.796
		c-0.023,0.002-0.041,0.015-0.063,0.019c-5.047-8.295-15.891-13.084-23.742-17.679c-13.397-7.84-26.997-15.326-40.643-22.722
		c-11.716-6.351-23.363-13.204-35.72-18.272c-0.097-0.216-0.222-0.429-0.406-0.631C168.751,31.644,163.417,26.938,157.685,22.792z
		 M54.286,84.812c-8.932-18.948-28.092-25.485-45.102-35.08c9.686-2.143,19.539-4.345,29.054-7.271
		c0.294,0.114,0.627,0.145,0.984,0.047c12.662-3.463,25.071-6.298,38.083-7.45c10.512,1.078,21.403,0.367,31.879,1.327
		c13.821,1.267,27.318,4.093,40.262,9.151c24.738,9.666,47.376,24.723,70.136,38.211c5.938,3.519,11.863,7.058,17.774,10.623
		c2.955,1.783,5.913,3.562,8.876,5.33c0.359,0.214,0.727,0.423,1.096,0.63c-14.299-2.83-29.353-3.237-43.716-2.921
		c-18.123,0.399-36.252,2.642-53.914,6.727c-33.97,7.856-66.035,22.312-94.25,42.702C60.593,126.379,63.574,104.513,54.286,84.812z
		 M96.657,212.423c0.253-0.718,0.487-1.365,0.561-1.734c5.631-27.951-13.833-54.764-41.396-58.925
		c28.222-20.272,60.516-34.818,94.346-42.663c17.538-4.067,35.444-6.418,53.444-6.871c15.298-0.385,30.275,1.234,45.403,2.621
		c-5.456,1.7-10.757,4.237-15.856,6.519c-7.903,3.538-15.727,7.258-23.458,11.158c-15.344,7.74-30.309,16.272-44.595,25.833
		C138.952,165.866,115.211,186.946,96.657,212.423z M147.719,248.284c-4.341-8.679-10.884-16.112-19.027-21.646
		c-5.494-3.734-11.755-6.581-18.202-8.201c-3.104-0.78-6.299-1.279-9.493-1.49c-0.797-0.053-1.887,0.108-2.871,0.075
		c18.815-26.527,43.332-48.348,70.355-66.278c13.372-8.873,27.331-16.83,41.603-24.16c7.12-3.657,14.327-7.146,21.595-10.498
		c6.135-2.829,12.561-5.164,18.8-7.82c-11.311,7.804-21.268,18.604-30.611,28.291c-10.912,11.315-21.072,23.367-30.532,35.918
		c-9.721,12.897-18.648,26.389-26.714,40.38C156.999,222.605,148.698,235.831,147.719,248.284z M192.065,244.467
		c-13.73-3.99-28.818-0.698-40.016,7.912c0.231-3.257,0.411-6.463,1.26-9.763c1.025-3.986,2.515-7.85,4.23-11.586
		c3.162-6.886,6.992-13.485,10.845-20.003c7.76-13.128,16.282-25.812,25.52-37.946c9.321-12.242,19.388-23.886,30.029-34.995
		c9.926-10.363,21.522-19.357,31.184-29.921c1.06,5.798-4.386,13.724-6.918,18.687c-3.169,6.211-6.859,12.102-10.651,17.947
		c-6.399,9.862-15.17,20.178-18.901,31.462c-3.273,9.899,5.005,21.084,9.619,29.646c-0.852,21.838-5.658,43.255-7.082,65.026
		C215.868,258.378,205.422,248.349,192.065,244.467z M230.78,210.722c10.788,20.672,22.598,42.023,38.829,58.932
		c-14.363-3.118-30.791-0.027-44.747,4.141C225.894,252.749,231.104,231.774,230.78,210.722z M62.55,467.45
		c2.505,2.453,5.287,4.582,8.284,6.417c-1.479-0.589-2.943-1.216-4.372-1.943c-1.431-0.728-2.819-1.547-4.184-2.408
		c-0.057-0.311-0.106-0.622-0.075-0.92C62.248,468.165,62.383,467.798,62.55,467.45z M61.75,466.668
		c-0.328,0.463-0.562,1.002-0.675,1.51c-0.032,0.146-0.058,0.33-0.078,0.526c-1.906-1.281-3.734-2.684-5.453-4.209
		c0.142-0.549,0.289-1.096,0.526-1.616c0.307-0.675,0.739-1.228,1.192-1.763C58.608,463.131,60.113,464.976,61.75,466.668z
		 M55.58,458.373c0.29,0.523,0.607,1.018,0.916,1.521c-0.965,0.893-1.759,2.215-2.131,3.548c-2.141-2.03-4.09-4.255-5.785-6.661
		c-0.039-0.055-0.072-0.114-0.111-0.17c0.065-0.234,0.149-0.471,0.297-0.726c0.429-0.742,0.981-1.426,1.581-2.036
		c0.712-0.724,1.524-1.254,2.405-1.659C53.54,454.309,54.475,456.378,55.58,458.373z M50.49,425.903
		c-0.328,1.844-0.548,3.705-0.675,5.572c-2.371-0.086-4.7,0.436-7.05,1.053c-0.952,0.25-1.984,0.5-2.686,1.06
		c-0.437-3.162-0.578-6.36-0.696-9.553C43.031,424.185,47.877,423.404,50.49,425.903z M39.345,423.078
		c-0.075-1.977-0.16-3.95-0.332-5.906c0.024-0.155,0.05-0.308,0.075-0.463c2.183-0.03,4.336-0.417,6.549-0.267
		c2.383,0.161,4.69,0.701,6.974,1.362c-0.741,2.103-1.328,4.256-1.79,6.435C48.373,422.655,42.433,422.59,39.345,423.078z
		 M49.742,432.758c-0.127,2.932,0.02,5.869,0.397,8.776c-1.424-0.123-2.862,0.154-4.209,0.84c-1.139,0.58-2.408,1.544-3.117,2.732
		c-1.078-3.193-1.891-6.483-2.481-9.784c-0.02-0.112-0.03-0.224-0.049-0.336C43.019,433.45,46.524,432.809,49.742,432.758z
		 M46.092,443.846c1.318-0.805,2.753-1.06,4.215-1c0.439,2.794,1.119,5.549,2.04,8.229c-1.271,0.429-2.392,1.343-3.304,2.372
		c-0.372,0.419-0.961,1.12-1.411,1.879c-1.74-2.723-3.157-5.63-4.282-8.658C44.234,445.694,44.896,444.576,46.092,443.846z
		 M55.493,411.141c-0.938,1.783-1.762,3.623-2.477,5.503c-4.031-1.599-9.461-2.599-13.694-1.391
		c0.554-3.402,1.178-6.768,1.957-10.084c2.418,0.241,4.781,0.432,7.144,1.279c2.809,1.008,4.873,2.731,7.284,4.307
		C55.637,410.884,55.562,411.011,55.493,411.141z M56.315,409.657c-3.263-3.621-9.665-6.045-14.734-5.731
		c0.763-3.072,1.661-6.101,2.783-9.071c2.991,0.438,6.312,2.266,8.672,3.564c2.657,1.462,4.876,3.4,7.247,5.199
		C58.835,405.54,57.51,407.555,56.315,409.657z M61.169,402.467c-2.75-2.887-6.654-5.086-10.121-6.669
		c-1.041-0.475-3.895-2.006-6.11-2.401c1.174-2.904,2.559-5.753,4.236-8.533c0.215-0.356,0.452-0.681,0.674-1.028
		c2.972,1.967,6.389,3.27,9.134,5.697c2.91,2.572,4.411,5.411,5.882,8.698C63.566,399.583,62.334,400.998,61.169,402.467z
		 M66.125,396.979c-1.068-3.004-3.361-5.79-5.548-7.829c-2.649-2.469-6.336-5.222-10.023-6.392c2.264-3.354,4.823-6.313,7.651-8.92
		c3.236,1.873,6.143,4.284,8.515,7.19c1.427,1.748,2.651,3.682,3.625,5.718c0.748,1.561,1.098,3.392,1.742,5.018
		C69.989,393.378,68.005,395.127,66.125,396.979z M73.497,390.712c-0.343-1.398-1.019-2.794-1.569-4
		c-1.045-2.29-2.383-4.428-3.961-6.389c-2.461-3.058-5.461-5.492-8.887-7.276c3.442-3.038,7.232-5.624,11.275-7.897
		c2.942,2.919,5.848,5.644,8.031,9.376c1.262,2.159,2.292,4.45,3.056,6.831c0.386,1.201,0.568,2.565,0.849,3.873
		C79.232,386.84,76.288,388.676,73.497,390.712z M83.863,384.422c-0.271-1.213-0.702-2.413-1.04-3.445
		c-0.814-2.491-1.902-4.897-3.234-7.154c-1.971-3.339-4.693-6.972-8.023-9.346c3.889-2.105,7.99-3.949,12.225-5.654
		c0.034-0.014,0.068-0.027,0.101-0.04c2.538,3.282,4.877,6.577,6.438,10.55c1.465,3.727,1.863,7.511,2.464,11.358
		C89.751,381.733,86.764,382.984,83.863,384.422z M102.546,378.063c-2.59,0.513-5.163,1.156-7.71,1.946
		c-0.206,0.064-0.41,0.14-0.616,0.206c0.056-4.129-1.342-8.486-2.897-12.115c-1.483-3.464-3.541-7.007-6.243-9.788
		c3.621-1.445,7.255-2.858,10.86-4.34c2.057,3.458,3.955,6.927,5.12,10.871C102.341,369.178,102.758,373.593,102.546,378.063z
		 M115.316,376.196c-0.009,0.121-0.024,0.241-0.033,0.362c-3.784,0.166-7.554,0.574-11.291,1.241
		c0.42-8.253-1.793-17.703-6.99-24.263c1.78-0.742,3.553-1.501,5.308-2.304c2.882-1.319,5.719-2.721,8.563-4.104
		c0.617,2.155,1.562,4.278,2.163,6.407c0.879,3.115,1.549,6.289,1.956,9.502c0.355,2.802,0.527,5.629,0.515,8.454
		C115.499,373.061,115.437,374.631,115.316,376.196z M116.872,376.505c0.539-4.79,0.007-10.003-0.674-14.582
		c-0.461-3.101-1.132-6.184-2.05-9.183c-0.606-1.98-1.237-4.197-2.253-6.105c4.183-2.021,8.395-3.972,12.803-5.513
		c0.037-0.013,0.074-0.023,0.111-0.036c1.243,5.762,2.659,11.338,2.937,17.315c0.291,6.243-0.529,12.185-1.573,18.285
		C123.074,376.476,119.97,376.423,116.872,376.505z M127.67,376.795c1.53-6.078,1.798-12.689,1.423-18.876
		c-0.343-5.672-1.157-11.79-3.329-17.142c4.371-1.46,8.771-2.534,13.199-3.32c0.721,6.5,1.576,12.781,0.976,19.422
		c-0.354,3.915-1.048,7.804-2.066,11.601c-0.831,3.098-2.272,6.054-3.198,9.107C132.346,377.25,130.009,376.986,127.67,376.795z
		 M136.221,377.815c1.434-2.752,2.253-6.075,3.022-8.957c0.967-3.623,1.631-7.329,1.99-11.061c0.631-6.559,0.702-14.02-1.164-20.532
		c3.57-0.595,7.157-1.025,10.763-1.327c0.848,7.195,0.931,14.51,0.371,21.72c-0.294,3.785-0.676,7.609-1.558,11.308
		c-0.917,3.843-2.712,7.089-4.29,10.638C142.335,378.899,139.286,378.3,136.221,377.815z M146.759,379.942
		c4.185-5.803,5.144-13.889,5.743-20.774c0.681-7.82,0.565-15.59-0.651-23.315c3.151-0.245,6.315-0.407,9.492-0.522
		c0.669,3.523,1.612,6.975,1.935,10.591c0.37,4.132,0.339,8.3-0.085,12.426c-0.867,8.446-3.45,16.616-7.511,24.06
		C152.746,381.495,149.765,380.675,146.759,379.942z M164.458,345.038c-0.347-3.18-0.771-6.625-1.801-9.752
		c3.28-0.106,6.572-0.171,9.879-0.233c-2.937,8.097-4.551,16.879-6.246,25.205c-1.639,8.049-2.955,16.553-8.053,22.992
		c-0.102-0.05-0.202-0.102-0.318-0.14c-0.274-0.09-0.553-0.171-0.828-0.26c3.987-7.474,6.51-15.621,7.392-24.059
		C164.96,354.223,164.957,349.604,164.458,345.038z M196.49,467.536c0.756-2.135,0.663-4.629-0.232-6.969
		c-0.035-0.138,5.306,0.122,6.146,0.787c1.186,0.939,2.159,7.091,2.415,7.161C202.149,467.784,199.219,467.288,196.49,467.536z
		 M207.902,464.675c-0.525-2.161-1.36-4.173-3.178-5.514c-1.16-0.856-2.391-1.314-3.655-1.509c0.474-1.245,0.251-2.766-0.33-4.242
		c3.109,0.243,6.557,0.358,8.27,3.164c1.453,2.38,1.948,5.355,2.009,8.195C209.971,464.634,208.892,464.532,207.902,464.675z
		 M203.304,438.209c3.879,4.991,9.869,7.978,15.937,9.373c3.718,0.855,8.207,0.735,11.459,2.936
		c2.741,1.854,3.358,4.643,4.068,7.466c-2.319-1.492-5.126-2.128-7.754-1.298c-0.329,0.104-0.306,0.534,0,0.646
		c3.082,1.137,6.107,2.734,7.665,5.722c0.446,0.856,1.751,3.58,1.013,4.47c-0.39,0.47-4.373-0.262-4.958-0.297
		c-5.061-0.3-10.521-1.137-15.695-0.972c0.007-4.394-0.827-9.682-3.908-12.935c-3.019-3.188-7.57-3.379-11.465-2.004
		c-0.821-1.293-1.826-2.405-2.737-3.048c-2.967-2.095-7.937-0.354-9.8-2.585c-1.78-2.131-0.167-6.603-0.237-9.081
		c-0.087-3.091-0.182-6.181-0.291-9.271c-0.171-4.859,0.23-10.232-0.939-15.02c6.515-3.509,14.045-5.616,20.779-8.435
		C199.271,413.445,195.942,428.736,203.304,438.209z M217.071,398.368c6.535-4.048,12.515-9.052,17.618-14.777
		c0.233,2.814,0.197,5.657-0.334,8.435c-0.593,3.099-2.261,5.661-3.204,8.567C226.304,400.265,221.739,399.412,217.071,398.368z
		 M233.892,400.724c-0.452-0.011-0.896-0.035-1.342-0.055c1.827-2.34,2.7-6.007,3.143-8.728c0.506-3.106,0.437-6.137-0.323-9.146
		c0.501-0.577,1.004-1.152,1.487-1.743c3.89-4.765,8.113-10.782,11.104-17.092c0.348,6.502,0.756,13.077,0.122,19.56
		c-0.313,3.194-0.91,6.376-1.873,9.439c-0.871,2.769-2.423,5.22-3.478,7.873C239.784,400.83,236.837,400.793,233.892,400.724z
		 M252.449,400.688c-2.693,0.086-5.388,0.125-8.082,0.137c1.299-1.844,2.126-4.164,2.84-6.206c1.055-3.017,1.73-6.154,2.134-9.322
		c0.976-7.647,0.27-15.262-0.672-22.862c0.027-0.061,0.058-0.122,0.085-0.183c0.079-0.065,0.15-0.133,0.228-0.198
		c3.189,1.291,6.606,2.025,10.142,2.355c0.379,6.469,0.83,12.875-0.206,19.341c-0.48,2.995-1.216,5.965-2.264,8.813
		c-0.659,1.791-1.433,3.536-2.339,5.216C254.056,398.259,253.032,399.594,252.449,400.688z M255.923,400.567
		c-0.465,0.021-0.931,0.03-1.396,0.049c0.561-1.021,1.001-2.061,1.238-2.516c1.779-3.418,3.056-7.091,3.893-10.849
		c1.636-7.352,1.825-15.286,0.584-22.766c3.085,0.214,6.247,0.152,9.425-0.128c1.563,5.734,2.543,11.595,2.41,17.56
		c-0.07,3.151-0.415,6.293-1.04,9.382c-0.56,2.769-1.515,5.427-2.167,8.162C264.599,399.994,260.288,400.366,255.923,400.567z
		 M270.27,399.263c2.426-5.052,3.05-11.473,3.179-16.886c0.146-6.155-0.701-12.328-2.806-18.113
		c3.762-0.378,7.529-1.016,11.188-1.771c0.933,6.079,1.578,12.276,1.558,18.414c-0.019,5.862-1.091,11.171-2.651,16.631
		C277.274,398.237,273.783,398.795,270.27,399.263z M293.203,394.495c-3.512,1.018-7.043,1.891-10.594,2.653
		c1.662-5.026,2.108-10.665,2.117-15.774c0.012-6.447-0.922-12.749-1.986-19.072c2.024-0.43,4.016-0.886,5.946-1.349
		c1.198,5.611,3.023,11.07,3.997,16.745C293.668,383.432,293.616,388.822,293.203,394.495z M294.788,394.031
		c0.732-5.002,0.209-10.338-0.552-15.226c-0.943-6.048-2.339-12.329-4.456-18.117c1.137-0.276,2.261-0.553,3.351-0.822
		c0.066,0.889,0.153,1.785,0.276,2.694c1.164,8.57,3.676,16.925,5.283,25.417c0.287,1.517,0.554,3.038,0.811,4.56
		C297.932,393.065,296.361,393.556,294.788,394.031z M343.131,461.387c-0.346,0.366-0.509,0.752-0.546,1.122
		c-2.934-2.808-6.984-4.606-10.794-5.154c-1.458-0.21-2.135,1.859-0.627,2.274c4.267,1.174,10.141,4.217,11.277,9.005
		c1.258,5.297-6.04,4.906-9.48,5.225c-7.434,0.69-16.782,1.295-23.886-1.422c-5.789-2.214-3.669-8.267-3.097-13.031
		c0.479-3.987,0.792-8.001,1.037-12.009c0.531-8.684,0.646-17.419,0.138-26.107c-0.949-16.232-3.414-32.3-7.289-48.084
		c-2.161-8.801-4.552-18.216-2.363-27.255c1.909-7.886,7.071-15.251,12.509-21.138c0.618-0.669-0.336-1.628-1.001-1.001
		c-4.423,4.172-8.117,8.685-10.843,13.586c0.426-1.902,0.876-3.81,1.835-5.551c2.174-3.947,4.958-7.447,7.947-10.79
		c0.304-0.34-0.091-0.94-0.511-0.663c-7.565,4.977-15.325,13.689-12.927,23.549c0.071,0.294,0.291,0.448,0.536,0.482
		c-1.241,3.704-1.949,7.613-2.013,11.754c-7.801,1.769-15.586,3.705-23.556,4.569c-6.353,0.689-12.364,0.081-18.582-0.495
		c8.355-8.772,7.945-21.853,5.716-33.626c-0.08-0.42-0.81-0.33-0.756,0.102c0.926,7.419,0.172,14.817-2.142,21.729
		c1.344-7.593,0.008-15.582-2.808-23.162c-0.16-0.431-0.794-0.267-0.694,0.191c2.077,9.565,0.804,19.302-1.258,28.791
		c-2.888,5.106-5.177,10.506-8.707,15.341c-4.41,6.038-9.286,11.746-14.801,16.806c-10.756,9.867-22.956,15.429-36.146,21.192
		c-1.681,0.734-3.284,1.534-4.816,2.392c-0.393-0.074-0.816,0.102-0.976,0.562c-8.888,5.25-14.955,12.806-16.418,23.983
		c-0.566,4.328-0.749,11.736,3.948,13.894c5.938,2.727,13.95,1.894,20.689,1.257c0.456,0.149,0.901,0.312,1.306,0.517
		c2.401,1.212,3.814,3.238,4.158,5.943c0.085,0.669,0.099,1.138,0.202,1.571c-0.773,0.133-1.546,0.319-2.309,0.544
		c-4.3-6.603-12.646-5.317-19.445-4.021c-1.058,0.202-0.817,1.923,0.254,1.878c4.793-0.203,12.788-0.368,15.766,4.134
		c0.883,1.336,1.545,3.521,1.015,5.13c-1.099,3.339-5.077,2.856-7.824,2.903c-9.115,0.158-19.007,0.172-27.937-1.775
		c-3.06-0.667-6.159-1.598-7.333-5.019c-0.847-2.47-0.336-5.91-0.319-8.48c0.031-4.766,0.089-9.531,0.141-14.296
		c0.105-9.796,0.097-19.602,0.372-29.395c0.127-4.52,0.247-9.508,2.691-13.483c2.092-3.404,5.737-5.323,8.427-8.167
		c5.195-5.493,7.103-13.07,8.511-20.284c3.627-18.587,4.77-38.473,20.174-51.715c1.308-1.124-0.453-3.463-1.865-2.418
		c-4.353,3.223-7.69,7.126-10.327,11.457c0.044-0.218,0.081-0.439,0.13-0.654c0.992-4.403,3.639-7.751,5.97-11.544
		c0.296-0.481-0.384-1.004-0.78-0.602c-3.312,3.364-6.115,6.187-7.501,10.797c-0.864,2.874-1.998,6.362-2.287,9.706
		c-16.258-2.577-33.746-0.476-49.349,4.57c-7.589,2.454-14.571,6.141-21.787,9.479c-7.536,3.486-15.402,6.174-23.01,9.492
		c-13.252,5.778-24.339,14.161-31.894,26.635c-6.263,10.342-10.41,23.069-10.442,35.358c-0.544,6.622,0.092,13.879,0.908,20.019
		c1.112,8.362,4.045,16.185,9.267,22.866c9.113,11.66,25.35,20.382,40.444,20.113c5.855,1.815,11.887,3.096,17.677,4.122
		c12.796,2.269,25.759,3.47,38.599,5.453c7.175,1.108,16.038,1.976,23.283,5.172c-11.275-1.885-22.872-1.195-34.353-0.688
		c-17.182,0.759-34.06-0.462-50.634-5.311c-16.234-4.749-32.021-12.101-42.241-26.081c-8.961-12.258-14.26-27.309-16.039-42.327
		c-3.493-29.486,5.672-59.884,25.614-81.977c19.619-21.736,47.394-34.255,76.211-37.767c8.578-1.045,17.244-1.599,25.632-3.807
		c7.449-1.961,14.494-5.209,21.341-8.688c14.275-7.251,28.425-16.038,44.882-16.242c0.691,1.71,1.271,3.465,1.718,5.262
		c0.305,1.229,1.695,1.985,2.897,1.645c0.059-0.016,0.118-0.033,0.177-0.05c0.925,0.507,2.247,0.304,2.718-0.759
		c21.628-5.987,47.082-11.26,64.307,6.633c0.092,0.21,0.193,0.416,0.297,0.622c-0.561,4.398,0.069,8.807,4.094,11.701
		c4.468,3.213,12.785,4.464,17.586,1.575c0.574-0.345,0.183-1.165-0.44-1.044c-4.296,0.839-10.487,0.206-14.396-1.869
		c-2.849-1.513-4.269-4.336-4.804-7.404c5.071,5.648,14.781,7.859,20.253,2.403c0.398-0.397-0.007-1.074-0.544-0.934
		c-4.205,1.101-12.001-0.255-15.21-3.114c-0.893-0.795-1.615-1.714-2.326-2.621c-0.062-0.324-0.193-0.647-0.431-0.951
		c-4.469-5.723-9.919-9.561-15.934-11.999c-16.42-20.123-30.005-41.477-41.951-64.556c-2.828-5.464-5.586-10.963-8.358-16.455
		c-1.602-3.174-3.697-6.619-3.661-10.303c0.043-4.396,3.2-8.895,5.312-12.59c6.596-11.545,13.808-22.731,20.76-34.061
		c4.588-7.477,15.372-21.13,10.281-30.415c-2.183-3.982-6.814-6.058-10.549-8.256c-6.543-3.85-13.128-7.631-19.664-11.494
		c-23.713-14.014-47.057-29.896-72.463-40.72c-8.313-3.542-16.853-6.206-25.597-8.096c11.268,0.45,22.545,1.407,33.361,4.764
		c13.777,4.275,26.388,11.927,39.017,18.739c12.474,6.728,24.919,13.513,37.219,20.554c6.305,3.609,12.631,7.221,18.797,11.064
		c6.071,3.784,12.047,8.338,12.311,16.151c0.228,6.751-3.096,13.096-6.157,18.901c-3.167,6.006-6.504,11.94-9.386,18.089
		c-5.041,10.755-9.081,22.581-7.679,34.62c1.657,14.244,10.255,26.39,18.148,37.903c7.368,10.748,14.733,21.43,22.119,32.085
		c8.281,11.947,14.036,25.901,28.857,31.012c13.499,4.655,28.727,0.605,38.004-10.253c11.171-13.076,8.155-28.15,7.483-43.972
		c-0.698-16.452,6.371-29.428,13.992-42.879c-0.073,0.702-0.122,1.405-0.139,2.103c-0.214,8.329,2.443,18.481,8.714,24.297
		c2.813,2.609,6.068,3.879,9.818,4.469c0.197,0.031,0.395,0.054,0.593,0.08c-3.003,2.273-5.444,5.772-7.479,8.601
		c-3.614,5.025-6.519,10.505-8.863,16.225c-4.788,11.686-7.366,24.257-7.773,36.867c-0.484,14.989-1.024,28.61-8.578,41.985
		c-6.636,11.75-16.4,21.126-27.847,28.12c-0.336-2.05-0.672-4.099-0.997-6.148c-0.128-0.806-1.538-0.626-1.439,0.195
		c0.319,2.651,0.576,5.33,0.784,8.023c0,0.076,0.011,0.152,0.019,0.228c0.636,8.375,0.769,16.893,0.602,25.19
		c-0.238,11.843-4.742,23.032-5.587,34.857c-0.722,10.107-0.539,21.178,0.917,31.22c0.553,3.817,1.67,7.705,4.385,10.58
		C337.051,451.545,348,456.236,343.131,461.387z M182.765,429.389c0.039,5.245-0.674,11.351,0.24,16.604
		c-0.295-0.056-0.594-0.114-0.888-0.169c-3.191-0.599-8.082-0.643-9.964-3.462c-1.613-2.417-1.257-8.084-0.966-10.956
		c0.412-4.064,2.045-8.123,4.63-11.296c1.996-2.45,4.361-4.431,6.954-6.108C182.086,419.013,182.728,424.478,182.765,429.389z
		 M344.741,365.85c-2.039-5.711-4.039-12.582-8.283-17.207c0.178-0.044,0.359-0.105,0.543-0.212
		c2.295-1.328,4.513-2.766,6.651-4.302c3.621,4.82,7.125,9.723,9.805,15.15c3.342,6.769,4.95,13.782,4.976,21.276
		c-0.043,0.028-0.085,0.058-0.128,0.086c-3.243,2.085-6.577,3.717-9.987,5.143C348.858,378.996,347.022,372.237,344.741,365.85z
		 M336.59,350.568c3.04,4.829,4.974,10.225,6.866,15.636c2.3,6.577,3.96,13.281,3.318,20.21c-3.377,1.343-6.827,2.518-10.351,3.725
		c1.169-4.971,2.255-9.845,2.327-15.031C338.864,366.853,337.849,358.694,336.59,350.568z M344.463,343.529
		c3.118-2.302,6.06-4.811,8.791-7.517c3.689,5.553,7.378,11.144,10.192,17.197c2.989,6.428,4.45,12.914,4.892,19.803
		c-2.655,2.353-5.46,4.534-8.394,6.528C360.4,366.243,352.881,353.516,344.463,343.529z M340.38,448.081
		c-6.041-4.342-6.613-10.415-6.912-17.368c-0.271-6.305-0.328-12.609-0.034-18.915c0.285-6.11,0.859-12.131,2.171-18.104
		c3.781-0.36,7.553-1.266,11.25-2.572c-0.221,10.582,0.852,21.315,1.648,31.834c0.421,5.571,0.866,11.141,1.372,16.705
		c0.47,5.166,0.184,11.253,2.184,16.064c0.019,0.046,0.055,0.082,0.078,0.126c-1.458,0.046-2.911,0.253-4.302,0.6
		C346.467,453.091,342.936,449.918,340.38,448.081z M354.504,472.588c-1.021-0.434-2.731-0.415-3.809-0.491
		c-1.276-0.09-2.702-0.209-4.062-0.083c0.134-0.911,0.084-1.952-0.211-3.157c-0.272-1.11-0.707-2.144-1.257-3.111
		c1.649-0.159,3.236-0.327,5.038,0.599c2.22,1.141,3.871,3.358,4.581,5.726c0.058,0.163,0.096,0.331,0.14,0.498
		C354.801,472.568,354.661,472.573,354.504,472.588z M358.724,469.534c-0.393,0.042-0.814,0.168-1.185,0.374
		c-0.014-0.033-0.03-0.068-0.043-0.1c-1.341-3.027-3.736-5.61-6.877-6.785c-0.923-0.345-2.073-0.599-3.25-0.683
		c0.945-1.328,1.179-2.74,0.955-4.154c3.624,0.392,7.384,0.409,10.503,2.495c3.03,2.027,4.056,5.608,4.293,9.131
		C361.713,469.455,360.245,469.371,358.724,469.534z M380.673,395.886c1.917,10.264,1.218,19.955-0.891,30.124
		c-1.237,5.963-4.26,14.149,0.258,19.463c3.961,4.66,19.106,6.729,15.997,14.414c-0.031-0.034-0.066-0.077-0.097-0.11
		c-3.313-3.502-7.642-5.199-12.396-4.353c-1.768,0.315-1.331,3.125,0.418,3.097c3.673-0.059,17.198,8.293,9.377,11.015
		c-1.229,0.428-3.38-0.895-4.592-1.143c-2.353-0.482-4.898-0.489-7.29-0.656c-1.18-0.082-14.792-0.418-14.558,1.104
		c-0.596-3.875-1.786-7.585-5.081-10.153c-1.976-1.54-4.345-2.393-6.814-2.707c0.031-0.086,0.077-0.155,0.096-0.256
		c0.997-5.163-0.39-10.855-0.876-16.064c-0.552-5.915-1.099-11.83-1.597-17.75c-0.893-10.61-1.297-21.384-2.804-31.934
		c9.082-3.767,17.558-9.823,24.395-16.142C376.473,381.163,379.254,388.288,380.673,395.886z M378.596,362.298
		c-0.678,0.833-1.369,1.657-2.078,2.468c-2.073,2.374-4.269,4.643-6.577,6.791c-0.246-13.163-8.254-26.034-15.908-36.357
		c2.554-2.604,4.935-5.362,7.092-8.281c4.63,4.316,9.009,9.099,12.268,14.509C377.31,347.932,378.914,354.819,378.596,362.298z
		 M380.255,360.193c0.789-13.522-8.813-25.495-18.538-34.071c1.477-2.054,2.851-4.177,4.114-6.364
		c5.82,2.197,11.053,5.345,15.734,9.557c2.483,2.234,4.721,4.762,6.362,7.685c1.328,2.363,1.869,4.709,2.365,7.179
		C387.437,349.801,384.106,355.174,380.255,360.193z M391.543,341.583c-1.281-5.022-5.206-9.802-8.669-12.95
		c-4.526-4.114-10.312-8.485-16.514-9.827c1.385-2.48,2.641-5.032,3.733-7.659c4.869,1.763,9.619,3.315,14.043,6.257
		c2.483,1.651,4.791,3.552,6.889,5.67c2.017,2.037,4.462,4.4,5.22,7.251C394.87,334.159,393.291,337.913,391.543,341.583z
		 M400.207,317.242c-0.912,3.643-1.974,7.253-3.178,10.813c-0.681-1.195-1.672-2.298-2.469-3.248
		c-2.261-2.697-4.851-5.099-7.674-7.197c-4.583-3.406-10.471-6.702-16.343-7.566c1.072-2.7,2.002-5.462,2.742-8.29
		c3.066,2.896,6.877,4.774,10.874,6.325c3.072,1.192,6.215,2.202,9.232,3.533c2.618,1.155,4.781,2.764,7.13,4.255
		C400.415,316.325,400.322,316.785,400.207,317.242z M400.893,314.256c-3.354-3.129-8.659-4.708-12.735-6.17
		c-5.197-1.863-10.473-3.805-14.578-7.518c0.813-3.341,1.396-6.758,1.714-10.239c8.125,5.608,18.29,8.657,28.047,9.788
		C402.693,304.857,401.928,309.578,400.893,314.256z M403.542,298.657c-4.905-1.027-9.818-1.782-14.632-3.291
		c-4.769-1.496-9.368-3.558-13.516-6.348c0.021-0.294,0.05-0.586,0.068-0.881c0.178-2.987,0.366-5.956,0.574-8.917
		c4.205,3.007,8.741,5.319,13.811,6.752c4.154,1.174,10.593,2.779,15.157,1.126C404.508,290.948,404.052,294.807,403.542,298.657z
		 M405.222,285.422c-2.342,0.501-4.569,0.84-7.084,0.638c-2.965-0.238-5.908-0.814-8.76-1.656c-4.656-1.376-9.232-3.544-13.26-6.342
		c0.338-4.626,0.751-9.226,1.377-13.796c3.331,3.166,8.069,5.542,11.87,7.128c5.078,2.119,11.826,4.092,17.503,3.343
		C406.219,278.281,405.697,281.847,405.222,285.422z M409.206,264.406c-0.829,2.977-1.504,5.98-2.085,9
		c-2.834-0.297-5.676-0.178-8.519-0.679c-2.902-0.512-5.766-1.324-8.5-2.425c-2.819-1.134-5.516-2.556-8.043-4.243
		c-1.526-1.019-2.901-2.248-4.316-3.413c0.627-4.232,1.425-8.443,2.523-12.631c3.776,3.589,8.661,6.221,13.356,8.214
		c5.024,2.132,10.627,3.774,16.16,4.178C409.587,263.076,409.39,263.746,409.206,264.406z M410.241,260.877
		c-5.571-0.71-10.891-1.758-16.154-3.986c-4.944-2.093-9.146-5.081-13.504-8.06c0.292-1.058,0.596-2.116,0.926-3.171
		c0.988-3.152,2.137-6.256,3.445-9.293c3.05,4.397,7.465,8.021,11.942,10.763c4.632,2.836,10.355,5.408,15.914,6.052
		C411.865,255.766,411.013,258.341,410.241,260.877z M413.363,251.69c-5.56-1.322-10.733-2.696-15.77-5.753
		c-4.783-2.903-8.475-6.689-12.101-10.789c1.297-2.897,2.736-5.73,4.338-8.469c0.34-0.582,0.716-1.157,1.104-1.731
		c2.569,4.661,7.026,8.606,11.229,11.588c2.658,1.886,5.509,3.48,8.509,4.754c1.907,0.81,4.031,1.747,6.166,2.134
		C415.568,246.146,414.415,248.916,413.363,251.69z M417.496,242.073c-1.812-0.653-3.737-1.075-5.516-1.792
		c-2.958-1.192-5.788-2.727-8.428-4.514c-4.848-3.279-8.216-7.493-11.956-11.779c1.867-2.606,4.062-5.16,5.841-7.835
		c3.512,4.308,7.785,7.841,12.752,10.434c2.716,1.418,5.584,2.551,8.541,3.353c1.562,0.424,3.299,0.88,5.031,1.117
		C421.42,234.517,419.351,238.241,417.496,242.073z M424.8,229.543c-1.899-0.286-3.832-0.455-5.699-0.949
		c-2.983-0.789-5.873-1.91-8.608-3.338c-4.757-2.483-9.007-5.883-12.532-9.922c0.479-0.769,0.933-1.545,1.315-2.34
		c1.341,0.117,2.676,0.272,3.959,0.654c3.34,0.994,5.014,3.411,7.639,5.402c4.237,3.213,8.369,2.552,13.378,2.944
		c2.014,0.157,3.986,0.522,5.943,0.97C428.266,224.992,426.472,227.202,424.8,229.543z M497.813,202.931
		c0.821,3.643,0.112,7.256-1.435,10.838c-1.091-0.769-2.314-1.448-3.597-2.046C494.845,209.687,496.543,205.923,497.813,202.931z
		 M482.543,205.739c0.498-0.745,1.391-3.359,2.144-4.911c1.659,2.516,1.204,5.813,1.892,8.639c-1.979-0.563-3.821-0.971-5.253-1.255
		c-0.194-0.038-0.39-0.07-0.585-0.104C481.379,207.351,481.988,206.568,482.543,205.739z M471.811,201.089
		c1.517,1.557,2.303,4.056,2.688,6.311c-2.12-0.19-4.233-0.414-6.266-0.914C469.374,204.62,470.471,202.655,471.811,201.089z
		 M459.687,196.559c0.72,1.611,0.986,3.411,0.886,5.183c-0.012,0.208-0.042,0.422-0.082,0.638c-1.245-1.068-2.422-2.203-3.674-3.238
		C457.837,198.353,458.804,197.501,459.687,196.559z M452.018,189.585c-0.589,0.796-1.158,1.61-1.699,2.441
		c-0.639-1.678-1.335-3.332-2.159-4.924c1.415,0.144,2.837,0.277,4.269,0.377c0.373,0.026,0.746,0.043,1.119,0.064
		C452.991,188.205,452.497,188.938,452.018,189.585z M448.701,195.528c-2.391-0.363-4.814-0.532-7.047-1.608
		c-2.436-1.174-4.489-3.035-6.918-4.241c-2.775-1.378-5.704-2.194-8.697-2.73c6.67-1.593,13.466-0.762,20.464-0.019
		C446.959,189.862,447.839,192.69,448.701,195.528z M466.928,191.091c-0.807-1.386-1.7-2.666-2.742-3.855
		c0.768-0.103,1.534-0.219,2.296-0.365c0.816-0.157,1.627-0.377,2.435-0.63C468.649,188.035,467.992,189.639,466.928,191.091z
		 M479.499,191.538c-1.316-2.752-2.905-5.287-5.163-7.341c2.325-0.925,4.664-1.774,7.068-2.054
		C481.109,185.378,480.479,188.486,479.499,191.538z M494.86,187.845c-0.776,1.255-1.599,2.48-2.467,3.674
		c-0.458,0.652-0.938,1.287-1.44,1.905c-1.109,1.498-1.22,1.59-0.333,0.278c-1.21-4.022-2.031-7.574-3.653-11.176
		c3.234,0.705,6.335,1.948,9.679,2.17C496.082,185.76,495.497,186.814,494.86,187.845z M504.327,178.564
		c-0.019,0.012-0.038,0.024-0.057,0.036c-4.126,2.571-10.641,0.929-14.841-0.195c-3.425-0.916-6.615-1.493-10.117-0.682
		c-4.29,0.993-8.108,3.432-12.337,4.632c-15.972,4.532-33.354-1.618-49.301,3.747c-1.625,0.547-1.98,3.303,0,3.663
		c4.93,0.895,10.229,1.583,14.754,3.861c3.078,1.549,5.605,4.01,8.861,5.23c4.688,1.757,9.086,0.946,13.106,4.455
		c2.667,2.329,4.76,4.917,8.014,6.48c7.261,3.486,16.102,1.902,23.754,4.154c4,1.177,13.939,4.377,8.406,10.257
		c-6.202,6.59-17.824,3.304-25.492,1.158c-4.651-1.302-9.208-2.094-14.03-2.406c-5.794-0.375-11.622-0.468-17.259-2.038
		c-4.521-1.259-8.793-3.447-13.538-3.807c-2.409-0.183-5.027,0.35-7.394-0.229c-2.549-0.623-4.218-2.604-6.141-4.213
		c-2.526-2.114-5.159-3.303-8.427-3.798c-4.663-0.706-9.249-0.392-13.068-3.613c-3.715-3.132-5.711-8.004-6.685-12.671
		c-0.895-4.288-0.992-9.348,0.354-13.542c1.724-5.367,6.101-7.188,9.679-10.973c2.287-2.42,3.17-5.243,3.569-8.486
		c0.291-2.365,0.019-5.606,1.562-7.61c2.295-2.979,5.803-1.188,8.942-0.611c7.729,1.418,10.182-5.533,12.859-11.233
		c3.627-7.722,8.743-0.987,13.165,1.673c3.794,2.282,7.844,3.177,12.202,3.677c11.227,1.286,22.034,5.057,33.228,6.846
		c10.299,1.646,21.162,4.074,27.553,12.796C508.082,169.539,509.397,175.341,504.327,178.564z"/>
	<path style="fill:#231F20;" d="M496.199,167.57c-1.407-0.117-2.851,0.746-3.271,2.121c-0.434,1.419,0.365,3.022,1.691,3.631
		c0.201,0.092,0.407,0.152,0.614,0.194c0.592,0.304,1.231,0.453,1.811,0.311c1.437-0.35,2.173-2.039,2.026-3.391
		C498.9,168.892,497.766,167.7,496.199,167.57z"/>
	<path style="fill:#231F20;" d="M501.338,163.211c-1.135-0.82-2.611-0.735-3.921-0.5c-1.736,0.311-4.017,0.532-5.401,1.675
		c-0.29,0.239-0.101,0.69,0.208,0.789c2.354,0.752,5.946-1.719,7.82,0.051c2.069,1.955,0.455,5.877,1.747,8.232
		c0.26,0.473,0.931,0.428,1.201,0c0.988-1.564,0.507-3.835,0.238-5.584C502.982,166.263,502.767,164.244,501.338,163.211z"/>
</g>
<g>
</g>
<g>
</g>
<g>
</g>
<g>
</g>
<g>
</g>
<g>
</g>
<g>
</g>
<g>
</g>
<g>
</g>
<g>
</g>
<g>
</g>
<g>
</g>
<g>
</g>
<g>
</g>
<g>
</g>
</svg>
