<?xml version="1.0" encoding="iso-8859-1"?>
<!-- Generator: Adobe Illustrator 19.0.0, SVG Export Plug-In . SVG Version: 6.00 Build 0)  -->
<svg version="1.1" id="Capa_1" xmlns="http://www.w3.org/2000/svg" xmlns:xlink="http://www.w3.org/1999/xlink" x="0px" y="0px"
	 viewBox="0 0 512 512" style="enable-background:new 0 0 512 512;" xml:space="preserve">
<g>
	<path style="fill:#FFFFFF;" d="M497.459,292.623l1.136,1.422l0.591-1.722c1.647-4.793,2.196-9.512,1.679-14.429l-0.159-1.514
		l-1.326,0.748l-0.225,0.122c-0.17,0.091-0.337,0.181-0.487,0.277c-2.404,1.477-4.26,3.593-6.055,5.64
		c-0.403,0.461-0.807,0.921-1.214,1.371l-0.643,0.71l0.683,0.673C493.529,287.984,495.555,290.239,497.459,292.623z"/>
	<path style="fill:#FFFFFF;" d="M495.643,317.947c0.412,0.028,0.795,0.065,1.169,0.121l1.291,0.194l-0.149-1.297
		c-0.072-0.628-0.137-1.249-0.2-1.864c-0.314-3.033-0.611-5.898-1.75-8.833l-1-2.576l-0.881,2.619
		c-1.154,3.435-2.508,6.998-4.575,9.783l-1.13,1.521l1.893,0.074C492.056,317.756,493.859,317.827,495.643,317.947z"/>
	<path style="fill:#FFFFFF;" d="M486.205,297.011l1.7,2.085l0.075-2.689c0.06-2.178-0.002-4.382-0.185-6.551l-0.145-1.725
		l-1.422,0.987c-1,0.694-2.089,1.352-3.235,1.956l-1.061,0.559l0.739,0.943C483.837,294.061,485.011,295.546,486.205,297.011z"/>
	<path style="fill:#FFFFFF;" d="M477.806,317.48l1.621,0.009c1.745,0.01,3.49,0.02,5.235,0.05l1.347,0.023l-0.367-1.296
		c-0.564-1.989-1.388-4.57-2.761-6.895l-1.216-2.059l-0.612,2.311c-0.548,2.069-1.37,4.167-2.514,6.413L477.806,317.48z"/>
	<path style="fill:#FFFFFF;" d="M477.147,299.828l1.375,2.151l0.452-2.513c0.342-1.902,0.494-3.663,0.466-5.384l-0.023-1.382
		l-1.306,0.455c-1.021,0.355-2.146,0.694-3.344,1.006l-1.504,0.392l0.979,1.206C475.206,296.945,476.156,298.276,477.147,299.828z"
		/>
	<path style="fill:#FFFFFF;" d="M472.47,317.473l3.881,0.012l-1.291-2.086c-1.177-1.915-2.5-4.067-4.039-4.945
		c-0.261-0.477-0.664-1.037-1.341-1.037c-1.079,0-1.224,1.172-1.246,1.802c-0.329,0.672-0.66,1.306-0.975,1.871
		c-0.718,1.215-1.331,1.985-2.052,2.575l-2.133,1.745l2.755,0.029C468.172,317.462,470.32,317.467,472.47,317.473z"/>
	<path style="fill:#FFFFFF;" d="M468.283,301.896l1.289,1.405l0.423-1.86c0.381-1.677,0.646-3.332,0.81-5.057l0.127-1.324
		l-1.308,0.247c-1.35,0.255-2.754,0.492-4.293,0.724l-1.684,0.254l1.042,1.347C465.851,299.132,467.026,300.526,468.283,301.896z"/>
	<path style="fill:#FFFFFF;" d="M461.287,317.358l1.44,0.032l-0.627-1.802c-0.258-0.747-0.524-1.519-0.835-2.277
		c-0.089-0.218-0.222-0.6-0.377-1.043c-0.535-1.525-0.864-2.398-1.154-2.921c0.063-0.347,0.054-0.678-0.184-0.985l-0.311-0.394
		h-0.491c-0.756,0-0.997,0.542-1.686,2.146c-0.549,0.971-1.1,1.934-1.656,2.899c-0.441,0.752-0.903,1.488-1.37,2.23l-1.106,1.761
		l1.695,0.093C456.966,317.226,459.145,317.31,461.287,317.358z"/>
	<path style="fill:#FFFFFF;" d="M458.63,303.152l0.895,1.58l0.857-1.601c0.957-1.788,1.539-3.532,1.779-5.33l0.177-1.323
		l-1.319,0.203c-1.507,0.231-3.014,0.462-4.511,0.724l-1.615,0.282l0.99,1.307C456.927,300.371,457.825,301.731,458.63,303.152z"/>
	<path style="fill:#FFFFFF;" d="M451.126,315.456c-1.924-5.656-3.016-6.792-4.153-6.792l-0.146,0.005l-0.081,0.014
		c-0.715,0.119-0.844,0.285-3.03,5.712l-0.633,1.569l1.27,0.175c1.726,0.237,3.548,0.44,5.737,0.635l1.53,0.137L451.126,315.456z"/>
	<path style="fill:#FFFFFF;" d="M426.625,286.425c0.956,0,1.942-0.126,2.932-0.376c3.295-0.84,5.063-2.784,6.708-5.45l1.093-1.768
		l-1.472-0.248c-0.901-0.151-1.843-0.357-2.754-0.556l-1.002-0.217c-0.348-0.071-0.684-0.125-1.022-0.178l-1.581-0.257l0.116,1.285
		c0.082,0.903,0.175,1.927,0.109,2.848c-0.035,0.439-0.305,0.48-0.433,0.496c-0.202,0-0.396-0.149-0.403-0.195
		c-0.169-1.033-0.186-2.146-0.202-3.223l-0.021-1.301l-0.947-0.035c-0.255-0.009-0.508-0.014-0.758-0.014
		c-3.395,0-6.399,0.878-9.184,2.685l-0.855,0.555l0.571,0.844C419.746,284.611,422.979,286.425,426.625,286.425z"/>
</g>
<path style="fill:#56C474;" d="M362.646,299.223c0.437,0.049,0.877,0.075,1.31,0.075h0.001c5.377-0.001,9.403-3.722,13.296-7.321
	c1.968-1.819,3.826-3.537,5.785-4.712c0.098-0.059,0.187-0.089,0.266-0.089c0.199,0,0.337,0.194,0.374,0.253
	c0.048,0.077,0.194,0.35,0.051,0.648c-2.992,6.227-11.007,12.948-18.737,12.948c-1.022,0-2.022-0.12-2.979-0.357
	c-1.233-0.295-2.504-0.729-3.886-1.326l-0.409-0.177l-0.404,0.186c-3.878,1.78-7.459,3.774-10.947,6.096l-1.604,1.067l1.795,0.698
	c4.623,1.797,9.639,3.146,15.328,4.123c0.533,0.094,0.861,0.414,0.975,0.949c0.157,0.741-0.168,1.622-0.74,2.007
	c-2.965,2.002-6.152,3.655-9.475,4.914l-3.166,1.199l3.31,0.713c5.044,1.087,10.27,1.631,15.974,1.662
	c0.408,0.002,0.67,0.294,0.779,0.565c0.063,0.156,0.173,0.554-0.161,0.88c-3.146,3.08-6.113,5.577-9.071,7.633l0.789,1.797
	c6.474-1.452,12.559-5.121,17.449-8.07c0.239-0.145,0.474-0.218,0.697-0.218c0.447,0,0.766,0.292,0.916,0.466
	c0.347,0.402,0.508,0.955,0.43,1.479l-2.028,13.611l2.128-2.089c3.047-2.99,5.858-5.126,8.851-6.721
	c0.216-0.115,0.442-0.173,0.675-0.173c0.439,0,0.863,0.209,1.136,0.559c0.181,0.232,0.367,0.623,0.229,1.166l-0.513,2.023
	c-1.139,4.487-2.279,8.98-3.426,13.465l-0.765,2.988l2.372-1.972c4.354-3.618,8.857-6.7,13.768-9.425
	c0.163-0.091,0.34-0.137,0.526-0.137c0.378,0,0.77,0.197,0.997,0.501c0.195,0.262,0.246,0.558,0.151,0.877
	c-1.097,3.698-2.608,7.065-4.62,10.296l-1.515,2.433l2.699-0.962c6.556-2.337,12.087-6.542,15.994-12.16
	c0.129-0.186,0.426-0.31,0.739-0.31c0.246,0,0.425,0.078,0.493,0.156c0.047,0.054,0.063,0.15,0.045,0.284
	c-0.654,5.085-1.989,9.387-4.081,13.152l-1.178,2.12l2.329-0.673c5.985-1.729,10.754-5.722,15.459-12.944
	c3.077-4.713,6.608-6.965,13.029-8.309c7.776-1.641,15.911-2.011,22.927-2.229c0.781-0.025,1.589-0.034,2.419-0.034
	c1.056,0,2.145,0.014,3.256,0.029c1.165,0.016,2.353,0.031,3.55,0.031c6.273,0,12.751-0.427,17.632-3.523
	c0.058-0.037,5.705-3.92,4.962-6.813c-0.337-1.36-2.082-1.36-2.655-1.36s-1.182,0.051-1.719,0.097
	c-0.385,0.032-0.732,0.064-0.982,0.064c-2.931-0.013-5.92-0.119-8.812-0.22c-1.537-0.054-3.072-0.108-4.605-0.15
	c-2.274-0.062-4.552-0.102-6.832-0.142c-6.099-0.107-12.404-0.219-18.547-0.765c-7.102-0.633-14.043-2.133-21.846-4.724
	l-1.705-0.567c-5.821-1.942-11.841-3.95-17.995-3.95c-2.59,0-4.988,0.347-7.335,1.06c-0.085,0.026-0.167,0.04-0.244,0.04
	c-0.403,0-0.683-0.379-0.772-0.731c-0.058-0.229-0.09-0.648,0.345-0.883c4.517-2.448,9.403-3.25,14.577-4.1
	c3.226-0.53,6.563-1.078,9.78-2.063c3.796-1.167,7.388-2.786,10.861-4.353c4.48-2.02,9.112-4.109,14.101-5.155
	c2.667-0.56,5.449-0.967,8.139-1.36c5.087-0.743,10.346-1.511,15.291-3.368c0.15-0.059,0.298-0.124,0.445-0.188
	c0.127-0.056,0.254-0.111,0.384-0.162l0.254-0.1l0.168-0.215c0.094-0.119,0.239-0.187,0.412-0.187l0.252,0.005l0.224-0.115
	c3.929-2.01,6.743-4.947,9.465-7.788c2.179-2.274,4.237-4.421,6.846-6.171c1.152-0.771,2.543-1.288,4.015-1.835
	c2.464-0.917,5.011-1.864,6.626-4.127c3.426-4.824,1.377-11.775,0.669-13.789c-1.992-5.705-6.117-8.598-12.259-8.598
	c-5.511,0-11.551,2.265-16.405,4.085l-0.281,0.105c-14.243,5.324-27.578,8.024-39.633,8.024c-2.233,0-4.462-0.092-6.623-0.273
	l-0.108-0.009l-0.108,0.014c-0.902,0.121-1.833,0.182-2.766,0.182c-8.509,0-18.305-5.164-26.203-13.815l-1.891-2.071l0.154,2.8
	c0.057,1.034,0.214,2.12,0.366,3.169c0.25,1.728,0.509,3.514,0.261,4.813c-0.127,0.648-0.877,1.035-1.53,1.035
	c-0.228,0-0.653-0.05-0.935-0.38c-2.868-3.377-5.897-6.192-9.255-8.602c-0.068-0.049-8.041-4.941-8.778-4.941h-0.659l-0.26,0.606
	c-0.574,1.34,0.922,2.4,3.188,4.003c2.654,1.879,6.29,4.453,5.444,6.732c-0.576,1.553-2.198,2.308-4.959,2.308
	c-1.234,0-2.456-0.159-3.265-0.279c-2.475-0.371-4.919-1.113-7.266-2.207l-2.635-1.229l1.321,2.589
	c1.299,2.546,2.709,4.999,4.186,7.282c0.201,0.317,0.204,0.826,0.006,1.267c-0.077,0.172-0.303,0.581-0.725,0.65
	c-0.916,0.151-1.833,0.227-2.726,0.227c-2.466,0-4.8-0.57-6.936-1.695l-2.591-1.364l1.215,2.664
	c0.581,1.272,1.227,2.544,1.853,3.773c0.517,1.017,1.04,2.046,1.545,3.11l0.208,0.438l0.472,0.108
	c6.103,1.399,12.503,2.137,19.564,2.255c0.095,0.001,0.202,0.004,0.204,0.205c0.002,0.238-0.15,0.244-0.229,0.246
	c-3.233,0.142-6.075,0.211-8.688,0.211c-4.974,0-9.521-0.253-13.898-0.774c-2.174-0.263-3.951-0.385-5.595-0.385
	c-8.252,0-12.771,3.342-13.813,10.217c-0.494,3.249,0.503,6.609,2.883,9.718C352.636,295.562,357.926,298.687,362.646,299.223z
	 M491.703,268.144c-0.904,1.501-3.146,2.25-4.983,2.328c-0.116,0.007-0.233,0.011-0.35,0.011c-0.153,0-0.307-0.007-0.46-0.026
	l-0.185-0.018h-0.036l-0.113-0.021c-0.371-0.051-3.62-0.564-3.353-2.926c0.056-0.483,0.208-0.89,0.467-1.248l0.096-0.133
	l0.049-0.157c0.182-0.586,0.492-1.059,0.935-1.418c0.663-0.551,1.537-0.831,2.599-0.831c1.204,0,2.326,0.353,3.059,0.65
	c1.231,0.496,2.213,1.369,2.5,2.224C492.099,267.094,492.025,267.606,491.703,268.144z M475.092,263.734
	c3.074-2.507,9.566-6.038,14.376-6.038c2.631,0,4.354,1.038,5.268,3.174c-1.897-1.094-4.013-1.648-6.292-1.648
	c-5.047,0-9.862,2.677-13.054,4.944c-0.034,0-0.134-0.048-0.223-0.163C475.075,263.884,475.063,263.779,475.092,263.734z
	 M418.94,290.872c-0.879-0.936-1.592-2.21-2.058-3.586c1.239,2.259,3.352,3.906,5.487,5.357
	C421.109,292.549,419.957,291.955,418.94,290.872z M424.132,274.666c0.699-0.115,1.426-0.171,2.221-0.171
	c1.954,0,4.029,0.36,5.695,0.649c1.339,0.233,2.705,0.408,4.025,0.577c2.259,0.29,4.595,0.589,6.771,1.182
	c0.211,0.058,0.267,0.241,0.281,0.345c0.011,0.073,0.026,0.322-0.194,0.456c-0.673,0.408-1.417,0.703-2.276,0.9l-0.969,0.223
	l0.218,0.97c0.348,1.556-0.143,3.747-1.35,6.017c-1.345,2.562-3.297,4.401-5.4,5.177c2.205-2.011,4.669-4.289,5.917-7.039
	l-1.745-0.965c-0.125,0.178-0.249,0.355-0.385,0.527c-2.385,3.061-5.893,4.017-8.415,4.28c-0.477,0.049-0.964,0.075-1.449,0.075
	c-3.818,0-8.191-1.634-9.354-5.284l-1.397,0.22l0.133-2.093l-1.845,1.739c-0.587,0.553-1.143,1.116-1.622,1.67
	c-0.048-0.002-0.14-0.071-0.156-0.071h-0.001C415.831,279.517,418.42,275.602,424.132,274.666z M353.932,282.79
	c2.895-3.2,7.232-5.036,11.897-5.036c2.669,0,5.31,0.609,7.638,1.761c2.411,1.191,3.555,2.903,3.306,4.95
	c-0.37,3.05-3.689,6.198-7.47,7.021c-0.009-0.005-0.052-0.066-0.002-0.175c0.418-0.923,1.135-1.702,1.895-2.527
	c0.813-0.883,1.653-1.796,2.175-2.95c0.47-1.031,0.507-1.962,0.107-2.768c-0.778-1.573-2.984-2.075-4.6-2.443
	c-1.111-0.248-2.261-0.374-3.419-0.374c-3.554,0-7.234,1.149-10.942,3.418c-0.095,0.058-0.182,0.088-0.257,0.088
	c-0.151,0-0.319-0.139-0.408-0.337C353.792,283.284,353.723,283.023,353.932,282.79z"/>
<g>
	<path style="fill:#E1926C;" d="M423.082,459.671c0.263-0.183,0.528-0.369,0.774-0.565c9.442-7.382,3.416-16.127-1.426-23.154
		l-0.406-0.589c-4.282-6.228-9.7-13.05-17.424-16.43c-5.859-2.556-12.223-2.693-18.377-2.826c-2.96-0.064-6.021-0.13-8.936-0.471
		c-13.319-1.574-25.267-8.414-32.777-18.764l-0.496-0.684l-0.758,0.375c-6.851,3.395-14.457,6.669-23.251,10.011l-0.613,0.233
		l-0.03,0.655c-0.263,5.655-0.723,11.4-1.167,16.956l-0.347,4.369l0.661,0.281c1.369,0.583,2.735,1.274,4.057,1.943
		c2.041,1.032,4.152,2.1,6.416,2.855c4.536,1.522,9.344,2.293,14.289,2.293l0.39-0.001c2.233-0.023,4.482-0.169,6.658-0.31
		c2.312-0.149,4.702-0.305,7.016-0.305c4.831,0,8.494,0.68,11.876,2.206c5.457,2.456,9.913,6.708,12.546,11.975
		c0.939,1.88,1.408,3.831,1.905,5.897c0.311,1.295,0.633,2.635,1.081,3.964c2.328,6.936,8.277,7.78,12.552,7.811h0.228
		c1.795,0,3.691-0.117,5.637-0.347l0.924-0.109l-0.043-0.93c-0.418-9.111-5.705-14.784-12.451-20.249
		c9.209,4.726,14.246,11.317,14.986,19.623l0.101,1.128l1.107-0.24c3.52-0.763,6.876-1.909,9.974-3.407l0.527-0.255l0.035-0.585
		c0.518-8.632-2.182-14.892-8.021-18.603c-0.152-0.097-0.344-0.262-0.253-0.573c0.064-0.219,0.26-0.439,0.514-0.439
		c0.093,0,0.196,0.028,0.303,0.083c6.341,3.281,10.553,9.896,10.479,16.461l-0.021,1.95L423.082,459.671z"/>
	<path style="fill:#E1926C;" d="M38.957,482.314c3.107,0.291,6.274,0.427,9.338,0.559c1.634,0.07,3.268,0.141,4.897,0.234
		c3.27,0.189,6.541,0.403,9.813,0.617c5.995,0.393,12.195,0.799,18.297,1.033l1.165,0.045l-0.134-1.158
		c-0.591-5.146-5.054-9.026-10.381-9.026l-0.206-0.044c-0.05-0.093-0.037-0.201,0.011-0.231c1.073-0.25,2.099-0.375,3.049-0.375
		c2.181,0,4.063,0.644,5.76,1.97c2.392,1.864,3.916,4.672,4.291,7.907l0.109,0.943l0.947-0.06c2.741-0.174,5.016-0.688,6.761-1.527
		l0.619-0.298l-0.056-0.685c-0.195-2.357-1.074-4.617-2.544-6.537c-0.498-0.65-1.813-2.265-3.47-3.539
		c1.674,0.404,3.067,1.082,4.471,2.605c1.286,1.396,2.219,3.001,2.771,4.771l0.818,2.624l1.059-2.537
		c0.472-1.13,0.63-2.389,0.471-3.744c-0.688-5.759-7.127-8.29-12.406-9.4c-2.115-0.447-4.45-0.482-6.708-0.516
		c-4.154-0.063-8.45-0.127-11.438-2.765c-3.861-3.404-4.103-11.048-4.281-16.63c-0.02-0.615-0.038-1.201-0.061-1.753
		c-0.263-6.137,0.076-13.982,5.072-20.233c3.585-4.491,9.125-8.067,16.468-10.629c10.068-3.505,20.744-3.955,28.92-3.955
		c4.001,0,8.068,0.121,12.001,0.238c3.562,0.106,7.243,0.215,10.815,0.232l0.189,0.001c15.344-0.001,32.802-8.523,43.44-21.208
		c11.287-13.445,14.331-32.836,7.72-49.349c0.02-0.022,0.103-0.064,0.204-0.064c0.064,0,0.107,0.015,0.124,0.043
		c3.122,4.967,5.033,10.52,5.683,16.506l1.991-0.038l0.031-0.409c0.023-0.299,0.047-0.599,0.061-0.909
		c0.143-3.374-0.173-6.749-0.478-10.013c-0.217-2.314-0.438-4.689-0.491-7.049c3.817,10.394,4.772,24.452-1.901,32.795l-0.141,0.176
		l-0.052,0.219c-1.52,6.435-4.449,12.64-8.473,17.946c-9.794,12.907-25.963,21.15-45.526,23.21l-1.169,0.11l-3.436,0.352
		l3.092,1.538c0.924,0.459,1.845,0.923,2.767,1.386c4.974,2.501,10.117,5.088,15.577,7.002c9.046,3.184,18.668,5.368,28.6,6.49
		c4.368,0.494,8.861,0.733,13.737,0.733c8.984,0,17.805-0.852,24.485-1.593c1.824-0.203,3.653-0.391,5.485-0.581
		c10.196-1.053,20.739-2.141,30.604-5.712c0.767-0.275,1.63-0.636,2.174-1.423c0.581-0.843,0.567-1.818,0.557-2.614l-0.479-18.421
		c-0.08-2.951-0.162-6.003-0.623-9c-0.289-1.83-0.722-3.644-1.14-5.398c-0.472-1.978-0.96-4.023-1.227-6.045
		c-1.079-8.252,1.464-16.79,3.706-24.318c0.063-0.21,0.171-0.417,0.295-0.604c-2.038,7.342-2.757,14.914-2.139,22.534l1.995-0.02
		c0.251-4.063,1.206-8.076,2.799-11.828c-2.105,22.646-0.676,44.571,0.83,67.686l0.385,5.934c0.055,0.844,0.102,1.685,0.148,2.523
		c0.471,8.394,0.916,16.321,7.724,22.57c4.707,4.314,10.563,7.619,16.225,10.816c1.844,1.041,3.586,2.024,5.299,3.045
		c0.583,0.348,1.166,0.705,1.753,1.063c2.859,1.745,5.815,3.55,9.053,4.638c3.741,1.247,7.705,1.435,11.538,1.617
		c0.617,0.029,1.232,0.059,1.844,0.092c2.41,0.131,4.925,0.541,7.588,0.974c3.343,0.544,6.799,1.106,10.167,1.106
		c2.584,0,4.83-0.331,6.867-1.01c4.296-1.436,6.295-3.215,6.11-5.44c-0.467-5.609-16.934-10.281-20.262-10.806
		c-0.505-0.079-0.544-0.551-0.522-0.825c0.029-0.377,0.261-0.938,0.817-0.938h0.001c7.234,0.343,15.36,1.177,20.235,6.749
		c2.284,2.612,3.279,6.141,2.535,8.989l-0.426,1.63l1.635-0.407c3.002-0.747,5.46-2.899,6.743-5.907
		c1.435-3.36,1.174-7.316-0.696-10.58c-4.186-7.316-12.263-9.609-20.174-11.331c-11.244-2.461-21.91-6.265-23.809-17.332
		c-0.794-4.648-0.219-9.673,0.337-14.532c0.178-1.552,0.361-3.156,0.493-4.705c0.473-5.608,0.798-10.274,1.023-14.683l0.003-0.063
		l-0.005-0.062c-0.015-0.208-0.006-0.402,0.027-0.592l0.012-0.063l0.003-0.063c0.126-2.578,0.206-4.712,0.251-6.719
		c0.076-3.89-0.291-7.747-0.646-11.477c-0.457-4.799-0.889-9.332-0.468-13.971c0.977-10.616-0.724-19.117-5.198-25.988
		c-5.765-8.833-15.028-14.491-26.791-16.361c-3.208-0.508-6.669-0.652-10.015-0.792c-6.188-0.258-12.585-0.524-17.901-3.053
		c-3.83-1.829-6.874-4.582-10.098-7.497c-2.5-2.261-5.085-4.599-8.048-6.431c-5.424-3.353-12.447-5.522-19.776-6.106
		c-1.041-0.082-2.098-0.124-3.141-0.124c-9.654,0-19.214,3.494-27.646,10.105c-0.449,0.353-1.034,0.572-1.529,0.572
		c-0.408,0-0.725-0.14-0.968-0.431c-1.544-1.835-2.988-3.891-4.385-5.879c-3.978-5.663-8.091-11.52-15.327-13.732
		c-2.671-0.818-5.491-1.215-8.622-1.215c-6.52,0-12.958,1.726-19.184,3.394l-0.118,0.032c-0.131,0.035-0.262,0.053-0.392,0.053
		c-0.453,0-0.881-0.216-1.172-0.593c-0.17-0.22-0.43-0.681-0.268-1.304l0.055-0.209c0.99-3.825,2.113-8.161,2.465-12.45l0.115-1.415
		l-1.371,0.368c-5.397,1.447-11.121,2.212-16.554,2.212c-8.321,0-15.861-1.779-21.805-5.146l-2.526-1.431l2.572,6.21
		c1.209,2.909,2.419,5.819,3.591,8.74c0.135,0.339,0.105,0.645-0.091,0.934c-0.293,0.431-0.895,0.732-1.464,0.732
		c-0.233,0-0.442-0.05-0.618-0.147c-1.999-1.117-3.925-1.886-5.887-2.35l-2.935-0.694l8.959,10.691
		c0.602,0.715,0.529,1.583,0.284,2.109c-0.129,0.275-0.52,0.917-1.378,0.917c-0.169,0-0.348-0.025-0.534-0.075
		c-3.008-0.799-6.063-1.204-9.081-1.204c-2.9,0-5.8,0.374-8.619,1.113l-2.638,0.691l2.46,1.178
		c3.497,1.675,6.877,2.998,10.329,4.045c1.104,0.336,1.374,1.311,1.271,2.042c-0.106,0.741-0.619,1.538-1.74,1.551
		c-6.08,0.072-11.653,1.323-17.039,3.823l-2.181,1.012l4.615,1.707c2.273,0.842,4.544,1.683,6.828,2.509
		c0.906,0.326,1.292,1.205,1.266,1.884c-0.016,0.42-0.192,1.165-1.194,1.441c-6.414,1.775-12.338,4.281-18.108,7.661l-1.801,1.054
		l1.949,0.743c4.393,1.674,8.627,3.573,12.583,5.642c0.752,0.394,0.805,1.098,0.768,1.482c-0.059,0.643-0.469,1.397-1.246,1.635
		c-3.085,0.938-6.301,1.69-9.829,2.301l-2.035,0.352l1.539,1.378c2.06,1.845,3.751,3.939,5.171,6.406
		c0.269,0.465,0.262,1.217-0.016,1.787c-0.141,0.289-0.407,0.647-0.875,0.712c-6.099,0.843-12.218,1.409-18.189,1.682l0.009,1.997
		c0.887,0.148,4.322,3.132,6.375,4.915c1.897,1.646,3.534,3.069,4.44,3.578c4.615,2.607,8.181,3.77,11.562,3.769
		c4.798,0,8.971-2.419,14.746-5.768l1.495-0.865c7.009-4.047,12.84-9.519,17.332-16.262l0.367-0.462l-0.347-0.548
		c0.565-2.357,1.325-4.801,2.129-7.389c1.694-5.453,3.43-11.035,3.607-16.504c0.257,3.022-0.032,6.082-0.57,9.423
		c-0.023,0.174-0.054,0.349-0.086,0.528l-0.019,0.106l1.931,0.497c1.883-5.464,3.284-11.623,4.167-18.31
		c0.027-0.212,0.203-0.229,0.285-0.247c0,0,0.014,0.03,0.013,0.106c-0.253,17.791-6.1,33.39-16.463,43.923
		c-5.978,6.077-13.852,10.101-21.466,13.992l-9.281,4.765c-7.495,3.851-14.988,7.701-22.489,11.545
		c-1.297,0.669-2.619,1.316-3.944,1.965c-2.786,1.363-5.668,2.773-8.341,4.412c-5.443,3.353-6.271,8.424-6.355,13.404
		c-0.087,4.749,0.031,9.571,0.146,14.233c0.109,4.47,0.223,9.092,0.154,13.629c-0.139,9.001-0.69,18.135-1.223,26.967l-0.161,2.632
		c-0.154,2.352-0.329,5.018,0.993,7.357C33.084,481.528,35.937,482.033,38.957,482.314z"/>
</g>
<path style="fill:#56C474;" d="M231.446,122.499l1.872,1.745c5.483,5.103,10.663,9.922,14.845,16.066
	c4.176,6.151,7.454,13.526,9.742,21.922c7.648,27.961,4.411,56.727,1.28,84.544c-1.067,9.486-2.171,19.294-2.834,28.953
	l-0.025,0.375l0.228,0.299c2.102,2.764,4.636,5.051,7.977,7.196c1.403,0.901,2.815,2.081,4.31,3.329
	c1.526,1.275,3.104,2.593,4.772,3.686c2.618,1.713,4.93,2.524,7.275,2.553l0.758,0.009l0.214-0.727
	c0.738-2.507,0.683-5.409,0.629-8.214c-0.023-1.165-0.043-2.266-0.009-3.314c0.032-0.953,0.081-1.914,0.131-2.879
	c0.245-4.819,0.499-9.802-1.286-14.48c-0.703-1.846-1.544-3.614-2.356-5.323c-1.282-2.696-2.493-5.242-3.23-8.101
	c-1.087-4.197-1.557-8.9-1.397-13.979c0.297-9.607,2.782-19.128,5.187-28.335l0.87-3.349c3.133-12.12,6.684-25.857,0.946-37.878
	c-7.065-14.811-19.526-26.577-31.578-37.956c-3.543-3.346-7.207-6.806-10.584-10.217c-11.051-11.157-21.24-24.278-32.067-41.293
	l-1.794,0.848c2.294,7.014,5.527,13.683,8.68,19.844C217.801,105.27,223.22,114.803,231.446,122.499z"/>
<path style="fill:#E1926C;" d="M121.233,472.933c-2.123,9.611,5.373,11.379,10.849,12.669c5.655,1.321,11.461,2.144,17.254,2.445
	c1.826,0.099,3.681,0.148,5.513,0.148c3.404,0,6.847-0.172,10.231-0.512l0.757-0.097l0.132-0.745
	c0.073-0.413,0.149-0.839,0.161-1.286c0.022-1.239-0.245-2.526-0.774-3.721c-1.212-2.755-3.439-4.126-5.593-5.452
	c-1.493-0.919-2.908-1.791-3.915-3.092c0.272-0.041,0.557-0.061,0.848-0.061c2.815,0,6.311,1.911,8.904,4.868
	c2.301,2.622,3.438,5.52,3.119,7.95l-0.17,1.289l1.29-0.168c2.684-0.349,6.58-1.046,9.396-3.07l0.627-0.451l-0.277-0.721
	c-0.26-0.675-0.46-1.44-0.621-2.055c-0.11-0.421-0.204-0.771-0.289-1.003c-1.681-4.395-6.396-7.457-10.186-9.916l-0.679-0.477
	c-0.004-0.035,0-0.069,0.008-0.099l0.233,0.085c3.936,1.431,7.334,2.667,10.082,5.837c0.775,0.898,1.934,2.542,2.648,4.218
	l1.043,2.45l0.827-2.531c1.608-4.919-0.969-9.972-4.237-12.798c-3.808-3.283-8.245-3.746-12.537-4.193
	c-1.188-0.124-2.417-0.252-3.624-0.438c-6.276-0.97-10.83-5.206-12.494-11.623c-1.982-7.63,1.199-15.438,4.665-22.79l0.188-0.176
	v-1.158l-0.677-0.231c-9.829-3.353-17.729-7.708-23.48-12.943l-0.301-0.274l-0.407,0.014c-3.465,0.123-7.063,0.146-10.543,0.167
	c-1.916,0.012-3.837,0.024-5.757,0.052l-2.337,0.034l1.639,1.667c9.126,9.283,12.665,24.523,12.923,34.756
	c0.162,6.025-1.24,11.203-2.725,16.684C122.358,468.357,121.751,470.599,121.233,472.933z"/>
<path style="fill:#56C474;" d="M156.619,143.691c3.684,1.757,7.44,3.883,11.167,6.317l0.026,0.017
	c10.048,6.577,19.17,14.904,27.993,22.956c2.482,2.267,4.962,4.53,7.46,6.754c5.719,5.078,11.58,10.741,14.894,19.169
	c3.389,8.597,4.084,18.13,4.311,25.475c0.074,2.363,0.102,4.782,0.128,7.121c0.093,8.23,0.188,16.74,2.283,24.925
	c2.05,8.029,6.267,15.178,10.344,22.091c0.56,0.948,1.118,1.895,1.671,2.845c3.969,6.816,7.958,14.137,9.319,22.097
	c0.258,1.493,0.245,3.223,0.232,5.055c-0.024,3.276-0.049,6.663,1.492,9.273c2.665,4.503,8.264,6.254,12.808,7.269
	c0.133,0.035,0.254,0.082,0.404,0.157l0.146,0.073l0.162,0.023c3.265,0.461,6.617,0.624,9.859,0.782
	c1.544,0.075,3.081,0.15,4.603,0.256c8.878,0.608,18.202,1.941,26.247,7.533c12.672,8.821,16.328,22.555,17.165,32.522l0.129,1.542
	l1.353-0.751c3.682-2.045,7.56-3.93,11.311-5.752c5.409-2.629,11.002-5.347,16.207-8.635c7.008-4.412,16.016-10.453,23.529-18.064
	l-1.139-1.607c-5.467,2.577-10.19,3.777-14.867,3.777c-1.578,0-3.173-0.143-4.74-0.426c-0.314-0.056-0.739-0.203-0.793-0.826
	c-0.052-0.605,0.32-1.408,0.958-1.639c5.813-2.104,9.993-4.442,13.55-7.581l2.015-1.777l-3.255,0.03
	c-6.344,0-12.926-1.085-19.565-3.225c-0.684-0.219-1.014-0.94-0.985-1.54c0.019-0.402,0.188-0.915,0.895-1.072
	c3.875-0.851,7.435-2.122,10.882-3.886l2.331-1.193l-2.533-0.664c-4.477-1.174-8.854-2.851-13.383-5.125
	c-0.38-0.192-0.588-0.5-0.618-0.917c-0.041-0.573,0.264-1.207,0.738-1.54c3.729-2.597,7.797-4.962,12.092-7.029l1.539-0.74
	l-1.399-0.98c-0.972-0.681-1.898-1.426-2.755-2.216l-0.529-0.489l-0.632,0.349c-4.832,2.665-10.561,4.331-16.101,5.94
	c-2.395,0.696-4.871,1.416-7.196,2.198c-2.007,0.678-4.064,1.43-6.054,2.157c-5.339,1.951-10.859,3.968-16.351,4.936
	c-1.362,0.241-2.69,0.362-3.947,0.362c-4.053,0-7.595-1.271-10.529-3.778c-1.388-1.185-2.631-2.347-3.834-3.471
	c-2.539-2.375-4.939-4.618-8.353-6.784l-0.663-0.419c-4.845-3.054-9.853-6.213-14.869-9.175c-2.968-1.765-5.5-4.023-7.742-6.906
	c-2.68-3.431-4.925-7.78-6.865-13.295c-3.831-10.921-4.898-22.521-5.931-33.74c-0.702-7.632-1.428-15.524-3.013-23.201
	c-2.329-11.262-5.984-20.15-11.176-27.172c-5.804-7.854-14.552-13.044-23.763-18.102c-4.103-2.255-8.341-4.406-12.438-6.486
	c-4.385-2.226-8.918-4.527-13.274-6.95c-2.188-1.226-4.303-2.494-6.287-3.769l-0.013-0.009c-6.193-3.963-12.11-8.463-17.832-12.815
	c-10.829-8.257-23.156-14.099-35.078-19.747c-2.5-1.185-5.002-2.37-7.492-3.578l-1.164,1.586
	C123.519,126.851,141.173,136.341,156.619,143.691z"/>
<path style="fill:#FFD390;" d="M319.675,401.296c0.027-0.099,0.174-0.385,0.525-0.52l0.718,1.867
	c4.316-1.659,8.652-3.452,12.888-5.33l0.503-0.223l0.002,0.007l1.072-0.487c4.979-2.26,9.499-4.512,13.818-6.884l0.841-0.462
	l-0.006-0.012l0.835-0.471c4.528-2.553,8.518-5.04,12.2-7.601l0.685-0.476l0.013,0.014l0.709-0.502l0.527-0.365
	c2.923-2.107,5.866-4.463,8.746-7l0.809-0.712l-0.017-0.016l0.509-0.461c2.388-2.165,4.448-4.153,6.299-6.077l0.587-0.61
	l0.008,0.007l0.673-0.715c0.128-0.136,0.259-0.27,0.389-0.403c0.188-0.192,0.376-0.385,0.56-0.585
	c1.721-1.871,3.41-3.946,5.477-6.73l-1.489-1.324l-0.307,0.289c-0.627,0.59-1.256,1.183-1.864,1.791
	c-0.255,0.255-0.549,0.384-0.874,0.384c-0.418,0-0.848-0.218-1.121-0.568c-0.181-0.23-0.368-0.615-0.238-1.134l5.015-19.961
	l-2.336,1.902c-3.195,2.603-6.002,5.731-8.38,8.457c-0.26,0.296-0.532,0.446-0.812,0.446c-0.325,0-0.692-0.201-0.982-0.537
	c-0.355-0.412-0.534-0.957-0.465-1.425l1.681-11.467l-2.266,2.699c-1.296,1.543-2.853,3.126-4.629,4.705l-0.396,0.353v0.002
	l-0.637,0.542c-1.691,1.438-3.594,2.897-5.818,4.464l-0.491,0.346l0.002,0.018l-0.872,0.6c-2.458,1.691-4.908,3.25-7.354,4.802
	v-0.003l-0.666,0.427l-0.214,0.136v0.002l-0.62,0.398c-0.559,0.358-1.125,0.717-1.671,1.06c-2.005,1.29-4.336,2.78-6.742,4.247
	l-1.473,0.888c-4.485,2.702-8.527,4.86-12.357,6.596l-0.564,0.256v0.013l-0.777,0.333c-3.246,1.393-6.202,2.427-9.036,3.161
	l-0.76,0.197l0.02,1.326c0.01,0.51,0.019,1.02,0.011,1.532c-0.02,1.541-0.101,3.117-0.179,4.646
	c-0.028,0.598,0.032,2.753,0.142,6.511C319.689,389.403,320,400.107,319.675,401.296z"/>
<g>
	<path style="fill:#97F2AD;" d="M215.826,128.747c6.734,6.15,13.219,13.116,19.272,20.706c5.677,7.113,10.801,14.536,15.23,22.064
		c0.512,0.868,1.048,1.761,1.597,2.676c2.031,3.383,4.132,6.882,5.861,10.525l1.898-0.523c-0.793-8.327-2.402-15.849-4.922-22.998
		c-3.324-9.421-7.955-17.887-13.393-24.483c-2.61-3.167-5.638-5.971-8.564-8.681c-3.215-2.977-6.539-6.055-9.244-9.572
		c-4.89-6.369-8.48-14.029-11.954-21.438c-0.609-1.302-1.217-2.596-1.824-3.87c-0.821-1.742-1.624-3.519-2.386-5.28l-1.918,0.38
		c-0.128,7.41-2.763,15.905-6.877,22.17c-0.224,0.341-0.444,0.672-0.659,0.994c-0.77,1.154-1.497,2.244-2.026,3.353l-0.494,1.036
		l1.094,0.348C204,118.53,210.477,123.853,215.826,128.747z"/>
	<path style="fill:#97F2AD;" d="M214.99,166.444c8.479,5.584,14.319,11.574,17.854,18.308c0.608,1.165,1.21,2.427,1.892,3.971
		l0.305,0.689l0.745-0.102c0.8-0.109,1.629-0.162,2.534-0.162c2.546,0,5.188,0.431,7.744,0.848c0.589,0.096,1.174,0.191,1.756,0.282
		l0.958,0.144c2.987,0.445,6.077,0.906,8.68,2.229l1.837,0.933l-2.457,0.026c-1.898,0-3.781-0.338-5.774-0.696
		c-0.698-0.125-1.399-0.251-2.106-0.363c-1.701-0.268-3.483-0.414-5.207-0.556c-2.113-0.173-4.298-0.352-6.334-0.757l-1.755-0.349
		l0.622,1.677c2.019,5.444,3.616,11.605,4.883,18.834c0.229,1.302,0.438,2.614,0.636,3.946l0.474,3.172l1.413-2.879
		c1.06-2.157,2.311-4.267,3.318-5.961c0.265-0.445,0.516-0.868,0.749-1.268c2.807-4.84,5.882-9.833,9.887-13.019l1.971-1.567
		l-1.252,2.018c-1.286,2.073-2.843,4.091-4.348,6.042c-1.777,2.304-3.615,4.687-5.08,7.237c-1.981,3.451-3.733,7.177-5.207,11.072
		c-0.152,0.399-0.286,0.776-0.414,1.135c-0.14,0.392-0.271,0.76-0.411,1.113l-0.095,0.239l0.032,0.255
		c0.233,1.855,0.458,3.722,0.684,5.593c1.605,13.341,3.267,27.135,8.417,39.428l1.921-0.348c0.406-10.643,1.775-21.594,3.1-32.185
		c1.604-12.832,3.263-26.101,3.251-39.054l-0.002-2.32l0.43,0.218l-0.43-0.695v-0.705l-0.218,0.351l-1.228-1.985
		c-1.865-3.014-3.461-6.398-5.005-9.671c-1.335-2.831-2.716-5.759-4.262-8.425c-4.613-7.915-9.765-15.468-15.311-22.449
		c-8.92-11.22-21.266-25.164-37.692-33.471l-1.393-0.705l-0.057,1.561c-0.048,1.311,0.244,2.662,0.894,4.13
		c1.136,2.569,1.72,5.586,1.785,9.225c0.104,5.512-0.868,11.307-1.809,16.911c-0.324,1.934-0.646,3.852-0.918,5.706l-0.264,0.894
		l0.73,0.378C201.472,158.44,208.436,162.133,214.99,166.444z"/>
	<path style="fill:#97F2AD;" d="M204.219,270.127c-6.929,0-14.319,1.192-22.592,3.643c-13.682,4.04-25.243,10.642-37.483,17.631
		l-3.348,1.908l0.721,1.844c6.033-1.406,10.619-2.033,14.869-2.033c3.43,0,6.489,0.421,9.357,1.287
		c7.592,2.281,11.939,7.866,16.542,13.78c1.064,1.367,2.164,2.78,3.308,4.153l0.592,0.71l0.755-0.534
		c7.886-5.582,17.459-8.657,26.958-8.657c1.327,0,2.667,0.06,3.985,0.177c9.528,0.843,18.412,4.272,23.763,9.171l2.112,1.934
		l-0.449-2.828c-0.228-1.434-0.375-2.914-0.519-4.344c-0.277-2.775-0.564-5.645-1.445-8.488c-1.65-5.286-4.281-10.123-6.834-14.624
		c-0.895-1.58-1.806-3.153-2.719-4.727c-0.619-1.068-1.238-2.136-1.854-3.208l-0.505-0.88l-0.872,0.517
		c-0.021,0.012-0.048,0.026-0.105,0.026c-0.026,0-0.06-0.003-0.102-0.01c-7.441-3.282-14.47-6.382-23.747-6.445L204.219,270.127z"/>
	<path style="fill:#97F2AD;" d="M137.069,269.475c3.58,5.351,4.39,12.066,2.626,21.775l-0.495,2.726l2.122-1.781
		c13.45-11.29,31.063-17.504,43.471-20.728c5.034-1.314,12.686-2.88,20.542-2.88c8.923,0,16.005,1.992,21.051,5.921l1.493-1.266
		c-2.307-4.253-3.936-7.804-5.127-11.178c-0.692-1.948-1.267-4.007-1.755-6.293l-0.044-0.206l-0.123-0.171
		c-0.178-0.246-0.368-0.476-0.559-0.705c-0.097-0.117-0.193-0.232-0.288-0.351l-0.142-0.19l-0.221-0.1
		c-0.619-0.682-1.181-1.415-1.601-1.977l-0.034-0.046l-0.039-0.042c-8.573-9.087-22.047-14.298-36.967-14.298
		c-1.006,0-2.021,0.025-3.021,0.076c-9.56,0.474-19.373,2.751-31.817,7.381l-0.174,0.064c-9.234,3.421-17.957,6.651-25.381,13.204
		l-1.509,1.332l1.974,0.398C128.639,261.668,133.878,264.722,137.069,269.475z"/>
	<path style="fill:#97F2AD;" d="M113.472,191.463l-0.71,1.644l1.773-0.258c2.741-0.4,5.705-0.603,8.81-0.603
		c6.903,0,14.566,0.961,23.427,2.939c11.39,2.549,22.171,6.846,32.045,12.772c9.081,5.437,17.385,12.308,24.681,20.42
		c5.363,5.965,11.344,12.929,14.424,20.097l1.914-0.491c-0.489-5.056-0.565-10.272-0.575-15.156l-0.001-2.305
		c0.003-9.438,0.006-19.196-3.163-28.329c-3.27-9.453-10.543-15.825-17.577-21.987c-0.927-0.811-1.854-1.623-2.773-2.443
		c-2.036-1.814-4.061-3.655-6.087-5.498c-6.02-5.474-12.243-11.133-18.836-16.104c-5.788-4.371-12.195-7.668-18.392-10.858
		c-2.813-1.448-5.724-2.946-8.541-4.527c-9.923-5.561-19.8-12.873-30.196-22.356l-1.57,1.182
		C123.104,141.806,123.595,167.998,113.472,191.463z"/>
	<path style="fill:#97F2AD;" d="M119.496,254.423l1.621,1.165c1.634-2.02,4.34-3.433,6.747-4.599
		c5.183-2.501,10.495-4.712,15.934-6.944c13.877-5.672,25.409-8.362,36.291-8.466l0.535-0.003c11.297,0,22.056,3.165,30.294,8.913
		l1.403-1.376l-0.363-0.555c-2.996-4.429-6.326-8.669-9.898-12.603c-6.912-7.589-14.851-14.156-23.597-19.52
		c-9.951-6.091-20.85-10.492-32.395-13.082c-9.23-2.071-17.943-2.143-27.17-2.218l-4.895-0.044l2.39,1.823
		c7.744,5.906,13.182,15.298,14.546,25.122c1.642,11.854-4.299,21.175-10.588,31.042L119.496,254.423z"/>
</g>
<path style="fill:#FFD390;" d="M7.362,293.898l0.048-0.127c0.802,3.381,1.692,6.506,2.725,9.514
	c0.809,2.336,1.739,4.731,2.767,7.119l1.309,3.038l0.016-0.089l0.019,0.041c1.776,3.778,3.848,7.555,6.158,11.227l1.408,2.237
	l0.009-0.055c3.719,5.603,8.044,10.997,12.878,16.038l2.398,2.501l-0.024-0.116l0.026,0.025c1.86,1.832,3.824,3.647,6.003,5.551
	l1.648,1.44v-0.037l0.175,0.148c2.046,1.73,4.014,3.303,6.031,4.818l0.434,0.436l0.529-0.108c3.318-0.678,7.959-1.189,10.794-1.189
	c1.488,0,1.849,0.144,1.863,0.15c-0.001,0-0.087-0.038-0.182-0.145l0.763-0.663l0.752-0.643l-0.006-0.007
	c-1.977-2.288-4.396-4.095-7.394-5.526c-0.633-0.302-0.895-0.78-0.779-1.42c0.141-0.774,0.871-1.661,1.806-1.742
	c2.972-0.258,5.882-0.689,8.898-1.317l3.057-0.637l-2.858-1.258c-3.471-1.527-6.954-2.862-10.356-3.967
	c-0.677-0.217-1.121-0.717-1.218-1.369c-0.104-0.693,0.216-1.389,0.828-1.815c5.013-3.448,10.447-6.312,16.152-8.511l2.523-0.973
	l-4.394-1.556c-1.92-0.679-3.835-1.357-5.756-2.047c-0.738-0.261-1.249-0.876-1.334-1.605c-0.082-0.697,0.236-1.332,0.876-1.743
	c4.051-2.631,8.488-4.586,13.187-5.811l2.695-0.702l-2.526-1.173c-2.18-1.011-4.352-2.147-6.455-3.376
	c-0.561-0.329-0.925-1.085-0.885-1.839c0.019-0.348,0.146-0.975,0.793-1.268c5.241-2.386,10.642-3.595,16.054-3.595
	c0.96,0,1.938,0.038,2.905,0.112l2.377,0.183l-1.779-2.115c-2.038-2.422-4.084-4.854-6.109-7.293
	c-0.495-0.598-0.632-1.33-0.367-1.958c0.26-0.616,0.846-1.005,1.604-1.066c0.632-0.049,1.263-0.074,1.874-0.074
	c2.306,0,4.508,0.354,6.545,1.052l1.949,0.668l-0.682-1.945c-0.345-0.984-0.803-2.016-1.247-3.013
	c-0.817-1.839-1.663-3.74-1.871-5.444l-0.019-0.333l-0.041-0.502l-0.428-0.266c-0.438-0.272-0.877-0.565-1.305-0.857l-0.497-0.339
	l-0.014,0.007l-0.767-0.526c-2.013-1.38-4.006-2.893-5.925-4.493l-0.415-0.347l-0.008,0.003l-1.211-1.083
	c-1.613-1.443-3.143-2.921-4.553-4.394l-1.186-1.296c-1.238-1.353-2.214-2.479-3.069-3.542l-0.261-0.324l-0.022-0.002l-1.09-1.433
	c-2.328-3.057-4.441-6.369-6.282-9.843l-0.251-0.474l-0.022-0.002l-0.636-1.273c-0.881-1.761-1.715-3.667-2.552-5.824l-0.169-0.436
	l-0.531-1.497c-0.715-2.018-1.282-3.876-1.737-5.696c-0.069-0.259-0.124-0.518-0.178-0.776l-0.163-0.758l-0.032-0.016l-0.324-1.555
	c-0.55-2.638-0.956-5.364-1.243-8.332l-0.052-0.537l-0.025-0.013l-0.11-1.602c-0.18-2.613-0.24-5.368-0.179-8.19l0.006-0.294
	l-0.045-0.074l0.119-2.364c0.139-2.782,0.379-5.595,0.714-8.359l0.056-0.465l-0.003-0.004l0.247-1.871
	c0.277-2.103,0.63-4.328,1.143-7.216l0.077-0.432l-0.001-0.002l0.353-1.854c0.45-2.367,0.972-4.879,1.594-7.68l0.096-0.432
	l-0.008-0.012l0.451-1.981c0.869-3.816,1.776-7.632,2.684-11.449l0.146-0.611l-0.005-0.011l0.414-1.749
	c0.632-2.667,1.185-5.087,1.688-7.397l0.01,0.01l0.366-1.703c0.901-4.189,1.627-8,2.22-11.65l0.032-0.197l0.008,0.008l0.292-1.954
	c0.538-3.601,0.931-7.218,1.169-10.751l0.002-0.034l0.011,0.007l0.087-1.72c0.15-3.007,0.167-6.036,0.053-9.005l0.021,0.01
	l-0.104-1.685c-0.163-2.666-0.415-5.118-0.77-7.497c-0.081-0.545-0.181-1.084-0.281-1.626l-0.192-1.069l0.022,0.009l-0.4-1.875
	c-0.481-2.258-1.108-4.562-1.856-6.854l0.088,0.041l-0.831-2.263c-1.426-3.889-3.24-7.564-5.387-10.929l0.093,0.008l-1.263-1.758
	c-0.082-0.113-0.158-0.231-0.235-0.349c-0.093-0.143-0.187-0.285-0.288-0.426c-1.524-2.094-3.334-4.218-5.513-6.478l0.048-0.007
	l-1.43-1.418c-2.437-2.415-4.943-4.613-7.079-6.448l0.009-0.002l-2.917-2.457c-1.306-1.097-2.608-2.192-3.903-3.297
	c-0.804-0.675-1.598-1.369-2.37-2.053l-0.5-0.443l-0.005,0.003l-0.733-0.67c-2.032-1.857-3.774-3.54-5.326-5.146l-0.277-0.288
	l-0.814-0.863c-1.549-1.644-3.074-3.399-4.538-5.216l0.004-0.001l-0.876-1.122c-1.366-1.752-2.644-3.564-3.905-5.542l-0.526-0.826
	l-0.004,0.003l-0.179-0.292c-2.406-3.919-4.29-7.86-5.76-12.048l-1.943,0.356c0.132,5.143,0.891,10.326,2.255,15.404l0.477,1.772
	l0.034-0.038c0.708,2.38,1.502,4.648,2.371,6.74l0.251,0.603l-0.006,0.007l0.195,0.448l0.256,0.617l0.017-0.024
	c0.965,2.175,2.03,4.306,3.193,6.334l0.867,1.513l0.022-0.039c1.337,2.181,2.846,4.367,4.615,6.668l0.314,0.408l0,0l0.013,0.016
	l0.636,0.826l0.007-0.013c1.849,2.343,3.782,4.645,5.46,6.629l0.667,0.788l-0.002,0.004l0.475,0.565
	c2.015,2.396,3.974,4.752,5.803,7.213l0.403,0.542v0.001l0.397,0.554c1.887,2.625,3.394,5.03,4.607,7.35l0.384,0.735l-0.004,0.006
	l0.258,0.525c0.962,1.963,1.829,3.996,2.578,6.044l0.423,1.156l-0.017,0.018l0.182,0.56c0.747,2.303,1.347,4.607,1.78,6.851
	l0.208,1.082l-0.005,0.005l0.091,0.555c0.405,2.479,0.664,4.922,0.769,7.263l0.102,2.277l0.263-0.265
	c-0.033,0.044-0.071,0.087-0.104,0.131l-0.202,0.268v0.335c0,2.407-0.129,4.851-0.384,7.265l-0.104,0.98l-0.009,0.005l-0.065,0.515
	c-0.31,2.445-0.732,4.878-1.255,7.229l-0.271,1.219l-0.014,0.005l-0.13,0.538c-0.626,2.592-1.383,5.233-2.248,7.851l-0.57,1.725
	l1.626-0.406c-0.484,0.163-0.964,0.353-1.438,0.599l-0.346,0.18l-0.133,0.368c-0.888,2.46-1.868,4.92-2.997,7.521l-0.663,1.526
	l-0.024,0.01l-0.167,0.371c-1.206,2.671-2.555,5.502-4.375,9.178l-1.029,2.08l1.849-0.567c-0.537,0.176-1.07,0.373-1.6,0.602
	l-0.334,0.145l-0.163,0.325c-2.037,4.054-4.102,8.016-6.042,11.726l-1.178,2.25l0.005-0.002c-1.02,1.955-2.039,3.911-3.05,5.866
	l-1.226,2.372l0.823-0.326c-0.242,0.14-0.485,0.281-0.732,0.436l-0.233,0.146l-0.125,0.245c-1.74,3.407-4.014,7.906-6.175,12.499
	l0.987,0.814c-0.668,0.477-1.325,0.973-1.962,1.504l-0.175,0.145l-0.094,0.206c-1.959,4.289-3.615,8.211-5.065,11.987l-1.305,3.402
	l0.073-0.058c-0.564,1.568-1.242,3.493-1.888,5.511c-1.354,4.264-2.507,8.644-3.425,13.017l0.771,0.355
	c-0.328,0.401-0.654,0.805-0.974,1.219l-0.147,0.189l-0.045,0.234c-1.199,6.256-1.901,12.439-2.086,18.378l-0.119,3.797l0.704-1.159
	c-0.186,0.38-0.372,0.76-0.55,1.134l-0.099,0.207l0.002,0.23c0.052,6.821,0.738,13.527,2.041,19.932L7.362,293.898z M56.041,199.519
	c0.207,0.163,0.41,0.327,0.606,0.497C56.446,199.85,56.248,199.679,56.041,199.519z M54.545,198.447
	c0.341,0.219,0.673,0.447,0.996,0.682C55.217,198.89,54.879,198.672,54.545,198.447z M40.423,173.055
	c0.281-0.086,0.569-0.158,0.86-0.226c-0.315,0.079-0.63,0.155-0.943,0.252L40.423,173.055z"/>
<g>
	<path style="fill:#231F20;" d="M373.908,278.618c-6.792-3.361-15.584-2.17-20.716,3.504c-1.125,1.244,0.314,3.342,1.851,2.399
		c4.068-2.495,8.829-3.989,13.613-2.919c2.245,0.503,5.002,1.19,3.808,3.817c-0.926,2.039-3.118,3.364-4.071,5.477
		c-0.381,0.844,0.244,1.774,1.202,1.563C376.379,290.961,381.776,282.512,373.908,278.618z"/>
	<path style="fill:#231F20;" d="M443.108,275.942c-3.529-0.968-7.269-1.155-10.884-1.781c-2.711-0.47-5.51-0.934-8.256-0.484
		c-6.035,0.989-8.804,5.043-11.965,9.82c-0.673,1.016,0.868,2.21,1.692,1.306c0.535-0.587,1.072-1.122,1.61-1.627
		c-0.313,4.894,3.163,11.664,8.884,10.309c0.369-0.087,0.386-0.576,0.1-0.764c-3.688-2.429-7.497-4.947-7.517-9.832
		c1.43,4.488,6.957,6.416,11.859,5.901c3.547-0.373,6.875-1.815,9.101-4.661c0.147-0.188,0.288-0.387,0.424-0.592
		c-1.405,3.117-4.649,5.719-6.971,7.902c-0.324,0.305-0.093,0.978,0.386,0.931c3.52-0.342,6.285-3.078,7.871-6.086
		c1.005-1.907,1.925-4.51,1.442-6.704c0.87-0.197,1.727-0.511,2.565-1.02C444.494,277.925,444.311,276.272,443.108,275.942z
		 M435.411,280.075c-1.535,2.482-3.077,4.234-6.098,5c-4.593,1.165-8.505-0.676-10.964-4.318c2.822-1.825,5.837-2.633,9.36-2.503
		c0.022,1.24,0.022,2.498,0.225,3.714c0.116,0.693,0.934,1.122,1.572,1.026c0.735-0.111,1.188-0.677,1.242-1.407
		c0.074-0.99-0.019-2.014-0.104-3.023c0.426,0.071,0.847,0.134,1.288,0.228c1.267,0.269,2.534,0.567,3.791,0.777
		C435.622,279.733,435.522,279.895,435.411,280.075z"/>
	<path style="fill:#231F20;" d="M489.803,263.429c-2.075-0.836-4.826-1.198-6.678,0.338c-0.621,0.516-1.021,1.178-1.249,1.891
		c-0.332,0.468-0.567,1.028-0.644,1.717c-0.278,2.472,2.085,3.743,4.204,4.037c0.055,0.01,0.109,0.014,0.163,0.022
		c0.023,0.003,0.047,0.007,0.069,0.009c0.039,0.004,0.082,0.002,0.122,0.005c0.328,0.036,0.657,0.043,0.988,0.018
		c2.158-0.087,4.689-1.001,5.779-2.812C493.97,266.309,491.856,264.257,489.803,263.429z"/>
	<path style="fill:#231F20;" d="M474.464,262.961c-1.11,0.905,0.364,2.839,1.542,1.999c5.154-3.673,12.275-6.656,18.238-3.222
		c0.688,0.396,1.813-0.282,1.469-1.129C492.309,252.233,478.853,259.379,474.464,262.961z"/>
	<path style="fill:#231F20;" d="M511.767,259.352c-1.803-13.611-13.126-19.473-25.815-15.78c-9.362,2.725-18.201,6.635-27.749,8.88
		c-8.994,2.115-18.064,2.955-27.242,3.068c-4.738-1.066-9.348-1.697-13.888-3.996c-5.576-2.823-10.289-6.929-13.81-12.09
		c-0.765-1.122-2.576-1.663-3.597-0.464c-2.469,2.902-1.989,5.581-1.568,8.52c-6.807-5.562-18.663-13.446-20.994-6.146
		c-0.188,0.586,0.005,1.367,0.47,1.779c1.925,1.706,3.734,3.501,5.496,5.374c1.429,1.52,3.01,1.885,0.268,2.139
		c-4.904,0.453-10.528-3.159-13.863-6.237c-1.716-1.584-5.07-0.057-4.188,2.438c1.534,4.339,3.532,8.399,5.979,12.239
		c-3.463-0.444-6.58-2.481-7.907-6c-0.909-2.411-5.054-2.33-4.848,0.656c0.308,4.462,1.481,9.59,4.06,13.568
		c-3.056-0.494-6.131-0.599-9.222,0.224c-8.188,2.181-12.248,10.548-9.482,18.46c0.663,1.895,1.624,3.682,2.796,5.339
		c-6.526,1.343-12.96,4.266-19.205,6.338c-7.543,2.503-15.145,5.601-22.891,7.402c-9.789,2.277-13.476-3.507-19.354-9.496
		c1.202-7.556,1.751-15.322,1.859-22.943c0.121-8.475-3.928-14.081-6.489-21.827c-6.095-18.434,2.453-37.42,6.263-55.356
		c1.657-7.804,2.846-16.065,1.081-23.952c-1.752-7.83-6.598-14.597-11.457-20.813c-10.337-13.224-23.179-24.117-35.002-35.943
		c-14.641-14.646-26.944-31.317-38.069-48.74c-1.176-1.842-3.733-0.605-3.387,1.428c0.38,2.229,0.866,4.421,1.436,6.585
		c-0.127,0.148-0.207,0.345-0.202,0.586c0.15,7.391,1.356,14.098-0.547,21.446c-0.919,3.546-2.288,6.98-4.109,10.163
		c-1.751,3.061-4.809,5.567-6.09,8.835c-0.69,1.76-0.489,3.189,0.211,4.832c1.735,4.073,3.615,6.802,3.592,11.535
		c-0.033,7.043-2.923,13.82-2.62,20.831c-9.903-5.119-19.779-10.274-28.734-17.103c-9.201-7.017-18.2-13.471-28.662-18.543
		c-10.777-5.224-21.631-10.492-32.717-15.025c-2.394-0.979-3.966,2.487-2.392,4.108c2.307,2.375,4.645,4.725,7.016,7.04
		c12.948,24.945,14.058,55.588,1.414,80.865c-0.846,1.692-0.077,3.347,1.63,4.006c11.268,4.35,18.606,15.523,18.289,27.669
		c-0.35,13.41-10.675,22.777-16.162,34.209c-0.84,1.749,0.146,4.061,2.304,4.016c7.896-0.165,17.019,1.634,21.108,9.235
		c1.326,2.465,1.936,5.133,2.098,7.877c0.032,0.541-24.157-0.074-26.581-0.446c-23.022-3.529-40.234-24.393-45.407-46.268
		c-5.256-22.224,1.035-45.101,5.93-66.785c3.9-17.273,7.142-35.072,5.092-52.828C73.9,96.837,65.789,83.04,52.664,71.608
		c-7.427-6.469-15.622-12.076-22.521-19.141c-8.65-8.857-13.935-19.603-15.674-31.847c-0.249-1.758-3.176-1.693-3.487,0
		c-2.11,11.517-1.875,23.219,1.744,34.417c3.78,11.697,11.139,20.752,18.95,29.993c9.211,10.897,16.016,22.863,17.3,37.335
		c1.271,14.31-2.658,27.572-8.841,40.348c-11.675,24.123-26.731,46.249-34.66,72.114c-6.833,22.288-7.629,45.681-0.345,67.956
		c5.462,16.702,15.326,31.536,26.706,44.779c5.817,6.769,12.056,13.164,18.466,19.37c3.362,3.254,13.201,14.715,18.836,11.987
		c-11.377,5.506-22.863,10.831-33.631,17.347c-6.168,3.732-8.189,9.587-8.254,16.561c-0.097,10.311,0.54,20.614,0.319,30.939
		c-0.219,10.199-1.989,20.75-1.499,30.909c0.314,6.493,3.819,10.647,10.259,11.699c9.872,1.612,20.343,1.369,30.326,1.952
		c8.507,0.497,19.202,2.875,27.271-0.785c5.548-2.516,9.373-8.531,7.07-14.589c-2.584-6.797-10.59-10.027-17.219-11.083
		c-3.63-0.578-7.216-0.098-10.838-0.466c-7.397-0.751-7.213-9.793-7.579-15.578c-0.702-11.108,3.518-20.205,13.589-25.385
		c9.185-4.725,19.469-5.928,29.909-6.275c3.652,5.321,7.436,10.268,9.734,16.567c2.579,7.069,3.668,14.674,3.186,22.181
		c-0.507,7.898-4.335,14.758-5.212,22.46c-0.649,5.697,2.014,10.042,7.267,12.216c14.694,6.082,33.855,6.116,49.229,3.2
		c5.626-1.067,10.961-3.448,13.207-9.072c2.063-5.167,0.886-11.307-2.593-15.568c-4.814-5.896-11.767-7.062-18.88-7.808
		c-16.366-1.717-11.324-18.669-6.961-28.857c0.16-0.375,0.224-0.744,0.218-1.096c7.758,2.284,15.666,3.749,22.747,4.666
		c13.151,1.703,26.488,1.69,39.672,0.375c12.806-1.277,26.38-6.787,38.894-7.089c0.749,4.669,0.66,9.602,0.942,14.342
		c0.462,7.747,0.459,15.816,5.506,22.191c4.277,5.403,10.733,8.878,16.534,12.361c7.044,4.229,14.236,9.898,22.174,12.305
		c7.655,2.321,16.344,1.822,24.257,2.236c5.849,0.306,14.707,2.326,20.186-1.123c8.969,2.648,17.189-8.349,15.203-17.088
		c-3.725-16.386-22.108-15.966-34.537-21.038c-4.603-1.878-9.023-4.799-10.537-9.832c-0.813-2.702-0.753-5.601-0.539-8.455
		c4.784,4.128,11.949,6.408,17.705,7.408c9.621,1.672,19.959-1.867,29.291,1.3c4.501,1.528,8.317,4.552,11.079,8.385
		c3.131,4.343,3.221,9.202,5.236,13.951c2.774,6.539,9.686,8.371,16.235,8.311c11.876-0.108,35.727-6.028,35.484-21.66
		c-0.115-7.413-6.652-15.247-10.833-20.91c-4.358-5.902-9.551-11.339-16.374-14.324c-10.232-4.476-21.402-1.907-32.066-3.985
		c-10.442-2.035-19.066-7.795-25.969-15.624c7.021-3.725,13.789-7.917,20.163-12.753c9.071-6.883,19.335-16.027,25.534-26.574
		c-0.338,1.402,0.752,2.801,2.456,2.485c7.198-1.334,13.296-4.632,18.126-9.617c-1.139,2.932-2.818,5.627-4.984,8.134
		c-1.105,1.277-0.416,3.456,1.427,3.445c7.601-0.045,14.714-2.874,19.613-8.822c2.356-2.861,3.652-6.718,6.368-9.261
		c3.776-3.536,11.161-4.032,15.958-4.627c9.985-1.237,20.07-0.885,30.077-1.785c6.999-0.63,14.612-2.317,18.293-8.99
		c2.318-4.202,1.772-6.993-0.743-8.492c0.899-5.535-1.875-11.143-4.652-15.818c-0.512-0.862-1.826-0.889-2.331,0
		c-2.082,3.665-3.561,8.218-6.155,11.688c-1.465-2.85-3.272-5.376-5.024-8.19c-0.487-0.783-1.92-0.987-2.351,0
		c-1.1,2.519-2.154,5.05-3.315,7.536c-1.988-2.991-4.834-7.206-7.521-6.809c-2.33,0.344-3.939,4.338-5.241,7.323
		c-0.573-1.201-1.247-2.36-1.987-3.494c-0.356-0.546-0.919-1.649-1.598-2.561c0.207-0.141,0.398-0.3,0.54-0.486
		c1.718-2.249,2.614-4.417,3.08-6.821c1.443,1.856,2.961,3.645,4.6,5.371c0.953,1.004,2.551,0.441,2.948-0.779
		c0.726-2.228,1.199-4.415,1.509-6.646c1.499,1.992,2.806,4.082,3.952,6.381c0.725,1.453,2.822,0.941,3.266-0.427
		c1.02-3.145,1.413-6.236,1.36-9.376c1.752,2.374,3.483,4.762,5.178,7.194c1.158,1.662,3.336,0.911,3.586-0.971
		c0.598-4.49,0.604-8.938-0.03-13.353c2.676,2.479,4.808,5.283,6.71,8.688c0.647,1.159,2.611,1.275,3.226,0
		c3.152-6.536,4.096-13.177,3.215-20.3c1.446-0.589,2.857-1.244,4.082-2.331C511.779,270.413,512.451,264.514,511.767,259.352z
		 M238.467,119.125c14.576,14.72,32.87,28.82,41.975,47.907c5.666,11.876,1.955,25.686-1.165,37.764
		c-2.657,10.284-5.608,20.649-5.942,31.338c-0.149,4.77,0.239,9.625,1.434,14.257c1.251,4.847,3.862,8.907,5.622,13.532
		c2.054,5.398,1.284,11.326,1.089,16.963c-0.125,3.62,0.412,7.923-0.58,11.284c-2.414-0.027-4.635-1.014-6.737-2.389
		c-3.225-2.111-6.168-5.139-9.095-7.019c-3.161-2.03-5.661-4.248-7.723-6.963c2.614-38.059,11.83-76.136,1.526-113.824
		c-2.147-7.854-5.292-15.468-9.88-22.22c-4.728-6.959-10.775-12.288-16.868-17.987c-7.433-6.954-12.636-15.387-17.234-24.392
		c-3.286-6.435-6.403-12.91-8.622-19.702C215.701,92.487,226.012,106.548,238.467,119.125z M244.656,220.549
		c1.438-3.776,3.136-7.43,5.149-10.934c2.665-4.642,6.576-8.69,9.403-13.243c0.026,23.587-5.444,47.638-6.35,71.196
		c-5.809-13.866-7.122-29.644-9.025-44.762C244.096,222.129,244.335,221.393,244.656,220.549z M242.789,215.194
		c-0.202-1.331-0.413-2.656-0.641-3.968c-1.116-6.391-2.647-12.862-4.93-19.013c3.771,0.756,7.839,0.734,11.578,1.326
		c2.788,0.441,5.485,1.095,8.227,1.071c-4.3,3.418-7.549,8.852-10.136,13.299C245.75,209.863,244.136,212.453,242.789,215.194z
		 M199.441,110.972c3.962-6.035,6.903-14.566,7.037-22.707c0.768,1.782,1.568,3.555,2.406,5.316
		c4.094,8.602,8.063,17.905,13.885,25.486c5.218,6.795,12.393,11.687,17.834,18.287c5.814,7.053,10.187,15.583,13.212,24.171
		c2.641,7.499,4.146,15.099,4.872,22.768c-2.228-4.702-5.124-9.261-7.496-13.288c-4.564-7.748-9.7-15.149-15.308-22.176
		c-5.913-7.409-12.378-14.421-19.378-20.817c-5.768-5.271-12.168-10.422-19.69-12.807
		C197.457,113.855,198.419,112.527,199.441,110.972z M195.98,154.216c1.084-7.4,2.883-15.298,2.74-22.81
		c-0.061-3.278-0.537-6.592-1.872-9.607c-0.619-1.396-0.848-2.591-0.805-3.686c15.051,7.603,26.925,20.078,37.358,33.197
		c5.613,7.058,10.69,14.537,15.225,22.331c3.307,5.684,5.765,12.43,9.284,18.116c-3.028-1.54-6.532-1.951-9.945-2.473
		c-4.001-0.612-8.278-1.52-12.318-0.965c-0.598-1.364-1.225-2.714-1.916-4.029c-4.146-7.895-10.84-13.84-18.195-18.68
		c-6.31-4.152-12.939-7.71-19.613-11.18C195.944,154.361,195.969,154.293,195.98,154.216z M113.018,119.156
		c9.334,8.512,19.305,16.283,30.38,22.492c9.044,5.07,18.488,9.024,26.824,15.309c8.738,6.589,16.698,14.28,24.859,21.555
		c7.936,7.076,16.468,13.596,20.075,24.009c3.364,9.711,3.088,20.172,3.103,30.305c0.007,5.073,0.091,10.191,0.586,15.251
		c-3.244-7.536-9.519-14.704-14.605-20.367c-7.215-8.034-15.642-15.056-24.906-20.614c-9.982-5.989-20.991-10.35-32.348-12.889
		c-10.255-2.292-21.974-3.899-32.594-2.348C124.453,168.541,124.194,141.747,113.018,119.156z M118.669,258.67
		c-0.002,0.015,0.002,0.029,0,0.044c-0.207-0.031-0.415-0.066-0.623-0.094c0.411-0.675,0.83-1.348,1.252-2.02
		C118.997,257.237,118.775,257.922,118.669,258.67z M120.338,254.956c6.481-10.199,13.36-20.272,11.588-33.053
		c-1.389-10.018-6.834-19.618-14.923-25.78c9.715,0.09,19.084,0.018,28.846,2.208c11.32,2.54,22.195,6.894,32.089,12.958
		c8.666,5.311,16.538,11.827,23.379,19.343c3.565,3.917,6.842,8.096,9.809,12.484c0.124,0.183,0.241,0.372,0.363,0.557
		c-8.832-6.167-20.071-9.198-31.412-9.092c-12.647,0.119-25.033,3.786-36.653,8.538c-5.368,2.195-10.77,4.449-15.992,6.973
		C124.934,251.3,122.108,252.77,120.338,254.956z M121.25,259.163c7.325-6.474,15.984-9.652,25.24-13.089
		c10.163-3.774,20.636-6.774,31.521-7.317c14.152-0.706,29.526,3.653,39.21,13.916c0.524,0.705,1.067,1.396,1.657,2.046
		c0.102,0.113,0.213,0.189,0.326,0.242c0.27,0.339,0.555,0.663,0.813,1.013c0.465,2.169,1.048,4.316,1.794,6.429
		c1.389,3.934,3.209,7.665,5.191,11.316c-11.252-8.758-29.89-6.496-42.463-3.225c-15.155,3.943-31.594,10.631-43.86,20.934
		c1.402-7.709,1.675-15.855-2.783-22.506C134.018,263.136,127.796,260.475,121.25,259.163z M227.95,277.491
		c0.397,0.175,0.804,0.116,1.118-0.071c1.517,2.648,3.075,5.275,4.576,7.925c2.618,4.624,5.158,9.346,6.743,14.439
		c1.305,4.193,1.26,8.462,1.933,12.69c-6.4-5.862-16.327-8.727-24.349-9.437c-11.242-0.995-22.473,2.19-31.611,8.662
		c-6.042-7.246-10.614-15.324-20.332-18.251c-7.979-2.403-16.624-1.156-24.74,0.734c13.181-7.496,25.792-15.07,40.618-19.454
		c7.367-2.178,14.984-3.65,22.691-3.596C213.45,271.193,220.063,274.012,227.95,277.491z M67.837,158.153
		c-0.697-0.644-1.54-1.186-2.177-1.667c-2.395-1.809-5.007-3.374-7.777-4.538c-2.349-0.988-5.815-1.745-8.617-1.049
		c0.877-2.63,1.631-5.276,2.276-7.931c3.024-1.011,5.913-1.794,9.347-1.24c3.904,0.629,6.337,2.654,9.161,4.826
		C69.424,150.427,68.668,154.293,67.837,158.153z M70.384,144.419c-4.348-4.314-12.695-5.624-18.42-3.232
		c0.537-2.432,0.956-4.871,1.266-7.314c2.845-1.515,5.799-2.587,9.152-2.611c1.956-0.014,3.91,0.261,5.768,0.883
		c1.21,0.405,2.284,1.034,3.388,1.611C71.304,137.318,70.909,140.872,70.384,144.419z M71.636,132.02
		c-2.66-1.7-6.371-2.286-9.253-2.226c-3.121,0.065-6.359,0.841-8.971,2.553c0.26-2.456,0.389-4.915,0.388-7.373
		c1.972-2.61,4.265-4.341,8.222-4.413c3.373-0.061,6.565,1.182,9.669,2.44C71.815,126.016,71.786,129.021,71.636,132.02z
		 M70.847,114.039c0.373,2.477,0.617,4.946,0.761,7.409c-3.651-1.724-7.585-2.982-11.649-2.381c-2.456,0.363-4.587,1.48-6.221,3.121
		c-0.107-2.465-0.376-4.927-0.782-7.383c4.964-4.237,11.464-6.3,17.473-3.154C70.575,112.446,70.726,113.241,70.847,114.039z
		 M70.01,109.536c-2.677-1.123-6.629-0.916-8.723-0.542c-3.108,0.555-6.237,1.976-8.624,4.14c-0.454-2.329-1.06-4.651-1.812-6.964
		c1.961-2.1,4.128-3.792,7.117-4.599c2.116-0.572,4.37-0.652,6.524-0.236c1.244,0.24,2.408,0.724,3.591,1.133
		C68.849,104.787,69.498,107.147,70.01,109.536z M13.769,32.521c1.529,4.355,3.503,8.412,5.847,12.238
		c-0.767,0.388-1.502,1.002-2.063,1.455c-0.558,0.451-1.079,0.945-1.561,1.473C14.662,42.736,13.898,37.64,13.769,32.521z
		 M16.31,48.792c0.661-0.637,1.346-1.245,2.107-1.782c0.573-0.404,1.284-0.731,1.918-1.123c1.233,1.928,2.549,3.806,3.962,5.626
		c-1.243,0.41-2.5,1.491-3.348,2.217c-0.793,0.678-1.514,1.458-2.123,2.313C17.846,53.677,17.016,51.252,16.31,48.792z
		 M19.311,57.185c0.661-0.816,1.351-1.602,2.157-2.299c0.7-0.606,1.448-1.149,2.25-1.613c0.455-0.264,0.958-0.447,1.394-0.718
		c1.471,1.834,3.021,3.623,4.658,5.364c-2.993,1.05-5.521,3.248-7.087,5.99C21.434,61.732,20.313,59.484,19.311,57.185z
		 M23.28,64.917c1.876-2.758,4.429-4.684,7.586-5.842c1.715,1.769,3.511,3.497,5.378,5.191c-3.439,1.33-6.44,4.387-8.13,7.677
		C26.382,69.689,24.748,67.363,23.28,64.917z M28.846,72.887c0.985-1.58,2.138-3.071,3.498-4.324
		c1.576-1.452,3.311-2.279,5.141-3.178c0.787,0.698,1.584,1.391,2.395,2.079c1.764,1.496,3.544,2.986,5.317,4.486
		c-4.109,1.022-8.63,4.072-10.686,7.818C32.593,77.496,30.678,75.222,28.846,72.887z M35.655,81.128
		c1.103-1.715,2.2-3.383,3.938-4.761c2.18-1.727,4.513-2.534,7.058-3.186c2.421,2.074,4.804,4.192,7.062,6.43
		c-4.929,0.696-9.565,4.41-12.225,8.773C39.636,85.9,37.655,83.507,35.655,81.128z M42.295,89.503c1.1-1.703,2.381-3.281,3.95-4.595
		c2.634-2.207,5.506-3.085,8.628-4.107c2.007,2.071,3.913,4.238,5.625,6.584c0.184,0.253,0.343,0.521,0.522,0.777
		c-5.828-0.487-10.902,3.905-14.038,8.809C45.606,94.346,44.01,91.882,42.295,89.503z M47.63,98.259
		c3.506-5.096,7.941-8.824,14.486-8.465c2.176,3.392,3.949,7.02,5.331,10.802c-2.881-1.322-6.715-1.315-9.476-0.654
		c-2.837,0.679-5.676,2.255-7.725,4.46C49.504,102.345,48.633,100.297,47.63,98.259z M48.4,153.393
		c3.23-1.688,6.488-1.085,10.211,0.667c0.962,0.452,7.112,3.846,8.904,5.572c-0.556,2.53-1.136,5.059-1.731,7.587
		c-2.246-3.128-6.562-4.813-10.084-5.843c-2.93-0.857-6.933-1.291-10.32-0.41C46.474,158.461,47.484,155.935,48.4,153.393z
		 M44.524,162.891c0.688-0.277,1.385-0.533,2.126-0.693c2.567-0.557,5.187-0.361,7.72,0.286c3.942,1.008,9.074,2.899,10.92,6.833
		c-0.926,3.912-1.864,7.822-2.751,11.734c-4.338-6.893-14.644-11.329-22.409-8.954C41.636,169.051,43.116,165.991,44.524,162.891z
		 M38.852,174.689c3.998-1.73,8.228-1.891,12.591-0.22c2.634,1.008,5.062,2.66,7.078,4.618c1.367,1.328,2.404,2.867,3.475,4.394
		c-0.566,2.567-1.105,5.135-1.597,7.705c-3.096-3.364-9.284-4.831-12.999-5.496c-4.699-0.841-9.999-0.881-14.597,0.744
		C34.842,182.532,36.874,178.625,38.852,174.689z M31.844,188.269c4.647-1.674,9.475-2.172,14.627-1.285
		c2.843,0.49,5.722,1.203,8.362,2.384c2.298,1.028,3.792,2.353,5.138,4.124c-0.434,2.416-0.827,4.834-1.154,7.255
		c-4.096-4.666-11.801-7.112-17.254-7.781c-3.832-0.47-8.79-0.082-12.988,1.575C29.659,192.448,30.752,190.359,31.844,188.269z
		 M27.093,197.409c1.051-0.659,2.164-1.245,3.422-1.693c3.719-1.325,7.738-1.595,11.632-1.002c6.41,0.976,12.042,3.791,16.37,8.39
		c-0.332,2.805-0.581,5.614-0.713,8.429c-1.678-2.482-4.667-4.125-7.348-5.223c-4.817-1.972-10.141-2.687-15.306-2.052
		c-5.195,0.639-10.093,2.604-14.225,5.626C22.899,205.685,24.975,201.538,27.093,197.409z M19.691,212.534
		c4.047-3.376,8.874-5.747,14.191-6.605c8.454-1.365,19.084,0.639,23.835,8.358c-0.055,2.753-0.01,5.512,0.186,8.278
		c-3.1-1.842-7.033-3.01-10.008-3.837c-5.218-1.45-10.706-1.972-16.088-1.295c-6.364,0.801-12.292,3.197-17.153,7.033
		C16.204,220.425,17.899,216.456,19.691,212.534z M11.551,233.27c0.655-2.057,1.366-4.086,2.101-6.103
		c5.205-4.418,11.771-7.299,18.485-8.113c5.127-0.622,10.353-0.126,15.326,1.239c2.503,0.687,4.947,1.59,7.298,2.69
		c1.114,0.521,2.208,1.179,3.327,1.762c0.272,2.806,0.673,5.619,1.258,8.441c-3.8-2.323-8.659-3.487-12.816-4.008
		c-5.865-0.734-11.905-0.133-17.505,1.761c-8.442,2.856-15.527,8.32-20.874,15.25C9.057,241.859,10.19,237.548,11.551,233.27z
		 M7.761,248.171c5.455-7.076,12.746-12.863,21.206-15.766c5.147-1.766,10.677-2.447,16.097-1.916
		c2.82,0.276,5.604,0.858,8.287,1.774c2.273,0.775,4.328,1.93,6.455,2.973c0.087,0.37,0.156,0.739,0.25,1.11
		c0.495,1.962,1.098,3.883,1.763,5.776c-5.103-1.516-11.261-1.418-16.054-0.991c-6.857,0.61-13.573,2.546-19.653,5.786
		c-5.504,2.933-10.473,6.935-14.558,11.644c-1.956,2.255-4.115,4.949-5.868,7.833C5.88,260.304,6.598,254.22,7.761,248.171z
		 M5.634,270.56c0.497-1.054,1-2.105,1.586-3.107c1.597-2.73,3.455-5.311,5.529-7.697c3.91-4.5,8.594-8.31,13.83-11.165
		c6.05-3.299,12.815-5.258,19.681-5.806c3.305-0.264,6.643-0.22,9.938,0.148c2.125,0.237,4.226,0.758,6.336,1.148
		c0.776,2.012,1.63,3.988,2.583,5.912c-12.905-1.39-26.351,3.197-36.492,11.042c-9.686,7.493-16.689,17.879-20.979,29.267
		C6.318,283.755,5.678,277.16,5.634,270.56z M13.824,310.01c-0.991-2.302-1.912-4.649-2.739-7.052
		c-1.151-3.345-2.089-6.712-2.868-10.091c4.162-11.444,10.81-22.078,20.346-29.794c10.677-8.64,23.957-12.664,37.474-11.314
		c1.855,3.493,3.98,6.836,6.372,9.984c-13.589-1.717-27.701,5.206-37.481,14.256c-5.942,5.499-11.125,12.049-15.251,19.012
		c-2.065,3.485-3.846,7.199-4.951,11.106C14.39,307.307,14.066,308.638,13.824,310.01z M15.153,312.967
		c0.006-0.299,0.004-0.598,0.027-0.897c0.161-2.042,0.59-4.055,1.177-6.015c1.179-3.936,3.044-7.626,5.182-11.122
		c3.908-6.392,8.661-12.388,14.128-17.518c10.595-9.943,23.952-15.4,38.133-13.894c0.994,1.231,2.039,2.422,3.108,3.591
		c-3.164,0.251-6.513,1.524-9.419,2.533c-3.476,1.207-6.864,2.682-10.115,4.408c-6.574,3.49-12.616,8.024-17.772,13.394
		c-9.677,10.081-16.114,22.909-18.347,36.645C19.01,320.526,16.962,316.823,15.153,312.967z M22.195,325.556
		c2.543-13.775,8.792-26.842,18.533-36.982c4.962-5.165,10.736-9.517,17.039-12.914c3.259-1.756,6.651-3.253,10.149-4.466
		c3.296-1.143,6.916-1.583,10.146-2.822c1.489,1.56,3.045,3.06,4.663,4.493c-6.23,1.836-12.184,5.84-17.01,9.629
		c-7.149,5.614-13.704,12.289-19.153,19.563c-5.473,7.307-9.753,15.685-11.231,24.763c-0.76,4.666-0.958,10.223,0.094,15.331
		C30.497,337.024,26.063,331.488,22.195,325.556z M43.757,350.046c-2.046-1.783-4.041-3.614-5.962-5.507
		c-0.586-1.953-1.069-3.938-1.295-6.059c-0.45-4.214-0.209-8.506,0.604-12.661c1.65-8.422,5.703-16.14,10.818-22.965
		c4.996-6.666,10.99-12.757,17.42-18.045c3.366-2.768,6.962-5.293,10.827-7.318c2.686-1.407,5.416-2.322,8.214-3.174
		c1.922,1.611,3.926,3.128,5.996,4.555c-12.888,5.822-24.041,15.807-32.008,27.37c-4.777,6.934-8.444,14.627-10.898,22.678
		C45.486,335.445,43.794,342.951,43.757,350.046z M51.538,356.356c-2.043-1.534-4.025-3.13-5.967-4.763
		c0.164-3.314,0.227-6.619,0.702-9.936c0.573-3.998,1.447-7.955,2.6-11.826c2.37-7.954,5.95-15.532,10.615-22.397
		c8.198-12.067,19.42-20.977,32.17-27.702c0.447,0.295,0.89,0.595,1.343,0.882c0.007,0.113,0.01,0.226,0.023,0.337
		c0.345,2.883,2.21,5.959,3.169,8.696c-2.769-0.945-5.715-1.265-8.82-1.023c-2.457,0.192-3.472,2.8-1.93,4.66
		c2.107,2.541,4.237,5.062,6.36,7.589c-6.625-0.512-13.087,0.671-19.453,3.567c-1.987,0.904-1.689,3.887,0,4.875
		c2.141,1.253,4.321,2.391,6.542,3.427c-4.725,1.225-9.232,3.182-13.484,5.936c-2.11,1.367-1.615,4.319,0.672,5.136
		c2.531,0.904,5.065,1.797,7.599,2.693c-5.754,2.22-11.202,5.074-16.355,8.625c-1.932,1.332-1.654,4.214,0.648,4.96
		c3.507,1.136,6.914,2.457,10.262,3.93c-2.883,0.596-5.793,1.041-8.786,1.299c-2.415,0.209-4.028,3.788-1.369,5.057
		c2.876,1.374,5.163,3.066,7.074,5.28c-0.652-0.755-8.292-0.186-13.436,0.857C51.656,356.463,51.605,356.405,51.538,356.356z
		 M153.599,427.004c-3.432,7.258-6.931,15.474-4.81,23.635c1.733,6.668,6.451,11.302,13.313,12.36
		c5.575,0.86,11.074,0.452,15.657,4.404c3.252,2.805,5.307,7.538,3.942,11.728c-0.772-1.816-1.989-3.534-2.808-4.478
		c-2.993-3.45-6.646-4.727-10.788-6.232c-1.18-0.428-1.785,1.314-0.819,1.944c3.746,2.446,8.799,5.521,10.451,9.869
		c0.197,0.518,0.468,1.884,0.91,3.06c-2.415,1.739-5.772,2.473-8.937,2.888c0.889-6.781-8.113-15.079-14.332-13.822
		c-0.523,0.106-0.835,0.839-0.522,1.282c2.543,3.595,7.63,4.166,9.589,8.599c0.46,1.042,0.706,2.164,0.684,3.301
		c-0.007,0.367-0.08,0.753-0.152,1.142c-5.178,0.526-10.393,0.642-15.59,0.366c-5.753-0.305-11.465-1.107-17.074-2.426
		c-6.495-1.526-11.915-3.292-10.103-11.472c1.809-8.168,4.688-15.067,4.466-23.671c-0.297-11.5-4.457-26.518-13.219-35.431
		c5.483-0.079,10.971-0.028,16.33-0.227c6.454,5.886,14.912,10.116,23.828,13.156C153.609,426.989,153.603,426.995,153.599,427.004z
		 M338.443,458.055c7.396,1.615,15.478,3.793,19.521,10.854c3.456,6.036,0.563,13.529-5.425,15.02
		c0.875-3.327-0.382-7.187-2.75-9.896c-5.183-5.927-13.565-6.749-20.936-7.096c-2.109-0.099-2.656,3.41-0.507,3.75
		c5.514,0.874,30.218,8.897,13.995,14.308c-7.586,2.53-16.552-0.692-24.247-1.116c-4.374-0.241-8.927-0.258-13.122-1.662
		c-3.779-1.265-7.209-3.583-10.611-5.61c-7.078-4.217-15.254-8.14-21.361-13.74c-7.182-6.585-6.969-15.379-7.549-24.416
		c-1.696-26.42-3.773-52.327-0.657-78.759c-3.124,5.11-4.981,10.988-5.359,16.966c-0.65-8.005,0.231-16.131,2.581-23.811
		c-0.72-1.129-2.3,0.391-2.682,1.674c-2.402,8.055-4.83,16.404-3.741,24.738c0.506,3.873,1.762,7.613,2.364,11.473
		c0.457,2.928,0.535,5.901,0.612,8.864c0.159,6.14,0.318,12.281,0.477,18.421c0.018,0.696,0.021,1.445-0.373,2.018
		c-0.382,0.557-1.055,0.825-1.689,1.054c-11.498,4.16-23.8,4.901-35.861,6.239c-12.617,1.399-25.345,2.29-38.003,0.857
		c-9.644-1.092-19.226-3.218-28.385-6.436c-6.382-2.243-12.253-5.374-18.224-8.344c0.391-0.036,0.783-0.07,1.172-0.111
		c17.76-1.861,35.173-9.042,46.217-23.598c4.143-5.46,7.103-11.755,8.654-18.317c7.585-9.49,5.658-25.369,1.254-35.793
		c-0.251-0.595-1.13-0.245-1.143,0.31c-0.16,6.374,1.244,12.69,0.977,19.085c-0.018,0.434-0.063,0.862-0.096,1.293
		c-0.637-5.904-2.522-11.683-5.828-16.938c-0.648-1.031-2.563-0.372-2.069,0.872c6.4,16.123,3.596,35.059-7.587,48.393
		c-10.037,11.968-27.003,20.914-42.866,20.843c-17.172-0.077-35.38-2.264-52.066,3.548c-6.363,2.216-12.653,5.601-16.92,10.943
		c-4.819,6.034-5.608,13.425-5.293,20.906c0.235,5.592,0.041,14.995,4.683,19.09c4.957,4.374,12.691,2.258,18.597,3.507
		c4.571,0.966,10.992,3.258,11.623,8.537c0.152,1.275-0.015,2.337-0.402,3.239c-0.593-1.888-1.58-3.62-2.991-5.148
		c-2.46-2.665-4.955-3.005-8.35-3.459c-0.523-0.07-0.62,0.784-0.123,0.911c2.224,0.566,4.592,3.006,5.942,4.77
		c1.342,1.753,2.162,3.825,2.347,6.008c-1.855,0.891-4.181,1.289-6.394,1.438c-0.392-3.365-1.95-6.47-4.665-8.586
		c-2.895-2.257-6.159-2.589-9.657-1.779c-1.264,0.293-0.981,2.266,0.305,2.25c4.823-0.058,8.964,3.436,9.511,8.136
		c-9.367-0.356-18.737-1.104-28.096-1.642c-4.722-0.271-9.487-0.356-14.197-0.796c-2.904-0.271-5.326-0.695-6.813-3.331
		c-1.297-2.298-0.964-4.986-0.813-7.532c0.574-9.642,1.184-19.254,1.332-28.916c0.143-9.289-0.464-18.583-0.3-27.862
		c0.094-5.329,1.145-9.644,5.886-12.563c3.88-2.389,8.166-4.259,12.218-6.34c9.885-5.078,19.771-10.156,29.656-15.233
		c8.327-4.277,17.187-8.498,23.836-15.259c11.558-11.753,16.521-28.482,16.745-44.616c0.021-1.519-2.105-1.414-2.291,0
		c-0.83,6.296-2.142,12.389-4.112,18.112c0.036-0.225,0.071-0.45,0.107-0.674c0.949-5.904,1.156-10.984-1.057-16.621
		c-0.262-0.67-1.306-0.423-1.105,0.304c2.724,9.854-2.712,20.998-4.97,30.417c-0.064,0.269-0.001,0.505,0.124,0.695
		c-4.196,6.294-9.719,11.742-17.006,15.947c-10.866,6.271-15.177,9.436-26.806,2.862c-2.09-1.182-9.608-8.698-11.3-8.623
		c6.124-0.271,12.214-0.845,18.304-1.69c1.787-0.248,2.4-2.634,1.622-3.987c-1.476-2.565-3.264-4.774-5.366-6.649
		c3.347-0.579,6.658-1.334,9.947-2.333c2.13-0.647,2.791-3.84,0.648-4.96c-4.132-2.159-8.357-4.041-12.692-5.685
		c5.599-3.286,11.515-5.807,17.868-7.563c2.724-0.753,2.424-4.355,0-5.234c-3.064-1.111-6.118-2.244-9.173-3.379
		c5.188-2.408,10.69-3.655,16.626-3.73c3.206-0.04,3.803-4.615,0.751-5.545c-3.533-1.077-6.906-2.421-10.19-3.991
		c5.607-1.472,11.432-1.446,17.189,0.093c2.792,0.746,4.337-2.554,2.656-4.563c-2.34-2.796-4.685-5.588-7.027-8.383
		c1.906,0.448,3.75,1.2,5.632,2.25c1.689,0.942,4.42-0.669,3.585-2.757c-1.643-4.112-3.361-8.195-5.058-12.286
		c11.44,6.483,26.688,6.365,39.112,3.035c-0.353,4.279-1.483,8.591-2.494,12.485c-0.477,1.84,1.213,3.561,3.065,3.065
		c8.728-2.34,18.416-4.961,27.367-2.224c9.427,2.882,13.347,12.291,19.238,19.301c1.034,1.231,2.804,0.849,3.888,0
		c8.604-6.746,19.063-10.639,30.087-9.764c6.654,0.529,13.621,2.422,19.328,5.955c6.548,4.054,11.161,10.604,18.24,13.977
		c8.451,4.027,19.167,2.501,28.197,3.935c10.625,1.687,20.112,6.74,26.101,15.923c4.935,7.567,5.852,16.539,5.049,25.345
		c-0.776,8.493,1.28,16.858,1.102,25.525c-0.046,2.228-0.135,4.455-0.242,6.681c-0.054,0.28-0.069,0.566-0.045,0.849
		c-0.249,4.888-0.61,9.772-1.022,14.648c-0.534,6.329-1.9,13.164-0.816,19.487C315.939,452.049,327.981,455.771,338.443,458.055z
		 M302.74,333.06c-7.966-5.54-17.263-7.06-26.75-7.715c-4.742-0.328-9.64-0.353-14.389-1.024c-0.178-0.094-0.371-0.176-0.6-0.227
		c-4.395-0.987-9.751-2.679-12.201-6.819c-2.22-3.751-0.864-9.707-1.598-13.989c-1.383-8.068-5.374-15.433-9.446-22.424
		c-4.61-7.915-9.62-15.71-11.91-24.681c-2.652-10.391-2.042-21.213-2.373-31.835c-0.272-8.711-1.165-17.637-4.379-25.807
		c-3.241-8.238-8.647-13.758-15.16-19.552c-14.751-13.123-28.868-27.617-46.886-36.197c-17.211-8.195-33.647-17.524-46.621-31.269
		c14.545,7.048,29.432,13.334,42.401,23.216c7.858,5.988,15.596,11.854,24.253,16.671c8.454,4.705,17.239,8.78,25.718,13.439
		c8.545,4.695,17.555,9.856,23.446,17.827c5.833,7.893,9.023,17.249,10.992,26.781c3.912,18.937,2.505,38.6,8.983,57.066
		c1.727,4.923,3.918,9.608,7.016,13.582c2.174,2.789,4.791,5.23,8.024,7.143c5.231,3.095,10.372,6.34,15.509,9.588
		c4.955,3.133,7.769,6.491,12.068,10.168c4.399,3.762,9.697,4.629,15.306,3.641c7.661-1.35,15.202-4.654,22.55-7.131
		c7.602-2.562,16.385-4.317,23.457-8.216c0.899,0.83,1.855,1.604,2.859,2.307c-4.26,2.047-8.335,4.393-12.228,7.111
		c-1.375,0.96-1.742,3.289,0,4.164c4.379,2.199,8.892,3.975,13.583,5.204c-3.343,1.712-6.869,2.972-10.649,3.802
		c-2.382,0.523-2.086,3.862,0,4.534c6.675,2.152,13.503,3.338,20.45,3.274c-3.817,3.366-8.196,5.568-13.222,7.389
		c-1.904,0.69-2.413,3.957,0,4.392c7.309,1.319,13.911-0.465,20.208-3.436c-6.891,6.979-15.091,12.717-23.35,17.926
		c-8.773,5.532-18.469,9.356-27.471,14.358C319.226,353.205,313.963,340.865,302.74,333.06z M333.396,396.401
		c-4.233,1.882-8.519,3.646-12.838,5.306c0.702-0.27-0.267-22.626-0.173-24.517c0.077-1.561,0.154-3.122,0.173-4.684
		c0.008-0.701-0.007-1.401-0.021-2.1c3.088-0.796,6.156-1.904,9.18-3.208C329.1,376.915,330.095,387.314,333.396,396.401z
		 M377.172,416.625c8.966,1.057,18.55-0.479,27.029,3.227c7.286,3.184,12.602,9.676,17,16.076
		c5.039,7.333,10.975,15.402,2.041,22.392c-0.29,0.227-0.598,0.436-0.899,0.653c0.077-7.224-4.68-14.081-11.028-17.365
		c-1.761-0.911-3.235,1.593-1.556,2.661c6.338,4.029,7.981,10.689,7.557,17.695c-3.059,1.487-6.378,2.605-9.752,3.339
		c-0.941-10.663-8.435-17.429-18.272-21.735c-0.611-0.267-1.436,0.531-0.793,1.028c7.598,5.887,14.091,11.656,14.542,21.461
		c-1.945,0.233-3.874,0.35-5.742,0.337c-5.426-0.037-9.754-1.587-11.61-7.122c-1.125-3.355-1.429-6.77-3.042-9.993
		c-2.75-5.498-7.43-9.924-13.027-12.445c-8.384-3.777-17.148-1.769-25.971-1.68c-4.871,0.049-9.729-0.682-14.353-2.231
		c-3.656-1.225-6.9-3.284-10.395-4.777c0.54-6.874,1.137-13.752,1.454-20.642c7.925-3.005,15.758-6.284,23.341-10.04
		C351.531,408.248,363.967,415.069,377.172,416.625z M334.974,395.7c-1.407-5.197-2.789-10.296-3.425-15.687
		c-0.527-4.47-0.629-8.946-0.467-13.429c4.277-1.938,8.458-4.24,12.461-6.643c-0.645,4.945-0.145,10.123,0.765,14.951
		c0.59,3.132,1.437,6.213,2.539,9.203c0.546,1.48,1.101,3.203,1.876,4.75C344.236,391.311,339.641,393.584,334.974,395.7z
		 M350.383,387.913c-0.592-1.279-1.276-2.533-1.761-3.787c-1.089-2.814-1.963-5.715-2.608-8.663
		c-1.186-5.431-1.217-10.776-1.278-16.242c2.422-1.476,4.777-2.974,7.044-4.427c0.538-0.345,1.105-0.704,1.665-1.06
		c0.21,9.486,1.772,20.058,9.054,26.626C358.585,383.081,354.528,385.574,350.383,387.913z M364.42,379.039
		c-0.172,0.124-0.351,0.237-0.523,0.359c-6.936-7.374-8.831-16.576-9.337-26.375c2.49-1.581,5.138-3.268,7.768-5.078
		c0.148,8.671,4.642,18.177,10.761,24.156C370.313,374.546,367.428,376.869,364.42,379.039z M374.38,370.919
		c-2.976-3.243-5.553-6.635-7.409-10.728c-1.959-4.319-2.691-8.64-3.269-13.207c2.024-1.434,4.019-2.935,5.892-4.527
		c0.378,4.817,1.859,9.493,4.214,13.723c1.24,2.227,2.73,4.325,4.421,6.232c0.645,0.728,1.459,1.846,2.4,2.477
		C378.618,366.975,376.524,368.975,374.38,370.919z M382.828,362.604c-0.305,0.333-0.63,0.646-0.939,0.976
		c-6.451-5.854-10.111-13.341-11.246-22.035c1.718-1.527,3.322-3.125,4.729-4.807c-0.39,2.659-0.781,5.318-1.171,7.977
		c-0.309,2.099,2.242,4.337,3.997,2.327c2.615-2.994,5.241-5.887,8.262-8.342l-4.279,17.038c-0.563,2.241,2.231,3.954,3.909,2.275
		c0.704-0.704,1.432-1.38,2.156-2.061C386.539,358.235,384.776,360.479,382.828,362.604z M394.908,354.266
		c1.075-1.978,1.985-4.006,2.729-6.072c0.591-0.428,1.172-0.869,1.773-1.283C398.214,349.505,396.724,351.935,394.908,354.266z
		 M495.067,306.631c1.321,3.399,1.471,6.804,1.89,10.444c-0.399-0.054-0.811-0.098-1.243-0.126c-1.783-0.115-3.57-0.194-5.359-0.259
		C492.506,313.778,493.901,310.113,495.067,306.631z M482.015,309.881c1.214,2.047,2.014,4.365,2.66,6.659
		c-1.748-0.028-3.498-0.043-5.247-0.051C480.521,314.346,481.412,312.183,482.015,309.881z M468.323,313.599
		c0.384-0.705,0.754-1.417,1.11-2.136c0.002-1.3,0.285-1.387,0.849-0.263c1.539,0.671,3.056,3.326,4.27,5.276
		c-2.841-0.003-5.679-0.009-8.511-0.039C466.915,315.724,467.598,314.819,468.323,313.599z M461.31,316.358
		c-2.228-0.054-4.435-0.14-6.628-0.263c0.539-0.854,1.074-1.71,1.59-2.577c0.564-0.986,1.127-1.972,1.691-2.957
		c0.729-1.706,0.961-2.045,0.698-1.016c0.431,0.375,1.348,3.333,1.68,4.148C460.698,314.572,461.003,315.466,461.31,316.358z
		 M447.364,304.931c-0.502-0.358-1.31-0.313-1.817,0c-1.276,0.788-1.489,1.557-1.977,2.973c-0.777,2.252-1.551,4.504-2.344,6.751
		c-2.591-0.442-5.187-0.991-7.799-1.68c-4.786-1.263-9.47-2.473-14.213-3.229c3.418-0.57,6.843-1.127,10.229-2.045
		c8.118-2.201,15.245-6.88,23.543-8.619c0.078-0.017,0.158-0.031,0.236-0.048c1.569,2.471,2.959,5.025,4.161,7.703
		c-0.285,0.16-0.554,0.369-0.83,0.614c-1.62,1.434-2.901,3.788-4.052,5.998C451.31,310.15,449.811,306.675,447.364,304.931z
		 M450.183,315.775c-1.904-0.165-3.802-0.367-5.698-0.626c0.942-2.328,2.186-5.442,2.421-5.478
		C447.916,309.514,449.349,313.343,450.183,315.775z M459.504,302.655c-0.855-1.493-1.79-2.902-2.823-4.27
		c1.492-0.255,2.989-0.486,4.486-0.711C460.934,299.469,460.335,301.105,459.504,302.655z M469.018,301.218
		c-1.236-1.349-2.41-2.743-3.534-4.197c1.451-0.226,2.896-0.464,4.327-0.732C469.655,297.961,469.388,299.593,469.018,301.218z
		 M477.985,299.29c-0.911-1.441-1.883-2.829-2.964-4.158c1.154-0.305,2.294-0.646,3.416-1.032
		C478.467,295.849,478.305,297.572,477.985,299.29z M486.976,296.38c-1.184-1.464-2.357-2.939-3.517-4.423
		c1.144-0.595,2.26-1.263,3.345-2.014C486.979,292.087,487.038,294.225,486.976,296.38z M498.237,291.999
		c-1.898-2.381-3.926-4.652-6.096-6.789c2.19-2.42,4.248-5.114,7.047-6.829c0.224-0.137,0.456-0.255,0.685-0.377
		C500.377,282.845,499.804,287.464,498.237,291.999z M506.148,268.439c-2.334,3.277-7.153,3.547-10.382,5.714
		c-6.095,4.091-9.428,10.423-16.211,13.891c-0.478-0.001-0.92,0.206-1.218,0.57c-0.275,0.118-0.543,0.243-0.83,0.35
		c-7.43,2.795-15.555,3.069-23.264,4.687c-8.967,1.882-16.398,6.871-25.053,9.524c-8.132,2.493-16.917,2.109-24.537,6.24
		c-1.854,1.005-0.595,4.037,1.44,3.417c9.005-2.744,17.854,0.615,26.421,3.449c7.263,2.403,14.447,4.083,22.074,4.764
		c8.437,0.753,16.973,0.687,25.438,0.915c4.477,0.121,8.967,0.349,13.445,0.364c1.165,0.004,4.14-0.564,4.392,0.441
		c0.451,1.795-3.419,5.024-4.532,5.73c-7.143,4.532-18.212,3.087-26.35,3.343c-7.73,0.243-15.518,0.654-23.107,2.248
		c-6.113,1.284-10.199,3.444-13.656,8.745c-3.892,5.968-8.36,10.636-14.902,12.531c2.302-4.148,3.571-8.625,4.2-13.512
		c0.231-1.79-2.26-2.018-3.084-0.835c-3.865,5.555-9.288,9.569-15.514,11.793c2.026-3.261,3.596-6.732,4.726-10.54
		c0.539-1.818-1.536-3.277-3.119-2.398c-5.005,2.782-9.603,5.934-13.914,9.532c1.311-5.166,2.622-10.332,3.934-15.498
		c0.519-2.044-1.658-3.649-3.48-2.675c-3.446,1.843-6.37,4.229-9.08,6.887c0.531-3.552,1.061-7.105,1.591-10.658
		c0.292-1.955-1.576-3.916-3.548-2.728c-5.347,3.223-11.045,6.581-17.148,7.946c3.278-2.278,6.317-4.917,9.198-7.737
		c1.156-1.132,0.279-3.149-1.309-3.16c-5.402-0.035-10.624-0.535-15.773-1.642c3.378-1.284,6.596-2.943,9.683-5.021
		c1.673-1.127,1.76-4.353-0.623-4.765c-5.24-0.907-10.25-2.177-15.142-4.076c3.44-2.284,7.025-4.281,10.813-6.019
		c1.319,0.576,2.674,1.048,4.045,1.387c8.874,2.196,19.154-5.433,22.85-13.13c0.634-1.32-0.701-2.955-2.109-2.108
		c-6.247,3.757-11.477,12.759-19.754,11.825c-7.325-0.827-16.395-8.332-15.175-16.351c1.485-9.765,10.353-9.95,18.298-8.995
		c7.73,0.929,15.007,0.913,22.752,0.578c1.572-0.068,1.587-2.428,0-2.455c-6.562-0.112-12.989-0.765-19.356-2.229
		c-1.133-2.377-2.349-4.59-3.397-6.875c3.022,1.595,6.524,2.199,10.292,1.575c1.473-0.244,2.156-2.265,1.4-3.44
		c-1.514-2.351-2.884-4.747-4.136-7.204c2.361,1.099,4.866,1.893,7.536,2.289c2.914,0.433,7.994,0.897,9.317-2.67
		c1.768-4.767-9.345-9.079-8.653-10.682c0.034-0.08,7.334,4.131,8.191,4.746c3.398,2.44,6.375,5.257,9.078,8.438
		c1.186,1.397,3.859,0.683,4.206-1.111c0.444-2.295-0.455-5.489-0.61-8.229c7.453,8.165,18.84,15.428,29.845,13.952
		c15.846,1.332,31.868-2.272,46.69-7.814c8.991-3.362,23.224-8.853,27.653,3.807C508.065,259.479,508.704,264.85,506.148,268.439z"
		/>
</g>
<g>
</g>
<g>
</g>
<g>
</g>
<g>
</g>
<g>
</g>
<g>
</g>
<g>
</g>
<g>
</g>
<g>
</g>
<g>
</g>
<g>
</g>
<g>
</g>
<g>
</g>
<g>
</g>
<g>
</g>
</svg>
