<?xml version="1.0" encoding="iso-8859-1"?>
<!-- Generator: Adobe Illustrator 19.0.0, SVG Export Plug-In . SVG Version: 6.00 Build 0)  -->
<svg version="1.1" id="Capa_1" xmlns="http://www.w3.org/2000/svg" xmlns:xlink="http://www.w3.org/1999/xlink" x="0px" y="0px"
	 viewBox="0 0 512.001 512.001" style="enable-background:new 0 0 512.001 512.001;" xml:space="preserve">
<g>
	<path style="fill:#FFFFFF;" d="M506.432,197.35l-1.822,3.081c-2.383,4.027-4.774,7.885-7.822,10.819l-1.052,1.012l1.324,0.615
		c2.268,1.053,4.495,2.077,6.788,3.026l1.156,0.479l0.212-1.234c0.891-5.186,1.3-9.837,1.254-14.22L506.432,197.35z"/>
	<path style="fill:#FFFFFF;" d="M496.153,179.082l-1.714-0.125l0.737,1.552c0.659,1.387,1.132,2.773,1.446,4.248
		c0.175,0.782,0.26,1.761,0.35,2.798c0.107,1.235,0.218,2.512,0.494,3.684l0.489,2.076l1.283-1.704
		c0.517-0.686,0.997-1.398,1.426-2.113c0.866-1.431,1.63-3.057,2.333-4.972c0.341-0.925,0.597-1.906,0.845-2.855
		c0.154-0.59,0.309-1.181,0.484-1.761l0.519-1.715l-1.731,0.458c-1.341,0.355-2.82,0.527-4.523,0.527
		C497.85,179.181,497.052,179.148,496.153,179.082z"/>
	<path style="fill:#FFFFFF;" d="M495.128,208.408c-0.043-3.686-0.087-7.497-1.385-10.876l-0.845-2.201l-0.995,2.137
		c-1.595,3.423-3.337,6.551-5.327,9.561l-0.689,1.041l1.166,0.445c2.068,0.79,4.256,1.716,6.688,2.834l1.457,0.669l-0.039-1.603
		C495.144,209.758,495.136,209.087,495.128,208.408z"/>
	<path style="fill:#FFFFFF;" d="M489.667,186.906c0.181-0.45,0.351-0.88,0.524-1.223c0.844-1.66,1.666-3.436,2.588-5.589l0.54-1.26
		l-1.365-0.129c-2.348-0.222-4.45-0.33-6.426-0.33c-1.13,0-2.249,0.036-3.325,0.107l-1.568,0.104l0.759,1.377
		c0.584,1.061,1.042,2.094,1.442,3.257c0.124,0.354,0.255,1.091,0.395,1.872c0.443,2.488,0.803,4.173,1.717,4.9
		c0.501,0.399,1.017,0.601,1.536,0.601C488.19,190.593,488.975,188.634,489.667,186.906z"/>
	<path style="fill:#FFFFFF;" d="M479.834,196.62c-0.718,0-1.203,0.412-5.157,5.137l-1.271,1.515l-0.7-1.587
		c-0.329-0.745-0.591-1.483-0.802-2.265c-0.037-0.134-0.079-0.384-0.133-0.687c-0.136-0.759-0.322-1.799-0.606-2.487l-0.463-1.122
		l-1.013,0.67c-0.475,0.314-0.922,0.723-1.317,1.084c-0.201,0.184-0.388,0.355-0.549,0.484l-2.207,1.729
		c-0.121,0.099-0.245,0.203-0.362,0.32l-1.143,1.142l1.532,0.513c1.395,0.467,2.789,0.939,4.188,1.414l3.793,1.283l-0.002-0.004
		l0.896,0.305c2.577,0.879,5.134,1.777,7.699,2.686l1.613,0.572l-0.294-1.686C482.112,197.477,480.97,196.71,479.834,196.62z"/>
	<path style="fill:#FFFFFF;" d="M476.851,179.158c-2.228,0.43-4.645,0.994-7.605,1.775l-1.159,0.306l0.509,1.086
		c1.076,2.295,2.233,4.596,3.352,6.82c0.475,0.944,0.949,1.887,1.418,2.83l0.783,1.576l0.953-1.479
		c1.958-3.038,2.987-7.027,3.896-10.547l0.741-2.828l-1.827,0.284C477.554,179.034,477.202,179.088,476.851,179.158z"/>
	<path style="fill:#FFFFFF;" d="M461.046,183.133l-1.147,0.301l0.49,1.08c0.837,1.845,1.743,3.707,2.692,5.537l0.925,1.782
		l0.865-1.811c1.092-2.286,1.953-4.597,2.632-7.066l0.464-1.684l-3.544,0.955C463.299,182.531,462.174,182.836,461.046,183.133z"/>
	<path style="fill:#FFFFFF;" d="M435.097,157.201l-0.186,1.253c-0.059,0.396-0.117,0.717-0.218,1.001
		c-0.091,0.267-0.282,0.307-0.389,0.307c-0.105,0-0.297-0.04-0.388-0.304c-0.136-0.399-0.16-0.882-0.071-1.398l0.188-1.088
		l-1.102-0.079c-0.243-0.017-0.482-0.026-0.721-0.026c-1.305,0-2.627,0.257-4.042,0.787l-1.047,0.392l0.506,0.997
		c1.414,2.789,3.717,4.388,6.318,4.388h0.053c2.548-0.023,4.087-1.425,5.443-2.661l1.023-0.932l-1.206-0.679
		c-0.488-0.275-0.988-0.55-1.498-0.815c-0.551-0.288-1.086-0.51-1.49-0.672L435.097,157.201z"/>
</g>
<g>
	<path style="fill:#FF8F6B;" d="M506.57,156.998c-2.688-4.621-7.04-7.735-12.256-8.77c-0.917-0.182-1.881-0.27-2.944-0.27
		c-1.348,0-2.678,0.143-3.964,0.28c-1.287,0.138-2.504,0.268-3.738,0.268h-0.001c-0.669,0-1.278-0.039-1.857-0.118
		c-0.756-0.106-1.57-0.283-2.565-0.555l-2.166-0.591l1.009,2.005c1.323,2.631,1.829,6.698,0.515,9.139
		c-0.287-1.068-0.27-2.231-0.251-3.448c0.021-1.369,0.042-2.785-0.355-4.214c-0.435-1.586-1.261-2.916-2.521-4.065l-0.145-0.131
		l-0.508-0.189c-1.945-0.722-3.956-1.469-6.06-1.911c-0.982-0.202-2.036-0.323-3.223-0.37l-0.513,1.88
		c0.772,0.415,1.384,0.888,1.878,1.455c2.202,2.471,2.594,8.195,2.319,11.439c-0.016,0.178-0.132,0.198-0.182,0.198
		c-0.029,0-0.063,0-0.101-0.121c-0.424-1.298-0.534-2.732-0.651-4.25c-0.156-2.032-0.318-4.133-1.279-6.025
		c-1.391-2.729-4.478-3.737-6.681-4.259l-0.18-0.042l-0.184,0.024c-1.328,0.178-2.666,0.404-3.959,0.623
		c-0.702,0.119-1.403,0.238-2.105,0.35l-3.375,0.537l3.132,1.367c1.557,0.679,2.698,1.475,3.491,2.432
		c1.914,2.308,3.211,7.618,1.18,9.765l0.001-0.234c0.011-4.003,0.024-8.54-4.261-11.004c-0.949-0.549-1.936-0.948-2.892-1.333
		c-0.686-0.277-1.332-0.538-1.953-0.847l-0.23-0.114l-0.257,0.011c-0.37,0.016-0.739,0.024-1.109,0.024
		c-1.568,0-2.981-0.153-4.32-0.469c-2.911-0.684-5.691-2.276-8.634-3.961c-3.963-2.27-8.062-4.618-12.605-4.618
		c-0.569,0-1.142,0.038-1.702,0.112c-3.136,0.417-5.124,2.295-7.047,4.11c-1.165,1.1-2.265,2.139-3.613,2.885
		c-1.545,0.852-3.223,1.368-5,1.915c-1.627,0.501-3.31,1.019-4.893,1.82c-3.573,1.822-6.525,4.587-9.38,7.262
		c-2.609,2.445-5.308,4.974-8.442,6.726c-0.693,0.387-1.396,0.763-2.101,1.139c-2.244,1.199-4.565,2.439-6.614,4.081
		c-4.351,3.46-4.845,7.438-5.067,12.68c-0.258,6.062-2.281,11.07-4.422,16.371c-0.93,2.301-1.891,4.68-2.729,7.205
		c-2.285,6.879-3.53,14.188-3.6,21.134c-0.046,4.16,0.842,8.23,1.699,12.167c0.651,2.985,1.324,6.073,1.563,9.123
		c0.779,9.906-3.177,20.428-10.324,27.459c-6.067,5.973-15.553,9.539-25.374,9.539c-4.395,0-8.732-0.729-12.545-2.106
		c-13.216-4.775-19.982-17.352-26.526-29.515l-0.533-0.99c-7.735-14.353-16.825-28.044-25.616-41.284l-1.311-1.974
		c-3.228-4.867-6.981-11.401-7.354-18.789c-0.287-5.513,0.9-11.104,3.737-17.598l0.068-0.157l0.045-0.609
		c0.383-5.227,0.745-10.163,1.85-15.367c1.383-6.505,3.173-13.478,5.471-21.318c0.808-2.771,1.893-5.706,3.043-8.813
		c4.463-12.067,9.521-25.745,0.369-36.166c-8.93-10.171-21.988-16.547-35.712-22.712c-6.545-2.941-13.563-5.909-22.754-9.625
		c-1.74-0.705-3.502-1.383-5.269-2.063c-4.046-1.557-8.23-3.167-12.119-5.115l-0.094-0.046l-0.1-0.027
		c-4.215-1.108-8.455-2.56-12.557-3.963c-2.026-0.693-4.044-1.383-6.051-2.032c-2.853-0.922-5.698-1.866-8.545-2.81
		c-5.153-1.708-10.481-3.475-15.771-5.085c-16.523-5.021-32.282-7.581-48.177-7.824c-0.912-0.014-1.819-0.02-2.731-0.02
		c-25.471,0-51.696,5.249-77.95,15.6l0.619,1.898c13.279-3.462,26.843-5.602,38.359-7.238c13.57-1.928,25.413-2.865,36.205-2.865
		c3.986,0,7.921,0.129,11.696,0.382c27.494,1.855,51.443,12.374,78.943,27.597c9.009,4.987,18.143,10.113,26.977,15.069
		c4.505,2.528,9.011,5.057,13.52,7.579c2.014,1.124,4.124,2.221,6.164,3.282c4.413,2.293,8.977,4.665,12.972,7.519
		c3.803,2.718,5.234,6.19,4.639,11.26c-1.251,10.656-5.123,21.195-8.868,31.388c-1.106,3.012-2.25,6.126-3.295,9.163
		c-4.85,14.095-9.553,29.167-9.174,44.83c0.339,13.91,5.962,25.342,11.915,37.446c0.816,1.659,1.636,3.324,2.444,5.004
		c5.3,10.986,9.809,22.762,6.948,34.438l-0.082,0.335l0.143,0.314c0.482,1.069,0.947,1.995,1.42,2.829
		c3.395,6.034,9.163,10.287,17.642,13.004c0.52,0.163,0.451,0.713,0.441,0.775c-0.048,0.312-0.226,0.471-0.546,0.471
		c-3.646-0.092-7.121-1.074-10.326-2.917l-3.067-1.764l1.689,3.108c1.733,3.187,4.657,5.432,8.7,6.682
		c-0.262,0.021-0.522,0.032-0.776,0.032c-2.895,0-5.458-1.333-7.411-3.85c-1.125-1.467-1.842-3.275-2.475-4.871
		c-0.144-0.36-0.322-0.742-0.508-1.138c-0.218-0.464-0.442-0.943-0.613-1.407l-0.079-0.216l-0.166-0.16
		c-2.8-2.694-5.099-6.128-6.646-9.924c-0.454-1.125-0.889-2.247-1.321-3.361c-0.328-0.846-0.654-1.688-0.986-2.524l-0.279-0.704
		l-0.753,0.078c-1.022,0.105-2.125,0.153-3.574,0.153c-0.622,0-1.245-0.008-1.869-0.017c-0.634-0.008-1.268-0.017-1.902-0.017
		c-1.639,0-2.892,0.059-4.063,0.191c-3.346,0.379-6.914,1.047-10.913,2.044c-2.651,0.67-5.312,1.484-8.13,2.488l-0.058,0.02
		l-0.054,0.027c-2.075,1.035-4.256,1.991-6.365,2.916c-2.124,0.931-4.32,1.894-6.425,2.944c-1.615,0.806-3.224,1.628-4.832,2.45
		c-3.277,1.675-6.667,3.408-10.06,4.966c-5.653,2.601-14.175,6.059-22.872,6.059h-0.087l-0.085,0.015
		c-5.348,0.935-10.889,1.446-16.247,1.94c-7.283,0.671-14.814,1.366-22.087,3.133c-14.18,3.45-28.176,9.994-42.789,20.007
		c-12.137,8.319-24.364,18.81-36.343,31.179c-24.835,25.611-35.154,53.803-30.672,83.794c2.671,17.871,10.601,32.939,22.331,42.43
		c11.335,9.175,26.512,15.537,47.762,20.021c14.368,3.039,29.199,4.606,43.542,6.121c15.668,1.656,31.869,3.367,47.438,7.004
		l0.767-1.816c-13.569-8.679-30.005-11.087-45.899-13.415c-2.521-0.369-5.037-0.738-7.534-1.13l-0.165-0.026l-0.164,0.029
		c-2.354,0.416-4.928,0.626-7.649,0.626c-7.416,0-15.97-1.495-26.149-4.569c-11.13-3.352-21.059-8.608-29.509-15.622
		c-14.53-12.047-24.375-31.386-27.72-54.454c-2.611-18.016,3.107-36.534,15.69-50.806c13.476-15.293,32.805-22.722,54.832-30.194
		c11.04-3.745,22.577-6.371,34.29-7.804c5.147-0.631,11.935-1.355,18.788-1.355c5.705,0,10.756,0.488,15.441,1.491l0.749,0.16
		l0.35-0.682c2.061-4.021,4.64-7.729,7.667-11.019l0.394-0.513l-0.194-0.513c-0.086-3.432,4.482-7.581,7.222-10.069l0.719-0.655
		c3.379-3.103,7.846-6.773,12.585-7.793c-1.748,1.537-3.723,2.898-5.636,4.217c-2.185,1.505-4.443,3.061-6.45,4.922
		c-0.467,0.428-0.945,0.932-1.506,1.588l1.326,1.474c2.95-2.024,6.072-3.705,9.321-5.008c0.031,0,0.176,0.125,0.223,0.343
		c0.042,0.191-0.022,0.22-0.05,0.232c-17.927,8.29-28.775,24.946-29.02,44.555c-0.034,2.722,0.018,5.507,0.066,8.201
		c0.264,14.42,0.513,28.042-10.806,38.218c-4.585,4.125-7.363,7.715-7.996,13.861c-0.37,3.593-0.337,7.273-0.304,10.833
		c0.009,1.02,0.018,2.038,0.018,3.05c0,9.507,0.052,20.575,0.671,31.614c0.102,1.879,0.22,3.759,0.339,5.642l0.173,2.774
		c0.038,0.649,0.042,1.372,0.047,2.126c0.015,2.247,0.031,4.793,0.898,6.723c1.726,3.859,5.968,4.305,9.008,4.305
		c1.498,0,3.015-0.126,4.352-0.237c0.896-0.074,1.732-0.144,2.466-0.167c0.348-0.012,0.711-0.016,1.086-0.016
		c0.782,0,1.616,0.02,2.479,0.04c0.945,0.022,1.926,0.046,2.913,0.046c3.245-0.001,6.925-0.222,9.614-1.869
		c2.654-1.639,4.016-5.013,3.311-8.206c-1.093-4.954-5.796-6.286-9.575-7.357c-0.156-0.044-0.185-0.252-0.183-0.328
		c0.005-0.165,0.076-0.182,0.127-0.193c0.666-0.147,1.345-0.222,2.019-0.222c2.099,0,4.155,0.708,5.947,2.047l1.408,1.052
		l0.185-1.748c0.427-4.04-1.48-7.679-5.664-10.815c-1.877-1.405-3.738-3.077-4.642-5.766c-1.559-4.68-1.149-11.142,1.255-19.755
		c1.975-7.061,5.324-13.063,9.688-17.356c4.544-4.471,10.45-7.071,16.162-9.585c1.198-0.527,2.395-1.054,3.583-1.598
		c25.776-11.808,44.077-37.588,48.66-68.056c-0.009,0.673-0.026,1.358-0.055,2.056l1.959,0.319c0.609-2.097,1.2-4.459,1.479-7.088
		c0.31,4.9-0.287,11.115-4.186,15.495l-0.188,0.211l-0.05,0.278c-0.382,2.14-0.808,4.083-1.302,5.938l-0.313,1.175l1.214,0.08
		c1.961,0.129,3.948,0.335,5.871,0.534c3.23,0.335,6.571,0.681,9.926,0.68c1.01,0,1.997-0.031,2.936-0.094
		c3.43-0.23,6.911-0.846,10.64-1.884c0.356-0.099,0.689-0.196,1.007-0.289c1.183-0.346,2.037-0.596,3.028-0.596
		c0.15,0,0.304,0.006,0.461,0.018l0.7,0.054l0.289-0.641c0.754-1.674,1.621-3.34,2.578-4.95l0.202-0.362l-0.065-0.273
		c0.174-1.315,0.379-2.567,0.615-3.756l1.552,0.785c1.52-2.22,3.18-4.39,4.828-6.436c-4.405,6.24-8.183,12.575-9.933,19.546
		c-2.185,8.687,0.427,15.612,3.193,22.944c0.498,1.32,1.005,2.664,1.494,4.044c5.497,15.518,7.297,31.978,8.796,48.884l0.223,2.509
		c0.699,7.816,1.422,15.898,0.956,23.806c-0.202,3.49-0.785,6.772-1.401,10.246l-0.316,1.792c-0.043,0.248-0.094,0.513-0.146,0.789
		c-0.327,1.712-0.734,3.842-0.056,5.514c1.166,2.9,4.646,3.799,7.189,4.456l0.789,0.207c9.313,2.506,19.14,2.745,28.41,2.774
		c0.325,0,0.668,0.008,1.021,0.016c0.391,0.009,0.794,0.018,1.201,0.018c2.017,0,4.286-0.218,5.84-1.832
		c1.24-1.293,1.706-3.184,1.346-5.468l-0.023-0.153l-0.069-0.139c-0.041-0.081-0.059-0.173-0.056-0.274l0.005-0.133l-0.029-0.13
		c-0.171-0.736-0.419-1.464-0.716-2.101c-2.421-5.276-8.172-7.155-12.746-7.155c-0.225,0-0.449,0.004-0.729,0.014
		c-0.624,0-0.732-0.479-0.741-0.765c-0.011-0.368,0.165-1.003,0.899-1.049c0.332-0.02,0.665-0.031,0.998-0.031
		c5.451,0,10.716,2.762,13.414,7.037l1.127,1.786l0.668-2.003c0.954-2.864,0.679-5.76-0.775-8.157
		c-1.275-2.09-3.288-3.252-5.234-4.376c-0.892-0.515-1.733-1.001-2.493-1.565c-2.779-2.065-4.86-4.86-6.36-8.546
		c-3.261-7.969-3.828-17.396-4.376-26.514c-0.097-1.615-0.192-3.206-0.302-4.756l-0.064-0.925
		c-0.386-5.591-0.786-11.372-0.16-16.947c0.432-3.939,1.524-7.831,2.58-11.595c0.51-1.816,1.037-3.694,1.488-5.57
		c3.089-12.813,3.269-27.175,0.52-41.533c-0.018-0.094,0.005-0.123,0.018-0.138c0.022-0.027,0.058-0.05,0.102-0.05
		c0.027,0,0.059,0.01,0.092,0.034c0.545,2.043,1.027,4.143,1.435,6.243l1.979-0.119c0.3-4.148,0.26-7.683-0.138-11.102
		c1.368,3.705,1.999,7.819,1.753,11.656l-0.22,3.433l2.026-2.78c0.922-1.266,1.919-2.522,2.882-3.738
		c1.295-1.633,2.519-3.176,3.53-4.684c3.974-5.927,7.222-11.243,9.93-16.252c6.244-11.565,10.537-24.388,13.125-39.202
		c0.964-5.492,1.735-11.099,2.482-16.522c1.045-7.583,2.124-15.425,3.74-23.023c2.251-10.555,5.213-22.492,11.91-30.549l0.434-0.521
		l-0.323-0.595c-4.242-7.825-4.465-17.14-0.617-25.572c0.005,0.002,0.01,0.004,0.015,0.006
		c-4.822,12.885,0.629,27.718,12.712,34.542c5.802,3.279,11.643,3.699,16.083,3.699c2.467,0,4.984-0.151,7.419-0.296
		c2.447-0.146,4.977-0.298,7.47-0.298c1.873,0,3.552,0.085,5.13,0.259c4.799,0.535,9.549,1.813,14.142,3.049l1.991,0.534
		c4.955,1.32,9.9,1.798,14.684,2.261c1.955,0.189,3.978,0.384,5.989,0.635c2.298,0.29,5.402,1.385,8.69,2.544
		c4.758,1.678,10.15,3.58,14.672,3.579c4.911,0,8.14-2.274,9.594-6.757l0.234-0.723l-0.634-0.419
		c-6.198-4.099-14.181-6.429-21.223-8.484c-1.049-0.306-2.082-0.607-3.094-0.91c-1.884-0.561-3.77-1.109-5.655-1.658
		c-6.086-1.769-12.378-3.598-18.423-5.841c-3.242-1.201-6.484-2.748-9.621-4.246c-4.411-2.105-8.973-4.282-13.72-5.601
		c-1.198-0.331-2.483-0.551-3.726-0.763c-3.915-0.669-7.612-1.301-8.827-5.233c-0.104-0.331,0.019-0.599,0.141-0.765
		c0.204-0.279,0.532-0.452,0.856-0.452c0.079,0,0.159,0.011,0.232,0.031c4.272,1.179,8.97,1.777,13.962,1.777
		c11.515,0,23.299-3.112,33.441-6.029l0.209-0.061c6.167-1.771,12.543-3.602,18.92-3.602h0.199c0.989,0.006,2.204,0.081,3.49,0.161
		c1.649,0.102,3.519,0.218,5.382,0.218c3.355,0,8.137-0.326,10.897-3.139l0.162-0.165l0.073-0.219
		C509.987,167.746,509.397,161.86,506.57,156.998z M296.881,317.852c-1.143,1.472-2.323,2.993-3.288,4.68
		c-1.16,2.021-2.122,3.976-2.869,5.831c1.654-7.033,4.534-11.636,8.689-13.976C298.652,315.571,297.788,316.684,296.881,317.852z
		 M446.922,161.109c-0.581,0.168-1.156,0.251-1.857,0.251c-0.003,0-1.123-0.017-1.123-0.017l0.102,1.109
		c0.064,0.678,0.025,1.51-0.111,2.401c-0.431,2.728-1.365,4.483-2.785,5.234c0.052-0.105,0.106-0.216,0.163-0.333
		c1.373-2.798,2.705-5.704,2.608-7.781l-0.031-0.661l-0.619-0.23c-0.094-0.035-0.188-0.058-0.306-0.085l-0.739-0.213l-0.395,0.667
		c-1.326,2.245-4.49,3.873-7.522,3.873c-0.631,0-1.229-0.072-1.777-0.213c-1.759-0.453-3.633-2.075-4.663-4.037l-1.886,0.455
		c-0.022,2.298,0.262,4.647,2.483,6.271c1.583,1.143,3.421,1.421,5.198,1.69c0.364,0.055,0.721,0.109,1.068,0.169
		c-0.519,0.088-1.047,0.134-1.572,0.134c-2.204,0-4.206-0.752-5.638-2.117c-1.786-1.704-2.192-4.81-1.804-7.131l0.335-1.997
		l-1.79,0.949c-0.764,0.405-1.662,0.872-2.602,1.324c1.334-3.629,5.743-5.713,9.44-6.126c0.391-0.043,0.791-0.065,1.188-0.065
		c3.498,0,6.659,1.641,10.006,3.378c1.472,0.764,2.993,1.554,4.527,2.178c0.286,0.118,0.426,0.392,0.415,0.602
		C447.23,160.902,447.188,161.031,446.922,161.109z M498.56,165.986c-0.432,0.424-1.002,0.667-1.564,0.667
		c-0.397,0-0.779-0.123-1.113-0.363c-0.228-0.16-0.473-0.408-0.686-0.7l-0.056-0.078l-0.07-0.065
		c-0.474-0.439-0.732-1.102-0.711-1.804c0.042-0.957,0.637-2.304,1.83-2.304v-1l0.04,1c1.078,0.022,2.201,0.72,2.732,1.698
		C499.506,164.038,499.346,165.222,498.56,165.986z M502.799,161.639c-0.126-0.286-0.245-0.594-0.368-0.911
		c-0.452-1.167-0.965-2.489-2.094-3.318c-0.798-0.578-1.857-0.859-3.239-0.859c-1.185,0-2.405,0.202-3.482,0.38
		c-0.395,0.065-0.766,0.127-1.095,0.171c-0.004-0.023-0.007-0.049-0.006-0.072c0.521-0.092,1.066-0.21,1.627-0.331
		c1.291-0.28,2.626-0.569,3.868-0.569c1.151,0,2.07,0.256,2.811,0.784C502.228,157.915,502.987,159.8,502.799,161.639z"/>
	<path style="fill:#FF8F6B;" d="M376.927,413.65c0.963-6.472,1.959-13.165,2.232-19.858c0.369-8.911-1.569-16.094-3.763-23.273
		l-0.451-1.477l-1.163,1.016c-1.173,1.025-2.432,2.06-3.844,3.161c-5.941,4.588-12.558,8.267-19.667,10.935l-0.158,0.059
		c-1.902,0.709-4.27,1.591-6.762,2.341l-1.021,0.307l0.371,0.999c3.4,9.156,4.441,19.347,5.06,28.995
		c0.331,5.264,0.455,10.632,0.574,15.823l0.064,2.778c0.034,1.467,0.133,2.995,0.228,4.473c0.212,3.304,0.431,6.721-0.018,9.872
		l-0.05,0.349l0.181,0.303c0.439,0.738,0.748,1.395,0.972,2.065l0.295,0.885l0.903-0.233c0.567-0.146,1.211-0.221,1.912-0.221
		c3.06,0,6.123,1.343,6.987,1.754c3.841,1.833,6.658,5.021,8.862,10.025c0.221,0.51,0.329,1.437-0.322,1.754
		c-0.904,0.443-1.897,0.882-3.033,1.341l-2.753,1.111l2.864,0.781c3.982,1.086,9.198,2.332,14.236,2.332
		c0.869,0,1.722-0.037,2.535-0.11c2.928-0.262,5.813-0.98,7.078-4.429c0.903-2.438,0.468-5.201-1.135-7.211
		c-2.441-3.062-5.863-3.29-9.173-3.51c-0.611-0.041-1.225-0.082-1.831-0.141c-0.165-0.017-0.257-0.075-0.271-0.173
		c-0.008-0.055-0.002-0.193,0.228-0.286c1.432-0.581,2.939-0.876,4.479-0.876c2.91,0,5.761,1.075,7.822,2.95l1.507,1.37l0.163-2.03
		c0.398-4.978-1.76-8.299-6.603-10.155c-2.422-0.938-4.514-1.748-6.06-3.762c-4.31-5.637-3.654-13.999-2.702-21.395
		C376.07,419.405,376.506,416.479,376.927,413.65z"/>
	<path style="fill:#FF8F6B;" d="M293.379,100.725c1.433-3.898,2.671-7.264,0.271-12.221c-0.941-1.943-2.249-3.756-3.513-5.508
		c-0.268-0.371-0.532-0.738-0.791-1.104c-6.69-9.444-15.602-18.378-26.486-26.551c-19.349-14.54-43.052-26.618-70.45-35.898
		c-23.146-7.83-46.452-12.1-69.274-12.692l-0.329,1.953c8.996,2.857,17.958,6.739,26.626,10.494
		c3.899,1.689,7.932,3.436,11.878,5.049c15.366,6.287,29.198,12.015,42.884,18.45c15.283,7.178,28.593,14.122,40.686,21.227
		c9.196,5.416,19.271,11.956,22.413,21.054l0.065,0.19l0.134,0.15c0.866,0.97,1.538,1.77,2.114,2.515
		c7.905,10.264,3.607,22.209-0.549,33.761c-0.78,2.169-1.518,4.218-2.181,6.27c-2.467,7.598-4.694,15.417-6.62,23.241
		c-0.443,1.816-0.87,3.638-1.297,5.46c-0.564,2.409-1.129,4.817-1.73,7.208c-0.185,0.722-0.39,1.434-0.614,2.136l-0.108,0.438
		l0.192,0.369c-0.284,1.353-0.594,2.703-0.902,4.05c-1.788,7.813-3.638,15.892-0.43,24.032c2.266,5.76,5.979,10.925,9.568,15.92
		c1.295,1.802,2.635,3.665,3.86,5.499c5.863,8.794,11.101,18.117,16.166,27.133l1.835,3.263l1.8-0.86l-0.194-0.489
		c-0.402-1.01-0.802-2.012-1.181-3.011c-4.624-12.029-7.745-25.309-9.279-39.468c-2.703-25.005,0.139-52.239,8.446-80.944
		C288.337,115.117,290.622,108.21,293.379,100.725z"/>
	<path style="fill:#FF8F6B;" d="M184.731,426.148c-0.034,0.813-0.06,1.663-0.086,2.538c-0.149,5.003-0.319,10.672-2.254,14.876
		l-0.312,0.676l0.559,0.492l0.223,0.19c0.088,0.073,0.175,0.146,0.27,0.236c1.689,1.556,2.927,3.563,3.578,5.803l0.312,1.075
		l1.033-0.431c1.162-0.484,2.51-0.73,4.004-0.73c2.41,0,5.014,0.646,7.143,1.77c3.405,1.807,6.188,5.176,7.263,8.8
		c0.104,0.339,0.226,0.82,0.339,1.347l0.185,0.86l0.876-0.073c0.725-0.06,1.496-0.089,2.357-0.089c1.184,0,2.355,0.054,3.597,0.111
		l0.453,0.021c0.579,0.029,1.205,0.083,1.858,0.14c1.115,0.096,2.379,0.205,3.613,0.205c1.813,0,4.443-0.197,6.345-1.898
		c1.464-1.31,2.186-3.137,2.035-5.143c-0.194-2.576-1.771-5.19-4.016-6.659c-2.689-1.759-5.626-1.866-8.465-1.97
		c-0.973-0.036-1.978-0.072-2.948-0.178c-0.151-0.016-0.181-0.117-0.184-0.128c-0.002-0.01-0.008-0.034,0.077-0.089
		c1.669-1.09,3.677-1.666,5.806-1.666c2.585,0,5.229,0.83,7.446,2.336l1.283,0.873l0.264-1.53c0.476-2.762,0.665-5.966-3.128-9.038
		c-2.051-1.656-4.431-2.608-6.731-3.528c-0.531-0.213-1.063-0.425-1.59-0.646c-4.4-1.843-7.748-3.778-9.784-7.234
		c-5.08-8.656,0.155-17.802,5.284-24.803l0.903-1.233l-1.491-0.334c-1.535-0.343-2.926-0.732-4.242-1.185
		c-0.223-0.08-1.004-0.424-1.832-0.789c-3.928-1.731-5.089-2.179-5.647-2.179l-0.284,0.009l-0.205,0.099
		c-1.389,0.667-3.024,1.471-4.627,2.379c-3.858,2.165-7.177,5.032-9.862,8.522l-0.296,0.384l0.118,0.47
		c1.295,5.155,1.033,11.128,0.802,16.397L184.731,426.148z"/>
</g>
<path style="fill:#FFC280;" d="M414.84,216.862c-2.028,0-3.834-0.13-5.523-0.399c-5.928-0.939-11.742-3.72-16.375-7.833
	c-0.404-0.357-0.779-0.722-1.154-1.097l-1.003,0.762c-0.648-1.252-1.22-2.521-1.696-3.804l-0.051-0.136l-0.087-0.116
	c-0.231-0.308-0.454-0.616-0.666-0.925l-1.034-1.509l-0.712,1.686c-0.632,1.499-1.294,2.982-1.956,4.466
	c-0.552,1.237-1.097,2.478-1.632,3.723l-0.02-0.057l-0.997,2.461c-0.704,1.737-1.277,3.288-1.754,4.745
	c-0.672,2.056-1.32,4.332-2.022,7.099l-0.031-0.063l-0.63,2.696c-0.693,2.966-1.33,6.111-1.892,9.347
	c-0.353,2.032-0.656,3.998-0.915,5.715l-0.005-0.006l-0.118,0.83l-0.029,0.199l0.001,0.001l-0.168,1.182
	c-0.502,3.53-0.955,7.128-1.393,10.607l-0.069,0.547l-0.001-0.001l-0.309,2.421c-0.581,4.557-1.23,9.441-2.044,14.271l-0.022,0.132
	l-0.011-0.011l-0.329,1.924c-0.128,0.749-0.257,1.499-0.394,2.233c-0.377,1.964-0.844,4.064-1.469,6.61l-0.094,0.381l0.009,0.016
	l-0.471,1.765c-0.792,2.976-1.736,6.016-2.806,9.033l-0.135,0.38l0.014,0.03l-0.366,1.001c-1.258,3.439-2.705,6.896-4.426,10.569
	l-0.134,0.285l0.004,0.026l-0.744,1.525c-0.848,1.737-1.659,3.322-2.48,4.843c-1.191,2.2-2.534,4.524-4.105,7.106l-0.177,0.291
	l0.004,0.034l-0.79,1.265c-1.75,2.8-3.542,5.544-5.328,8.155c-0.686,1.004-1.357,2.08-2.066,3.22
	c-0.284,0.456-1.03,1.643-1.03,1.643l0.001,0.024l-0.943,1.426c-1.527,2.309-3.615,5.159-6.292,6.748l-0.796,0.22l0.065,0.823
	c0.579,7.265,0.3,14.567-0.83,21.704l-0.027,0.17l0.031,0.17c0.148,0.792,0.299,1.589,0.455,2.387l-0.952-0.007
	c-0.421,2.097-0.932,4.224-1.425,6.28c-0.643,2.673-1.306,5.438-1.79,8.205l-0.264,1.508l1.487-0.365
	c1.139-0.279,2.308-0.436,3.545-0.601c0.915-0.122,1.861-0.249,2.782-0.428l0.477-0.1l1.49-0.277l-0.021-0.033l0.168-0.038
	c2.796-0.627,5.628-1.45,8.425-2.447c1.972-0.721,3.954-1.546,5.89-2.453l1.008-0.472l-0.006-0.01l0.459-0.228
	c4.649-2.305,9.073-5.112,13.146-8.342c0.984-0.78,2.007-1.643,3.124-2.637l0.24-0.214l0.002,0.002l0.093-0.086l0.527-0.47
	l-0.011-0.009l0.234-0.217c4.797-4.447,9.29-9.769,13.735-16.269l0.178-0.26l0.001,0.001l0.121-0.18l0.337-0.493l-0.005-0.003
	l0.143-0.213c3.224-4.815,6.152-9.825,8.348-13.66l0.126-0.152l0.045-0.088c0.721-1.404,1.461-2.938,2.329-4.829l0.521-1.134
	l-0.015-0.003l0.131-0.3c2.615-5.987,4.432-11.678,5.556-17.397c0.349-1.773,0.662-3.648,0.958-5.733l0.082-0.582h0.003l0.039-0.301
	l0.01-0.069h-0.001l0.078-0.6c0.808-6.205,1.184-12.518,1.444-17.885l0.004,0.001l0.221-4.926c0.079-1.83,0.158-3.658,0.248-5.48
	l0.018-0.377h0.001l0.011-0.246l0.019-0.382h-0.002l0.029-0.622c0.027-0.593,0.056-1.185,0.092-1.776
	c0.217-3.935,0.455-7.359,0.729-10.468l0.1-1.132h-0.004l0.034-0.35c0.402-4.148,0.879-7.753,1.459-11.021l0.16-0.898l0.138-0.717
	c0.507-2.622,1.121-5.15,1.826-7.513l0.101-0.336l0.004,0.001l0.31-0.966c0.986-3.077,2.075-5.77,3.329-8.232l0.381-0.748
	l0.314-0.574c2.49-4.543,5.495-8.295,9.186-11.473l2.265-1.95l-2.982,0.194c-1.071,0.07-2.143,0.154-3.213,0.239
	c-2.497,0.197-5.079,0.401-7.601,0.401L414.84,216.862L414.84,216.862z"/>
<g>
	<path style="fill:#736472;" d="M307.103,78.731l0.08,0.214c1.965,5.242,3.996,10.663,7.251,15.41
		c3.917,5.715,9.289,10.171,14.484,14.481c3.036,2.519,6.177,5.124,8.951,7.928c0.436,0.439,0.868,0.887,1.303,1.336
		c0.875,0.906,1.779,1.842,2.727,2.722l0.07,0.065l0.082,0.05c2.169,1.351,4.447,2.62,6.649,3.845
		c3.374,1.878,6.863,3.82,9.93,6.055l1.061,0.768c5.516,3.986,12.313,8.899,12.36,15.818c-3.109-6.123-8.31-11.623-15.857-16.78
		l-1.376,1.41c0.999,1.389,1.945,2.836,2.861,4.236l0.595,0.908c5.081,7.751,9.411,16.414,12.868,25.749l0.476,1.284l1.078-0.844
		c2.35-1.838,4.979-3.372,7.523-4.855c3.477-2.028,7.073-4.126,10.173-7.089c3.209-3.068,6.185-5.72,10.103-7.11
		c1.11-0.393,2.168-0.719,3.19-1.034c3.533-1.087,6.584-2.027,9.793-5.034c0.469-0.444,1.007-0.886,1.694-1.39l0.856-0.628
		l-0.679-0.817c-3.358-4.043-7.221-8.111-12.692-10.478c-2.958-1.283-6.095-2.109-9.128-2.908c-2.764-0.728-5.621-1.48-8.281-2.57
		c-7.959-3.252-15.224-8.103-22.248-12.793c-2.258-1.508-4.593-3.067-6.921-4.554c-5.33-3.406-11.1-6.085-16.68-8.677
		c-5.416-2.515-11.017-5.116-16.133-8.355c-5.168-3.281-9.713-7.631-14.107-11.839c-1.35-1.292-2.7-2.584-4.07-3.851l-1.583,1.162
		l0.233,0.494C304.916,73.549,306.132,76.12,307.103,78.731z M368.92,130.1c-3.931-3.181-7.806-6.502-11.563-9.722
		c-5.971-5.118-12.097-10.368-18.604-15.192C350.057,111.62,362.021,119.064,368.92,130.1z"/>
	<path style="fill:#736472;" d="M393.509,459.331l1.478-0.312c0.691-0.146,1.415-0.22,2.151-0.22c1.502,0,2.915,0.314,3.869,0.855
		c0.556,0.324,1.062,0.73,1.547,1.243l0.602,0.635l0.709-0.51c1.026-0.738,2.122-1.163,3.282-1.612
		c0.437-0.169,0.878-0.34,1.325-0.53l0.827-0.352l-0.263-0.86c-0.843-2.764-3.922-5.094-6.531-5.967
		c-1.033-0.342-2.109-0.515-3.199-0.515c-1.563,0-3.175,0.337-5.072,1.06l-0.833,0.318l0.221,0.864
		c0.386,1.516,0.447,3.045,0.178,4.421L393.509,459.331z"/>
	<path style="fill:#736472;" d="M391.154,469.97l1.746-0.338c1.174-0.228,2.386-0.343,3.6-0.343c1.95,0,3.88,0.292,5.734,0.867
		l1.481,0.459l-0.193-1.539c-0.335-2.67-1.217-6.161-3.515-7.628c-0.801-0.512-1.667-0.761-2.645-0.761
		c-1.073,0-2.099,0.301-3.09,0.591c-0.44,0.129-0.881,0.259-1.319,0.357l-0.992,0.221l0.236,0.988
		c0.416,1.738,0.273,3.575-0.425,5.46L391.154,469.97z"/>
	<path style="fill:#736472;" d="M348.881,462.36l1.615-0.155c0.466-0.045,0.939-0.067,1.408-0.067c1.835,0,3.591,0.339,5.079,0.98
		c1.536,0.663,2.775,1.664,3.787,3.059l0.491,0.676l0.752-0.363c1.125-0.542,2.191-1.014,3.26-1.442l0.929-0.373l-0.374-0.929
		c-1.298-3.222-3.872-5.978-7.058-7.56c-1.865-0.94-3.784-1.108-5.64-1.269c-0.561-0.049-1.12-0.098-1.673-0.169l-1.178-0.152
		l0.051,1.187c0.072,1.699-0.218,3.403-0.863,5.065L348.881,462.36z"/>
	<path style="fill:#736472;" d="M346.02,471.464l1.544,0.026c4.061,0.068,8.226,0.466,12.376,1.185l1.531,0.265l-0.393-1.503
		c-0.184-0.7-0.41-1.377-0.675-2.012l-0.076-0.183l-0.14-0.14c-0.194-0.194-0.333-0.47-0.381-0.757l-0.031-0.185l-0.096-0.162
		c-1.066-1.792-2.572-3.011-4.473-3.62c-1.014-0.327-2.107-0.486-3.343-0.486c-1.17,0-2.332,0.14-3.533,0.285l-0.954,0.115
		l0.076,0.957c0.142,1.763-0.128,3.429-0.778,4.816L346.02,471.464z"/>
</g>
<path style="fill:#FFC280;" d="M255.946,344.401l-0.806-0.12l-0.001,0.003l-0.459-0.08c-1.313-0.228-2.382-0.44-3.364-0.669
	l-0.897-0.208l-0.281,0.877c-3.254,10.129-8.8,19.945-16.036,28.385l-0.184,0.214l-0.018,0.109l-2.053,2.206
	c-3.97,4.269-8.336,8.099-12.976,11.385l-0.308,0.218l-0.023,0.098l-1.636,1.035c-0.12,0.077-0.66,0.436-0.66,0.436
	c-3.926,2.552-8.241,4.488-12.414,6.36l-3.43,1.541l2.832,0.689c0.858,0.209,1.713,0.438,2.563,0.667
	c1.025,0.276,2.045,0.55,3.061,0.786c2.916,0.667,5.948,1.295,9.268,1.918l0.893,0.168l0.005,0.028l0.716,0.11
	c0.124,0.019,0.248,0.043,0.371,0.067c0.133,0.026,0.264,0.051,0.379,0.07c5.593,0.975,11.34,1.669,17.083,2.062l1.935,0.133
	l-0.012-0.02c2.814,0.166,5.443,0.262,8.011,0.29c0.533,0.007,1.063,0.011,1.594,0.011c0.865,0,1.729-0.009,2.596-0.021l1.614-0.023
	l-0.004-0.009c5.079-0.114,10.092-0.448,14.899-0.994l0.976-0.111v0.001l0.045-0.006l0.632-0.072l-0.006-0.009l0.037-0.005
	c1.559-0.201,3.107-0.403,4.655-0.644c2.042-0.316,4.196-0.7,6.779-1.207l1.354-0.266l-0.013-0.024l1.156-0.238
	c0.799-0.161,1.599-0.323,2.393-0.509c0.916-0.208,1.822-0.476,2.699-0.734c1.753-0.518,3.409-1.006,5.054-1.031l1.144-0.017
	l-0.169-1.13c-0.373-2.497-0.799-5.01-1.268-7.472c-1.469-7.613-3.817-14.531-6.304-21.855c-0.604-1.782-1.212-3.571-1.809-5.378
	c-1.995-6.047-1.998-12.004-0.008-18.211l0.82-2.559l-2.293,1.4c-1.416,0.864-3.339,1.519-5.876,2.001l-0.626,0.119l-0.002,0.008
	l-0.713,0.106c-1.471,0.22-2.888,0.365-4.138,0.492l-0.118,0.012c-2.216,0.23-4.544,0.347-6.921,0.347
	c-0.432,0-0.865-0.004-1.298-0.012l-0.319-0.005l-1.256-0.054C260.558,344.964,258.248,344.743,255.946,344.401z"/>
<g>
	<path style="fill:#736472;" d="M241.236,457.931l0.932-0.313c1.077-0.361,2.214-0.545,3.378-0.545c0.249,0,0.499,0.008,0.75,0.025
		l1.158,0.075l-0.098-1.157c-0.314-3.757-1.343-8.991-6.611-11.058c-3.342-1.309-6.448-1.319-9.452-1.329l-1.061-0.003l0.06,1.059
		c0.074,1.346-0.121,2.793-0.615,4.555l-0.422,1.504l1.542-0.247c0.33-0.052,0.683-0.079,1.05-0.079c1.957,0,4.356,0.792,5.83,1.922
		c1.481,1.15,2.508,2.632,3.23,4.665L241.236,457.931z"/>
	<path style="fill:#736472;" d="M195.742,229.917c7.051,0,13.873,1.292,20.277,3.842c10.541,4.198,19.504,11.46,25.236,20.447
		c0.907,1.429,1.731,3.036,2.594,5.057l1.905-0.56c-1.914-11.254-6.786-21.214-11.945-31.758l-1.29-2.641
		c-6.938-14.284-9.688-27.046-8.652-40.164c1.049-13.145,5.049-25.799,9.215-37.516c0.592-1.67,1.188-3.338,1.786-5.007
		c1.861-5.196,3.786-10.57,5.485-15.934c0.295-0.928,0.604-1.873,0.917-2.831c1.7-5.198,3.626-11.089,4.008-16.653l0.244-3.572
		l-2.06,2.928c-5.357,7.614-11.354,15.052-17.154,22.245c-2.959,3.67-6.02,7.465-8.947,11.227
		c-8.687,11.164-18.532,23.817-27.557,36.545c-9.377,13.217-17.023,25.284-23.373,36.889c-3.626,6.635-6.855,13.196-9.598,19.499
		c-1.108,2.532-2.053,5.234-2.967,7.848c-0.579,1.655-1.177,3.366-1.811,5.015l1.58,1.122
		C165.666,235.759,181.013,229.917,195.742,229.917z"/>
	<path style="fill:#736472;" d="M133.403,26.352c0.094,0.148,0.16,0.309,0.205,0.493l0.145,0.6l0.602,0.139
		c4.074,0.94,8.208,2.061,12.288,3.33c7.356,2.29,14.77,4.859,21.941,7.343l3.199,1.108c2.027,0.7,4.087,1.37,6.155,2.043
		c5.68,1.849,11.554,3.761,16.914,6.361l0.061,0.029l0.063,0.021c4.464,1.471,8.915,3.35,13.22,5.167
		c1.49,0.629,2.971,1.254,4.443,1.859c6.529,2.676,14.112,5.815,21.482,9.193c4.379,2.015,9.458,4.387,14.307,7.048l1.035-1.709
		c-3.85-2.561-7.934-4.854-11.882-7.072l-0.191-0.107c-12.352-6.942-25.17-13.501-38.1-19.496
		c-13.691-6.348-27.872-12.18-41.586-17.82l-1.524-0.627c-3.416-1.407-6.957-2.79-10.382-4.127
		c-7.951-3.105-16.173-6.316-23.796-10.19l-1.127,1.631C125.69,15.956,129.907,20.933,133.403,26.352z"/>
	<path style="fill:#736472;" d="M230.235,460.38l-0.45,1.29l2.443,0.069c2.18,0.048,4.38,0.335,6.538,0.852l1.384,0.332
		l-0.156-1.414c-0.385-3.472-1.572-6.023-3.53-7.582c-1.675-1.335-3.511-1.412-5.131-1.479l-1.723-0.074l0.546,1.423
		c0.583,1.518,0.768,3.105,0.554,4.715C230.629,459.095,230.483,459.671,230.235,460.38z"/>
	<path style="fill:#736472;" d="M31.385,61.434c6.795,5.747,12.322,13.473,16.428,22.964c7.826,18.065,9.215,39.307,3.91,59.812
		l-0.658,2.543l2.183-1.462c13.703-9.181,29.31-16.082,42.863-21.83c15.433-6.542,31.263-12.112,47.05-16.559
		c26.588-7.48,48.12-10.964,67.765-10.964c10.158,0,19.959,0.969,29.131,2.881l0.841-1.75c-3.004-2.478-7.122-4.481-10.431-6.091
		c-1.476-0.718-2.869-1.396-3.939-2.006c-5.802-3.311-11.624-6.591-17.447-9.873l-6.302-3.543
		c-10.141-5.706-20.626-11.605-31.043-17.225c-11.527-6.216-25.304-13.106-40.075-17.075c-12.407-3.328-26.167-5.016-40.898-5.016
		l-0.714,0.001c-12.705,0.036-26.577,1.309-42.408,3.893c-5.198,0.851-10.456,1.88-15.54,2.875
		c-7.289,1.427-14.827,2.901-22.287,3.871l-3.56,0.463l3.287,1.444C16.989,52.06,24.794,55.858,31.385,61.434z"/>
	<path style="fill:#736472;" d="M95.121,215.93c0.541-0.089,1.101-0.181,1.376-0.19c0.445-0.012,0.892-0.018,1.337-0.018
		c2.652,0,5.434,0.218,8.266,0.647c6.563,1,12.957,3.17,19.003,6.45c9.467,5.14,17.278,12.697,22.592,21.853l1.12,1.929l0.695-2.119
		c0.948-2.888,2.188-5.754,3.388-8.526c0.389-0.899,0.773-1.789,1.144-2.667c2.817-6.673,6.095-13.495,9.74-20.275
		c6.315-11.734,13.866-23.638,23.763-37.462c8.483-11.856,17.611-23.581,26.233-34.575c2.567-3.272,5.159-6.653,7.665-9.922
		c6.671-8.702,13.568-17.7,20.95-25.885l-1.257-1.527c-3.266,1.96-6.833,3.706-10.282,5.395c-2.404,1.177-4.89,2.394-7.23,3.664
		c-7.03,3.814-14.062,7.846-20.901,11.983c-13.373,8.104-26.571,16.963-39.227,26.332c-22.153,16.401-43.935,35.966-70.622,63.437
		l-1.98,2.038l2.82-0.349C94.17,216.086,94.661,216.005,95.121,215.93z"/>
	<path style="fill:#736472;" d="M90.24,211.025l-0.484,3.372l2.212-2.494c18.679-21.052,41.494-41.503,69.749-62.521
		c12.819-9.532,26.217-18.541,39.821-26.777c6.948-4.216,14.229-8.383,21.637-12.385c1.307-0.705,2.631-1.442,3.97-2.188
		c3.406-1.898,6.929-3.86,10.497-5.47l2.872-1.296l-3.094-0.598c-8.595-1.66-17.746-2.503-27.198-2.503
		c-19.854,0-41.588,3.569-68.397,11.233c-16.448,4.704-32.625,10.472-48.081,17.144c-8.755,3.781-17.354,8.153-25.671,12.382
		c-5.308,2.698-10.796,5.488-16.262,8.093l0.397,1.902c12.128,0.395,22.596,9.175,28.348,17.261
		c7.726,10.855,11.096,26.196,9.748,44.347C90.288,210.696,90.265,210.858,90.24,211.025z"/>
	<path style="fill:#736472;" d="M198.675,465.275l0.791-0.253c1.259-0.404,2.716-0.592,4.584-0.592h1.154l-0.164-1.143
		c-0.026-0.178-0.071-0.352-0.119-0.526l-0.043-0.161l-0.037-0.181c-0.844-3.417-3.359-6.617-6.566-8.35
		c-1.88-1.015-3.786-1.467-6.182-1.467c-1.131,0-2.276,0.101-3.386,0.199l-1.56,0.134l0.055,0.97
		c0.078,1.405-0.034,2.755-0.335,4.011l-0.36,1.505l1.521-0.29c0.539-0.103,1.114-0.155,1.711-0.155c1.9,0,3.883,0.541,5.167,1.409
		c1.17,0.799,2.337,2.237,3.375,4.159L198.675,465.275z"/>
	<path style="fill:#736472;" d="M186.781,468.753l-0.623,1.686l1.762-0.359c1.303-0.266,2.581-0.449,3.71-0.611l0.346-0.05
		c0.813-0.119,1.538-0.177,2.219-0.177c0.626,0,1.224,0.051,1.832,0.164l1.968,0.744l-0.77-2.313
		c-0.086-0.265-0.172-0.529-0.266-0.779l-0.056-0.152c-0.624-1.716-1.331-3.66-2.942-4.981c-1.46-1.188-3.112-1.351-4.68-1.351
		c-0.259,0-1.28,0.017-1.531,0.017h-1.405l0.461,1.328c0.493,1.425,0.678,2.862,0.549,4.268
		C187.267,467.108,187.079,467.948,186.781,468.753z"/>
</g>
<path style="fill:#FFC280;" d="M169.29,324.865l-1.682,0.138c-2.225,0.183-4.459,0.314-6.543,0.428l-0.608,0.033l-0.004,0.008
	l-0.573,0.028c-2.122,0.104-4.241,0.192-6.361,0.279c-1.976,0.082-3.952,0.165-5.93,0.261l0.003-0.004l-0.416,0.022
	c-0.012,0-0.023,0.001-0.035,0.001l-0.518,0.025l-0.002,0.003l-1.144,0.062c-5.298,0.284-9.673,0.682-13.679,1.242l0.022-0.025
	l-1.354,0.216l-0.092,0.014l-0.001,0.001l-1.281,0.204c-5.49,0.875-10.976,1.991-16.33,3.303l0.015-0.026l-2.337,0.601
	c-4.522,1.162-8.932,2.466-13.143,3.875l0.001-0.001l-0.07,0.024c-0.17,0.057-0.345,0.111-0.515,0.169l-0.52,0.182l-1.604,0.543
	c-4.536,1.535-8.976,3.058-13.396,4.752l0.01-0.022l-2.305,0.918c-4.212,1.678-7.913,3.368-11.311,5.146l0.017-0.055l-2.174,1.215
	c-4.973,2.781-9.226,5.801-12.994,9.212l-0.002-0.043l-0.642,0.623l-0.173,0.16v0.008l-0.788,0.766
	c-2.291,2.225-4.274,4.468-6.064,6.858c-1.141,1.527-2.245,3.155-3.363,4.944l-0.014-0.032l-0.483,0.828l-0.181,0.295l0.004,0.007
	l-0.328,0.562c-1.724,2.958-3.209,6.093-4.439,9.32l-0.045-0.072l-0.685,1.978c-1.531,4.414-2.567,9.057-3.079,13.8l-0.083,0.765
	l-0.013,0.001l-0.038,0.471l-0.005,0.043h0.001l-0.025,0.315c-0.239,2.948-0.276,6.017-0.112,9.124l0.046,0.865l-0.009,0.004
	l0.028,0.352l0.03,0.565l0.018-0.012c0.283,3.471,0.816,6.941,1.588,10.299c0.058,0.272,0.124,0.539,0.191,0.804l0.343,1.405
	l-0.01,0.007l0.165,0.66c0.965,3.86,2.098,7.623,3.367,11.184l0.58,1.626l0.024-0.029c1.572,4.156,3.408,8.111,5.456,11.756
	l0.118,0.209l-0.006,0.007l0.355,0.614c0.003,0.006,0.007,0.011,0.01,0.017l0.215,0.382l0.01-0.011
	c1.898,3.234,4.055,6.333,6.428,9.208l0.738,0.894l0.019-0.021c3.117,3.635,6.641,6.936,10.476,9.81l0.27,0.202l-0.014,0.021
	l0.773,0.551c0.669,0.476,1.347,0.952,2.048,1.418c2.287,1.519,4.774,2.974,7.394,4.326l0.032,0.017l-0.002,0.002l0.161,0.08
	l0.586,0.302l0.005-0.008l0.371,0.184c3.855,1.918,8.019,3.596,12.373,4.997l-0.014,0.016l1.529,0.459
	c1.831,0.551,3.612,1.034,5.295,1.436c1.378,0.33,2.838,0.619,4.462,0.884l0.484-1.933c-2.776-0.947-5.62-2.076-8.452-3.355
	l-0.33-0.149l-0.68-0.316c-3.793-1.765-7.409-3.758-10.748-5.922l-0.294-0.191l-1.042-0.7c-2.966-1.994-5.73-4.117-8.217-6.31
	l-0.25-0.188l-0.815-0.749c-2.995-2.752-5.737-5.701-8.155-8.768c-0.085-0.106-0.166-0.218-0.248-0.331l-0.207-0.281l-0.425-0.558
	l-0.009,0.003l-0.437-0.593c-2.066-2.805-3.942-5.75-5.576-8.755l-0.209-0.384l-0.443-0.85c-1.966-3.773-3.6-7.693-4.854-11.65
	l-0.108-0.339l-0.218-0.726c-1.001-3.34-1.747-6.727-2.221-10.07l-0.144-1.174c-0.466-3.812-0.592-7.565-0.375-11.155l0.008,0.002
	l0.1-1.203c0.183-2.181,0.41-3.977,0.716-5.642c0.066-0.334,0.14-0.659,0.214-0.984l0.261-1.17l0.101-0.382
	c0.535-2.026,1.225-3.936,2.048-5.678l0.399-0.846l-0.001-0.001l0.281-0.535c1.332-2.531,3.012-4.879,4.993-6.98l0.47-0.498
	l0.433-0.424c1.875-1.837,4.005-3.508,6.331-4.967l0.898-0.563l0.023,0.015l0.525-0.3c3.106-1.778,6.56-3.27,10.263-4.434
	l1.154-0.363l0.013,0.015l0.613-0.172c2.441-0.687,4.97-1.25,7.515-1.677l1.163-0.195l0.01,0.014l0.595-0.086
	c1.901-0.274,3.839-0.483,5.758-0.622c1.881-0.132,3.886-0.205,6.31-0.228l1.437-0.013l0.405,0.004
	c3.38,0.03,6.75,0.183,10.016,0.457l1.485,0.124l0.009,0.016l0.514,0.049c4.354,0.414,9.037,1.022,14.74,1.912l1.622,0.253
	l0.002,0.004l0.452,0.072c2.109,0.338,4.218,0.686,6.325,1.035c2.508,0.415,5.017,0.829,7.527,1.226l1.143,0.18l0.002,0.006
	l0.608,0.095c3.885,0.604,7.308,1.083,10.463,1.464l1.744,0.211l-0.011-0.024c2.004,0.222,4.033,0.411,6.2,0.578l1.273,0.098
	l-0.16-0.955l1.252,0.124c1.392-3.793,2.193-8.056,2.45-13.036c0.152-3.131,0.157-6.319,0.161-9.401
	c0.003-1.416,0.005-2.832,0.021-4.246l-1.46-0.243c0.43-1.087,0.898-2.089,1.41-2.997l0.12-0.212l0.008-0.244
	c0.19-5.433,0.727-9.578,1.738-13.439c0.627-2.368,1.487-4.786,2.557-7.189L169.29,324.865z"/>
<g>
	<path style="fill:#231F20;" d="M447.205,159.263c-5.269-2.142-10.25-6.223-16.22-5.562c-4.292,0.475-9.275,3.003-10.461,7.412
		c-0.179,0.665,0.516,1.081,1.077,0.828c1.119-0.507,2.146-1.043,3.131-1.558c-0.471,2.808,0.127,6.136,2.097,8.013
		c2.582,2.46,6.613,2.982,9.878,1.765c0.501-0.187,0.536-0.881,0-1.056c-2.49-0.812-5.458-0.523-7.66-2.119
		c-1.892-1.372-2.086-3.386-2.065-5.448c1.139,2.174,3.237,4.009,5.297,4.542c3.567,0.922,8.46-0.816,10.41-4.123
		c0.075,0.025,0.153,0.038,0.228,0.061c0.127,2.579-2.643,7.406-3.113,8.6c-0.182,0.461,0.343,0.855,0.756,0.756
		c2.874-0.687,3.94-3.703,4.356-6.361c0.134-0.855,0.208-1.787,0.12-2.654c0.687,0.01,1.402-0.069,2.17-0.292
		C448.689,161.633,448.47,159.777,447.205,159.263z M433.986,162.431c-2.548,0.021-4.381-1.709-5.471-3.842
		c1.391-0.524,2.8-0.811,4.348-0.699c-0.116,0.637-0.092,1.296,0.108,1.886c0.445,1.316,2.224,1.311,2.672,0
		c0.125-0.365,0.202-0.767,0.259-1.174c0.452,0.177,0.916,0.381,1.4,0.63c0.503,0.259,0.99,0.53,1.469,0.8
		C437.429,161.248,436.149,162.413,433.986,162.431z"/>
	<path style="fill:#231F20;" d="M496.253,160.335c-1.759-0.036-2.828,1.662-2.889,3.26c-0.038,0.998,0.34,1.946,1.022,2.584
		c0.277,0.371,0.594,0.698,0.927,0.935c1.242,0.886,2.88,0.632,3.95-0.414c1.12-1.095,1.32-2.781,0.575-4.145
		C499.147,161.292,497.705,160.365,496.253,160.335z"/>
	<path style="fill:#231F20;" d="M492.534,158.108c2.009-0.244,5.435-1.174,7.213,0.116c1.437,1.042,1.687,3.291,2.626,4.746
		c0.306,0.475,1.056,0.408,1.216-0.159c0.667-2.371-0.12-5.239-2.192-6.715c-2.634-1.877-6.277-0.529-9.14-0.04
		C491.11,156.253,491.363,158.25,492.534,158.108z"/>
	<path style="fill:#231F20;" d="M332.606,100.567c-0.699-0.397-1.284,0.63-0.625,1.069c13.435,8.94,24.804,20.03,37.319,30.056
		c0.636,0.51,1.652-0.122,1.191-0.919C362.293,116.607,346.367,108.372,332.606,100.567z"/>
	<path style="fill:#231F20;" d="M449.942,186.537c3.14-0.447,6.214-1.133,9.266-1.901c1.017,2.971,2.173,5.819,3.596,8.65
		c0.477,0.951,1.891,0.853,2.395,0c1.398-2.369,2.454-4.77,3.264-7.311c1.42,3.044,2.773,6.12,4.206,9.157
		c0.42,0.89,1.747,0.958,2.382,0.307c2.978-3.051,4.397-7.623,5.539-11.944c1.204,3.746,1.646,7.914,4.155,10.822
		c0.372,0.432,0.983,0.499,1.505,0.398c2.454-0.478,3.421-3.494,4.491-5.467c1.329-2.448,2.525-4.954,3.646-7.497
		c0.599,2.02,0.81,4.145,1.024,6.284c0.199,1.987,0.105,4.651,1.149,6.409c0.249,0.419,0.788,0.803,1.302,0.747
		c2.693-0.298,4.677-4.531,5.71-6.667c1.435-2.965,3.213-7.021,3.391-10.484c6.001-3.992,5.77-12.851,3.767-19.335
		c-2.852-9.232-10.611-15.56-20.62-14.609c-5.152,0.49-8.944,1.915-14.171,0.103c-4.561-1.581-8.622-3.314-13.518-3.402
		c-5.23-0.095-10.376,1.47-15.604,0.895c-5.543-0.61-9.868-3.996-14.8-6.278c-5.022-2.324-9.857-2.955-14.307-1.111
		c-4.164-8.874-13.024-13.326-22.217-15.8c-12.851-3.458-23.393-10.825-34.412-17.986c-10.669-6.933-22.48-11.286-33.4-17.68
		c-9.695-5.676-16.659-17.277-27.513-20.764c-1.726-0.555-2.908,1.732-1.719,2.953c4.096,4.205,5.722,11.199,7.72,16.587
		c1.559,4.204,3.187,8.413,5.504,12.268c5.157,8.577,13.141,14.703,20.108,21.701c3.341,3.355,6.196,7.26,9.983,10.137
		c4.391,3.336,7.722,5.789,10.966,10.423c6.554,9.364,11.696,19.567,15.456,30.354c-1.038,1.464-1.808,3.106-2.22,4.893
		c-0.475,2.059-0.391,4.223-0.4,6.314c-0.018,4.27-1.054,7.854-2.785,11.748c-4.358,9.808-8.119,19.147-8.91,30.002
		c-0.74,10.159,2.148,19.898,3.134,29.823c-0.143,3.145-0.682,6.317-1.9,9.598c-2.84,7.655-8.711,14.351-16.432,17.29
		c-8.072,3.073-19.072,3.403-26.973-0.307c-1.384-0.65-2.69-1.415-3.926-2.271c-6.417-11.14-13.095-21.689-17.493-33.962
		c-4.453-12.428-7.354-25.415-8.616-38.555c-2.789-29.049,2.046-58.308,10.929-85.954c2.054-6.393,5.981-13.51,6.754-20.185
		c0.621-5.363-3.104-10.126-5.998-14.289c-6.658-9.58-14.872-17.973-23.948-25.275c-19.763-15.901-43.117-27.593-66.744-36.559
		C173.218,7.636,141.87,1.58,110.333,2.757c-2.502,0.094-3.407,3.343-1.269,4.685c7.537,4.729,13.859,10.671,19.018,17.81
		c-10.031-1.906-20.224-2.918-30.462-2.992C64.211,22.019,31.3,31.082,1.211,45.174c-2.101,0.984-1.182,3.811,0.585,4.48
		c9.806,3.713,19.807,7.661,27.815,14.643c7.019,6.119,12.194,14.113,15.584,22.746c7.557,19.249,7.159,40.762,1.589,60.448
		c-0.151,0.534-0.125,1.009,0.015,1.42c-0.459,0.827-0.087,2.004,1.206,2.136c15.33,1.573,27.63,10.511,33.782,24.731
		c3.343,7.728,4.678,16.128,4.854,24.508c0.079,3.766-0.103,7.514-0.368,11.269c-0.149,2.116-0.598,4.547,0.635,6.464
		c2.43,3.774,8.983,1.56,12.617,1.658c6.686,0.18,13.358,1.743,19.487,4.412c12.403,5.401,22.685,15.287,27.969,27.78
		c0.03,0.309,0.154,0.56,0.352,0.747c0.768,1.491,2.651,2.231,4.008,0.855c18.519-18.778,47.308-27.041,70.98-12.671
		c5.394,3.274,10.242,7.584,13.968,12.691c1.628,2.232,2.879,4.579,3.977,6.991c-6.257-1.385-13.791,0.378-19.692,1.872
		c-2.847,0.721-7.02,1.672-10.853,3.139c-7.995,2.204-15.59,7.22-22.769,10.846c-7.071,3.571-14.174,6.477-21.578,8.785
		c-15.643,2.781-31.939,0.878-47.488,5.181c-15.589,4.314-30.028,12.128-43.128,21.508c-13.239,9.479-25.558,20.484-36.679,32.37
		c-5.412,5.785-10.507,11.965-14.781,18.647c-3.271,5.115-5.45,9.997-7.209,15.275c-12.487,26.572-11.808,61.374,6.12,85.195
		c20.82,27.665,61.829,33.167,93.852,36.185c22.415,2.113,44.837,3.477,66.569,9.822c1.998,0.583,3.552-2.057,2.041-3.506
		c-13.542-12.987-31.892-17.407-49.888-20.294c-20.712-3.323-41.034-6.078-58.514-18.672c-16.402-11.818-28.044-30.153-29.42-50.574
		c-0.708-10.496,0.926-22.476,9.142-29.876c8.267-7.446,20.41-10.51,31.225-11.406c24.142-1.999,47.653,5.888,71.719,5.955
		c-1.802,3.414-4.26,6.551-7.556,9.483c-7.098,6.315-7.117,13.189-7.129,22.198c-0.015,11.228,0.114,22.44,0.343,33.665
		c0.114,5.606,0.098,11.219,0.363,16.821c0.169,3.579,0.337,7.707,2.97,10.468c5.316,5.576,16.634,3.046,23.317,2.827
		c3.999-0.131,8.647-0.485,12.096-2.357c3.618,1.439,8.941-1.976,12.578-1.012c1.481,0.392,2.883,1.659,4.463,0.637
		c1.171-0.758,1.292-2.057,1.06-3.308c-0.122-0.654-0.301-1.369-0.531-2.112c1.566,0.018,5.503,0.296,6.608-0.973
		c0.281-0.323,0.437-0.789,0.511-1.326c4.867,1.283,11.186,1.923,15.701,1.03c1.468-0.29,2.783-0.864,3.921-1.647
		c1.273,0.175,2.644-0.051,4.057,0.005c3.097,0.122,6.061,0.737,9.059,1.476c1.723,0.425,3.108-1.08,2.755-2.755
		c-0.207-0.985-0.382-1.979-0.567-2.965c1.938-0.201,3.78-0.235,5.801-0.022c1.627,0.171,2.376-1.578,2.186-2.87
		c-0.917-6.243-1.451-12.723-7.845-15.508c-3.489-1.519-8.796-3.039-12.542-1.28c-0.155-0.368-0.333-0.737-0.543-1.108
		c-2.102-3.704-6.027-5.894-9.788-7.532c-5.971-2.601-12.09-4.763-12.643-12.259c-0.477-6.457,3.17-12.522,6.613-17.733
		c1.749,0.307,3.522,0.586,5.373,0.933c8.899,1.667,17.923,2.605,26.974,2.804c8.964,0.196,17.923-0.339,26.804-1.56
		c4.327-0.595,8.629-1.35,12.897-2.281c2.738-0.598,5.818-0.878,8.302-2.15c0.743,5.702,1.29,11.431,1.785,17.163
		c0.842,9.771,1.957,19.644,1.238,29.457c-0.429,5.868-4.523,14.974-0.521,20.389c3.906,5.284,14.063,5.896,19.949,6.625
		c4.636,0.574,9.296,0.801,13.961,0.991c3.508,0.143,7.656,0.781,11.154-0.163c0.201,0.065,0.414,0.116,0.655,0.131
		c6.723,0.421,13.382,0.906,20.092,1.511c1.434,0.129,2.466-1.5,2.109-2.769c-0.202-0.718-0.405-1.439-0.623-2.154
		c6.898,3.038,17.553,6.057,23.925,2.414c0.424,0.212,0.923,0.286,1.469,0.124c5.24-1.553,9.609-1.462,14.692,0.616
		c1.29,0.527,2.991-0.822,2.858-2.177c-0.253-2.575-0.63-5.834-1.706-8.648c2.004-1.099,4.137-1.681,6.102-2.772
		c0.647-0.359,1.188-1.193,1.121-1.954c-0.369-4.238-4.61-8.358-8.355-9.909c-3.551-1.471-7.844-1.374-11.17,0.515
		c-0.802-1.418-1.854-2.673-3.088-3.611c-4.036-3.071-8.854-2.617-10.623-8.422c-1.709-5.609-0.849-11.755-0.088-17.446
		c1.382-10.34,3.392-20.688,2.829-31.167c-0.366-6.813-1.504-14.797-5.3-20.797c9.705-9.198,16.326-21.199,23.576-32.289
		c9.695-14.831,10.444-34.262,10.96-51.412c0.403-13.377-0.223-26.888,2.544-40.064c1.26-6.001,3.192-11.964,6.622-17.101
		c2.753-4.123,6.415-7.31,10.069-10.54c0.241,0.003,0.481,0.002,0.722,0.008c8.315,0.228,16.186,3.345,24.302,4.84
		c8.332,1.535,16.572,0.612,24.626,3.688c6.301,2.407,13.275,5.5,20.065,3.022c4.446-1.622,8.137-5.657,7.987-10.537
		c-0.027-0.888-0.53-1.517-1.268-1.886c1.13-6.612,1.171-13.094,0.75-19.784c-0.087-1.387-1.744-1.784-2.525-0.684
		c-2.731,3.846-5.168,8.414-8.317,12.088c-0.266-4.749-0.711-9.826-3.231-13.699c-0.496-0.763-1.878-0.979-2.319,0
		c-1.801,4.006-3.914,7.812-6.276,11.489c-0.699-3.818-1.804-7.891-4.142-10.722c-0.322-0.39-0.9-0.456-1.358-0.359
		c-2.409,0.508-4.447,3.557-5.959,6.26c-0.137-0.98-0.342-1.943-0.585-2.938c-0.28-1.142-0.385-2.812-1.298-3.686
		c-1.996-1.915-4.979,1.644-6.372,2.734c-0.411,0.321-1.777,1.251-2.555,2.199c-7.071-2.469-13.806-5.444-20.631-8.547
		c-2.953-1.342-5.985-2.557-9.161-3.251C438.775,187.38,444.3,187.34,449.942,186.537z M232.25,460.736
		c-0.352-0.008-0.711-0.02-1.073-0.031c0.23-0.651,0.421-1.327,0.519-2.052c0.252-1.869,0.008-3.626-0.605-5.214
		c1.634,0.073,3.265,0.093,4.753,1.273c2.009,1.594,2.87,4.288,3.16,6.911C236.792,461.089,234.518,460.789,232.25,460.736z
		 M231.287,444.626c3.097,0.019,5.953,0.029,9.092,1.261c4.356,1.708,5.623,5.911,5.979,10.213c-1.534-0.095-3.05,0.078-4.507,0.571
		c-0.69-1.937-1.734-3.705-3.566-5.12c-1.792-1.384-5.016-2.457-7.646-2.038C231.101,447.867,231.38,446.249,231.287,444.626z
		 M402.19,452.649c2.244,0.746,5.133,2.817,5.889,5.315c-1.669,0.702-3.269,1.145-4.796,2.25c-0.519-0.551-1.1-1.037-1.771-1.421
		c-1.691-0.966-4.359-1.249-6.728-0.75c0.303-1.58,0.212-3.251-0.195-4.859C397.031,452.253,399.533,451.765,402.19,452.649z
		 M393.17,462.612c2.11-0.475,4.246-1.629,6.298-0.322c1.885,1.201,2.717,4.198,3.066,6.909c-3.163-0.981-6.578-1.182-9.822-0.548
		C393.513,466.491,393.61,464.446,393.17,462.612z M463.973,189.59c-0.942-1.805-1.834-3.635-2.67-5.492
		c1.747-0.461,3.49-0.936,5.233-1.41C465.882,185.088,465.034,187.369,463.973,189.59z M474.264,191.532
		c-1.597-3.207-3.239-6.393-4.761-9.634c2.494-0.654,5-1.267,7.541-1.757c0.448-0.086,0.892-0.155,1.336-0.225
		C477.394,183.665,476.375,188.242,474.264,191.532z M489.298,185.232c-0.892,1.756-1.714,5.576-3.727,3.979
		c-1.029-0.817-1.345-5.03-1.789-6.317c-0.421-1.221-0.912-2.326-1.514-3.417c3.176-0.212,6.315-0.085,9.597,0.224
		C491.058,181.566,490.22,183.417,489.298,185.232z M502.056,184.176c-0.611,1.667-1.328,3.282-2.246,4.804
		c-0.417,0.704-0.883,1.376-1.375,2.029c-0.485-2.081-0.436-4.67-0.831-6.468c-0.349-1.592-0.855-3.053-1.527-4.458
		c2.452,0.172,4.912,0.164,7.295-0.463C502.911,181.141,502.585,182.735,502.056,184.176z M359.109,136.655
		c-1.111-1.69-2.252-3.471-3.483-5.188c6.661,4.554,12.652,10.112,16.058,17.486c0.324,0.701,1.26,0.264,1.319-0.357
		c0.799-8.545-7.71-14.146-13.779-18.565c-5.123-3.73-11.157-6.522-16.646-9.945c-1.388-1.29-2.68-2.698-4.001-4.031
		c-7.53-7.603-17.195-13.335-23.322-22.268c-3.229-4.707-5.226-10.099-7.215-15.41c-1.054-2.816-2.35-5.524-3.629-8.234
		c5.936,5.485,11.496,11.469,18.317,15.791c10.438,6.613,22.362,10.352,32.814,17.031c9.598,6.133,18.707,13.098,29.324,17.437
		c5.648,2.309,11.814,3.043,17.392,5.463c5.133,2.226,8.841,6.01,12.325,10.199c-0.608,0.44-1.209,0.922-1.798,1.474
		c-3.948,3.702-7.732,4.124-12.623,5.855c-4.171,1.477-7.316,4.318-10.459,7.325c-5.284,5.055-12.025,7.504-17.628,11.882
		C368.712,153.503,364.445,144.775,359.109,136.655z M192.093,20.393c24.707,8.363,49.246,20.022,70.166,35.743
		c9.919,7.453,19.079,16.186,26.271,26.334c1.459,2.059,3.117,4.195,4.223,6.475c2.14,4.413,1.219,7.278-0.313,11.434
		c-2.573,6.981-4.944,14.031-7.013,21.179c-7.602,26.259-11.431,54.041-8.477,81.334c1.468,13.564,4.445,26.97,9.337,39.72
		c0.447,1.162,0.91,2.333,1.384,3.505c-5.792-10.274-11.456-20.591-18.044-30.457c-4.572-6.847-10.288-13.503-13.33-21.227
		c-3.628-9.212-0.555-18.293,1.386-27.511c0.055-0.26,0.002-0.502-0.108-0.709c0.225-0.727,0.44-1.457,0.625-2.192
		c1.06-4.214,1.997-8.46,3.035-12.68c1.918-7.798,4.117-15.528,6.591-23.168c4.259-13.152,12.322-28.299,2.577-40.95
		c-0.681-0.884-1.413-1.735-2.166-2.571c-3.367-9.766-14.524-16.696-22.849-21.59c-13.203-7.763-26.906-14.758-40.764-21.271
		c-14.105-6.628-28.515-12.571-42.935-18.471c-12.65-5.176-25.445-11.4-38.574-15.57C146.591,8.362,169.805,12.849,192.093,20.393z
		 M121.552,10.831c10.976,5.575,22.956,9.698,34.249,14.348c14.438,5.945,28.895,11.86,43.065,18.43
		c12.924,5.992,25.618,12.486,38.039,19.46c4.054,2.276,8.13,4.566,12.007,7.145c-4.81-2.641-9.738-4.959-14.369-7.082
		c-7.092-3.251-14.301-6.257-21.518-9.217c-5.774-2.368-11.697-5.053-17.738-7.05c-7.36-3.567-15.501-5.799-23.176-8.451
		c-8.361-2.889-16.722-5.822-25.168-8.456c-4.081-1.273-8.205-2.385-12.362-3.345c-0.058-0.258-0.156-0.521-0.329-0.789
		C130.65,20.242,126.389,15.243,121.552,10.831z M48.731,84.002c-3.822-8.829-9.313-17.085-16.699-23.33
		c-6.567-5.553-14.261-9.359-22.091-12.799c12.703-1.655,25.215-4.686,37.859-6.752c13.973-2.283,28.079-3.836,42.249-3.881
		c13.92-0.044,27.887,1.374,41.353,4.985c14.029,3.763,27.119,10.117,39.855,16.987c12.531,6.76,24.924,13.784,37.333,20.762
		c5.822,3.274,11.636,6.558,17.438,9.867c3.532,2.014,10.003,4.513,14.235,7.997c-32.392-6.751-65.888-0.762-97.37,8.103
		c-16.059,4.522-31.813,10.085-47.171,16.6c-14.691,6.232-29.708,12.988-43.035,21.919C57.821,124.631,56.896,102.863,48.731,84.002
		z M91.224,211.241c0.03-0.208,0.057-0.416,0.072-0.622c1.148-15.36-0.763-32.153-9.923-45.023
		c-6.581-9.248-17.453-17.296-29.135-17.672c14.039-6.695,27.594-14.283,41.897-20.462c15.591-6.735,31.634-12.435,47.962-17.103
		c30.685-8.773,63.451-14.831,95.127-8.713c-5.003,2.267-9.874,5.181-14.529,7.695c-7.325,3.956-14.551,8.093-21.672,12.406
		c-13.713,8.307-27.035,17.263-39.9,26.83C136.166,167.139,111.916,187.906,91.224,211.241z M148.561,244.172
		c-5.418-9.346-13.439-17.049-22.986-22.232c-6.007-3.261-12.563-5.53-19.323-6.559c-3.235-0.492-6.509-0.732-9.781-0.637
		c-0.605,0.018-1.829,0.279-2.884,0.408c22.14-22.789,44.897-44.368,70.499-63.328c12.636-9.358,25.706-18.135,39.157-26.28
		c6.857-4.152,13.811-8.144,20.858-11.967c5.662-3.072,11.947-5.713,17.545-9.081c-10.194,11.315-19.284,23.925-28.656,35.867
		c-8.94,11.392-17.826,22.831-26.259,34.607c-8.644,12.07-16.793,24.492-23.834,37.574c-3.57,6.633-6.849,13.419-9.779,20.358
		C151.596,236.508,149.826,240.3,148.561,244.172z M216.388,232.832c-21.659-8.626-46.062-2.332-63.4,12.346
		c1.645-4.263,2.976-8.727,4.758-12.817c2.882-6.619,6.1-13.089,9.565-19.421c6.972-12.739,14.913-24.953,23.31-36.794
		c8.816-12.433,18.167-24.477,27.528-36.501c8.651-11.111,18.011-21.975,26.128-33.517c-0.44,6.433-2.96,13.214-4.877,19.256
		c-2.233,7.033-4.795,13.955-7.264,20.908c-4.351,12.256-8.225,24.74-9.261,37.774c-1.158,14.569,2.427,27.664,8.75,40.671
		c5.522,11.36,11.1,22.089,13.15,34.136c-0.767-1.784-1.616-3.535-2.679-5.203C236.04,244.166,226.809,236.982,216.388,232.832z
		 M97.495,482.865c-1.47-0.244-2.936-0.526-4.396-0.877c-1.762-0.423-3.509-0.899-5.242-1.422c0.357-0.372,0.721-0.737,1.089-1.093
		C91.736,480.735,94.588,481.87,97.495,482.865z M77.057,473.011c3.474,2.248,7.114,4.239,10.875,5.994
		c-0.507,0.33-0.966,0.717-1.393,1.15c-4.256-1.353-8.41-3.008-12.406-4.992c0.361-0.444,0.763-0.856,1.235-1.204
		C75.889,473.574,76.468,473.283,77.057,473.011z M75.71,472.111c-1.065,0.543-2.002,1.453-2.718,2.478
		c-2.504-1.294-4.948-2.706-7.305-4.273c-0.688-0.457-1.36-0.925-2.02-1.401c0.636-0.987,1.428-1.85,2.41-2.52
		c0.407-0.278,0.859-0.479,1.314-0.672C70.021,468.043,72.812,470.156,75.71,472.111z M58.052,455.891
		c2.529,3.208,5.294,6.164,8.256,8.877c-0.366,0.206-0.713,0.431-1.021,0.648c-1.056,0.748-1.928,1.678-2.629,2.748
		c-3.911-2.935-7.338-6.188-10.354-9.712c0.893-0.898,1.881-1.688,3.022-2.297c0.732-0.391,1.488-0.659,2.254-0.89
		C57.74,455.471,57.89,455.686,58.052,455.891z M56.704,454.101c-1.934,0.686-3.742,2.026-5.106,3.537
		c-2.462-2.975-4.644-6.134-6.57-9.459c1.112-1.29,2.389-2.271,4.153-2.724c0.634-0.163,1.252-0.222,1.866-0.23
		C52.728,448.323,54.626,451.29,56.704,454.101z M50.386,443.983c-2.215,0.308-4.298,1.648-5.817,3.375
		c-2.08-3.697-3.869-7.584-5.401-11.634c1.8-1.932,3.689-3.831,6.299-3.558C46.757,436.238,48.42,440.196,50.386,443.983z
		 M37.117,399.103c2.171,0.056,4.279,0.499,6.412,0.767c-0.114,0.496-0.232,0.989-0.326,1.501c-0.351,1.907-0.575,3.827-0.732,5.751
		c-3.14-0.873-6.942-0.637-9.588,1.192c-0.165-3.026-0.137-6.029,0.111-8.996C34.361,399.184,35.73,399.068,37.117,399.103z
		 M33.146,397.753c0.502-4.632,1.509-9.175,3.038-13.587c2.392,3.853,5.792,6.574,9.712,8.759c-0.852,1.821-1.558,3.768-2.104,5.844
		C40.676,397.579,36.68,397.245,33.146,397.753z M37.351,408.224c1.68-0.305,3.364-0.219,5.014,0.105
		c-0.231,3.787-0.081,7.587,0.378,11.354c-2.635-0.349-5.679,0.164-7.918,1.664c-0.089-0.373-0.185-0.741-0.27-1.116
		c-0.79-3.48-1.315-6.944-1.581-10.38C34.393,409.2,35.777,408.51,37.351,408.224z M42.865,420.709
		c0.483,3.507,1.257,6.978,2.276,10.381c-2.39-0.347-4.854,1.07-6.557,3.067c-1.287-3.586-2.395-7.287-3.343-11.088
		C37.489,421.462,39.905,420.412,42.865,420.709z M46.596,391.496c-1.181-0.617-2.464-1.123-3.475-1.796
		c-2.624-1.747-4.806-4.074-6.495-6.72c1.247-3.371,2.781-6.669,4.642-9.865c0.983,2.222,2.495,4.267,4.089,6.014
		c1.668,1.827,3.97,4.002,6.394,5.17C49.745,386.424,48.011,388.82,46.596,391.496z M52.679,383.352
		c-2.058-0.982-6.194-4.915-6.68-5.443c-1.66-1.806-2.859-3.815-4.094-5.856c1.123-1.847,2.335-3.666,3.668-5.442
		c1.851-2.467,3.852-4.688,5.958-6.737c0.155,3.563,1.411,7.15,2.68,10.389c1.03,2.63,2.3,6.498,4.97,7.993
		C56.821,379.732,54.641,381.429,52.679,383.352z M60.664,377.383c-3.459-2.21-4.668-5.877-6.093-9.749
		c-1.086-2.953-1.723-5.836-1.924-8.845c4.062-3.75,8.529-6.84,13.272-9.488c-1.282,4.174-0.356,8.908,0.632,13.089
		c0.703,2.974,1.952,7.899,4.567,10.474C67.432,374.022,63.91,375.522,60.664,377.383z M72.926,372.329
		c-0.915-1.071-1.92-2.065-2.625-3.357c-1.114-2.046-1.798-4.301-2.37-6.549c-1.166-4.582-2.08-9.35-0.653-13.869
		c3.852-2.063,7.872-3.859,11.995-5.501c-2.137,4.697-2.646,10.665-2.324,15.375c0.271,3.966,1.193,8.723,3.605,12.206
		C77.977,371.063,75.422,371.626,72.926,372.329z M88.17,369.73c-1.941,0.141-3.891,0.35-5.834,0.628
		c-2.788-3.812-3.959-8.324-4.124-13.289c-0.098-2.963,0.199-5.94,0.85-8.832c0.463-2.054,1.272-3.961,2.006-5.899
		c4.534-1.749,9.176-3.336,13.838-4.916c-3.067,4.771-4.494,10.695-4.436,16.289c0.052,4.966,1.225,11.191,4.07,15.786
		C92.42,369.517,90.298,369.576,88.17,369.73z M96.404,369.489c-1.076-1.975-2.19-3.911-2.93-6.104
		c-1.051-3.114-1.626-6.386-1.663-9.674c-0.068-6.054,1.795-11.448,4.402-16.732c0.28-0.095,0.561-0.19,0.841-0.285
		c4.487-1.52,9.041-2.862,13.638-4.047c-3.632,6.149-5.846,12.947-6.457,20.138c-0.435,5.119-0.389,12.111,2.26,17.169
		C103.139,369.675,99.775,369.515,96.404,369.489z M108.514,370.141c-1.16-2.016-2.036-4.086-2.509-6.554
		c-0.705-3.686-0.741-7.53-0.406-11.259c0.631-7.036,2.926-13.92,6.467-20.032c5.675-1.418,11.412-2.59,17.181-3.501
		c-5.174,5.925-7.862,14.996-8.697,22.314c-0.524,4.597-0.336,9.274,0.569,13.812c0.432,2.166,1.027,4.881,2.186,7.134
		C118.383,371.288,113.454,370.614,108.514,370.141z M125.391,372.386c-1.691-2.732-2.63-5.648-3.208-9.046
		c-0.769-4.516-0.785-9.174-0.127-13.706c0.629-4.328,1.883-8.582,3.726-12.548c1.43-3.078,3.376-5.762,5.193-8.567
		c4.848-0.721,9.703-1.106,14.559-1.372c-4.828,6.54-7.6,14.971-8.672,22.799c-1.096,8-0.581,16.989,2.376,24.707
		C134.621,373.916,130.008,373.125,125.391,372.386z M140.991,374.925c-2.705-8.315-3.996-16.574-2.707-25.437
		c1.214-8.354,4.529-15.481,8.907-22.425c4.244-0.211,8.49-0.355,12.737-0.568c-4.788,7.632-8.5,16.812-10.276,25.461
		c-1.637,7.971-1.571,16.868,1.767,24.431C147.938,375.973,144.464,375.467,140.991,374.925z M153.09,376.568
		c-3.492-8.531-3.768-17.513-1.581-26.506c1.14-4.69,2.843-9.231,4.812-13.632c1.506-3.367,3.294-6.627,4.796-9.998
		c2.191-0.118,4.382-0.251,6.573-0.435c-1.053,2.367-1.943,4.814-2.605,7.341c-1.18,4.498-1.611,9.069-1.772,13.666
		c-2.475,4.381-3.598,9.954-4.233,14.777c-0.669,5.083-0.62,10.298,0.226,15.365C157.231,376.991,155.16,376.798,153.09,376.568z
		 M163.23,350.725c-0.048,4.536,0.042,9.084-0.184,13.601c-0.233,4.667-0.971,8.879-2.391,12.743
		c-0.755-4.918-0.96-9.845-0.364-14.823C160.78,358.167,161.995,354.476,163.23,350.725z M196.149,468.405
		c-1.433-0.256-2.89-0.183-4.322,0.025c-1.181,0.172-2.634,0.374-4.104,0.665c0.309-0.84,0.528-1.768,0.624-2.815
		c0.149-1.631-0.086-3.216-0.596-4.689c1.944,0,3.922-0.242,5.579,1.112c1.442,1.179,2.069,2.993,2.691,4.699
		c0.128,0.352,0.242,0.709,0.362,1.064C196.301,468.443,196.214,468.417,196.149,468.405z M199.158,464.071
		c-1.005-1.867-2.265-3.544-3.69-4.51c-1.91-1.295-5.012-1.916-7.631-1.41c0.338-1.422,0.441-2.872,0.358-4.303
		c3.28-0.283,6.31-0.674,9.609,1.107c2.821,1.523,5.265,4.467,6.064,7.702c0.01,0.052,0.021,0.103,0.036,0.154
		c0.047,0.205,0.111,0.408,0.144,0.615C202.373,463.43,200.723,463.573,199.158,464.071z M205.294,427.973
		c2.304,3.918,6.195,5.946,10.253,7.645c2.798,1.171,5.69,2.099,8.082,4.032c3.215,2.599,3.284,5.129,2.775,8.088
		c-4.182-2.837-9.985-3.532-14.367-0.672c-0.965,0.63-0.511,1.931,0.554,2.048c3.755,0.412,7.618-0.202,10.965,1.983
		c3.214,2.099,5.19,7.245,1.866,10.221c-2.762,2.473-7.726,1.468-11.102,1.305c-2.207-0.106-4.369-0.226-6.541-0.043
		c-0.118-0.564-0.248-1.066-0.355-1.426c-1.161-3.914-4.155-7.482-7.752-9.391c-3.35-1.778-8.276-2.637-11.998-1.087
		c-0.678-2.337-1.96-4.507-3.859-6.255c-0.169-0.155-0.344-0.294-0.517-0.437c2.378-5.15,2.206-12.324,2.435-17.793
		c0.235-5.592,0.619-12.019-0.787-17.633c2.535-3.298,5.709-6.099,9.555-8.261c1.499-0.842,3.03-1.607,4.571-2.345
		c0.393-0.188,6.358,2.603,7.2,2.895c1.483,0.514,2.926,0.899,4.363,1.224C205.154,409.55,199.986,418.943,205.294,427.973z
		 M209.082,397.358c-1.847-0.426-3.723-0.991-5.612-1.443c4.537-2.04,9.089-4.035,13.322-6.781c0.219-0.142,0.433-0.293,0.651-0.438
		c-0.174,1.41-0.052,2.918,0.029,4.135c0.138,2.081,0.339,4.319,0.84,6.44C215.223,398.694,212.143,398.064,209.082,397.358z
		 M220.664,399.715c-0.259-0.045-0.515-0.1-0.774-0.147c-0.324-1.917-0.731-3.83-0.894-5.77c-0.203-2.402-0.059-4.337,0.456-6.478
		c4.733-3.35,9.141-7.226,13.128-11.521c-0.526,3.663-0.383,7.509,0.04,10.91c0.654,5.246,2.241,10.517,5.024,15.051
		C231.953,401.367,226.28,400.69,220.664,399.715z M247.521,402.162c-2.787-0.033-5.575-0.141-8.36-0.309
		c-2.523-4.912-4.448-10.013-5.079-15.57c-0.515-4.534,0.085-8.739,0.78-13.045c7.215-8.416,12.856-18.237,16.231-28.731
		c1.119,0.266,2.264,0.486,3.419,0.684c-4.289,8.652-6.745,18.741-7.462,28.249c-0.703,9.314,0.24,20.206,4.628,28.708
		C250.292,402.165,248.906,402.178,247.521,402.162z M253.231,402.125c-1.599-4.299-3.19-8.43-4.006-12.997
		c-0.923-5.169-1.119-10.456-0.735-15.689c0.732-9.969,3.944-18.829,7.307-28.049c2.295,0.342,4.631,0.572,6.97,0.671
		c-3.373,9.331-4.48,19.401-3.342,29.265c0.583,5.054,1.734,10.039,3.467,14.824c1.315,3.628,2.922,7.662,5.201,10.98
		C263.159,401.691,258.196,402.015,253.231,402.125z M274.391,400.288c-1.54,0.239-3.085,0.446-4.632,0.639
		c-1.897-3.841-4.091-7.477-5.552-11.583c-1.754-4.933-2.902-10.09-3.404-15.301c-0.915-9.484,0.326-18.991,3.563-27.924
		c2.831,0.054,5.643-0.06,8.345-0.34c1.272-0.132,2.76-0.278,4.301-0.512c-3.101,8.256-3.681,18.027-3.102,26.579
		c0.331,4.882,1.136,9.737,2.416,14.46c1.151,4.249,2.603,8.853,4.803,12.779C278.891,399.528,276.646,399.938,274.391,400.288z
		 M285.987,398.063c-1.105,0.254-2.217,0.47-3.327,0.701c-1.655-3.967-3.475-7.802-4.68-11.973
		c-1.407-4.871-2.304-9.886-2.666-14.944c-0.345-4.817-0.228-9.672,0.378-14.464c0.535-4.229,1.657-8.26,2.698-12.352
		c2.214-0.415,4.438-1.049,6.209-2.129c-1.871,5.831-2.219,12.066,0.01,18.826c2.988,9.066,6.26,17.686,8.077,27.116
		c0.475,2.469,0.891,4.946,1.263,7.429C291.29,396.305,288.674,397.446,285.987,398.063z M347.579,470.493
		c0.747-1.607,1.022-3.458,0.871-5.323c2.159-0.263,4.311-0.532,6.454,0.158c1.837,0.591,3.064,1.747,3.92,3.178
		c0.078,0.487,0.31,0.951,0.655,1.3c0.252,0.603,0.462,1.233,0.632,1.881C356.011,470.975,351.757,470.561,347.579,470.493z
		 M361.584,465.587c-1.029-1.416-2.37-2.597-4.206-3.387c-2.088-0.897-4.574-1.221-6.983-0.992c0.686-1.745,1.013-3.595,0.937-5.469
		c2.316,0.301,4.747,0.213,6.992,1.337c2.911,1.457,5.351,4.016,6.58,7.047C363.781,464.573,362.675,465.06,361.584,465.587z
		 M378.164,393.75c-0.395,9.555-2.241,18.943-3.457,28.408c-0.908,7.075-1.74,16.063,2.907,22.134
		c1.714,2.24,3.966,3.113,6.499,4.084c4.747,1.82,6.3,4.9,5.962,9.145c-3.312-3.007-8.556-4.21-13.356-2.263
		c-1.272,0.516-1.084,2.244,0.322,2.383c3.774,0.372,7.731,0.032,10.322,3.281c1.378,1.728,1.751,4.156,0.979,6.242
		c-1.057,2.856-3.322,3.52-6.232,3.778c-5.344,0.474-11.098-0.737-16.422-2.195c1.046-0.421,2.083-0.866,3.103-1.367
		c1.164-0.572,1.253-2.012,0.799-3.046c-1.997-4.543-4.756-8.342-9.352-10.531c-2.474-1.178-6.516-2.389-9.575-1.606
		c-0.281-0.837-0.651-1.57-1.063-2.256c0.673-4.705-0.092-9.811-0.204-14.511c-0.147-6.213-0.244-12.432-0.641-18.635
		c-0.629-9.83-1.67-19.992-5.117-29.283c2.595-0.779,5.025-1.687,6.986-2.423c7.166-2.689,13.864-6.4,19.921-11.079
		c1.327-1.025,2.625-2.094,3.895-3.202C376.747,378.369,378.513,385.312,378.164,393.75z M336.235,345.294
		c0.11-0.035,0.221-0.068,0.329-0.133c2.581-1.548,4.673-4.217,6.538-7.028c0.177,6.527,1.178,13.052,2.831,19.345
		c1.852,7.053,4.494,14.339,8.327,20.662c-1.904,0.891-3.842,1.704-5.814,2.415c-2.714,0.979-5.482,1.782-8.294,2.416
		c-2.684-4.797-3.733-10.286-4.754-15.737C336.559,359.908,336.822,352.574,336.235,345.294z M344.223,336.396
		c1.008-1.598,1.961-3.178,2.904-4.561c1.839-2.695,3.628-5.423,5.35-8.193c0.622,7.389,2.559,14.686,5.423,21.499
		c1.739,4.137,3.834,8.118,6.29,11.875c2.105,3.219,4.55,7.05,7.566,9.591c-1,0.891-2.02,1.766-3.082,2.606
		c-4.01,3.175-8.377,5.948-12.978,8.23c-3.402-6.559-6.488-13.106-8.451-20.327C345.394,350.311,344.492,343.397,344.223,336.396z
		 M336.086,375.959c0.503,2.378,1.049,5.219,2.463,7.354c-0.16,0.032-0.316,0.071-0.476,0.102c-2.099,0.404-4.307,0.529-6.38,1.031
		c0.845-4.851,2.242-9.618,3.208-14.452C335.269,371.987,335.667,373.977,336.086,375.959z M340.257,388.408
		c2.142,10.4,3.71,20.643,4.188,31.318c0.234,5.232,0.334,10.468,0.45,15.704c0.069,3.14-0.127,6.564,0.078,9.879
		c-0.809-0.563-1.661-1.106-2.54-1.663c-11.069-7.009-10.055-24.487-10.808-35.989c-0.404-6.173-1.041-12.483-0.532-18.67
		C333.874,389.492,337.093,389.13,340.257,388.408z M372.818,365.634c-2.33-3.357-5.319-6.29-7.575-9.745
		c-2.402-3.679-4.483-7.568-6.201-11.612c-3.033-7.133-4.741-14.594-5.596-22.238c1.43-2.351,2.82-4.727,4.132-7.148
		c0.873-1.612,1.7-3.24,2.502-4.876c1.293,7.411,4.028,14.507,8.026,20.933c4.378,7.036,10.719,14.645,18.302,18.587
		C382.434,355.348,378.021,360.813,372.818,365.634z M395.64,334.592c-0.036,0.045-0.08,0.075-0.111,0.129
		c-2.657,4.649-5.388,9.25-8.347,13.672c-2.985-2.299-6.061-4.445-8.792-7.079c-3.346-3.227-6.305-6.845-8.808-10.762
		c-4.349-6.803-7.253-14.451-8.622-22.395c1.643-3.495,3.144-7.04,4.46-10.65c2.416,6.879,6.48,13.222,11.381,18.59
		c2.883,3.158,6.151,5.98,9.722,8.335c3.329,2.194,7.416,4.509,11.423,5.371C397.213,331.411,396.448,333.007,395.64,334.592z
		 M404.071,311.193c-1.198,6.103-3.107,11.742-5.49,17.188c-3.622-1.519-7.228-2.74-10.612-4.867
		c-3.739-2.35-7.111-5.238-10.108-8.477c-5.149-5.567-8.837-12.103-11.946-18.945c1.052-2.996,2.004-6.028,2.827-9.107
		c2.927,4.889,8.173,8.885,12.72,11.321c4.226,2.264,8.828,3.778,13.461,4.957c2.638,0.672,5.303,1.233,7.972,1.771
		c0.7,0.141,1.416,0.344,2.127,0.481C404.75,307.413,404.441,309.307,404.071,311.193z M405.231,303.971
		c-3.641-0.386-7.428-1.517-10.835-2.409c-4.198-1.099-8.348-2.493-12.196-4.522c-3.267-1.723-6.293-3.894-8.859-6.558
		c-1.712-1.777-2.931-3.682-4.046-5.688c0.546-2.199,1.054-4.412,1.482-6.654c0.144-0.756,0.269-1.514,0.404-2.272
		c3.881,3.942,9.007,6.302,14.377,7.605c3.335,0.81,6.755,1.227,10.165,1.581c3.553,0.368,7.341,1.081,10.942,1.045
		C406.381,292.076,406.003,298.047,405.231,303.971z M406.726,284.879c-2.701-0.825-5.762-0.916-8.517-1.192
		c-3.68-0.368-7.37-0.736-10.989-1.518c-5.925-1.28-11.602-3.752-15.678-8.328c0.796-4.754,1.436-9.532,2.046-14.314
		c7.728,10.155,20.94,15.696,33.547,16.228C406.989,278.793,406.866,281.836,406.726,284.879z M407.307,272.346
		c-0.036,0.646-0.065,1.293-0.098,1.94c-6.88-0.957-13.503-2.005-19.832-5.142c-5.363-2.658-10.072-6.485-13.569-11.327
		c0.501-3.952,0.994-7.906,1.554-11.85c3.608,4.279,8.39,7.751,13.219,10.314c5.583,2.964,12.937,5.829,19.456,5.57
		C407.726,265.372,407.501,268.888,407.307,272.346z M408.172,260.359c-2.978-0.518-5.979-0.704-8.935-1.496
		c-3.43-0.92-6.759-2.22-9.908-3.861c-5.325-2.775-9.607-6.533-13.728-10.704c0.306-2.077,0.627-4.152,0.988-6.22
		c0.542-3.11,1.16-6.208,1.878-9.283c2.505,4.993,6.619,9.208,11.148,12.368c3.069,2.141,6.43,3.822,9.917,5.166
		c3.082,1.187,6.69,2.539,10.113,2.936C408.992,252.916,408.528,256.636,408.172,260.359z M409.939,247.626
		c-2.851-0.84-5.868-1.284-8.686-2.27c-3.587-1.255-7.039-2.894-10.22-4.979c-5.267-3.454-9.189-8.04-12.085-13.509
		c0.647-2.599,1.355-5.183,2.184-7.732c0.516-1.589,1.106-3.142,1.73-4.678c2.028,5.821,5.769,11.112,10.185,15.321
		c4.953,4.721,11.83,9.179,18.74,10.243C411.048,242.5,410.445,245.044,409.939,247.626z M412.206,238.704
		c-3.353-1.132-6.627-2.073-9.768-3.799c-3.048-1.675-5.871-3.732-8.406-6.113c-4.803-4.51-8.085-9.925-10.505-15.943
		c1.276-3.006,2.66-5.961,3.931-8.972c0.219,0.324,0.456,0.64,0.69,0.957c2.23,6,6.162,11.367,10.839,15.697
		c2.628,2.434,5.544,4.572,8.672,6.322c2.348,1.314,5.171,2.844,7.941,3.462C414.243,232.989,413.135,235.802,412.206,238.704z
		 M416.311,228.975c-2.601-1.179-5.403-1.951-7.937-3.344c-3.154-1.734-6.091-3.862-8.724-6.315
		c-3.493-3.253-6.272-7.002-8.572-11.074c0.387,0.385,0.783,0.765,1.197,1.133c4.721,4.196,10.639,7.09,16.886,8.078
		c5.525,0.874,11.036,0.129,16.56-0.231C421.762,220.63,418.7,224.609,416.311,228.975z M505.469,200.938
		c0.052,4.706-0.442,9.384-1.236,14.047c-2.275-0.945-4.517-1.976-6.758-3.015C500.672,208.901,503.146,204.861,505.469,200.938z
		 M492.807,197.887c1.475,3.836,1.249,8.457,1.356,12.554c-2.224-1.016-4.468-1.989-6.755-2.864
		C489.462,204.482,491.243,201.259,492.807,197.887z M479.84,197.62c1.093,0.089,2.107,4.748,2.706,8.187
		c-2.562-0.91-5.129-1.804-7.702-2.682C476.616,201.002,479.416,197.586,479.84,197.62z M466.331,199.803
		c0.703-0.552,1.406-1.105,2.109-1.657c0.491-0.385,1.151-1.082,1.802-1.516c0.353,0.867,0.566,2.595,0.696,3.061
		c0.237,0.85,0.513,1.626,0.85,2.398c-1.944-0.659-3.888-1.316-5.833-1.973C466.085,200.004,466.211,199.897,466.331,199.803z
		 M421.716,183.243c-1.428-0.394-2.902,0.985-2.449,2.449c1.822,5.886,8.322,5.295,13.24,6.659
		c8.029,2.227,15.433,6.921,23.265,9.821c7.92,2.933,16.052,5.108,24.137,7.52c7.857,2.344,17.077,4.659,24.047,9.263
		c-4.245,13.107-22.997,1.072-31.874-0.042c-6.979-0.876-13.677-1.039-20.539-2.87c-5.385-1.437-10.72-2.999-16.279-3.612
		c-12.237-1.35-24.272,3.23-35.728-3.242c-11.648-6.58-16.975-20.879-12.232-33.419c0.402-1.062-1.369-1.82-1.847-0.779
		c-4.023,8.752-3.771,18.512,0.604,26.563c-6.955,8.364-9.935,20.712-12.121,30.98c-2.783,13.078-3.92,26.428-6.227,39.587
		c-2.398,13.681-6.407,26.637-13.022,38.892c-3.001,5.559-6.367,10.922-9.879,16.171c-1.75,2.614-4.24,5.446-6.393,8.389
		c0.331-5.142-0.844-10.496-3.02-14.857c-0.334-0.669-1.245-0.17-1.131,0.477c0.849,4.832,0.866,9.251,0.544,13.693
		c-0.412-2.109-0.89-4.212-1.448-6.306c-0.377-1.414-2.438-0.808-2.169,0.598c2.594,13.533,2.733,27.674-0.503,41.112
		c-1.389,5.767-3.44,11.362-4.097,17.286c-0.662,5.968-0.19,12.077,0.227,18.048c0.711,10.182,0.822,22.001,4.743,31.582
		c1.457,3.561,3.58,6.661,6.694,8.973c2.488,1.848,5.782,2.89,7.47,5.66c1.394,2.287,1.484,4.922,0.679,7.32
		c-3.198-5.072-9.378-7.839-15.316-7.473c-2.432,0.15-2.469,3.913,0,3.816c4.87-0.192,10.286,1.81,12.467,6.555
		c0.259,0.564,0.486,1.22,0.653,1.912c-0.018,0.262,0.04,0.523,0.155,0.755c0.263,1.659,0.082,3.419-1.077,4.622
		c-1.812,1.881-5.006,1.496-7.342,1.488c-9.404-0.029-19.014-0.275-28.147-2.736c-2.476-0.667-6.218-1.358-7.318-4.073
		c-0.668-1.649-0.028-4.079,0.264-5.752c0.712-4.084,1.489-7.992,1.734-12.15c0.52-8.824-0.41-17.685-1.187-26.467
		c-1.467-16.573-3.253-33.352-8.847-49.125c-3.21-9.05-7.149-16.516-4.66-26.413c2.224-8.842,7.966-16.886,13.34-24.099
		c0.545-0.732-0.675-1.677-1.27-0.98c-3.054,3.579-6.109,7.286-8.763,11.164c0.886-2.521,2.123-5.01,3.362-7.173
		c1.79-3.127,4.36-5.68,6.19-8.738c0.43-0.718-0.405-1.432-1.089-1.089c-7.473,3.742-9.84,13.079-10.813,20.529
		c-0.006,0.047,0.007,0.085,0.012,0.128c-0.979,1.651-1.862,3.336-2.63,5.054c-1.689-0.136-2.915,0.361-4.837,0.895
		c-3.45,0.959-6.858,1.614-10.441,1.85c-6.298,0.415-12.381-0.715-18.597-1.12c0.523-1.988,0.958-3.997,1.313-6.019
		c5.198-5.827,5.162-15.045,3.594-22.263c-0.137-0.629-1.213-0.503-1.142,0.154c0.506,4.667-0.275,8.731-1.447,12.755
		c0.1-2.477,0.079-4.963-0.099-7.454c-0.055-0.77-1.114-0.758-1.188,0c-2.979,30.702-20.111,59.398-48.734,72.51
		c-7.027,3.219-14.405,5.852-20.03,11.38c-4.914,4.829-8.105,11.215-9.946,17.795c-1.706,6.097-3.301,14.164-1.241,20.344
		c0.913,2.74,2.719,4.546,4.989,6.249c3.624,2.72,5.689,5.931,5.268,9.906c-2.445-1.829-5.57-2.707-8.779-1.993
		c-1.26,0.28-1.169,2.13,0.001,2.461c3.739,1.057,7.91,2.257,8.868,6.607c0.598,2.72-0.474,5.667-2.862,7.133
		c-4.046,2.484-11.058,1.508-15.597,1.653c-4.411,0.141-12.542,1.917-14.881-3.307c-1.057-2.36-0.707-5.975-0.859-8.505
		c-0.169-2.804-0.356-5.606-0.514-8.41c-0.59-10.503-0.667-21.041-0.664-31.558c0.002-4.56-0.192-9.229,0.276-13.774
		c0.611-5.928,3.389-9.376,7.671-13.225c13.89-12.484,10.864-30.31,11.073-47.15c0.238-19.201,11.01-35.602,28.441-43.655
		c1.335-0.617,0.374-2.959-1.012-2.402c-3.347,1.345-6.514,3.073-9.468,5.099c0.471-0.551,0.942-1.064,1.417-1.504
		c3.835-3.549,8.562-5.939,12.392-9.411c0.722-0.655-0.057-1.682-0.885-1.52c-5.012,0.979-9.671,4.73-13.355,8.116
		c-2.851,2.619-8.454,7.341-8.258,11.584c0.003,0.075,0.029,0.149,0.06,0.221c-3.098,3.368-5.729,7.16-7.818,11.245
		c-11.264-2.414-23.222-1.543-34.567-0.153c-11.768,1.441-23.255,4.042-34.482,7.851c-19.875,6.743-41.03,14.333-55.266,30.481
		c-12.52,14.203-18.66,32.783-15.928,51.61c3.003,20.69,11.736,41.536,28.07,55.084c8.763,7.268,18.972,12.521,29.857,15.805
		c10.334,3.118,23.269,5.911,34.266,3.976c18.278,2.866,37.542,4.472,53.049,14.395c-29.883-6.983-60.978-6.776-91.004-13.126
		c-16.536-3.497-34.011-9.033-47.338-19.823c-12.676-10.263-19.597-25.938-21.971-41.804c-4.824-32.241,8.309-60.17,30.4-82.951
		c11.046-11.391,23.094-22.07,36.193-31.047c12.953-8.877,27.133-16.125,42.453-19.855c12.557-3.057,25.63-2.852,38.274-5.063
		c8.055,0.002,16.027-2.805,23.291-6.151c5.046-2.324,9.947-4.946,14.917-7.425c4.178-2.084,8.599-3.779,12.79-5.864
		c2.64-0.944,5.316-1.774,8.04-2.456c3.536-0.885,7.16-1.617,10.784-2.023c3.812-0.427,7.634,0.079,11.402-0.309
		c0.764,1.942,1.503,3.91,2.31,5.888c1.592,3.904,3.941,7.439,6.882,10.274c0.323,0.899,0.814,1.787,1.126,2.567
		c0.714,1.788,1.426,3.568,2.613,5.105c2.453,3.177,5.917,4.724,9.874,4.116c0.888-0.136,0.771-1.467,0-1.681
		c-3.693-1.026-6.852-2.96-8.712-6.384c3.2,1.845,6.835,2.952,10.797,3.05c1.885,0.047,2.148-2.654,0.433-3.201
		c-6.999-2.232-13.386-5.975-17.077-12.538c-0.505-0.899-0.952-1.82-1.378-2.751c2.957-12.078-1.792-24.269-7.014-35.104
		c-6.589-13.671-13.889-26.435-14.265-42.039c-0.368-15.291,4.196-30.183,9.118-44.486c4.543-13.202,10.573-26.781,12.214-40.759
		c0.609-5.186-0.809-9.154-5.056-12.189c-5.912-4.226-12.883-7.321-19.225-10.864c-13.502-7.544-26.967-15.154-40.499-22.645
		C159,47.158,134.032,35.359,104.841,33.393c-16.069-1.082-32.195,0.223-48.108,2.486c-12.817,1.82-25.855,3.97-38.471,7.261
		C43.801,33.066,71.019,27.216,98.56,27.633c16.356,0.247,32.271,3.026,47.899,7.781c8.149,2.479,16.202,5.263,24.306,7.884
		c6.128,1.982,12.344,4.348,18.659,6.015c5.611,2.806,11.661,4.861,17.455,7.205c7.622,3.085,15.219,6.246,22.721,9.613
		c12.396,5.565,26.242,12.063,35.371,22.456c11.044,12.572,0.344,30.459-3.624,44.046c-2.061,7.059-3.952,14.196-5.483,21.391
		c-1.152,5.413-1.514,10.626-1.905,15.934c-2.486,5.705-4.15,11.704-3.822,18.048c0.368,7.136,3.639,13.447,7.523,19.297
		c9.413,14.179,18.796,28.17,26.883,43.178c6.6,12.247,13.651,25.933,27.595,30.969c12.645,4.566,29.289,1.864,38.962-7.655
		c7.373-7.256,11.429-17.943,10.623-28.251c-0.559-7.134-3.341-14.01-3.264-21.207c0.074-6.961,1.36-14.232,3.548-20.828
		c2.75-8.29,6.821-14.93,7.204-23.845c0.213-4.94,0.631-8.713,4.689-11.947c2.615-2.084,5.679-3.508,8.584-5.13
		c6.688-3.734,11.102-10.56,17.785-13.962c3.158-1.608,6.8-2.034,9.921-3.756c3.784-2.088,5.72-6.269,10.314-6.878
		c8.164-1.082,14.957,6.662,22.573,8.45c1.911,0.449,3.812,0.549,5.707,0.47c1.548,0.767,3.251,1.264,4.785,2.146
		c3.865,2.223,3.768,6.416,3.763,10.372c-0.001,0.862,1.143,1.393,1.755,0.727c2.485-2.709,0.978-8.546-1.166-11.127
		c-1.01-1.216-2.365-2.062-3.86-2.703c2.014-0.326,4.025-0.705,6.036-0.972c2.453,0.582,4.928,1.58,6.028,3.74
		c1.551,3.049,0.815,6.907,1.862,10.131c0.408,1.253,2.128,0.968,2.234-0.302c0.286-3.433-0.114-9.431-2.564-12.194
		c-0.616-0.695-1.351-1.236-2.155-1.669c1.019,0.045,2.038,0.145,3.06,0.356c2.144,0.442,4.191,1.223,6.243,1.987
		c1.008,0.919,1.804,2.061,2.227,3.588c0.786,2.838-0.251,5.839,0.905,8.508c0.22,0.509,0.891,0.35,1.149,0
		c2.009-2.725,1.437-7.638-0.107-10.702c0.883,0.243,1.776,0.454,2.692,0.581c4.189,0.578,8.22-1.002,12.453-0.164
		c10.785,2.135,16.497,13.464,13.114,23.618c-4.144,4.233-13.99,2.488-19.05,2.458c-6.659-0.04-13.262,1.881-19.607,3.706
		C453.837,183.232,436.974,187.452,421.716,183.243z M181.997,424.179c-0.346,5.501-2.165,11.576-2.166,17.173
		c-0.829-0.73-1.564-1.595-2.086-2.826c-0.725-1.711-0.59-3.721-0.572-5.545c0.042-4.162,0.702-8.36,1.833-12.361
		c0.779-2.754,1.824-5.353,3.139-7.763C182.042,416.636,182.23,420.471,181.997,424.179z"/>
</g>
<g>
</g>
<g>
</g>
<g>
</g>
<g>
</g>
<g>
</g>
<g>
</g>
<g>
</g>
<g>
</g>
<g>
</g>
<g>
</g>
<g>
</g>
<g>
</g>
<g>
</g>
<g>
</g>
<g>
</g>
</svg>
