<?xml version="1.0" encoding="iso-8859-1"?>
<!-- Generator: Adobe Illustrator 19.0.0, SVG Export Plug-In . SVG Version: 6.00 Build 0)  -->
<svg version="1.1" id="Capa_1" xmlns="http://www.w3.org/2000/svg" xmlns:xlink="http://www.w3.org/1999/xlink" x="0px" y="0px"
	 viewBox="0 0 512.002 512.002" style="enable-background:new 0 0 512.002 512.002;" xml:space="preserve">
<g>
	<path style="fill:#FFFFFF;" d="M457.326,189.224l-1.62,1l1.743,0.766c2.49,1.093,4.801,2.368,6.866,3.788l1.222,0.841l0.321-1.448
		c0.788-3.557,1.425-6.683,1.947-9.558l0.411-2.257l-1.934,1.236C463.304,185.499,460.29,187.393,457.326,189.224z"/>
	<path style="fill:#FFFFFF;" d="M462.386,163.84l-1.244-0.47l-0.106,1.326c-1.107,13.837-0.43,14.712,0.777,14.995l0.15,0.029h0.111
		c1.104,0,2.798-1.667,10.431-11.998l1.479-2l-2.247,0.025C468.839,165.747,465.78,165.123,462.386,163.84z"/>
	<path style="fill:#FFFFFF;" d="M452.259,177.239l-1.975,1.917c-2.035,1.976-4.062,3.943-6.098,5.91l-1.273,1.232l1.712,0.454
		c1.716,0.456,3.971,1.069,6.205,1.777l1.395,0.442l-0.095-1.46c-0.165-2.544-0.172-5.065-0.02-7.707L452.259,177.239z"/>
	<path style="fill:#FFFFFF;" d="M448.052,173.691l11.116-11.185l-1.26-0.611c-2.536-1.23-5.068-2.66-7.88-4.268l-1.333-0.763
		l-0.158,1.528c-0.444,4.312-0.624,8.667-0.535,12.943L448.052,173.691z"/>
	<path style="fill:#FFFFFF;" d="M438.764,165.871l1.44-2.161c1.661-2.492,3.588-4.721,5.891-6.815l1.025-0.933l-1.208-0.679
		c-2.585-1.452-4.693-2.541-6.635-3.428l-1.384-0.632l-0.031,1.522c-0.058,2.889-0.051,6.699,0.521,10.557L438.764,165.871z"/>
	<path style="fill:#FFFFFF;" d="M438.108,174.234c-2.957,2.128-5.764,4.504-8.341,7.062l-1.196,1.186l1.614,0.482
		c2.871,0.857,5.803,1.606,8.803,2.362l1.321,0.332l-0.724-12.488L438.108,174.234z"/>
	<path style="fill:#FFFFFF;" d="M424.754,170.598c-2.675,1.536-5.319,3.299-7.859,5.243l-1.186,0.907l1.289,0.751
		c2.441,1.422,5.105,2.663,8.146,3.793l1.389,0.516l-0.326-12.044L424.754,170.598z"/>
	<path style="fill:#FFFFFF;" d="M415.821,162.786l-1.652,0.862c-2.05,1.07-4.765,2.455-7.582,3.668l-1.363,0.587l1.057,1.043
		c2.63,2.594,4.908,4.575,7.17,6.234l1.702,1.248l-0.111-2.107c-0.15-2.816,0.173-5.821,0.483-8.728L415.821,162.786z"/>
	<path style="fill:#FFFFFF;" d="M435.355,151.889l1.392-1.14l-1.702-0.581c-1.875-0.64-3.61-1.066-5.308-1.304
		c-1.008-0.138-2.051-0.205-3.189-0.205c-0.822,0-1.698,0.035-2.681,0.108l-1.183,0.088l0.286,1.151
		c0.769,3.083,1.568,6.449,2.516,10.592l0.499,2.181l1.292-1.826C430.131,156.922,432.622,154.126,435.355,151.889z"/>
	<path style="fill:#FFFFFF;" d="M411.937,149.953l-2.26-0.146c-2.193-0.142-4.568-0.457-7.259-0.965l-1.567-0.295l0.417,1.54
		c0.647,2.396,1.286,4.792,1.905,7.198l0.517,2.008l1.25-1.654c1.731-2.291,3.537-4.349,5.367-6.113L411.937,149.953z"/>
	<path style="fill:#FFFFFF;" d="M405.322,127.232c1.723-0.583,2.761-1.605,3.765-2.593c0.3-0.295,0.606-0.598,0.942-0.899
		l0.923-0.827l-1.003-0.727c-1.087-0.788-2.304-0.978-3.378-1.145c-0.659-0.103-1.283-0.2-1.849-0.419l-0.932-0.359l-0.361,0.93
		c-0.253,0.653-0.575,1.311-0.887,1.947l-0.146,0.298c-0.077,0.154-0.129,0.154-0.149,0.154c-0.095,0-0.251-0.073-0.368-0.211
		c-0.072-0.086-0.152-0.225-0.123-0.393c0.185-1.059,0.381-2.089,0.741-3.051l0.257-0.685l-0.688-0.544
		c-0.114-0.094-0.228-0.186-0.354-0.271c-1.961-1.323-3.85-1.958-6.125-2.06l-0.921-0.041l-0.116,0.914
		c-0.569,4.489,0.787,7.69,4.029,9.516c1.099,0.624,2.412,0.954,3.799,0.954C403.359,127.718,404.378,127.55,405.322,127.232z"/>
</g>
<g>
	<path style="fill:#00B6A2;" d="M33.13,452.366c-1.497-0.771-3.098-1.491-4.646-2.186c-1.211-0.544-2.431-1.092-3.624-1.674
		l-1.1,1.649c1.036,0.914,2.052,1.946,3.034,2.943c1.484,1.507,3.018,3.065,4.719,4.328c1.154,0.863,2.34,1.697,3.528,2.532
		c2.62,1.842,5.329,3.746,7.638,5.959l0.604,0.579l2.253-1.639c1.039-0.759,2.079-1.518,3.128-2.268l1.245-0.891l-1.316-0.782
		C43.387,457.822,38.183,454.945,33.13,452.366z"/>
	<path style="fill:#00B6A2;" d="M68.391,430.083c2.788,3.966,5.67,8.066,8.176,12.21l0.53,0.878l2.391-1.532
		c1.38-0.886,2.762-1.772,4.148-2.648l1.28-0.809l-1.247-0.86c-4.002-2.76-7.648-6.683-11.176-10.477
		c-1.386-1.491-2.695-2.9-4.012-4.225c-2.847-2.867-5.627-5.678-8.333-8.542l-1.571,1.222l1.241,1.965
		c1.382,2.191,2.81,4.457,4.285,6.64C65.499,425.968,66.97,428.06,68.391,430.083z"/>
	<path style="fill:#00B6A2;" d="M116.955,407.989c-0.341-0.436-0.68-0.871-1.021-1.297c-3.074-3.864-6.428-7.802-10.25-12.039
		c-5.155-5.7-10.832-11.044-16.322-16.213l-1.733-1.634l-1.461,1.36c2.198,2.69,4.325,5.563,6.383,8.342
		c2.058,2.78,4.186,5.654,6.349,8.29c2.517,3.064,5.258,6.075,7.909,8.987c3.951,4.34,8.037,8.827,11.441,13.562l0.521,0.726
		l0.779-0.437c1.067-0.598,2.145-1.186,3.222-1.775l1.441-0.787l-1.36-0.919C120.561,412.608,118.728,410.26,116.955,407.989z"/>
	<path style="fill:#00B6A2;" d="M165.223,383.365c4.618,2.56,9.393,5.207,13.942,8.03l0.333,0.207l0.386-0.075
		c4.563-0.889,9.167-1.544,13.688-1.945l0.209-1.951c-10.11-3.153-20.801-7.248-32.683-12.52
		c-9.872-4.38-19.497-9.702-28.608-15.816l-1.227,1.574c0.786,0.708,1.627,1.457,2.496,2.149c4.557,3.63,9.499,7.162,15.111,10.798
		C154.189,377.25,159.798,380.359,165.223,383.365z"/>
	<path style="fill:#00B6A2;" d="M266.496,405.72c0.747,0.352,1.49,0.711,2.234,1.071l3.271,1.571l-0.486-2.039
		c-1.504-6.315-2.864-12.788-4.18-19.049l-0.849-4.041c-0.595-2.841-1.189-5.681-1.818-8.518c-0.169-0.751-0.321-1.523-0.476-2.303
		c-0.359-1.822-0.731-3.706-1.344-5.5l-0.087-0.254l-0.202-0.177l-0.237-0.218l-2.498-2.193l0.873,3.208
		c1.157,4.25,1.756,8.821,2.334,13.241c0.177,1.351,0.352,2.688,0.54,3.999c1.079,7.515,1.85,14.149,2.351,20.198v0.734
		L266.496,405.72z"/>
	<path style="fill:#00B6A2;" d="M319.901,427.866l0.19,0.446l0.468,0.128c2.869,0.785,5.897,1.513,8.998,2.164l2.357,0.495
		l-1.314-2.019c-6.503-9.99-10.819-22.623-14.354-33.679c-2.896-9.073-5.831-18.749-7.122-28.507l-1.985,0.236
		c0.367,3.48,0.608,7.054,0.843,10.509c0.357,5.282,0.727,10.743,1.553,16.049C311.21,404.475,314.311,414.696,319.901,427.866z"/>
	<path style="fill:#00B6A2;" d="M434.053,396.427l0.948,1.256l0.734-1.391c1.576-2.984,2.768-6.134,3.539-9.364
		c0.625-2.611,0.974-5.313,1.037-8.03l0.018-0.796l-0.772-0.196c-0.066-0.017-0.117-0.035-0.18-0.066
		c-12.578-5.923-24.085-11.012-37.548-13.311c-5.719-0.975-11.807-1.448-18.612-1.448c-5.753,0-11.404,0.34-15.686,0.637
		l-0.137,1.976c15.1,3.173,27.126,6.768,37.845,11.312C416.068,381.607,427.053,387.144,434.053,396.427z"/>
	<path style="fill:#00B6A2;" d="M338.95,336.855c0.679-2.623,0.979-5.503,0.871-8.332c-0.049-1.156-0.308-2.342-0.559-3.489
		c-0.183-0.84-0.373-1.708-0.468-2.525l-0.119-1.027l-1.022,0.154c-1.137,0.171-2.263,0.352-3.389,0.543l-1.407,0.239l0.705,1.241
		c2.288,4.03,3.44,8.384,3.42,12.942L338.95,336.855z"/>
	<path style="fill:#00B6A2;" d="M126.597,202.529l0.016-0.525c0.093-3.189,0.254-5.774,0.504-8.134l-1.845-0.632
		c-2.786,4.502-6.606,8.687-10.302,12.735c-1.309,1.434-2.662,2.917-3.922,4.365l-0.962,1.104
		c-4.307,4.942-8.76,10.053-13.648,14.526l1.126,1.63c4.936-2.496,9.216-6.589,13.355-10.548c1.193-1.141,2.365-2.262,3.525-3.315
		c1.275-1.159,2.546-2.479,3.891-3.876c2.487-2.585,5.06-5.258,7.82-7.043L126.597,202.529z"/>
	<path style="fill:#00B6A2;" d="M134.971,166.682l0.189-0.57c1.091-3.271,2.311-6.579,3.629-9.831l1.18-2.912l-2.645,1.694
		c-2.822,1.808-6.26,3.016-9.584,4.184c-1.33,0.467-2.706,0.951-3.994,1.459c-5.792,2.286-11.556,4.525-17.131,6.656
		c-2.69,1.029-5.371,2.136-8.21,3.308c-4.277,1.766-8.701,3.592-13.117,5.111l0.51,1.929c1.808-0.339,3.617-0.67,5.428-1.001
		c4.746-0.868,9.653-1.766,14.457-2.794c4.173-0.895,8.38-2.068,12.448-3.203c5.316-1.483,10.814-3.016,16.248-3.928
		L134.971,166.682z"/>
	<path style="fill:#00B6A2;" d="M156.629,122.861l0.268-0.391c1.203-1.752,2.52-3.585,3.915-5.446l1.37-1.827l-2.271,0.232
		c-4.63,0.473-9.343,0.896-13.9,1.304c-8.246,0.739-16.772,1.502-25.147,2.599c-7.873,1.034-15.707,2.199-23.281,3.465
		c-1.178,0.191-2.355,0.413-3.533,0.634l0.212,1.983c4.039-0.112,8.078-0.209,12.116-0.306c16.312-0.393,33.179-0.798,49.781-2.208
		L156.629,122.861z"/>
	<path style="fill:#00B6A2;" d="M202.754,76.704l0.382,0.057l0.32-0.213c3.031-2.017,5.724-3.718,8.234-5.202l3.063-1.811
		l-3.558-0.05c-3.808-0.054-7.71-0.264-11.484-0.467c-3.894-0.21-7.92-0.427-11.85-0.473c-2.646-0.03-5.29-0.045-7.937-0.045
		c-7.262,0-14.5,0.116-21.517,0.345c-9.129,0.306-19.088,0.886-30.443,1.772l-2.971,0.232c-2.74,0.217-5.574,0.442-8.349,0.596
		l-0.063,1.992c2.557,0.305,5.574,0.637,8.567,0.786c6.93,0.355,14.341,0.514,24.029,0.514l2.354-0.003
		c2.389-0.004,4.783-0.018,7.181-0.032c2.87-0.017,5.745-0.033,8.623-0.033C178.685,74.67,190.829,74.916,202.754,76.704z"/>
	<path style="fill:#00B6A2;" d="M252.954,40.666c4.486,1.302,8.987,2.662,13.377,4.043c0.88,0.278,1.782,0.532,2.688,0.787
		c2.509,0.706,5.103,1.436,7.247,2.727l0.306,0.184l0.354-0.051c3.68-0.535,6.91-0.926,9.876-1.193
		c1.557-0.14,3.134-0.28,4.732-0.41l0.157-1.968c-8.876-2.179-17.837-4.685-26.504-7.108c-11.135-3.114-22.649-6.333-34.147-8.907
		c-18.375-4.105-36.89-7.103-52.578-9.493l-0.475,1.935c5.531,1.894,10.974,3.714,16.741,5.163
		c5.494,1.378,11.113,2.61,16.548,3.801c3.851,0.844,7.831,1.717,11.728,2.633C233.066,35.167,243.143,37.81,252.954,40.666z"/>
	<path style="fill:#00B6A2;" d="M297.441,180.772c6.561-2.86,13.121-5.72,19.681-8.59c6.257-2.73,12.303-4.873,19.02-6.74
		l0.694-0.185c0.619-0.164,1.395-0.369,2.25-0.607c6.619-1.811,10.031-3.413,11.061-5.192c0.293-0.504,1.185-2.038,0.494-3.237
		c-0.41-0.713-1.217-1.074-2.397-1.074c-1.675,0-3.898,0.701-5.228,1.12l-0.205,0.064c-3.463,1.093-6.765,2.327-9.539,3.39
		c-12.768,4.91-26.132,10.45-36.869,19.364L297.441,180.772z"/>
	<path style="fill:#00B6A2;" d="M334.522,139.542c1.727,0,4.435-0.814,4.76-2.559c0.146-0.787-0.135-1.902-2.311-2.742
		c-0.64-0.246-1.357-0.365-2.19-0.365c-0.939,0-1.889,0.15-2.807,0.295c-0.83,0.131-1.613,0.254-2.304,0.254l-0.104-0.001
		c-2.111-0.031-4.263-0.17-6.342-0.305c-1.263-0.082-2.525-0.164-3.784-0.224c-6.154-0.298-12.404-0.895-18.448-1.473
		c-8.659-0.828-17.613-1.684-26.488-1.684c-0.688,0-1.378,0.005-2.067,0.016l0.016,2c0.987,0,2.082,0.354,3.242,0.729
		c0.99,0.32,2.014,0.651,3.041,0.774l7.785,0.914c8.04,0.943,16.08,1.886,24.155,2.847c4.677,0.547,8.531,0.914,12.13,1.155
		c0.873,0.058,1.794,0.149,2.739,0.244c1.756,0.175,3.571,0.355,5.344,0.355c1.188,0,2.223-0.082,3.158-0.249
		C334.202,139.536,334.36,139.542,334.522,139.542z"/>
	<path style="fill:#00B6A2;" d="M338.773,108.112c1.716-0.123,2.808-0.656,3.246-1.584c0.205-0.434,0.427-1.335-0.392-2.492
		l-0.262-0.369l-0.45-0.047c-3.287-0.344-6.175-1.569-9.608-3.134c-1.702-0.782-3.23-1.495-4.691-2.306l-0.12-0.067l-0.135-0.032
		c-0.137-0.032-0.241-0.071-0.326-0.12c-5.922-3.46-12.563-5.669-18.983-7.807c-4.64-1.544-9.438-3.141-13.882-5.188l-1.561-0.723
		c-7.942-3.677-15.444-7.151-23.759-8.928l-0.577,1.908c11.196,4.437,22.326,9.654,33.09,14.698
		c2.267,1.063,4.532,2.125,6.797,3.179c2.831,1.317,5.656,2.651,8.482,3.985c5.009,2.364,10.188,4.809,15.316,7.119l0.136,0.062
		c2.408,1.091,4.147,1.88,6.724,1.88C338.125,108.148,338.442,108.136,338.773,108.112z"/>
	<path style="fill:#00B6A2;" d="M383.509,53.34c-1.315-8.332-2.212-15.81-2.74-22.859l-1.988,0.042l-0.015,0.075l-0.003,0.077
		c-0.197,4.864-0.111,9.989,0.261,15.667c0.666,10.077,2.503,20.201,5.461,30.091l0.071,0.239l0.176,0.178
		c1.26,1.271,2.169,2.146,2.941,2.829c0.261,0.235,0.527,0.45,0.796,0.667l0.192,0.156l1.509-1.256
		c-3.773-6.902-5.171-16.112-6.294-23.512C383.752,54.912,383.63,54.112,383.509,53.34z"/>
	<path style="fill:#00B6A2;" d="M316.043,73.728c-2.189-0.938-4.259-1.825-6.31-2.6c-3.549-1.33-7.088-2.669-10.626-4.009
		l-0.873,1.791c1.87,1.132,3.754,2.244,5.623,3.347c1.301,0.768,2.595,1.532,3.869,2.294c6.637,3.999,13.82,8.219,21.391,11.989
		l0.887,0.442l0.45-0.884c1.048-2.062,2.009-3.85,2.935-5.466l0.754-1.313l-1.504-0.177
		C327.171,78.497,321.514,76.073,316.043,73.728z"/>
	<path style="fill:#00B6A2;" d="M353.709,50.424c-2.436-4.438-4.733-8.321-7.027-11.872c-2.662-4.116-5.69-8.26-9.529-13.043
		l-1.692,1.037c1.641,3.642,3.274,7.287,4.907,10.932c3.427,7.646,6.971,15.554,10.511,23.268l0.045,0.127l0.422,0.864l0.842-0.299
		c1.1-0.391,2.129-0.672,3.146-0.859l0.158-0.029l0.141-0.077c0.544-0.297,1.119-0.536,1.761-0.731l1.255-0.381l-0.7-1.109
		c-0.992-1.572-1.872-3.286-2.723-4.942C354.727,52.339,354.229,51.37,353.709,50.424z"/>
	<path style="fill:#00B6A2;" d="M483.385,134.981c-4.064-3.324-8.853-3.452-13.485-3.576l-0.75-0.021
		c-2.82-0.083-5.736-0.168-8.44-0.886l-2.285-0.607l1.156,2.063c0.363,0.649,0.574,1.229,0.662,1.821
		c0.355,2.495-0.81,5.49-2.632,6.842c0.143-0.808,0.501-1.61,0.878-2.454c0.696-1.561,1.486-3.329,0.884-5.39
		c-0.404-1.384-1.267-2.477-2.104-3.539l-0.126-0.159l-0.177-0.098c-0.651-0.359-1.291-0.746-1.93-1.132
		c-1.798-1.088-3.657-2.213-5.806-2.736l-3.313-1.657l2.158,3.173c0.561,0.823,0.965,1.76,1.201,2.778
		c0.618,2.739,0.258,6.581-1.327,8.512c-0.084-0.989,0.168-2.015,0.432-3.089c0.192-0.784,0.393-1.595,0.477-2.449
		c0.288-3.037-0.467-5.658-2.126-7.378l-0.272-0.283l-0.393-0.021c-0.641-0.035-1.282-0.05-1.923-0.065
		c-1.355-0.032-2.635-0.062-3.9-0.281l-2.057-0.356l1.011,1.826c0.647,1.167,1.076,2.391,1.278,3.638
		c0.179,1.089,0.594,4.56-1.039,6.079c-0.04-0.794,0.105-1.632,0.258-2.509c0.171-0.983,0.347-2.001,0.286-3.07
		c-0.129-2.187-0.832-4.307-2.033-6.131l-0.15-0.228l-0.245-0.12c-2.109-1.034-4.01-2.826-5.494-5.187
		c-1.695-2.682-2.648-5.742-3.568-8.702c-1.605-5.159-3.265-10.493-8.863-13.852c-4.2-2.516-9.009-3.448-13.659-4.349
		c-3.41-0.66-6.935-1.343-10.115-2.648c-6.673-2.744-11.811-7.711-16.922-12.991c-0.488-0.504-1.017-1.064-1.579-1.662
		c-4.509-4.784-11.322-12.013-18.306-12.013l-0.123,0.001l-0.12,0.031c-2.059,0.531-3.986,1.234-5.73,2.091l-0.183,0.106
		l-0.094,0.08l-0.118,0.088c-0.103,0.087-0.208,0.14-0.311,0.155l-0.174,0.026l-0.155,0.084
		c-10.421,5.63-16.054,16.766-21.502,27.535c-0.677,1.338-1.351,2.67-2.031,3.986l-0.485,0.938l0.965,0.433
		c0.988,0.443,1.966,0.877,2.959,1.292c0.787,0.323,1.589,0.666,2.402,1.012c2.488,1.061,5.06,2.157,7.639,2.93
		c1.475,0.444,2.388,1.06,2.714,1.828c0.303,0.711,0.147,1.676-0.463,2.866c-1.014,1.961-2.664,2.914-5.046,2.914
		c-1.293,0-2.826-0.285-4.557-0.847l-2.455-0.797l1.277,2.244c3.366,5.908,3.255,15.035-0.233,19.148l-1.303,1.537l2.012,0.109
		c0.919,0.05,1.848,0.109,2.772,0.188l0.413,0.033c2.333,0.183,4.745,0.372,5.657,2.384c0.623,1.373,0.67,2.504,0.144,3.457
		c-0.911,1.652-3.67,2.905-7.568,3.439l-2.342,0.32l1.86,1.458c0.839,0.657,1.63,1.483,2.286,2.389
		c1.714,2.368,2.431,5.348,2.02,8.39l-0.223,1.646l1.56-0.574c2.787-1.027,5.036-1.526,6.875-1.526c2.201,0,3.727,0.726,4.662,2.22
		c0.882,1.401,1.126,2.672,0.726,3.777c-0.525,1.449-2.204,2.728-4.607,3.509l-0.088,0.029l-0.082,0.044
		c-0.61,0.333-1.166,0.603-1.698,0.827l-3.158,1.325l3.375,0.582c7.99,1.379,15.7,6.828,23.155,12.097
		c7.885,5.573,16.038,11.336,24.786,12.558l2.263,0.311c5.511,0.75,10.716,1.458,16.023,3.455c4.266,1.605,8.44,3.633,12.478,5.595
		c1.759,0.855,3.519,1.711,5.293,2.536c7.952,3.699,15.163,5.575,21.431,5.575c6.381,0,11.687-1.975,15.772-5.868l0.779-0.743
		l-0.799-0.723c-8.253-7.457-19.137-10.161-29.663-12.775c-7.899-1.962-16.068-3.991-22.994-8.018
		c-5.989-3.48-10.57-7.998-15.421-12.78c-1.731-1.708-3.522-3.473-5.384-5.19c-7.502-6.925-17.228-9.134-26.634-11.27l-0.441-0.1
		c-0.604-0.139-0.772-0.632-0.818-0.913c-0.078-0.472,0.071-1.088,0.579-1.401c3.911-2.411,8.753-3.584,14.802-3.584
		c2.707,0,5.607,0.236,8.868,0.722c1.887,0.279,3.809,0.622,5.666,0.953c4.075,0.727,8.29,1.478,12.535,1.638
		c0.34,0.012,0.678,0.018,1.017,0.018c2.956,0,5.85-0.445,8.648-0.875c1.735-0.267,3.531-0.542,5.31-0.707
		c0.789-0.072,1.593-0.109,2.39-0.109c8.334,0,16.058,4.012,23.254,8.122c7.668,4.378,16.002,8.652,26.122,8.652
		c1.352,0,2.735-0.077,4.112-0.227l0.189-0.021l0.168-0.089c6.404-3.371,10.173-9.653,9.6-16.004
		C489.197,142.186,486.875,137.837,483.385,134.981z M383.978,127.361c-0.254-2.699,0.398-5.396,1.991-8.212
		c-1.03,2.29-1.542,4.44-1.557,6.526c-0.037,3.674,1.513,6.246,3.679,8.971C385.457,133.287,384.227,130.023,383.978,127.361z
		 M418.642,128.937c-0.784,0-1.622-0.164-2.493-0.49c-0.996-0.368-1.749-0.877-2.442-1.649l-1.444-1.611l-0.291,2.144
		c-0.516,3.806-4.304,7.55-8.118,8.349c1.804-0.987,3.673-2.208,5.161-3.834c1.119-1.238,1.848-2.597,2.357-3.643l-1.582-1.168
		c-1.672,1.562-4.341,2.496-7.139,2.496c-1.886,0-3.664-0.427-5.009-1.201c-2.733-1.579-4.707-4.92-4.911-8.314l-1.95-0.246
		c-0.842,2.622-0.827,4.913,0.045,7.206c0.689,1.839,1.874,3.192,3.02,4.501c0.257,0.293,0.519,0.592,0.774,0.896
		c-2.117-0.811-3.292-2.552-3.918-3.944c-1.401-3.117-1.305-7.344,0.236-10.278l0.807-1.537l-1.734,0.073
		c-0.398,0.017-0.81,0.027-1.232,0.027c-0.301,0-0.607-0.005-0.916-0.017l-0.613-0.024l-0.02,0.034l-1.228-0.226
		c-6.035-1.104-8.513-5.974-8.801-9.809c-0.245-3.268,0.993-7.522,5.006-9.99c-2.686,2.647-3.991,6.553-3.251,10.251
		c0.79,3.942,3.756,6.649,7.936,7.243c0.608,0.086,1.234,0.128,1.914,0.128c1.364,0,2.71-0.172,4.011-0.338
		c1.275-0.163,2.48-0.317,3.678-0.317c1.648,0,2.992,0.306,4.228,0.961c0.844,0.447,1.541,1.063,2.278,1.715
		c1.156,1.021,2.352,2.078,4.156,2.496c0.521,0.12,1.016,0.177,1.493,0.233c1.007,0.118,1.803,0.21,2.524,0.815
		c0.683,0.579,1.063,1.461,1.465,2.395c0.384,0.891,0.78,1.813,1.479,2.612c1.602,1.826,3.742,2.453,5.811,3.06
		c0.392,0.114,0.781,0.229,1.17,0.353C420.365,128.719,419.54,128.937,418.642,128.937z M474.524,149.616
		c-0.392,1.831-2.215,3.265-4.152,3.265c-0.425,0-0.833-0.072-1.218-0.215c-0.237-0.086-0.513-0.197-0.728-0.343
		c-0.157-0.113-0.309-0.256-0.476-0.45l-0.131-0.152l-0.033-0.017c-0.474-0.558-0.716-1.289-0.686-2.15
		c-0.104-1.993,0.89-4.219,2.259-5.069c0.541-0.336,1.08-0.506,1.602-0.506c1.159,0,2.007,0.834,2.41,1.331
		C474.351,146.52,474.815,148.251,474.524,149.616z M479.933,149.381c-0.311-1.08-0.364-2.187-0.421-3.349
		c-0.047-0.955-0.095-1.942-0.285-2.962c-0.161-0.903-0.59-3.301-2.875-3.868c-0.297-0.07-0.612-0.105-0.936-0.105
		c-0.511,0-1.009,0.084-1.489,0.211c0.727-0.223,1.499-0.384,2.234-0.384c1.318,0,2.276,0.506,3.014,1.592
		C480.757,142.856,481.059,146.83,479.933,149.381z"/>
	<path style="fill:#00B6A2;" d="M431.228,297.612l-0.11-0.082l-0.006-0.011l-0.179-0.13c-2.649-1.941-5.192-3.528-7.84-4.884
		c-12.368-5.249-26.161-7.8-42.167-7.8c-15.762,0-31.981,2.441-47.666,4.802c-5.057,0.761-10.285,1.548-15.401,2.238
		c-15.331,2.066-27.983,3.029-39.817,3.029c-21.921,0-40.521-3.433-56.862-10.496c-26.832-11.603-46.247-32.837-51.935-56.802
		c-5.197-21.925-1.239-44.132,11.447-64.222c17.492-27.699,50.178-49.59,85.301-57.13l0.763-0.164l0.026-0.779
		c0.041-1.163,0.051-2.331,0.03-3.47c-0.116-7.498-0.358-23.1-8.65-27.777c-0.798-0.448-0.775-1.135-0.69-1.504
		c0.139-0.61,0.682-1.291,1.543-1.345c0.672-0.041,1.34-0.061,2.007-0.061c10.406,0,20.215,4.768,29.7,9.379l0.975,0.474
		c6.035,2.926,11.975,5.73,18.285,7.877l1.694,0.572c4.728,1.593,9.192,3.098,13.541,5.21l0.901,0.438l1.185-2.46
		c0.478-0.995,0.969-2.019,1.478-3.057l0.41-0.835l-0.803-0.469c-2.939-1.717-5.895-3.4-8.852-5.082
		c-4.401-2.505-8.953-5.096-13.354-7.759c-2.999-1.816-6.001-3.803-8.903-5.724c-4.41-2.919-8.971-5.937-13.68-8.47
		c-0.481-0.261-0.439-0.747-0.372-1.015c0.102-0.4,0.411-0.807,0.807-0.807c0.085,0,0.177,0.017,0.272,0.052l3.501,1.263
		l0.242-0.033c7.125-0.977,14.367-4.247,20.945-9.457l2.423-1.919l-3.088,0.136c-3.057,0.135-6.176,0.167-9.191,0.199
		c-5.249,0.055-10.676,0.111-16.045,0.706c-9.25,1.029-18.691,2.884-28.059,5.511c-32.889,9.212-62.005,27.492-84.203,52.865
		c-19.79,22.624-33.642,50.324-42.347,84.683l-0.021,0.086l-0.006,0.088c-0.48,6.742-0.121,13.583,0.227,20.198
		c0.09,1.713,0.179,3.404,0.251,5.066c0.553,12.794,1.868,29.522,7.17,45.453c8.857,26.627,30.189,48.396,58.528,59.723
		c15.604,6.231,33.195,9.39,52.287,9.39c10.847,0,22.276-1.024,33.974-3.043c8.766-1.513,17.615-3.489,26.174-5.399
		c18.107-4.042,36.832-8.223,55.714-8.223c0.684,0,1.372,0.005,2.057,0.017c27.421,0.437,50.457,10.631,64.864,28.703
		c5.668,7.112,12.576,18.37,13.304,31.613c0.737,13.198-5.939,23.642-11.669,30.079c-14.377,16.144-37.574,26.768-63.643,29.149
		c-3.516,0.32-7.121,0.483-10.717,0.483c-21.177,0-44.042-5.637-67.961-16.753c-4.392-2.043-8.822-4.202-13.107-6.29
		c-20.391-9.937-41.476-20.211-65.309-21.312c-1.701-0.078-3.43-0.118-5.139-0.118c-27.695,0-52.347,10.394-70.788,19.482
		c-4.074,2.361-8.272,4.686-12.333,6.934c-5.083,2.814-10.34,5.725-15.416,8.742c-12.231,7.255-24.209,14.846-35.601,22.561
		c-3.52,2.383-7.095,4.856-10.627,7.351l1.094,1.673c8.668-5.229,17.919-10.135,27.495-14.579
		c33.246-15.432,68.379-23.589,101.601-23.589c8.956,0,17.877,0.593,26.515,1.763c20.063,2.712,40.85,9.203,63.55,19.845
		c3.654,1.71,7.274,3.496,10.776,5.223c11.279,5.561,21.934,10.815,34.317,14.147c14.74,3.958,29.607,5.964,44.187,5.964
		c20.123,0,38.648-3.802,55.06-11.301c30.313-13.858,49.765-37.9,52.03-64.314c1.571-18.309-3.85-37.794-16.113-57.916
		C452.921,320.602,443.556,306.762,431.228,297.612z"/>
</g>
<path style="fill:#63E5CF;" d="M507.799,363.72h-0.012l-0.07-0.704c-0.41-4.119-0.975-8.18-1.681-12.069l0,0h0.002l-0.037-0.19
	l-0.138-0.76l-0.008,0.001l-0.081-0.423c-1.012-5.26-2.296-10.475-3.815-15.5l-0.378-1.249l-0.004,0.003l-0.141-0.445
	c-1.797-5.689-3.872-11.204-6.17-16.393l-0.625-1.412l-0.018,0.02c-2.039-4.488-4.227-8.788-6.501-12.779l-0.697-1.223l-0.011,0.012
	l-0.088-0.15c-2.035-3.474-4.172-6.827-6.352-9.965l-0.585-0.842l0.003-0.003l-0.495-0.695
	c-5.063-7.113-10.724-13.752-16.824-19.733l-1.188-1.164l-0.006,0.022c-3.898-3.733-7.903-7.176-11.91-10.229l-1.017-0.775
	l0.002-0.009l-0.548-0.405c-4.177-3.093-8.506-5.933-12.865-8.443l-1.572-0.905l0.001,0.025l-0.121-0.068
	c-6.603-3.673-13.53-6.779-20.602-9.235l-3.221-1.045l0.003,0.005l-0.256-0.077c-5.008-1.518-10.343-2.7-15.855-3.512l-2.694-0.398
	l0.031,0.035c-3.848-0.478-7.811-0.799-11.785-0.949l-2.078-0.078l0.018,0.025l-0.313-0.007c-1.297-0.03-2.595-0.045-3.894-0.045
	c-4.537,0-9.224,0.172-14.329,0.527l-2.934,0.204l0.02,0.014c-2.775,0.221-5.489,0.47-8.074,0.747l-1.545,0.165l-0.007-0.007
	l-0.472,0.053c-5.873,0.652-11.719,1.418-16.662,2.082l-1.415,0.19l-0.021-0.012l-0.357,0.056c-0.173,0.027-0.347,0.055-0.547,0.076
	c-2.251,0.302-4.527,0.617-6.827,0.935c-3.34,0.462-6.727,0.931-10.149,1.374l-1.359,0.176l-0.003-0.002l-0.363,0.045
	c-4.513,0.567-10.478,1.276-16.599,1.725l-2.245,0.165c-4.053,0.263-7.808,0.393-11.462,0.393h-1.66
	c-4.306-0.041-8.493-0.284-12.449-0.724l-0.834-0.093l-0.008-0.012l-0.433-0.054c-3.452-0.434-6.827-1.04-10.034-1.801l-0.865-0.205
	l-0.003-0.005l-0.416-0.106c-2.529-0.644-4.996-1.408-7.332-2.269l-1.206-0.445c-1.423-0.554-2.692-1.105-3.868-1.684l-1.164-0.573
	v-0.001l-0.547-0.292c-3.295-1.758-6.29-3.835-8.903-6.172l-0.652-0.583l-0.196-0.187c-1.465-1.392-2.701-2.74-3.78-4.121
	l-0.61-0.781l0.006-0.016l-0.321-0.449c-1.367-1.915-2.515-3.903-3.409-5.905c-0.116-0.26-0.222-0.52-0.327-0.779l-0.498-1.23
	l-0.173-0.507c-0.891-2.616-1.388-5.341-1.477-8.1l-0.043-1.357l0.036-0.023l0.017-0.525c0.067-2.064,0.348-4.15,0.833-6.202
	l0.462-1.945l0.051-0.034l0.103-0.343c0.465-1.54,1.042-3.088,1.716-4.602l0.45-1.01l0.238-0.492c0.59-1.22,1.226-2.406,1.894-3.531
	c0.295-0.506,0.605-1.003,0.916-1.499l1.016-1.639h0.027l0.301-0.455c0.504-0.761,1.018-1.522,1.552-2.273l0.734-1.033l0.024,0.001
	l0.321-0.434c1.372-1.858,2.698-3.531,4.055-5.113l0.774-0.903l0.007,0.002l0.387-0.436c2.615-2.947,5.409-5.727,8.302-8.262
	l1.094-0.959c1.235-1.049,2.309-1.922,3.324-2.698l0.665-0.509l0.516-0.385c2.766-2.063,5.571-3.915,8.34-5.504l1.526-0.876
	l0.017,0.004l0.345-0.186c3.092-1.67,6.267-3.104,9.438-4.261l0.947-0.345l0.586-0.195c1.809-0.604,3.47-1.086,5.079-1.477
	l1.454-0.353l-0.882-1.209c-3.118-4.271-7.152-7.4-11.992-9.301l-2.39-0.939l0.061,0.125c-0.055-0.019-0.108-0.036-0.138-0.046
	c-0.566-0.165-0.787-0.538-0.872-0.821c-0.128-0.424-0.024-0.906,0.23-1.265l0.012,0.042l0.306-0.406l0.18-0.181l-0.012-0.042
	l0.736-0.975c3.911-5.187,6.299-11.896,7.097-19.943l0.152-1.537l-1.465,0.49c-3.891,1.3-7.44,2.547-10.851,3.811l-0.919,0.34
	l0.004,0.011c-3.426,1.278-6.49,2.487-9.363,3.688v-0.005l-1.402,0.592c-2.882,1.217-5.888,2.58-8.939,4.048l0.001-0.005
	l-0.282,0.139c-0.056,0.027-0.111,0.053-0.167,0.079l-0.516,0.249l-0.001,0.008l-0.721,0.355c-5.252,2.59-10.28,5.411-14.944,8.384
	l-0.373,0.238l-0.002-0.01l-1.277,0.839c-2.665,1.751-5.264,3.621-7.751,5.55l-0.004-0.037l-1.43,1.143
	c-3.355,2.681-6.541,5.548-9.479,8.522l-0.001-0.001l-0.028,0.03c-0.043,0.044-0.089,0.086-0.132,0.13l-0.4,0.407l0.004,0.017
	l-0.655,0.687c-4.221,4.429-8.015,9.229-11.275,14.267l-0.146,0.226l-0.009-0.015l-0.855,1.374
	c-1.698,2.733-3.296,5.658-4.759,8.695l-0.015-0.021l-0.714,1.544c-1.605,3.471-3.014,7.135-4.209,10.895l-0.024-0.042l-0.66,2.267
	c-1.133,3.891-1.997,7.976-2.586,12.145l-0.045-0.062l-0.282,2.558c-0.678,6.151-0.632,12.282,0.121,18.233l-0.055-0.039l0.37,2.331
	c1.129,7.119,3.315,13.91,6.484,20.202l-0.059-0.014l1.351,2.458c0.23,0.424,0.463,0.851,0.709,1.27
	c3.635,6.227,8.281,12.053,13.804,17.327l-0.042,0.005l1.599,1.454c2.47,2.246,5.148,4.398,7.958,6.423l-0.061,0.005l1.093,0.741
	l0.15,0.105h0.005l1.127,0.765c6.872,4.661,14.574,8.594,22.891,11.709l-0.035,0.019l1.256,0.44l0.07,0.026l0.001-0.001l0.777,0.272
	c4.651,1.631,9.492,2.988,14.396,4.058l-0.034,0.031l1.942,0.388l0.509,0.105l0.501,0.106l-0.001-0.003l0.208,0.043
	c4.532,0.874,9.19,1.523,14.238,1.984l0.017,0.001l-0.017,0.02l1.934,0.149c4.298,0.332,8.735,0.493,13.565,0.493h0.293l-0.014,0.02
	l1.964-0.02c6.22-0.064,12.9-0.434,20.419-1.13l-0.01,0.015l2.1-0.21c4.354-0.435,8.996-0.985,15.052-1.784l0.174-0.023
	l-0.002,0.004l1.691-0.231c5.242-0.717,10.349-1.47,14.659-2.114l-0.002,0.003l1.983-0.292c3.608-0.53,7.207-1.049,10.805-1.562
	l-0.012,0.017l2.285-0.335c0.746-0.109,1.503-0.218,2.25-0.318c6.312-0.853,11.938-1.445,17.194-1.813l1.774-0.111
	c3.064-0.191,6.13-0.298,9.114-0.318l0.314-0.002l0.947,0.002c4.75,0.01,9.339,0.26,13.641,0.744l0.363,0.041l1.393,0.177
	c2.819,0.358,5.688,0.864,8.526,1.503l0.563,0.127l0.7,0.17c1.591,0.386,3.284,0.861,5.179,1.453l0.416,0.13l0.013-0.008
	l1.008,0.341c3.121,1.054,6.158,2.33,9.026,3.793l0.37,0.189l0.915,0.499c2.609,1.42,4.929,2.893,7.091,4.503l0.082,0.061
	l0.092,0.043c1.05,0.491,2.154,1.094,3.474,1.898l0.413,0.251l0.018-0.007l0.622,0.407c2.725,1.786,5.364,3.974,8.07,6.689
	l0.3,0.301h0.005l0.96,1.004c1.226,1.281,2.462,2.663,3.777,4.222c1.095,1.305,2.171,2.629,3.236,3.954l0.282,0.35h0.002
	l0.471,0.594c3.393,4.279,6.528,8.574,9.321,12.763l0.146,0.22l0.58,0.884c2.34,3.568,4.364,6.925,6.189,10.263
	c0.171,0.311,0.335,0.635,0.499,0.956l0.415,0.811h0.017l0.278,0.534c2.048,3.926,3.887,7.996,5.464,12.097l0.278,0.724l0.011-0.001
	l0.207,0.556c1.305,3.512,2.414,7.071,3.298,10.577l0.071,0.281l0.225,0.954c1.014,4.297,1.709,8.621,2.067,12.854l0.073,0.868
	l0.015,0.217c0.225,3.255,0.238,6.601,0.04,9.942l-0.056,0.931l-0.023,0.301c-0.179,2.31-0.471,4.619-0.867,6.861
	c-0.274,1.532-0.647,3.174-1.142,5.018l-0.415,1.545l-0.007,0.003l-0.14,0.461c-0.825,2.729-1.875,5.46-3.211,8.35l-0.538,1.166
	l-0.003,0.006c-1.197,2.462-2.602,4.965-4.174,7.441l-0.518,0.815l-0.331,0.496c-2.467,3.699-5.375,7.372-8.644,10.917l-0.83,0.9
	c-2.322,2.454-4.874,4.883-7.587,7.22l-0.989,0.851c-1.624,1.365-2.997,2.47-4.313,3.471c-2.063,1.565-4.276,3.1-6.581,4.562
	l-1.105,0.7c-3.287,2.039-6.78,3.944-10.399,5.661l-0.435,0.206l-0.013-0.01l-0.563,0.26c-4.476,2.068-9.225,3.886-14.116,5.403
	l-0.542,0.168l-0.43,0.129c-3.576,1.075-7.4,2.037-11.365,2.859l-0.301,0.062l0,0l-0.739,0.146
	c-3.746,0.74-7.798,1.348-12.044,1.807l-0.257,0.028l-0.715,0.071c-4.203,0.421-8.526,0.675-12.849,0.755l-1.645,0.031l0.001,0.002
	c-0.47,0.004-0.94,0.008-1.411,0.008c-3.506,0-7.19-0.121-10.952-0.358l-0.543-0.034l-0.651-0.045
	c-3.564-0.249-7.179-0.62-11.048-1.134l-0.189-0.025l0.001-0.003l-1.167-0.161c-3.032-0.418-6.122-0.935-9.446-1.581l-0.64-0.125
	l0,0l-0.625-0.125c-3.556-0.711-7.271-1.575-11.042-2.567l-0.278-0.073l-0.975-0.265c-3.48-0.944-6.829-1.952-9.884-2.966
	l-0.147-0.065l-0.14-0.036l-1.466-0.522c-6.485-2.306-12.454-5.168-17.45-7.673l0,0l-1.293-0.656
	c-1.844-0.935-3.682-1.883-5.518-2.832c-1.66-0.857-3.319-1.713-4.98-2.558l-0.019-0.01l0.004-0.005l-1.116-0.565
	c-4.026-2.04-8.831-4.406-13.929-6.482c-0.167-0.069-0.332-0.133-0.496-0.199l0.006-0.004l-1.663-0.662
	c-5.518-2.195-11.076-4.178-16.528-5.904l0.015-0.015l-1.594-0.488c-5.057-1.549-10.08-2.889-14.935-3.984l0.02-0.02l-1.786-0.388
	c-5.365-1.165-10.762-2.076-16.059-2.723l0.008-0.007l-0.42-0.046c-0.074-0.009-0.15-0.021-0.224-0.029l-0.43-0.051l-0.008,0.007
	l-1.15-0.127c-3.823-0.423-7.824-0.75-11.891-0.977l0.006-0.009l-0.672-0.029l-0.067-0.004v0.001l-1.103-0.048
	c-3.105-0.135-6.292-0.203-9.474-0.203c-0.46,0-0.919,0.004-1.379,0.007l0.022-0.028l-2.108,0.033
	c-4.977,0.079-10.013,0.337-14.974,0.763l0.001-0.002l-0.128,0.012c-0.047,0.004-0.094,0.007-0.141,0.011l-0.518,0.045l-0.004,0.006
	l-1.065,0.1c-5.649,0.528-11.434,1.322-17.21,2.344l0.025-0.029l-1.146,0.221l-0.337,0.061l-0.003,0.004l-1.305,0.252
	c-0.372,0.072-0.745,0.141-1.118,0.209c-0.566,0.104-1.131,0.208-1.695,0.323c-5.281,1.088-10.613,2.41-16.266,4.023l0.017-0.036
	l-2.134,0.634c-5.295,1.573-10.704,3.39-16.075,5.402l-0.528,0.198l-0.002,0.009l-0.804,0.305
	c-3.594,1.364-7.331,2.899-11.705,4.806l0.005-0.025l-1.78,0.789c-3.704,1.641-7.477,3.415-11.224,5.264l0.004-0.014l-0.617,0.311
	l-0.352,0.175l-0.001,0.003l-1.076,0.542c-3.856,1.943-7.835,4.049-12.149,6.434v-0.009l-1.485,0.825
	c-5.868,3.258-11.824,6.762-17.702,10.414l0.966,1.749c5.952-2.9,11.988-5.61,17.941-8.054l0.468-0.192l0.004,0.007l2.577-1.07
	c3.198-1.267,6.562-2.518,10.283-3.826l1.224-0.43l-0.005-0.007l0.177-0.062c3.706-1.287,7.654-2.55,11.735-3.756l1.181-0.349
	l0.01,0.011l0.591-0.169c4.612-1.324,8.937-2.448,13.219-3.437l1.681-0.388c4.47-0.995,8.635-1.817,12.701-2.5l0.922-0.155
	l0.004,0.007l0.678-0.111c5.65-0.925,11.255-1.638,16.658-2.121l1.079-0.096l-0.003-0.015l0.467-0.039
	c6.147-0.512,12.183-0.777,17.938-0.786l1.161-0.002l-0.002-0.012l0.544,0.003c5.126,0.031,10.132,0.235,14.877,0.607l1.384,0.108
	l0,0l0.466,0.041c4.219,0.375,8.387,0.874,12.389,1.483l1.775,0.27c2.717,0.437,5.396,0.927,7.962,1.461l1.403,0.292l-0.002-0.01
	l0.349,0.076c4.57,0.996,9.058,2.147,13.339,3.422c1.613,0.478,3.207,0.976,4.8,1.483l0.421,0.134v0.002l0.609,0.194
	c3.567,1.136,7.264,2.382,11.3,3.81l1.065,0.377l0,0l0.561,0.202c4.212,1.511,8.784,3.218,14.39,5.372l1.446,0.556v-0.001
	l0.142,0.055c3.673,1.419,7.341,2.847,11.007,4.275l5.206,2.026v0.004l0.737,0.286c3.362,1.302,7.797,3.011,12.282,4.685
	l1.612,0.602l-0.001-0.005c6.108,2.247,11.543,4.132,16.603,5.759l1.162,0.373v0.002l0.622,0.196
	c4.004,1.263,7.68,2.346,11.257,3.316l1.415,0.351l0.001,0.012l0.664,0.175c3.923,1.03,7.613,1.933,11.284,2.758l0.802,0.18v0.002
	l0.363,0.08l0.054,0.012l0,0l0.396,0.087c3.631,0.797,6.605,1.406,9.361,1.917l1.038,0.192v-0.005l0.407,0.073
	c4.583,0.824,8.767,1.48,12.787,2.007l0.295,0.039l-0.018,0.028l1.582,0.194c4.928,0.605,9.51,1.035,14.009,1.315l0.51,0.032
	l-0.003,0.007l1.491,0.082c3.684,0.201,7.359,0.303,10.925,0.303c0.959,0,1.918-0.007,2.876-0.022l0.653-0.01l0.003-0.007
	l1.343-0.034c4.758-0.119,9.114-0.385,13.316-0.815l0.27-0.028l-0.001,0.001l0.129-0.014l0.278-0.028v-0.002l1.172-0.129
	c4.521-0.5,8.994-1.188,13.293-2.043c0.44-0.086,0.878-0.182,1.317-0.277l1.048-0.224l-0.003,0.012l1.567-0.358
	c4.461-1.019,8.975-2.297,13.418-3.798l0.195-0.066l-0.013,0.035l2.033-0.725c4.168-1.485,8.225-3.146,12.058-4.935l0.109-0.051
	l-0.003,0.013l1.97-0.96c4.814-2.346,9.396-4.957,13.618-7.761l-0.004,0.038l1.809-1.254c5.385-3.737,10.171-7.785,14.21-12.017
	l0.119-0.126l0.423-0.424l-0.005-0.049l0.986-1.035l0.088-0.103c3.368-3.743,6.523-7.909,9.379-12.38l0.02,0.054l1.071-1.748
	c3.033-4.949,5.727-10.304,8.005-15.917l0.03-0.073l0.018,0.022l0.618-1.593c1.954-5.038,3.595-10.301,4.88-15.643l0.015,0.013
	l0.378-1.682c0.719-3.199,1.275-6.126,1.703-8.95l0.007-0.046l0.011,0.01l0.255-1.869c0.25-1.841,0.532-4.022,0.725-6.225
	c0.246-2.714,0.412-5.52,0.494-8.341l0.008-0.289l0.017,0.006l0.024-1.389c0.089-5.154-0.098-10.424-0.554-15.664L507.799,363.72z"
	/>
<g>
	<path style="fill:#8A7E89;" d="M340.002,335.881l-1.224,2.695l2.607-1.4c3.597-1.933,7.593-2.954,11.555-2.954
		c5.974,0,11.422,2.23,15.754,6.449c3.772,3.673,7.291,10.24,4.794,16.666c-0.429,1.119-1.025,2.143-1.823,3.128l-1.552,1.918
		l2.449-0.295c3.266-0.393,6.726-0.594,10.283-0.594c5.799,0,12.077,0.531,18.659,1.579c10.236,1.628,24.988,5.17,37.135,12.799
		l1.693,1.064l-0.164-1.993c-1.938-23.412-25.483-44.408-47.129-51.182c-9.228-2.883-19.03-4.284-29.967-4.284
		c-6.678,0-13.729,0.523-21.557,1.598l-1.164,0.16l0.344,1.124c0.866,2.835,0.641,6.753,0.567,8.039
		C341.139,332.517,340.738,334.26,340.002,335.881z"/>
	<path style="fill:#8A7E89;" d="M312.926,369.484l-1.784,0.819l0.81,3.325c1.716,7.063,3.489,14.367,5.956,21.427
		c2.496,7.145,5.697,14.021,8.793,20.669c2.074,4.457,4.22,9.065,6.122,13.689c0.124,0.314,0.046,0.452,0.02,0.498l-0.694,1.225
		l1.386,0.252c8.015,1.459,15.951,2.198,23.59,2.198c7.077,0,14.057-0.635,20.743-1.889c19.178-3.596,43.876-13.817,55.681-31.723
		l0.358-0.543l-0.352-0.547c-7.142-11.116-20.014-17.401-32.859-22.538c-9.196-3.682-18.873-6.552-28.23-9.327
		c-2.107-0.625-4.214-1.25-6.313-1.883l-2.06-0.621l0.853,1.976c2.031,4.698,1.55,10.06-1.286,14.341
		c-3.521,5.318-10.04,8.493-17.439,8.493c-0.607,0-1.221-0.023-1.823-0.068C332.745,388.387,321.274,381.18,312.926,369.484z"/>
	<path style="fill:#8A7E89;" d="M359.633,59.351l0.767,0.033c6.379,0.275,13.632,6.712,19.237,12.29l2.522,2.51l-0.846-3.456
		c-2.014-8.23-3.206-16.471-3.543-24.494c-0.241-5.733-0.008-11.897,0.695-18.318c0.283-2.568,0.648-5.102,0.935-7.025
		c0.077-0.528,0.183-1.085,0.308-1.662l0.585-2.681l-2.172,1.676c-7.072,5.455-18.005,6.618-22.376,6.864
		c-1.059,0.059-2.142,0.089-3.218,0.089c-4.155,0-8.094-0.446-11.389-1.29l-2.831-0.725l1.794,2.307
		c2.672,3.438,5.364,7.237,8.002,11.291c0.421,0.647,0.855,1.309,1.3,1.985c3.997,6.082,8.528,12.976,10.063,19.857L359.633,59.351z
		"/>
	<path style="fill:#8A7E89;" d="M348.942,62.937l0.83-0.467l-0.518-1.031c-3.558-8.48-7.329-17.115-10.656-24.734
		c-0.79-1.807-1.552-3.653-2.316-5.509c-1.061-2.571-2.156-5.229-3.341-7.799l-1.028-2.229l-0.822,2.314
		c-2.862,8.053-7.952,15.549-16.504,24.307c-7.389,7.57-14.19,11.833-20.793,13.034l-3.599,0.654l3.431,1.268
		c4.306,1.591,8.599,3.207,12.895,4.823l3.629,1.365c2.081,0.786,4.274,1.5,6.597,2.257c5.936,1.934,12.075,3.934,16.647,7.275
		l0.877,0.641l0.566-0.927C339.407,70.693,344.022,65.708,348.942,62.937z"/>
	<path style="fill:#8A7E89;" d="M337.502,151.893c0.02-2.619-0.983-5.189-2.831-7.241c-0.697-0.767-1.493-1.342-2.262-1.899
		c-0.428-0.309-0.856-0.619-1.261-0.961l-0.27-0.229l-0.354-0.008c-9.837-0.227-19.77-1.802-29.375-3.325l-2.743-0.434
		c-2.635-0.415-5.29-0.813-7.953-1.211c-6.051-0.907-12.308-1.845-18.387-2.993l-3.741-0.706l2.911,2.454
		c12.169,10.256,13.398,32.579,12.286,49.5l-0.173,2.632l1.875-1.856c5.913-5.856,13.966-10.451,21.07-14.504l0.942-0.538
		c8.206-4.693,16.892-8.879,25.812-12.439c0.582-0.23,1.273-0.537,2.046-0.88c0.445-0.198,0.918-0.408,1.414-0.622l0.63-0.273
		l-0.028-0.686c-0.024-0.583,0.088-1.314,0.197-2.021C337.405,153.022,337.497,152.426,337.502,151.893z"/>
	<path style="fill:#8A7E89;" d="M262.418,128.397l1.659-0.042c0.853-0.021,1.708-0.032,2.564-0.032
		c7.002,0,14.229,0.692,21.219,1.362c4.274,0.409,8.694,0.833,12.983,1.088c5.775,0.337,12.611,0.729,19.53,1.081
		c1.193,0.057,2.407,0.094,3.631,0.132c0.697,0.021,2.18,0.071,2.18,0.071l0.079-0.01c0.789-0.098,1.619-0.168,2.614-0.224
		l0.656-0.037l0.227-0.616l0.051-0.163l0.334-0.613c2.224-4.069,4.145-7.584,3.377-12.941c-0.388-2.719-1.607-4.796-2.786-6.804
		c-0.609-1.037-1.185-2.016-1.648-3.076l-0.148-0.338l-0.801-0.387c-0.391-0.19-0.763-0.37-1.098-0.526
		c-5.113-2.428-10.351-4.861-15.415-7.213c-15.287-7.1-31.095-14.442-45.943-22.795l-2.791-1.57l1.401,2.88
		c3.244,6.662,3.994,15.088,4.3,22.454c0.41,9.713-1.419,18.742-5.436,26.834L262.418,128.397z"/>
	<path style="fill:#8A7E89;" d="M305.894,361.6l-1.924,2.411c-5.285,6.627-13.219,10.427-21.768,10.427
		c-5.993,0-11.725-1.861-16.572-5.383l-2.568-1.865l1.035,3c0.833,2.414,1.407,5.023,1.962,7.546
		c0.358,1.627,0.729,3.309,1.158,4.88l0.853,3.126c2.058,7.541,4.186,15.338,5.962,23.047l0.02,0.116l0.134,0.498l2.134,1.036
		c5.814,2.823,11.824,5.742,17.833,8.446c6.866,3.088,13.835,5.743,20.713,7.892l2.199,0.687l-1.001-2.076
		c-5.022-10.423-7.12-22.662-8.26-30.961c-1.238-9.076-2.521-19.608-2.052-29.749L305.894,361.6z"/>
	<path style="fill:#8A7E89;" d="M217.858,67.864l0.295-0.158c13.87-7.42,28.609-12.984,43.809-16.539
		c2.174-0.514,4.537-1.012,7.225-1.521l3.515-0.665l-3.35-1.254c-0.548-0.205-1.094-0.416-1.637-0.625
		c-1.211-0.467-2.463-0.951-3.663-1.339c-4.59-1.498-9.42-2.998-14.358-4.458c-9.65-2.845-19.421-5.45-29.041-7.744
		c-3.206-0.761-6.421-1.488-9.637-2.215c-6.381-1.441-12.977-2.932-19.382-4.687c-7.903-2.155-15.546-4.4-22.169-8.165l-2.419-1.375
		l0.99,2.6c4.621,12.134-9.175,24.688-17.811,31.091c-11.888,8.813-25.389,15.149-40.127,18.833l0.319,1.967
		c3.844-0.296,7.731-0.812,11.491-1.311c2.736-0.363,5.564-0.739,8.322-1.021c9.099-0.923,18.685-1.608,29.307-2.096
		c8.211-0.386,16.492-0.581,24.614-0.581c1.579,0,3.16,0.007,4.74,0.022c1.79,0.015,3.6,0.015,5.419,0.015
		c7.717,0,15.695,0.001,23.215,1.173L217.858,67.864z"/>
	<path style="fill:#8A7E89;" d="M261.385,376.497c-0.293-1.799-0.597-3.66-0.842-5.485l-1.923-0.229
		c-3.813,9.802-11.207,17.971-19.78,21.851l-2.376,1.075l2.485,0.789c7.108,2.256,14.435,5.175,23.755,9.465l1.533,0.706
		l-0.117-1.684c-0.426-6.085-0.924-12.635-1.685-19.313C262.167,381.298,261.77,378.857,261.385,376.497z"/>
	<path style="fill:#8A7E89;" d="M198.605,79.917l2.195-1.581l-2.695-0.227c-17.74-1.495-35.029-1.867-49.602-2.034
		c-7.971-0.09-17.23-0.239-26.255-0.857c-0.866-0.059-1.746-0.114-2.637-0.17c-5.51-0.346-11.208-0.704-16.486-2.032l-2.295-0.578
		l1.186,2.048c5.59,9.656,6.343,21.173,2.014,30.811c-3.008,6.711-8.438,12.325-15.291,15.807l0.65,1.872
		c2.629-0.529,5.327-0.964,7.937-1.385c1.285-0.208,2.563-0.413,3.826-0.63c6.975-1.203,13.887-2.275,20.546-3.185l0.648-0.089
		c13.367-1.844,27.19-3.751,40.75-4.222l0.461-0.016l0.287-0.362C173.825,100.502,185.52,89.342,198.605,79.917z"/>
	<path style="fill:#8A7E89;" d="M125.32,413.718l0.52,0.496l0.637-0.333c2.907-1.525,5.538-2.844,8.044-4.033l0.066-0.031
		l0.061-0.041c11.348-7.598,24.886-13.452,39.15-16.929l2.563-0.625l-2.333-1.231c-8.052-4.247-16.723-9.608-27.291-16.871
		c-5.098-3.498-9.643-6.923-13.895-10.473c-0.501-0.418-1.019-0.843-1.546-1.276c-3.196-2.624-6.818-5.598-9.071-8.999l-1.087-1.64
		l-0.685,1.844c-3.425,9.223-9.373,16.1-16.746,19.364c-3.083,1.363-6.289,2.054-9.529,2.054c-2.123,0-4.254-0.3-6.333-0.891
		l-0.874,1.761c9.084,6.832,16.88,15.258,24.421,23.408C115.85,404.09,120.459,409.072,125.32,413.718z"/>
	<path style="fill:#8A7E89;" d="M139.77,153.907l0.393-0.92c1.522-3.572,3.202-7.189,4.993-10.752
		c2.633-5.229,5.684-10.533,9.066-15.767l1.103-1.706l-2.024,0.166c-13.597,1.115-29.675,2.254-45.843,2.254
		c-0.001,0-0.003,0-0.004,0c-9.283,0-17.755-0.364-25.899-1.113l-2.24-0.206l1.348,1.801c10.408,13.91,4.1,34.039-5.274,48.24
		l-1.95,2.955l3.208-1.498c2.636-1.231,5.454-2.272,8.18-3.28c1.161-0.43,2.315-0.856,3.447-1.294
		c2.18-0.838,4.362-1.672,6.546-2.507c3.546-1.355,7.093-2.71,10.627-4.084c5.259-2.046,11.001-4.319,18.071-7.155
		c1.334-0.538,2.716-1.166,4.053-1.773c3.706-1.685,7.538-3.427,11.281-3.754L139.77,153.907z"/>
	<path style="fill:#8A7E89;" d="M133.709,169.921l0.093-1.215l-1.21,0.146c-2.582,0.312-5.234,1.174-7.799,2.007
		c-1.736,0.564-3.532,1.148-5.229,1.53c-3.38,0.758-6.849,1.418-10.203,2.058c-1.073,0.204-2.146,0.409-3.22,0.617
		c-6.234,1.216-14.455,2.696-22.748,3.354l-0.317,1.915c4.969,2.144,9.262,6.06,12.089,11.027
		c4.441,7.782,5.001,17.538,1.712,29.826l1.734,0.899c2.139-2.566,4.403-5.112,6.595-7.575c1.146-1.288,2.293-2.578,3.431-3.878
		c1.729-1.981,3.341-4.092,4.9-6.133c1.552-2.032,3.157-4.133,4.858-6.078c1.13-1.294,2.483-2.484,3.792-3.635
		c1.907-1.678,3.881-3.414,5.346-5.596c1.634-2.434,2.411-5.206,3.162-7.885c0.294-1.037,0.642-2.096,1.01-3.216
		C132.588,175.4,133.503,172.618,133.709,169.921z"/>
	<path style="fill:#8A7E89;" d="M126.556,204.094l-1.71,1.614c-0.665,0.627-1.359,1.232-2.045,1.83
		c-0.601,0.523-1.194,1.042-1.761,1.565c-2.745,2.555-5.608,5.125-8.754,7.857c-0.528,0.459-1.056,0.923-1.585,1.388
		c-3.69,3.244-7.508,6.599-11.902,8.716l-2.543,1.225l2.746,0.649c12.204,2.885,22.536,12.909,30.71,29.793l1.866-0.695
		c-1.161-4.316-2.102-8.801-2.798-13.333c-1.688-10.941-2.401-23.097-2.248-38.257L126.556,204.094z"/>
	<path style="fill:#8A7E89;" d="M64.017,415.501c2.11,2.149,4.293,4.372,6.489,6.501c1.722,1.672,3.653,3.342,5.521,4.956
		c3.486,3.013,7.092,6.129,9.763,9.589l0.553,0.715l0.768-0.478c6.288-3.915,12.591-7.712,18.734-11.285l0.561-0.327
		c3.254-1.891,6.533-3.798,9.83-5.668l1.216-0.689l-1.045-0.928c-5.793-5.142-10.893-11.666-15.824-17.975
		c-1.371-1.754-2.728-3.49-4.08-5.172c-1.137-1.416-2.324-2.851-3.53-4.308c-3.667-4.43-7.458-9.011-10.45-13.833l-1.713-2.761
		l-0.136,3.246c-0.341,8.124-2.695,14.953-6.81,19.751c-4.025,4.69-9.572,7.38-15.219,7.38c-1.343,0-2.683-0.155-3.983-0.462
		l-0.899,1.716C57.298,408.657,60.714,412.136,64.017,415.501z"/>
	<path style="fill:#8A7E89;" d="M69.363,448.229c1.858-1.228,3.727-2.448,5.595-3.666l0.894-0.583l-0.639-0.853
		c-3.25-4.347-6.143-9.177-8.942-13.849c-0.649-1.083-1.296-2.162-1.944-3.231c-0.677-1.116-1.364-2.234-2.055-3.357
		c-2.549-4.148-5.186-8.437-7.409-12.798l-1.616-3.17l-0.271,3.548c-0.709,9.262-3.52,16.742-8.593,22.869
		c-5.02,6.065-12.059,10.147-19.82,11.492l-3.55,0.616l3.359,1.302c2.153,0.835,4.281,1.897,6.339,2.926
		c0.83,0.415,1.649,0.824,2.456,1.212c5.561,2.688,11.273,5.789,17.457,9.478l0.655,0.54l0.623-0.443
		C57.718,456.124,63.594,452.076,69.363,448.229z"/>
	<path style="fill:#8A7E89;" d="M32.582,459.562c-0.749-0.599-1.5-1.198-2.252-1.805c-2.219-1.789-3.995-3.82-5.624-5.747
		l-1.708,0.974c3.123,8.981,2.869,19.133-0.68,27.157l1.536,1.188c5.396-4.285,10.991-8.573,17.104-13.11l0.965-0.716l-0.879-0.819
		C38.321,464.145,35.403,461.815,32.582,459.562z"/>
</g>
<g>
	<path style="fill:#231F20;" d="M503.367,326.958c-6.244-17.977-14.443-37.38-27.353-51.521
		c-12.228-13.394-27.538-23.631-43.2-32.568c-21.829-12.456-46.282-15.735-71.086-14.351c-27.073,1.51-53.694,7.828-80.852,8.223
		c-13.926,0.203-29.052-0.594-41.701-7.027c-10.456-5.317-19.517-15.722-19.1-28.054c0.473-14.005,12.081-27.215,21.953-36.153
		c9.659-8.745,20.657-14.094,32.448-19.118c7.116,12.594,6.675,30.986,5.325,44.327c-0.162,1.603,1.92,2.64,3.189,1.83
		c16.451-10.498,34.326-16.896,52.229-23.994c13.562-2.242,25.057,6.789,35.526,14.36c4.653,3.365,9.455,6.601,14.83,8.708
		c6.223,2.44,12.73,2.131,19.149,3.619c20.463,4.742,47.706,30.013,66.668,7.464c0.761-0.905,0.777-2.006,0-2.916
		c-1.168-1.368-2.418-2.59-3.727-3.703c1.184-4.791,2.116-9.64,2.903-14.512c0.206-1.272-1.069-2.64-2.358-1.812
		c-4.602,2.956-9.224,5.878-13.866,8.77c-0.352-4.296-0.266-8.534,0.28-12.859c0.18-1.43-1.798-1.973-2.689-1.114
		c-3.212,3.102-6.407,6.222-9.604,9.34c-0.233-3.91-0.462-7.821-0.691-11.731c-0.065-1.105-1.298-2.036-2.343-1.345
		c-3.942,2.609-7.534,5.534-10.841,8.847c-0.139-3.535-0.279-7.071-0.42-10.607c-0.043-1.09-1.174-1.762-2.145-1.231
		c-3.156,1.728-5.986,3.672-8.66,5.913c0.687-3.915,0.585-8.248,0.897-12.019c0.108-1.307-1.435-1.913-2.44-1.4
		c-3.635,1.853-7.38,3.494-11.036,5.301c-0.084-0.015-0.17-0.011-0.251,0.015c-3.228-3.282-6.43-6.595-10.184-9.422
		c-5.836-4.394-12.748-6.555-19.802-8.018c8.019-2.828,16.464-0.701,25.166,1.103c0.038,0.008,0.077,0.015,0.115,0.023
		c0.748,3.849,1.502,7.696,2.355,11.523c0.305,1.371,2.02,1.303,2.72,0.355c2.436-3.301,5.217-6.193,8.001-9.19
		c0.341-0.367,0.464-0.77,0.436-1.146c0.172-0.005,0.345-0.002,0.517-0.01c2.612-0.12,5.187-0.538,7.764-0.848
		c0.875,4.818,1.843,9.618,2.832,14.413c0.282,1.364,2.061,1.332,2.737,0.358c2.659-3.829,5.33-7.563,8.78-10.631
		c-0.049,4.626,0.112,9.196,1.273,13.735c0.325,1.272,2.239,1.577,2.868,0.375c1.733-3.309,3.845-6.192,6.401-8.763
		c-0.474,5.123-0.598,10.242-0.326,15.405c0.069,1.297,1.641,2.058,2.617,1.084c3.404-3.403,6.808-6.806,10.212-10.209
		c-0.323,3.99-0.736,8.099-0.412,11.948c0.137,1.633,0.361,3.663,2.097,4.383c2.284,0.948,3.673-1.212,4.939-2.717
		c3.404-4.044,6.716-8.17,10.073-12.254c0.22-0.268,0.33-0.557,0.365-0.842c1.535-0.332,3.078-0.846,4.631-1.6
		c0.066-0.032,0.124-0.072,0.181-0.112c7.41-2.731,12.855-9.752,11.963-18.594c-0.572-5.67-3.639-11.008-8.242-14.372
		c-6.562-4.796-13.696-2.971-21.125-4.486c-3.851-0.785-6.774-3.23-10.286-4.778c-3.409-1.503-6.506-1.096-10.096-1.508
		c-9.849-1.132-9.929-13.898-14.223-20.691c-3.644-5.763-9.668-8.645-15.963-10.702c-5.777-1.888-11.366-3.081-16.558-5.461
		c-4.615-11.026-7.95-21.652-9.662-33.643c-1.888-13.231-1.503-26.622-3.168-39.837c-0.339-2.687-4.039-2.354-3.992,0
		c-0.052,1.078-0.086,2.161-0.11,3.247c-0.013,0.005-0.024,0.006-0.036,0.011c-3.953,1.598-7.412,4.057-11.479,5.48
		c-4.115,1.439-8.426,2.274-12.779,2.477s-8.74-0.168-12.987-1.152c-2.116-0.49-4.144-1.233-6.204-1.838
		c-1.764-1.982-3.589-3.899-5.492-5.718c-1.485-1.419-4.165,0.442-2.942,2.27c0.662,0.99,1.275,2.015,1.867,3.056
		c-0.008,0.026-0.02,0.047-0.027,0.075c-2.451,9.869-8.315,19.996-16.184,27.775c-0.079-0.024-0.153-0.051-0.241-0.068
		c-4.505-0.831-9.227-0.974-13.943-0.819c-0.102-0.214-0.264-0.409-0.552-0.536c-20.881-9.282-43.957-14.677-66.167-19.779
		c-22.481-5.165-45.376-9.622-68.341-11.967c-2.307-0.235-3.166,2.856-1.789,4.318c12.683,13.469-12.745,30.196-22.277,35.957
		c-13.068,7.899-27.564,12.885-42.663,15.024c-1.981,0.281-2.064,2.813-1.063,4.026c15.597,18.903,2.671,47.369-21.652,48.459
		c-1.975,0.089-3.711,2.92-1.817,4.387c8.076,6.257,11.226,16.006,9.699,26.01c-1.607,10.522-7.615,19.213-13.561,27.731
		c-1.217,1.744,0.79,3.964,2.661,3.462c9.929-2.668,19.263,5.18,22.354,14.237c3.608,10.574,0.297,22.181-3.449,32.226
		c-0.596,1.598,0.92,3.087,2.404,3.156c11.534,0.538,20.404,7.535,26.828,16.667c13.758,19.558,22.363,42.243,40.638,58.414
		c18.401,16.283,41.756,25.521,65.96,28.671c28.464,3.704,56.125-1.472,83.827-7.637c6.546-1.457,13.192-2.906,19.89-4.147
		c3.838,6.305,4.593,13.299,2.19,20.308c-0.928,2.708,2.803,3.749,4.269,1.8c5.689-7.562,15.567-10.429,24.299-6.523
		c4.29,1.919,8.148,5.384,9.585,9.991c1.687,5.408-1.728,12.552-8.293,11.342c-2.233-0.411-3.954,2.12-2.268,3.897
		c5.264,5.547,3.132,14.073-2.96,18.049c-6.132,4.002-13.774,3.425-20.352,0.899c-12.548-4.819-22.285-15.764-26.94-28.191
		c-0.808-2.156-3.509-2.097-4.338,0c-7.269,18.379-32.354,21.147-43.217,4.477c-1.339-2.054-4.067-1.066-4.331,1.173
		c-1.718,14.551-10.86,24.739-23.385,30.792c-6.994-1.911-14.194-3.234-21.706-3.698c-1.528-0.094-3.065-0.152-4.605-0.188
		c-14.794-5.689-30.05-9.879-44.642-16.192c-14.474-6.262-28.787-13.767-40.943-23.906c-1.184-0.987-2.958-0.663-3.438,0.907
		c-2.465,8.066-6.872,15.928-14.473,20.16c-7.324,4.078-17.938,3.986-23.648-2.84c-1.332-1.592-3.976-0.252-3.97,1.645
		c0.023,8.294,0.503,16.896-4.102,24.255c-4.155,6.641-12.243,10.586-19.848,7.952c-1.108-0.383-2.584,0.653-2.456,1.871
		c2.113,20.018-12.128,40.886-33.652,39.45c-2.16-0.144-2.788,2.521-1.622,3.915c6.49,7.751,9.518,18.213,7.068,28.162
		c-1.544,6.267-4.894,11.137-9.104,15.45c-4.114,3.419-8.196,6.872-12.205,10.396c-1.961,1.723,0.654,5.203,2.823,3.659
		c40.359-28.725,87.117-50.635,136.791-55.961c25.672-2.752,51.896-1.125,76.767,5.995c25.023,7.163,48.254,19.383,73.122,27.072
		c40.129,12.407,80.27,22.731,122.332,14.984c22.665-4.175,44.921-13.223,62.543-28.317
		C514.529,432.976,519.551,373.561,503.367,326.958z M506.72,363.117c-1.833-0.193-3.767-0.089-5.513-0.099
		c-3.225-0.02-6.448,0.121-9.66,0.419c-4.243,0.394-8.873,0.824-13.105,2.027c-0.908-3.611-2.027-7.176-3.328-10.681
		c4.477,0.135,9.206-0.94,13.483-1.658c3.173-0.532,6.345-1.09,9.543-1.454c2.28-0.26,4.634-0.216,6.911-0.543
		C505.774,355.098,506.319,359.1,506.72,363.117z M504.789,349.764c-4.682-0.648-10.203,0.794-14.647,1.568
		c-2.916,0.508-5.828,1.039-8.759,1.457c-2.238,0.32-4.517,0.446-6.768,0.709c-1.607-4.168-3.453-8.25-5.514-12.208
		c5.894,0.024,11.779-0.403,17.55-1.691c4.587-1.023,10.059-2.564,14.355-5.238C502.534,339.424,503.792,344.569,504.789,349.764z
		 M500.477,332.689c-1.921,1.043-3.825,2.119-5.882,2.935c-2.841,1.127-5.785,1.984-8.769,2.635
		c-5.677,1.238-11.493,1.77-17.299,1.944c-0.218-0.409-0.427-0.824-0.649-1.23c-1.926-3.522-4.015-6.962-6.223-10.329
		c6.042,0.298,11.969-0.57,17.732-2.782c5.284-2.028,11.036-5.095,14.96-9.464C496.697,321.704,498.736,327.149,500.477,332.689z
		 M487.249,302.313c2.365,4.137,4.514,8.399,6.488,12.743c-4.844,3.827-9.492,7.478-15.504,9.676
		c-5.483,2.005-11.444,2.991-17.312,2.802c-2.939-4.406-6.081-8.683-9.372-12.826c6.114,0.647,12.28-0.113,18.187-2.047
		c3.66-1.198,7.179-2.837,10.439-4.888C482.522,306.296,485.328,304.518,487.249,302.313z M486.464,300.965
		c-2.391,1.747-4.493,3.95-7.021,5.554c-3.264,2.071-6.788,3.731-10.459,4.938c-5.845,1.923-12.045,2.596-18.187,2.299
		c-1.074-1.336-2.158-2.663-3.259-3.972c-1.238-1.472-2.509-2.898-3.815-4.273c6.623,0.307,13.446-1.194,19.491-3.616
		c5.858-2.347,12.338-6.016,16.942-10.834C482.386,294.277,484.485,297.584,486.464,300.965z M479.082,289.535
		c-1.915,1.883-3.822,3.731-6.086,5.335c-3.386,2.399-7.072,4.38-10.939,5.885c-6.385,2.485-12.904,3.316-19.615,3.44
		c-2.555-2.558-5.267-4.884-8.231-6.822c6.248-2.127,11.887-5.552,16.73-10.152c4.845-4.602,9.482-10.695,11.432-17.284
		C468.508,275.951,474.089,282.527,479.082,289.535z M461.356,268.953c-2.995,6.233-6.089,12.002-11.154,16.978
		c-4.815,4.731-10.714,8.438-17.065,10.776c-1.157-0.705-2.337-1.373-3.575-1.952c-2.314-1.72-4.727-3.234-7.213-4.581
		c6.942-2.022,13.409-7.371,17.815-12.718c2.607-3.165,4.779-6.671,6.401-10.438c0.939-2.181,2.471-5.503,2.799-8.373
		C453.561,261.847,457.554,265.301,461.356,268.953z M435.045,249.088c4.428,2.549,8.685,5.353,12.769,8.376
		c-0.319,1.19-0.427,2.495-0.734,3.644c-0.503,1.884-1.144,3.734-1.92,5.524c-1.631,3.759-3.832,7.282-6.481,10.408
		c-2.569,3.032-5.553,5.732-8.857,7.944c-2.79,1.867-5.767,3.137-8.78,4.491c-2.956-1.513-6.017-2.785-9.157-3.849
		c1.994-1.348,3.919-2.802,5.78-4.328c3.819-3.132,7.332-6.647,10.218-10.666c2.804-3.905,4.952-8.306,6.107-12.983
		C434.615,255.108,435.158,252.015,435.045,249.088z M412.934,238.989c7.136,2.472,13.953,5.552,20.427,9.154
		c0.084,0.768,0.157,1.537,0.154,2.314c-0.01,2.297-0.321,4.592-0.865,6.822c-1.009,4.139-2.822,8.038-5.19,11.57
		c-2.356,3.513-5.236,6.647-8.364,9.484c-1.72,1.559-3.522,3.021-5.372,4.423c-1.054,0.8-2.129,1.725-3.299,2.404
		c-1.729-0.546-3.475-1.047-5.245-1.476c5.107-6.842,8.643-15.559,9.795-23.855c0.595-4.285,0.545-8.662-0.289-12.912
		c-0.442-2.256-1.122-4.455-2.025-6.569c-0.23-0.54-0.469-1.122-0.739-1.694C412.259,238.765,412.597,238.872,412.934,238.989z
		 M409.483,237.875c0.803,1.401,1.636,2.755,2.226,4.323c0.732,1.945,1.263,3.969,1.61,6.017c0.749,4.426,0.628,9.013-0.188,13.419
		c-1.494,8.063-5.376,14.751-9.231,21.749c-2.834-0.639-5.712-1.143-8.621-1.52c2.55-3.071,3.865-8.147,4.63-11.669
		c1.119-5.145,1.457-10.536,1.095-15.784c-0.45-6.508-2.542-14.676-7.233-20.013C399.06,235.171,404.306,236.301,409.483,237.875z
		 M391.381,234.064c1.8,1.925,3.404,3.972,4.655,6.471c2.37,4.736,3.365,10.068,3.562,15.326c0.18,4.798-0.174,9.678-1.26,14.36
		c-0.55,2.368-1.288,4.699-2.305,6.91c-0.719,1.564-1.772,2.976-2.523,4.513c-4.541-0.51-9.143-0.739-13.752-0.748
		c5.175-7.523,6.204-17.071,6.074-26.05c-0.073-5.065-0.547-10.062-2.525-14.775c-0.915-2.179-2.226-4.745-3.872-6.975
		C383.434,233.247,387.419,233.564,391.381,234.064z M377.072,233.033c0.242,0.265,0.486,0.528,0.711,0.809
		c1.529,1.91,2.817,4.029,3.819,6.261c2.156,4.804,2.615,9.963,2.699,15.171c0.146,8.941-1.021,17.954-5.805,25.626
		c-3.064,0.02-6.129,0.129-9.175,0.312c5.566-7.345,3.561-19.518,2.019-27.809c-0.917-4.932-2.512-9.847-5.616-13.859
		c-1.887-2.44-4.249-4.346-6.779-6.033C364.992,233.093,371.045,232.898,377.072,233.033z M356.988,233.651
		c2.666,1.718,5.196,3.647,7.215,6.099c3.188,3.872,4.763,8.749,5.671,13.611c1.739,9.319,2.704,19.546-2.18,27.952
		c-5.929,0.406-11.778,1.068-17.416,1.833c-0.751,0.102-1.503,0.212-2.254,0.317c4.997-7.174,6.644-15.898,7.236-24.609
		c0.606-8.915-0.887-18.025-7.265-24.385C350.988,234.156,353.987,233.881,356.988,233.651z M345.974,234.689
		c2.795,2.745,5.062,5.805,6.426,9.584c1.739,4.817,1.663,9.966,1.31,15.005c-0.59,8.43-2.205,17.354-7.144,24.391
		c-3.872,0.544-7.745,1.106-11.621,1.677c2.09-3.83,3.26-8.537,4.07-12.558c1.109-5.507,1.402-11.182,0.809-16.769
		c-0.533-5.018-1.459-10.489-4.72-14.515c-1.626-2.007-3.618-3.495-5.773-4.741C334.837,236.026,340.394,235.303,345.974,234.689z
		 M326.987,237.077c0.192-0.026,0.385-0.052,0.577-0.077c2.157,1.28,4.186,2.761,5.811,4.56c3.88,4.295,4.759,10.677,5.149,16.252
		c0.361,5.173-0.02,10.394-1.139,15.458c-0.518,2.344-1.191,4.654-2.012,6.909c-0.676,1.859-1.594,3.627-2.358,5.45
		c-4.899,0.722-9.799,1.443-14.703,2.112c1.944-4.925,3.79-9.841,4.548-15.139c0.794-5.554,0.561-11.288-1.034-16.684
		c-1.991-6.736-6.147-12.624-11.81-16.535C315.791,238.635,321.475,237.818,326.987,237.077z M308.286,239.601
		c6.394,4.163,10.871,11.079,12.584,18.527c1.269,5.517,1.134,11.322-0.007,16.848c-0.94,4.554-2.913,8.678-4.409,13.014
		c-5.004,0.669-10.009,1.285-15.019,1.784c5.403-8.145,4.43-20.114,2.045-28.988c-1.334-4.965-3.4-9.833-6.537-13.934
		c-1.151-1.504-3.123-3.865-5.314-5.512C297.218,240.92,302.789,240.297,308.286,239.601z M289.641,241.481
		c1.412,0.934,2.701,2.279,3.639,3.233c1.626,1.654,3.022,3.498,4.217,5.484c2.332,3.875,3.895,8.161,4.916,12.556
		c1.075,4.626,1.593,9.434,1.217,14.179c-0.385,4.859-1.971,8.859-4.237,13.031c-6.788,0.633-13.581,1.058-20.382,1.131
		c5.156-7.246,6.59-16.62,6.326-25.41c-0.248-8.251-1.964-17.463-7.487-23.784C281.769,241.898,285.707,241.741,289.641,241.481z
		 M276.185,241.897c5.53,6.746,7.52,15.356,7.685,24.206c0.165,8.813-1.47,17.764-6.619,24.991
		c-4.651,0.009-9.304-0.129-13.961-0.494c2.59-3.098,4.349-7.524,5.648-11.046c1.787-4.846,2.77-10.011,2.74-15.182
		c-0.048-8.275-2.676-16.85-8.046-23.212C267.772,241.63,271.967,241.852,276.185,241.897z M262.344,241.002
		c5.004,6.976,7.952,15.083,7.852,23.798c-0.055,4.749-0.984,9.458-2.595,13.919c-0.85,2.352-1.897,4.628-3.115,6.812
		c-0.932,1.672-2.164,3.23-3.11,4.902c-4.712-0.426-9.427-1.062-14.145-1.966c-0.403-0.077-0.805-0.173-1.208-0.255
		c0.009-0.007,0.019-0.008,0.027-0.015c6.904-5.92,10.707-16.419,11.472-25.236c0.727-8.382-1.25-16.572-5.319-23.781
		C255.533,239.979,258.92,240.572,262.344,241.002z M250.906,238.868c3.999,7.147,5.9,15.501,5.237,23.661
		c-0.387,4.761-1.665,9.452-3.688,13.776c-1.948,4.164-4.731,7.444-7.458,11.079c-0.163,0.217-0.149,0.428-0.051,0.601
		c-5.077-1.075-10.135-2.468-15.09-4.214c3.41-1.89,6.309-5.577,8.514-8.606c2.786-3.829,4.92-8.142,6.256-12.687
		c2.555-8.689,1.959-17.593-1.152-25.912C245.914,237.46,248.394,238.223,250.906,238.868z M238.3,234.4
		c1.325,0.642,2.677,1.229,4.052,1.758c0.015,0.006,0.031,0.011,0.046,0.017c3.054,8.346,3.342,17.868,0.724,26.318
		c-1.285,4.144-3.266,8.066-5.801,11.586c-1.248,1.733-2.639,3.365-4.146,4.878c-1.502,1.507-3.302,2.741-4.722,4.316
		c-8.213-3.011-16.119-6.952-23.33-11.844c3.594-0.27,7.08-1.359,10.491-2.872c5.15-2.283,10.512-5.173,14.418-9.312
		c3.296-3.491,5.488-7.885,6.738-12.495C237.72,243.245,238.724,238.438,238.3,234.4z M236.561,233.512
		c-0.042,1.395,0.067,2.81,0.011,4.191c-0.096,2.378-0.377,4.744-0.88,7.071c-1.043,4.822-3.055,9.485-6.394,13.169
		c-3.44,3.794-8.082,6.375-12.627,8.618c-4.091,2.019-8.441,3.571-12.96,3.906c-3.059-2.155-5.987-4.483-8.748-6.99
		c3.704-0.484,7.581-2.314,10.686-3.962c4.369-2.32,8.352-5.418,11.642-9.112c5.82-6.533,9.261-14.608,10.172-23.195
		C230.208,229.662,233.283,231.764,236.561,233.512z M226.589,226.417c-1.061,8.584-4.727,16.921-10.571,23.304
		c-2.983,3.258-6.499,6.004-10.364,8.141c-2.148,1.187-4.397,2.189-6.721,2.977c-1.71,0.579-3.511,0.918-5.229,1.47
		c-5.385-5.092-10.107-10.878-13.911-17.381c-0.339-0.58-0.65-1.168-0.969-1.754c2.348,0.541,4.893,0.542,7.17,0.4
		c5.716-0.359,11.364-2.05,16.672-4.133c8.279-3.248,16.631-8.764,20.045-17.261C223.893,223.692,225.198,225.099,226.589,226.417z
		 M221.764,220.908c-3.564,8.7-11.23,14.086-19.873,17.451c-7.095,2.763-16.188,5.616-23.842,3.372
		c-3.343-6.513-5.508-13.373-6.619-20.374c5.842,4.102,15.174,4.11,21.524,3.468c8.572-0.866,18.851-4.073,24.954-10.808
		c0.112,0.27,0.219,0.541,0.34,0.811C219.223,216.999,220.413,219.02,221.764,220.908z M191.679,197.684
		c7.384,1.617,18.386,3.087,24.881-2.221c-0.493,2.113-0.785,4.25-0.857,6.398c-3.225,2.072-6.362,3.984-10.119,5.19
		c-4.118,1.322-8.446,1.922-12.767,1.773c-7.564-0.259-17.24-2.896-21.569-9.646c0.565-4.229,1.438-8.431,2.631-12.557
		C177.437,192.853,184.598,196.134,191.679,197.684z M174.333,185.115c1.205-3.908,2.673-7.746,4.392-11.471
		c4.16,5.711,9.643,10.256,16.28,13.005c4.075,1.688,8.441,2.643,12.845,2.862c3.512,0.175,7.597,0.058,11.1-1.15
		c-0.685,1.554-1.275,3.131-1.759,4.725c-3.517,2.36-6.878,4.063-11.245,4.465c-4.491,0.413-9.05-0.27-13.436-1.196
		C185.457,194.866,177.764,191.665,174.333,185.115z M190.828,210.167c8.169,0.729,18.053-1.177,24.868-6.336
		c0.09,2.795,0.578,5.603,1.529,8.394c-2.804,2.575-5.505,5.05-9.016,6.851c-4.563,2.341-9.681,3.645-14.761,4.215
		c-6.928,0.778-16.32,0.824-22.271-3.682c-0.818-6.124-0.858-12.339-0.181-18.509C175.284,206.943,184.133,209.569,190.828,210.167z
		 M221.578,183.231c-0.695,1.182-1.337,2.383-1.927,3.6c-3.624,0.422-7.168,1.248-10.877,1.163
		c-4.51-0.104-9.009-1.018-13.187-2.726c-6.452-2.638-12.181-7.166-16.31-12.802c1.465-3.062,3.09-6.048,4.873-8.931
		c1.63,2.655,4.342,5.092,6.415,6.914c3.237,2.844,6.896,5.201,10.823,6.975c3.813,1.722,7.852,2.913,11.999,3.483
		c2.903,0.4,6.427,0.788,9.509,0.2C222.449,181.812,221.997,182.518,221.578,183.231z M223.874,179.596
		c-1.631-0.024-3.281,0.196-4.91,0.186c-1.983-0.011-3.968-0.171-5.928-0.473c-3.994-0.615-7.913-1.818-11.567-3.546
		c-3.657-1.729-7.081-3.967-10.095-6.667c-1.337-1.198-2.598-2.484-3.763-3.85c-0.875-1.025-1.62-2.202-2.461-3.277
		c3.337-5.161,7.083-9.848,11.164-14.127c2.029,7.214,5.957,13.805,11.322,19.082c3.035,2.985,6.489,5.565,10.268,7.535
		c1.889,0.985,4.975,2.805,7.538,2.837C224.901,178.058,224.386,178.827,223.874,179.596z M226.531,175.81
		c-7.192-0.391-14.655-6.243-19.283-11.2c-4.725-5.06-8.113-11.201-9.891-17.861c3.019-3.072,6.208-5.936,9.549-8.604
		c0.718,6.926,3.799,13.79,7.771,19.348c2.307,3.229,5.019,6.161,8.101,8.665c2.243,1.822,4.932,3.842,7.858,4.486
		C229.19,172.329,227.831,174.059,226.531,175.81z M231.809,169.291c-7.166-1.512-13.258-8.319-17.086-14.162
		c-3.608-5.508-5.543-11.427-6.864-17.733c2.636-2.06,5.357-4.011,8.156-5.854c0.389,2.292,1.263,4.619,1.993,6.533
		c1.299,3.404,3.039,6.634,5.182,9.581c2.141,2.945,4.646,5.626,7.486,7.908c2.686,2.158,6.072,4.708,9.523,5.384
		C237.217,163.566,234.413,166.368,231.809,169.291z M240.806,160.408c-0.026-0.105-0.089-0.206-0.199-0.285
		c-3.071-2.206-6.517-3.627-9.462-6.102c-2.687-2.259-5.092-4.866-7.099-7.747s-3.656-6.012-4.845-9.317
		c-0.744-2.067-1.05-4.314-1.547-6.471c4.769-3.041,9.736-5.807,14.85-8.332c-0.837,6.119-0.234,12.521,1.384,18.396
		c1.037,3.766,2.527,7.426,4.443,10.831c0.805,1.431,1.649,2.978,2.868,4.105c0.774,0.715,2.475,1.119,3.468,1.756
		C243.35,158.258,242.067,159.32,240.806,160.408z M245.867,156.342c-0.181-0.177-0.402-0.34-0.707-0.513
		c-1.646-0.93-3.088-1.365-4.237-3.022c-2.363-3.409-4.074-7.411-5.302-11.353c-2.053-6.584-2.431-13.187-1.884-19.911
		c3.071-1.488,6.186-2.903,9.34-4.242c-0.061,6.942,0.854,14.025,2.808,20.652c1.087,3.684,3.86,11.482,8.412,12.817
		C251.394,152.443,248.58,154.318,245.867,156.342z M256.21,149.703c-6.078-1.56-8.502-9.72-9.792-15.113
		c-1.39-5.808-2.038-11.752-2.347-17.708c3.212-1.346,6.462-2.616,9.727-3.837c0.329,2.733,1.152,5.492,1.735,8.134
		c0.625,2.84,1.234,5.694,2.044,8.49c-0.009,0.01-0.016,0.02-0.025,0.03c-1.115,1.306-0.737,3.33,1.016,3.847
		c0.133,0.039,0.255,0.09,0.386,0.131c1.697,4.182,4.104,8.103,6.828,11.705C262.524,146.573,259.324,148.023,256.21,149.703z
		 M269.595,100.031c-0.299-7.217-1.03-15.924-4.4-22.851c19.819,11.153,40.909,20.306,61.422,30.044
		c0.469,0.223,0.994,0.48,1.558,0.753c1.403,3.217,3.805,5.757,4.357,9.618c0.757,5.297-1.234,8.575-3.627,12.993
		c-0.041,0.076-0.056,0.16-0.083,0.24c-0.897,0.042-1.79,0.112-2.679,0.221c-1.926-0.061-3.844-0.104-5.723-0.199
		c-6.507-0.327-13.013-0.696-19.517-1.079c-12.101-0.713-24.667-2.722-36.845-2.421
		C268.267,118.874,269.998,109.757,269.595,100.031z M267.639,76.293c8.756,1.87,16.728,5.713,25.114,9.579
		c10.633,4.902,22.683,7.056,32.778,12.957c0.186,0.108,0.39,0.177,0.598,0.228c1.554,0.854,3.169,1.609,4.759,2.335
		c3.288,1.502,6.391,2.855,9.927,3.219c0.798,1.14,0.536,2.314-2.116,2.507c-2.912,0.212-4.657-0.617-7.324-1.819
		c-7.977-3.594-15.859-7.409-23.79-11.102C294.388,88.05,281.194,81.661,267.639,76.293z M336.609,135.174
		c3.991,1.538,0.054,3.633-2.61,3.342c-3.414,0.646-7.655-0.111-11.122-0.341c-4.041-0.269-8.067-0.676-12.088-1.155
		c-10.673-1.27-21.296-2.502-31.934-3.752c-2.119-0.249-4.41-1.55-6.497-1.517c15.741-0.249,31.337,2.383,47.033,3.145
		c3.386,0.164,6.766,0.477,10.156,0.533C331.73,135.465,334.498,134.361,336.609,135.174z M258.636,128.339
		c-0.758-2.638-1.356-5.321-2.003-7.987c-0.606-2.5-1.061-5.187-1.923-7.654c3.592-1.329,7.206-2.592,10.822-3.802
		C264.842,115.857,262.833,122.761,258.636,128.339z M267.345,144.838c-2.315-3.467-4.603-6.793-6.396-10.468
		c4.947,1.947,8.712,5.076,11.557,8.965C270.773,143.755,269.053,144.264,267.345,144.838z M271.878,134.579
		c8.745,1.647,17.661,2.84,26.377,4.208c10.675,1.676,21.421,3.515,32.248,3.768c1.123,0.95,2.421,1.66,3.427,2.77
		c1.637,1.805,2.594,4.111,2.572,6.561c-0.009,1.038-0.442,2.605-0.392,3.825c-1.336,0.589-2.517,1.131-3.427,1.495
		c-8.917,3.562-17.6,7.731-25.936,12.497c-7.441,4.254-15.954,8.991-22.226,15.199C285.598,168.469,284.605,145.292,271.878,134.579
		z M338.825,163.686c-1.228,0.338-2.278,0.606-2.944,0.79c-6.692,1.856-12.791,4.013-19.16,6.792
		c-6.561,2.862-13.122,5.725-19.683,8.587c10.661-8.846,23.773-14.27,36.595-19.199c3.126-1.202,6.281-2.364,9.481-3.371
		c2.195-0.693,8.816-2.893,6.169,1.671C348.14,160.928,342.626,162.641,338.825,163.686z M466.826,184.439
		c-0.583,3.187-1.242,6.355-1.943,9.519c-2.213-1.526-4.566-2.8-7.026-3.883C460.858,188.214,463.848,186.336,466.826,184.439z
		 M451.112,179.743c-0.154,2.614-0.146,5.217,0.019,7.832c-2.052-0.651-4.144-1.233-6.253-1.786
		C446.959,183.776,449.037,181.76,451.112,179.743z M438.692,175.05c0.182,3.101,0.363,6.203,0.54,9.304
		c-2.943-0.738-5.883-1.488-8.764-2.351C433.027,179.468,435.764,177.157,438.692,175.05z M425.25,171.465
		c0.08,2.962,0.16,5.925,0.241,8.887c-2.773-1.027-5.451-2.235-7.985-3.712C419.97,174.741,422.556,173.015,425.25,171.465z
		 M414.629,164.536c-0.338,3.232-0.761,6.63-0.592,9.835c-2.548-1.863-4.841-3.96-7.051-6.134
		C409.579,167.113,412.12,165.841,414.629,164.536z M404.143,157.039c-0.621-2.409-1.26-4.813-1.916-7.213
		c2.445,0.457,4.911,0.823,7.39,0.981C407.627,152.714,405.813,154.829,404.143,157.039z M426.463,160.376
		c-0.808-3.543-1.64-7.081-2.522-10.607c1.876-0.145,3.76-0.172,5.666,0.09c1.708,0.235,3.414,0.675,5.118,1.252
		C431.477,153.777,428.881,156.959,426.463,160.376z M439.369,163.159c-0.505-3.441-0.582-6.89-0.505-10.393
		c2.185,0.997,4.371,2.163,6.561,3.39C443.099,158.26,441.095,160.576,439.369,163.159z M449.001,171.31
		c-0.091-4.285,0.089-8.546,0.535-12.812c2.634,1.51,5.278,3.003,7.936,4.3C454.649,165.636,451.825,168.473,449.001,171.31z
		 M462.033,178.711c-1.02-0.239-0.388-9.058-0.004-13.932c3.286,1.236,6.599,2.005,9.953,1.964
		C469.126,170.611,463.01,178.94,462.033,178.711z M419.117,96.6c8.395,5.039,7.353,14.726,12.093,22.226
		c1.465,2.319,3.429,4.336,5.902,5.547c1.098,1.67,1.746,3.605,1.868,5.646c0.125,2.108-0.828,4.187-0.464,6.236
		c0.081,0.457,0.691,0.659,1.058,0.43c2.296-1.425,2.282-5.024,1.891-7.393c-0.234-1.421-0.72-2.745-1.395-3.96
		c1.96,0.342,3.955,0.25,5.946,0.359c1.616,1.688,2.073,4.172,1.842,6.595c-0.212,2.224-1.333,4.326-0.766,6.54
		c0.128,0.502,0.737,0.604,1.094,0.289c2.391-2.108,2.74-6.963,2.066-9.926c-0.264-1.164-0.726-2.209-1.35-3.121
		c0.021,0.005,0.042,0.007,0.063,0.012c2.746,0.658,5.051,2.412,7.517,3.774c0.787,1.007,1.586,2.004,1.936,3.206
		c0.828,2.839-1.56,5.078-1.847,7.763c-0.073,0.684,0.83,1.141,1.371,0.787c2.397-1.568,3.693-5.164,3.289-7.975
		c-0.116-0.804-0.405-1.511-0.781-2.17c2.945,0.78,6.01,0.844,9.057,0.929c4.774,0.134,9.346,0.175,13.241,3.364
		c3.251,2.663,5.474,6.746,5.852,10.947c0.578,6.426-3.536,12.12-9.066,15.029c-11.254,1.236-20.053-2.83-29.629-8.298
		c-8.092-4.62-16.637-9.015-26.237-8.137c-4.993,0.456-9.79,1.742-14.846,1.555c-6.096-0.226-12.07-1.687-18.086-2.581
		c-7.998-1.189-17.225-1.382-24.344,3.004c-1.587,0.978-1.422,3.695,0.542,4.141c9.551,2.174,19.197,4.28,26.616,11.126
		c6.951,6.414,12.674,13.27,20.979,18.102c16.289,9.477,38.278,7.824,52.49,20.668c-9.803,9.356-25.015,5.268-36.083,0.119
		c-5.932-2.76-11.705-5.851-17.838-8.161c-6.144-2.315-12.082-2.926-18.504-3.823c-16.755-2.34-31.224-21.77-47.907-24.651
		c0.621-0.262,1.214-0.555,1.788-0.866c3.936-1.281,7.265-4.247,4.424-8.774c-2.456-3.912-7.874-2.884-12.738-1.101
		c0.432-3.179-0.287-6.465-2.199-9.106c-0.658-0.91-1.507-1.831-2.476-2.589c4.745-0.649,10.708-2.774,8.202-8.299
		c-1.222-2.694-4.332-2.799-6.907-3.005c-0.931-0.075-1.865-0.137-2.8-0.185c3.962-4.675,3.733-14.345,0.339-20.294
		c4.229,1.37,8.647,1.623,10.802-2.562c1.696-3.294,0.301-5.158-2.845-6.106c-3.372-1.016-6.79-2.607-9.953-3.914
		c-0.976-0.403-1.95-0.838-2.928-1.274c6.107-11.826,11.702-24.938,23.122-31.102c0.268-0.047,0.544-0.166,0.812-0.384
		c0.063-0.051,0.126-0.091,0.189-0.14c1.711-0.837,3.556-1.512,5.54-2.019c7.33-0.046,14.795,8.872,19.153,13.368
		c5.087,5.25,10.405,10.401,17.265,13.222C403.071,92.789,412.006,92.331,419.117,96.6z M308.24,73.699
		c-3.104-1.866-6.314-3.721-9.493-5.647c3.541,1.344,7.086,2.681,10.63,4.017c7.233,2.727,15.342,7.147,23.143,8.069
		c-1.044,1.831-2.026,3.678-2.956,5.503C322.271,82.017,315.215,77.89,308.24,73.699z M379.767,30.716
		c0.003-0.055,0.007-0.109,0.009-0.164c0.577,7.742,1.569,15.476,2.742,22.947c1.224,7.792,2.495,18.394,6.773,26.228
		c-0.318-0.259-0.636-0.515-0.949-0.793c-0.865-0.768-1.84-1.722-2.899-2.79c-2.907-9.734-4.749-19.712-5.421-29.87
		C379.679,41.094,379.554,35.907,379.767,30.716z M355.802,26.081c7.281-0.41,16.756-2.304,22.927-7.07
		c-0.123,0.599-0.238,1.184-0.32,1.736c-0.349,2.348-0.675,4.698-0.935,7.058c-0.675,6.124-0.967,12.312-0.707,18.47
		c0.353,8.346,1.598,16.601,3.573,24.694c-5.931-5.905-13.181-12.29-19.9-12.587c-1.744-7.85-7.325-15.76-11.495-22.165
		c-2.512-3.858-5.194-7.68-8.058-11.36C345.927,26.147,351.502,26.323,355.802,26.081z M345.839,39.093
		c2.482,3.843,4.788,7.799,6.991,11.808c1.432,2.605,2.683,5.365,4.276,7.884c-0.661,0.197-1.314,0.461-1.955,0.814
		c-1.137,0.206-2.233,0.516-3.299,0.901c-0.019-0.047-0.027-0.091-0.049-0.139c-5.219-11.373-10.295-22.813-15.427-34.225
		C339.713,30.299,342.915,34.565,345.839,39.093z M315.301,48.489c7.084-7.257,13.354-15.166,16.726-24.679
		c2.026,4.388,3.759,8.954,5.655,13.295c3.591,8.223,7.175,16.445,10.647,24.719c0.037,0.087,0.083,0.158,0.125,0.236
		c-5.86,3.308-10.564,9.195-14.468,15.594c-6.508-4.746-16.049-6.855-23.486-9.66c-5.503-2.075-11.007-4.152-16.524-6.192
		C302.224,60.309,309.574,54.358,315.301,48.489z M230.818,29.743c20.425,4.568,40.344,11.031,60.634,16.01
		c-1.596,0.13-3.184,0.269-4.741,0.411c-3.319,0.302-6.626,0.721-9.925,1.203c-3.047-1.833-6.76-2.542-10.153-3.608
		c-4.453-1.4-8.921-2.75-13.403-4.053c-9.926-2.886-19.93-5.506-29.993-7.871c-9.408-2.211-18.895-4.082-28.27-6.434
		c-5.682-1.426-11.17-3.256-16.651-5.133C195.903,22.94,213.414,25.851,230.818,29.743z M150.817,51.618
		c9.719-7.202,22.914-19.757,18.158-32.249c6.873,3.91,14.877,6.204,22.396,8.26c9.601,2.626,19.367,4.601,29.046,6.91
		c9.731,2.321,19.398,4.901,28.993,7.73c4.799,1.415,9.578,2.892,14.335,4.441c1.699,0.553,3.462,1.281,5.254,1.956
		c-2.431,0.464-4.856,0.962-7.265,1.526c-15.31,3.584-30.179,9.211-44.053,16.629c-9.372-1.459-19.337-1.121-28.776-1.201
		c-9.81-0.083-19.614,0.107-29.414,0.56c-9.799,0.453-19.598,1.111-29.357,2.105c-6.554,0.668-13.174,1.817-19.794,2.328
		C124.897,66.976,138.721,60.581,150.817,51.618z M211.184,70.481c-2.814,1.66-5.564,3.423-8.278,5.238
		c-16.94-2.544-34.303-2.011-51.375-1.982c-8.776,0.015-17.562-0.066-26.328-0.507c-2.807-0.141-5.649-0.448-8.501-0.783
		c3.766-0.216,7.536-0.54,11.338-0.835c10.123-0.784,20.252-1.425,30.4-1.762c9.798-0.325,19.61-0.418,29.413-0.305
		C195.565,69.633,203.419,70.372,211.184,70.481z M104.946,105.701c4.644-10.347,3.475-22.15-2.067-31.713
		c6.24,1.569,13.115,1.805,19.298,2.227c8.758,0.598,17.535,0.759,26.31,0.86c16.589,0.19,33.035,0.641,49.537,2.032
		c-13.126,9.443-24.918,20.7-34.961,33.353c-13.836,0.482-27.805,2.43-41.506,4.321c-6.874,0.949-13.732,2.019-20.571,3.194
		c-3.866,0.664-7.864,1.227-11.796,2.021C96.025,118.523,101.709,112.915,104.946,105.701z M160.011,116.427
		c-1.347,1.801-2.665,3.625-3.941,5.478c-20.608,1.746-41.216,1.937-61.837,2.505c1.169-0.217,2.337-0.431,3.504-0.626
		c7.729-1.289,15.48-2.443,23.25-3.46C133.972,118.625,147.003,117.751,160.011,116.427z M81.465,127.066
		c23.814,2.19,48.131,0.81,71.918-1.138c-3.315,5.116-6.374,10.401-9.122,15.856c-1.782,3.539-3.455,7.15-5.022,10.812
		c-0.141-0.059-0.292-0.098-0.458-0.083c-5.344,0.469-10.679,3.603-15.639,5.6c-6.005,2.418-12.022,4.802-18.055,7.15
		c-5.715,2.225-11.453,4.39-17.175,6.596c-3.826,1.474-7.897,2.826-11.693,4.592C85.908,161.775,92.221,141.448,81.465,127.066z
		 M137.863,155.902c-1.317,3.258-2.538,6.558-3.649,9.893c-9.648,1.624-19.145,5.085-28.741,7.141
		c-6.596,1.413-13.239,2.554-19.865,3.788c7.301-2.513,14.512-5.814,21.368-8.433c5.724-2.187,11.437-4.405,17.136-6.657
		C128.549,159.882,133.773,158.527,137.863,155.902z M83.474,179.411c7.678-0.607,15.266-1.882,22.857-3.363
		c4.486-0.875,8.988-1.681,13.448-2.683c4.237-0.952,8.708-3.01,12.929-3.522c-0.281,3.662-1.971,7.624-2.973,11.192
		c-0.74,2.637-1.504,5.324-3.029,7.598c-2.392,3.567-6.25,5.914-9.061,9.128c-3.432,3.923-6.331,8.283-9.76,12.211
		c-3.35,3.838-6.79,7.578-10.047,11.471c2.735-10.199,3.557-21.186-1.803-30.579C93.098,185.716,88.663,181.656,83.474,179.411z
		 M111.8,210.995c4.757-5.458,10.476-11.009,14.326-17.23c-0.29,2.73-0.432,5.482-0.512,8.214
		c-4.364,2.814-8.216,7.716-11.846,11.013c-5.085,4.619-10.428,10.559-16.653,13.712C102.402,221.867,107.084,216.406,111.8,210.995
		z M99.229,227.961c5.15-2.473,9.415-6.504,13.714-10.242c2.969-2.581,5.898-5.203,8.782-7.879c1.209-1.122,2.555-2.226,3.805-3.409
		c-0.128,12.841,0.302,25.716,2.258,38.426c0.702,4.562,1.642,9.047,2.825,13.433C123.932,244.491,114.121,231.489,99.229,227.961z
		 M337.982,336.608c0.017-4.663-1.17-9.251-3.55-13.441c1.12-0.189,2.242-0.369,3.365-0.542c0.232,1.98,0.943,4.04,1.022,5.943
		C338.926,331.166,338.664,333.978,337.982,336.608z M369.389,339.955c-8.08-7.869-19.467-8.499-28.482-3.664
		c0.795-1.735,1.225-3.625,1.354-5.838c0.132-2.259,0.211-5.705-0.608-8.392c17.106-2.342,34.382-2.566,51.085,2.658
		c20.931,6.545,44.493,26.862,46.428,50.309c-11.046-6.94-24.805-10.917-37.501-12.941c-9.498-1.514-19.526-2.162-29.223-0.995
		c0.805-0.995,1.489-2.12,1.982-3.393C376.857,351.414,373.994,344.44,369.389,339.955z M401.662,365.516
		c13.408,2.29,25.098,7.493,37.288,13.23c0.121,0.057,0.24,0.099,0.357,0.129c-0.053,2.581-0.377,5.192-1.004,7.82
		c-0.769,3.224-1.946,6.267-3.456,9.133c-7.144-9.482-18.49-15.186-29.216-19.74c-12.288-5.217-25.039-8.638-38.025-11.368
		C379.015,363.922,390.224,363.563,401.662,365.516z M344.323,390.258c7.623,0.571,15.814-2.305,20.166-8.868
		c3.086-4.655,3.484-10.417,1.369-15.295c11.541,3.481,23.277,6.697,34.465,11.176c11.882,4.756,25.24,11.027,32.385,22.157
		c-11.563,17.552-35.988,27.72-55.023,31.288c-14.619,2.74-29.465,2.326-43.974-0.313c0.207-0.366,0.255-0.827,0.036-1.361
		c-4.754-11.571-10.747-22.435-14.9-34.319c-2.831-8.101-4.705-16.39-6.735-24.654C319.776,380.794,331.215,389.277,344.323,390.258
		z M315.291,395.703c3.609,11.29,7.945,23.887,14.469,33.923c-2.997-0.63-5.978-1.343-8.936-2.151
		c-4.719-11.117-8.42-21.843-10.303-33.936c-1.36-8.734-1.46-17.704-2.388-26.512C309.421,376.771,312.367,386.555,315.291,395.703z
		 M304.754,364.635c-0.463,9.949,0.74,20.259,2.062,29.926c1.415,10.339,3.684,21.595,8.346,31.26
		c-7.035-2.194-13.926-4.843-20.599-7.842c-6.582-2.958-13.06-6.133-19.534-9.271c-0.007-0.04-0.005-0.075-0.014-0.116
		c-2.028-8.803-4.457-17.525-6.833-26.239c-1.077-3.952-1.737-8.428-3.139-12.488C277.506,378.91,295.063,376.79,304.754,364.635z
		 M261.899,367.236c0.854,2.49,1.235,5.206,1.789,7.702c0.831,3.74,1.604,7.49,2.394,11.238c1.434,6.8,2.846,13.615,4.46,20.376
		c-1.207-0.579-2.413-1.164-3.623-1.734c-0.001-0.034,0.005-0.064,0.002-0.099c-0.556-6.808-1.385-13.587-2.361-20.347
		c-0.813-5.631-1.368-11.738-2.902-17.359C261.737,367.09,261.82,367.16,261.899,367.236z M259.554,371.146
		c0.569,4.24,1.414,8.487,1.886,12.639c0.728,6.408,1.229,12.834,1.685,19.265c-7.818-3.598-15.717-6.917-23.87-9.504
		C248.531,389.346,255.822,380.735,259.554,371.146z M210.547,393.324c28.605,1.318,52.743,15.746,78.046,27.51
		c24.7,11.483,51.752,18.863,79.191,16.357c23.536-2.15,48.268-11.471,64.294-29.473c7.612-8.551,12.57-19.166,11.929-30.798
		c-0.654-11.859-6.221-23.024-13.523-32.183c-16.004-20.076-40.553-28.68-65.633-29.084c-28.674-0.461-56.151,8.793-84.128,13.623
		c-28.452,4.912-58.6,4.541-85.718-6.293c-26.769-10.694-48.758-31.479-57.953-59.109c-4.849-14.571-6.462-29.907-7.121-45.177
		c-0.346-8.018-1.083-16.726-0.479-25.149c7.903-31.181,20.759-59.846,42.129-84.271c22.103-25.264,51.413-43.516,83.722-52.561
		c9.134-2.557,18.473-4.426,27.901-5.477c8.401-0.936,16.789-0.536,25.168-0.903c-6.104,4.839-13.091,8.237-20.455,9.251
		c-1.092-0.395-2.183-0.795-3.277-1.186c-2.101-0.75-3.455,2.54-1.512,3.588c7.764,4.188,14.978,9.595,22.531,14.172
		c7.322,4.437,14.832,8.537,22.223,12.852c-0.779,1.593-1.522,3.146-2.229,4.618c-4.944-2.399-10.13-4.053-15.353-5.829
		c-6.287-2.137-12.207-4.936-18.168-7.832c-10.295-5.001-21.405-10.611-33.183-9.883c-2.403,0.148-3.578,3.422-1.278,4.719
		c7.662,4.318,8.018,19.228,8.146,26.917c0.019,1.132,0.007,2.276-0.034,3.423c-54.496,11.695-112.023,61.358-97.506,122.56
		c6.337,26.717,27.945,46.872,52.505,57.489c30.591,13.224,64.864,11.895,97.215,7.536c35.236-4.748,71.386-13.451,104.703,0.698
		c2.676,1.366,5.21,2.984,7.639,4.766c0.06,0.112,0.16,0.199,0.299,0.217c12.489,9.277,21.863,23.426,29.712,36.301
		c10.476,17.182,17.722,36.917,15.97,57.317c-2.542,29.607-25.659,51.699-51.447,63.483c-30.534,13.953-66.542,13.887-98.569,5.277
		c-16.241-4.366-29.873-12.252-44.933-19.309c-20.35-9.536-41.493-16.904-63.835-19.928c-43.788-5.927-88.883,3.443-128.677,21.915
		c-9.472,4.397-18.688,9.259-27.582,14.625c3.51-2.477,7.042-4.928,10.607-7.34c11.622-7.863,23.482-15.371,35.549-22.533
		c9.12-5.413,18.562-10.342,27.74-15.67C158.918,400.85,183.613,392.082,210.547,393.324z M77.422,441.777
		c-3.805-6.305-8.37-12.34-12.492-18.434c-1.901-2.81-3.69-5.707-5.51-8.582c2.737,2.908,5.557,5.743,8.352,8.561
		c4.688,4.727,9.661,10.915,15.334,14.822C81.206,439.347,79.313,440.561,77.422,441.777z M160.691,376.022
		c10.548,4.679,21.603,9.074,32.793,12.568c-4.611,0.404-9.221,1.068-13.796,1.957c-9.904-6.149-20.455-11.229-30.271-17.573
		c-5.176-3.345-10.219-6.895-15.036-10.741c-0.826-0.659-1.639-1.374-2.449-2.105C141.027,366.222,150.567,371.531,160.691,376.022z
		 M104.115,373.854c8.449-3.736,14.129-11.449,17.278-19.926c2.71,4.088,7.185,7.465,10.806,10.487
		c4.481,3.74,9.168,7.228,13.978,10.532c8.728,5.995,17.925,11.94,27.38,16.931c-14.105,3.433-27.669,9.166-39.47,17.067
		c-2.716,1.286-5.405,2.646-8.073,4.05c-13.098-12.515-23.925-27.009-38.446-37.928C92.884,376.57,98.589,376.297,104.115,373.854z
		 M104.943,395.329c3.521,3.893,6.938,7.878,10.208,11.985c2.168,2.722,4.27,5.733,7.139,7.673
		c-1.078,0.587-2.154,1.178-3.226,1.775c-5.731-7.969-13.144-14.988-19.389-22.595c-4.295-5.231-8.306-11.213-12.735-16.636
		C93.086,383.321,99.279,389.066,104.943,395.329z M74.624,397.482c4.754-5.545,6.737-12.967,7.052-20.353
		c4.021,6.474,9.453,12.516,14.044,18.231c6.237,7.767,12.537,16.634,20.024,23.271c-3.495,1.986-6.96,4.006-10.405,6.007
		c-6.31,3.666-12.56,7.435-18.752,11.299c-4.202-5.446-10.511-9.928-15.385-14.653c-5.629-5.457-10.948-11.307-16.77-16.56
		C61.854,406.474,69.544,403.408,74.624,397.482z M23.231,480.544c3.759-8.504,3.844-18.893,0.709-27.888
		c1.747,2.064,3.538,4.085,5.762,5.877c3.632,2.927,7.26,5.716,10.658,8.884C34.581,471.7,28.863,476.071,23.231,480.544z
		 M43.374,465.197c-3.401-3.258-7.499-5.763-11.263-8.567c-2.759-2.055-5.068-4.912-7.691-7.223
		c2.754,1.337,5.627,2.498,8.256,3.845c5.224,2.676,10.356,5.521,15.401,8.519C46.504,462.904,44.939,464.05,43.374,465.197z
		 M51.14,459.308c-5.719-3.41-11.541-6.623-17.539-9.518c-2.826-1.364-5.798-2.986-8.867-4.174
		c7.901-1.368,15.239-5.58,20.42-11.841c5.679-6.862,8.168-14.947,8.821-23.433c2.838,5.568,6.29,10.929,9.496,16.226
		c3.475,5.74,6.908,11.766,10.934,17.162c-1.868,1.216-3.736,2.432-5.591,3.668c-5.883,3.92-11.718,7.935-17.495,12.043
		C51.261,459.396,51.209,459.348,51.14,459.308z M52.305,468.888c5.812-3.617,11.698-7.079,17.654-10.395
		c0.007,0.806,0.083,1.612,0.341,2.311C64.209,463.309,58.21,466.006,52.305,468.888z M73.367,459.548
		c-0.582,0.232-1.159,0.477-1.739,0.712c-0.085-0.18-0.154-0.361-0.184-0.528c-0.115-0.639-0.145-1.305-0.154-1.971
		c4.057-2.237,8.138-4.421,12.271-6.493c-0.326,1.141-0.651,2.281-0.34,3.462c0.088,0.332,0.249,0.664,0.456,0.973
		C80.212,456.92,76.77,458.195,73.367,459.548z M85.081,455.202c-0.577-0.623-0.745-1.348-0.6-2.306
		c0.124-0.817,0.378-1.591,0.574-2.382c3.872-1.916,7.778-3.757,11.726-5.507c-0.488,2.356-0.754,5.053,0.079,6.43
		C92.902,452.601,88.974,453.859,85.081,455.202z M98.65,450.922c-1.408-1.513-1.185-4.123-0.608-6.462
		c4.017-1.757,8.065-3.447,12.17-5.009c-0.555,2.918-0.256,6.116,1.707,8.026C107.465,448.506,103.041,449.663,98.65,450.922z
		 M113.066,447.208c-0.547-1.601-1.383-3.044-1.613-4.781c-0.158-1.197-0.125-2.358,0.093-3.483
		c5.259-1.967,10.59-3.773,16.009-5.378c-0.791,1.684-1.334,3.484-1.559,5.375c-0.168,1.421-0.311,3.911,0.361,5.632
		C121.906,445.329,117.473,446.212,113.066,447.208z M144.699,442.181c-5.593,0.507-11.171,1.228-16.722,2.133
		c-1.226-2.092-0.663-5.652-0.169-7.679c0.301-1.236,0.741-2.402,1.294-3.506c5.495-1.586,11.07-2.992,16.749-4.16
		c0.933-0.192,1.871-0.357,2.806-0.536c-1.961,2.318-3.052,5.014-3.688,8.298C144.666,438.294,144.388,440.368,144.699,442.181z
		 M164.277,441.246c-6.011,0.013-12.024,0.285-18.024,0.788c-0.126-0.433-0.213-0.894-0.241-1.406
		c-0.094-1.731,0.312-3.579,0.684-5.273c0.625-2.846,1.865-5.113,3.611-7.239c6.044-1.104,12.125-1.948,18.228-2.524
		c-0.012,0.024-0.023,0.046-0.035,0.07c-1.232,2.417-2.277,4.937-3.106,7.52C164.715,435.294,163.861,438.555,164.277,441.246z
		 M180.931,441.844c-4.974-0.389-9.961-0.577-14.952-0.606c-0.13-0.467-0.225-0.951-0.253-1.473
		c-0.107-1.945,0.417-3.893,0.971-5.737c0.565-1.882,1.242-3.731,2.032-5.53c0.364-0.828,0.797-2.028,1.383-3.057
		c5.048-0.438,10.109-0.697,15.174-0.773c-1.977,2.486-3.38,5.337-4.095,8.565C180.672,435.577,180.236,439.037,180.931,441.844z
		 M182.794,441.998c-0.303-0.981-0.572-1.971-0.638-3.104c-0.119-2.046,0.088-4.124,0.578-6.113
		c0.708-2.872,1.986-5.644,3.667-8.114c3.919-0.038,7.839,0.015,11.758,0.193c-1.934,2.719-3.026,6.168-3.472,9.349
		c-0.312,2.229-0.708,6.587,0.552,9.272C191.105,442.85,186.954,442.362,182.794,441.998z M205.027,445.225
		c-2.739-0.566-5.487-1.07-8.243-1.513c-0.75-1.44-0.803-3.851-0.861-5.057c-0.096-1.962,0.065-3.929,0.497-5.847
		c0.659-2.931,1.98-5.388,3.444-7.869c3.99,0.213,7.977,0.535,11.956,0.974c-2.955,2.638-4.913,6.416-5.846,10.215
		C205.541,437.886,204.576,442.123,205.027,445.225z M225.025,450.511c-1.602-0.506-3.207-1.003-4.819-1.483
		c-4.438-1.321-8.911-2.463-13.41-3.438c-1.003-3.336,0.147-8.209,0.966-10.862c1.09-3.533,2.967-6.394,5.639-8.643
		c5.584,0.659,11.122,1.603,16.605,2.793c-2.186,2.185-3.958,5.016-4.91,7.563C223.451,440.837,223.747,445.953,225.025,450.511z
		 M226.051,450.841c-0.566-4.586-1.459-9.15,0.136-13.674c0.88-2.497,2.419-4.685,4.207-6.614c0.414-0.446,0.853-0.871,1.295-1.293
		c5.025,1.139,10.006,2.471,14.932,3.989c-2.848,2.833-5.147,6.129-6.791,9.869c-1.422,3.237-2.967,7.72-2.452,11.546
		C233.625,453.334,229.85,452.057,226.051,450.841z M239.009,455.249c-1.155-7.592,3.443-16.06,8.818-21.623
		c5.681,1.786,11.293,3.797,16.824,6c-3.286,2.446-6.002,5.506-7.956,9.194c-1.638,3.093-3.503,7.827-3.274,11.801
		C248.635,458.782,243.835,456.98,239.009,455.249z M255.015,461.235c-0.473-8.048,4.384-16.329,10.707-21.18
		c0.356,0.143,0.713,0.283,1.069,0.428c4.742,1.937,9.326,4.155,13.865,6.455c-0.147,0.162-0.294,0.329-0.44,0.501
		c-1.813,2.127-3.522,4.401-5.013,6.765c-2.249,3.566-4.84,8.603-4.522,13.123C265.457,465.298,260.242,463.251,255.015,461.235z
		 M271.959,467.823c0.227-1.587,0.35-3.189,0.756-4.754c0.6-2.313,1.574-4.516,2.745-6.593c1.051-1.863,2.271-3.623,3.544-5.339
		c0.769-1.035,1.677-2.485,2.778-3.626c3.504,1.788,6.988,3.615,10.499,5.396c-2.232,2.031-3.642,4.945-4.942,7.833
		c-1.492,3.315-3.736,7.877-3.105,11.763C280.129,470.978,276.042,469.406,271.959,467.823z M285.659,473.032
		c0.128-1.552,0.116-3.089,0.472-4.658c0.505-2.232,1.382-4.369,2.289-6.463c1.286-2.969,2.676-6.212,5.061-8.398
		c5.721,2.875,11.532,5.596,17.658,7.768c-2.712,2.553-4.656,6.342-5.992,9.407c-0.667,1.529-2.764,5.429-2.744,8.162
		C296.773,477.038,291.201,475.074,285.659,473.032z M315.387,482.713c-3.766-1.017-7.495-2.128-11.202-3.297
		c-0.392-3.566,2.148-8.171,3.63-11.018c1.349-2.593,3.078-4.563,4.93-6.551c0.034,0.011,0.066,0.024,0.1,0.035
		c3.273,1.094,6.618,2.091,10.01,3.01c-1.972,2.329-2.987,5.698-4.12,8.381c-1.095,2.593-3.092,6.308-2.99,9.532
		C315.626,482.774,315.505,482.745,315.387,482.713z M317.476,483.253c-0.147-1.257-0.067-2.469,0.4-3.948
		c0.591-1.867,1.434-3.667,2.187-5.472c1.042-2.498,2.028-6.271,4.052-8.595c3.646,0.961,7.349,1.822,11.096,2.573
		c-1.664,2.354-2.759,5.276-3.798,7.784c-1.246,3.008-2.686,6.846-2.69,10.415C324.946,485.158,321.199,484.231,317.476,483.253z
		 M339.658,488.274c-3.123-0.582-6.228-1.231-9.322-1.911c0.033-1.163,0.091-2.325,0.312-3.512c0.382-2.046,1.015-4.039,1.765-5.979
		c1.056-2.727,2.238-6.178,4.071-8.807c3.142,0.607,6.309,1.145,9.5,1.593c-1.021,3.298-1.888,6.641-3.097,9.895
		c-0.722,1.944-1.48,3.873-2.218,5.811C340.314,486.298,339.793,487.276,339.658,488.274z M341.099,488.532
		c0.103-1.355,1.424-3.82,1.703-4.555c0.733-1.938,1.474-3.873,2.158-5.828c0.927-2.649,1.932-5.469,2.386-8.303
		c3.681,0.489,7.385,0.878,11.103,1.14c-0.338,3.3-0.485,6.604-1.216,9.88c-0.685,3.071-1.466,6.963-3.395,9.673
		C349.575,489.978,345.327,489.298,341.099,488.532z M355.689,490.793c1.378-2.142,2.017-5.59,2.427-7.17
		c1.017-3.918,1.849-8.382,1.536-12.557c4.267,0.272,8.547,0.398,12.82,0.349c2.032,3.049,0.534,9.624-0.026,12.531
		c-0.565,2.935-1.687,5.519-2.8,8.16C364.986,491.814,360.33,491.369,355.689,490.793z M371.628,492.229
		c1.589-3.337,2.267-7.39,2.674-10.723c0.384-3.142,1.019-7.207-0.556-10.122c4.324-0.083,8.64-0.324,12.923-0.761
		c1.384,3.796,2.035,7.757,1.655,11.854c-0.341,3.682-1.617,6.815-2.961,10.028C380.789,492.574,376.207,492.473,371.628,492.229z
		 M400.594,491.646c-4.4,0.444-8.819,0.696-13.244,0.809c1.344-3.198,2.097-6.785,2.349-9.978c0.321-4.078-0.28-8.27-2.051-11.95
		c4.078-0.443,8.129-1.035,12.13-1.821c1.84,3.592,2.849,7.319,2.84,11.486c-0.005,2.507-0.338,4.993-0.883,7.437
		C401.433,488.98,400.971,490.307,400.594,491.646z M418.652,484.962c-0.214,1.342-0.662,2.686-1.031,4.031
		c-0.658,0.141-1.319,0.296-1.974,0.426c-4.379,0.867-8.786,1.535-13.211,2.031c1.381-3.941,1.759-8.78,1.525-12.535
		c-0.226-3.625-1.168-7.339-3.134-10.423c3.869-0.792,7.693-1.745,11.452-2.88c3.042,2.98,5.488,6.555,6.334,10.799
		C419.171,479.215,419.099,482.149,418.652,484.962z M434.444,478.826c-0.145,2.218-0.757,4.085-1.577,5.976
		c-4.444,1.499-8.909,2.76-13.321,3.776c0.345-1.47,0.528-3,0.694-4.321c0.361-2.883,0.341-5.824-0.34-8.66
		c-1.03-4.293-3.511-7.516-6.637-10.282c4.868-1.514,9.63-3.318,14.242-5.449c3.55,2.844,5.35,7.148,6.315,11.644
		C434.333,473.903,434.603,476.379,434.444,478.826z M448.322,473.673c-0.225,1.859-0.84,3.662-1.292,5.477
		c-3.92,1.832-7.929,3.464-11.966,4.901c1.514-4.023,1.053-9.024,0.178-12.932c-0.996-4.447-2.909-9.196-6.716-11.715
		c3.708-1.758,7.319-3.723,10.813-5.909c3.944,2.42,6.985,6.432,8.296,10.8C448.546,467.335,448.702,470.535,448.322,473.673z
		 M462.6,470.467c-4.29,2.849-8.828,5.414-13.505,7.701c0.432-1.618,0.642-3.323,0.786-4.86c0.33-3.524-0.023-7.164-1.272-10.491
		c-1.635-4.357-4.537-7.806-8.479-9.828c2.267-1.447,4.49-2.978,6.652-4.616c1.496-1.134,2.961-2.329,4.41-3.551
		c3.535,2.457,6.426,5.451,8.377,9.522C461.699,458.787,463.742,465.368,462.6,470.467z M478.456,457.364
		c-4.181,4.38-8.941,8.343-14.076,11.904c0.177-1.616-0.11-3.328-0.356-4.936c-0.521-3.397-1.408-6.743-2.84-9.875
		c-1.875-4.101-4.969-8.244-9.051-10.444c2.665-2.302,5.244-4.731,7.679-7.309c4.366,1.087,8.448,3.023,11.71,6.256
		c2,1.983,3.527,4.304,4.691,6.859c1.041,2.287,2.204,4.793,2.447,7.324C478.591,457.217,478.525,457.292,478.456,457.364z
		 M479.995,455.705c-0.012,0.013-0.025,0.026-0.037,0.04c-0.368-1.497-0.998-2.974-1.539-4.316c-1.217-3.015-2.69-5.866-4.876-8.298
		c-3.352-3.728-7.958-6.489-12.91-7.312c3.188-3.46,6.142-7.139,8.735-11.043c1.225,0.322,2.444,0.682,3.634,1.253
		c2.54,1.219,4.874,2.837,6.996,4.683c1.87,1.626,3.6,3.426,5.182,5.333c1.976,2.381,3.061,4.686,4.144,7.351
		C486.548,447.731,483.455,451.863,479.995,455.705z M490.387,441.74c-0.694-1.874-1.946-3.647-3.06-5.101
		c-1.982-2.587-4.255-4.992-6.746-7.094c-2.633-2.222-6.472-4.976-10.348-6.102c1.551-2.438,2.972-4.951,4.228-7.541
		c4.412,0.26,8.814,0.477,13.057,1.916c4.711,1.597,7.799,4.659,10.808,8.149C496.106,431.435,493.464,436.723,490.387,441.74z
		 M498.984,424.333c-2.668-3.242-5.901-5.929-9.918-7.483c-4.378-1.693-9.292-2.272-14.052-2.132
		c1.271-2.75,2.376-5.574,3.261-8.479c1.126-0.455,2.26-0.88,3.522-1.117c2.923-0.549,5.907-0.714,8.873-0.51
		c3.979,0.275,9.975,1.057,13.173,4.128C502.573,414.038,500.955,419.258,498.984,424.333z M504.21,407.166
		c-2.907-2.661-8.43-3.471-11.631-3.87c-3.406-0.426-6.857-0.368-10.246,0.177c-1.06,0.171-2.307,0.369-3.493,0.718
		c0.449-1.678,0.854-3.37,1.159-5.094c0.41-2.32,0.701-4.643,0.882-6.962c4.756-0.733,10.088-0.12,14.619,0.841
		c2.441,0.518,4.771,1.399,6.92,2.675c1.244,0.738,2.341,1.736,3.484,2.631C505.448,401.257,504.876,404.221,504.21,407.166z
		 M506.896,390.217c-0.186,2.06-0.439,4.121-0.724,6.179c-2.798-2.516-7.206-4.09-10.306-4.745
		c-4.649-0.982-10.06-1.654-14.905-0.771c0.205-3.364,0.188-6.721-0.043-10.061c4.188-0.926,8.527-1.331,12.783-1.215
		c2.795,0.076,5.584,0.377,8.328,0.913c1.819,0.355,3.58,0.916,5.355,1.414C507.3,384.695,507.144,387.458,506.896,390.217z
		 M494.176,378.198c-4.583-0.129-8.985,0.426-13.349,1.517c-0.364-4.376-1.074-8.72-2.09-13.003c4.6-0.653,9.164-1.691,13.824-2.019
		c2.876-0.202,5.762-0.296,8.645-0.27c1.845,0.017,3.783,0.286,5.671,0.289c0.459,5.17,0.646,10.366,0.551,15.564
		C503.247,378.796,498.416,378.318,494.176,378.198z"/>
	<path style="fill:#231F20;" d="M385.818,117.469c-1.921,2.976-3.183,6.266-2.838,9.983c0.348,3.753,2.302,7.757,6.215,8.651
		c0.599,0.137,0.942-0.537,0.572-0.983c-2.395-2.887-4.399-5.495-4.361-9.433c0.027-2.818,1.04-5.536,2.414-7.997
		c0.774,0.034,1.518,0.028,2.228-0.01c-2.822,5.375-1.257,14.339,5.107,15.91c0.567,0.14,1.261-0.545,0.842-1.095
		c-1.495-1.963-3.343-3.493-4.242-5.867c-0.888-2.348-0.691-4.459-0.022-6.553c0.22,3.653,2.311,7.331,5.408,9.117
		c3.745,2.16,9.969,1.718,13.332-1.425c-0.595,1.208-1.265,2.372-2.208,3.404c-1.726,1.891-4.07,3.245-6.338,4.386
		c-0.631,0.317-0.302,1.271,0.347,1.281c4.737,0.077,10.017-4.436,10.69-9.37c0.686,0.769,1.539,1.44,2.835,1.92
		c2.222,0.823,4.522,0.806,6.417-0.657c0.443-0.342,0.405-0.983-0.154-1.181c-2.489-0.882-5.334-1.211-7.19-3.335
		c-1.32-1.512-1.48-3.783-3.053-5.106c-1.356-1.141-2.87-0.901-4.438-1.265c-2.631-0.61-3.871-2.886-6.194-4.118
		c-4.615-2.448-9.345,0.137-14.154-0.545c-9.23-1.309-9.377-13.013-2.168-17.295c0.669-0.398,0.234-1.563-0.546-1.294
		C372.534,98.649,373.963,115.299,385.818,117.469z M395.541,117.374c1.787,0.076,3.582,0.517,5.613,1.895
		c0.145,0.099,0.271,0.207,0.404,0.311c-0.389,1.043-0.595,2.145-0.788,3.239c-0.253,1.425,1.776,2.569,2.52,1.063
		c0.372-0.754,0.762-1.53,1.076-2.326c1.659,0.641,3.501,0.358,4.995,1.439c-1.447,1.302-2.375,2.617-4.362,3.287
		c-1.902,0.642-4.148,0.623-5.932-0.383C395.731,124.018,395.121,120.688,395.541,117.374z"/>
	<path style="fill:#231F20;" d="M467.189,152.528c0.195,0.222,0.406,0.43,0.658,0.606c0.305,0.213,0.632,0.356,0.965,0.466
		c2.693,1.005,6.06-0.825,6.689-3.778c0.772-3.621-2.689-8.66-6.664-6.19c-1.745,1.084-2.855,3.662-2.738,5.967
		c-0.034,1.025,0.289,2.086,1.052,2.893C467.163,152.506,467.177,152.516,467.189,152.528z"/>
	<path style="fill:#231F20;" d="M472.295,140.946c1.159-0.453,2.561-1.073,3.826-0.766c1.451,0.353,1.887,1.776,2.125,3.067
		c0.445,2.411,0.054,4.703,0.93,7.02c0.213,0.563,0.996,0.752,1.332,0.174c1.652-2.843,1.377-7.706-0.507-10.486
		c-2.091-3.083-5.617-2.069-8.459-0.797C470.543,139.607,471.262,141.35,472.295,140.946z"/>
</g>
<g>
</g>
<g>
</g>
<g>
</g>
<g>
</g>
<g>
</g>
<g>
</g>
<g>
</g>
<g>
</g>
<g>
</g>
<g>
</g>
<g>
</g>
<g>
</g>
<g>
</g>
<g>
</g>
<g>
</g>
</svg>
