<?xml version="1.0" encoding="iso-8859-1"?>
<!-- Generator: Adobe Illustrator 16.0.0, SVG Export Plug-In . SVG Version: 6.00 Build 0)  -->
<!DOCTYPE svg PUBLIC "-//W3C//DTD SVG 1.1//EN" "http://www.w3.org/Graphics/SVG/1.1/DTD/svg11.dtd">
<svg version="1.1" id="Capa_1" xmlns="http://www.w3.org/2000/svg" xmlns:xlink="http://www.w3.org/1999/xlink" x="0px" y="0px"
	 width="587.358px" height="587.358px" viewBox="0 0 587.358 587.358" style="enable-background:new 0 0 587.358 587.358;"
	 xml:space="preserve">
<g>
	<g>
		<path style="fill:#cc6655;" d="M583.603,288.187l-50.099-30.376c-1.664-1.008-3.26-3.391-3.594-5.308c-0.641-3.66-1.375-7.287-2.184-10.89
			c-0.424-1.901,0.144-4.709,1.298-6.275l34.741-47.214c3.46-4.704,1.587-9.245-4.187-10.139l-57.891-8.964
			c-1.926-0.298-4.309-1.889-5.354-3.533c-2.093-3.293-4.271-6.52-6.52-9.702c-1.122-1.591-1.677-4.398-1.216-6.291l13.962-56.965
			c1.392-5.676-2.081-9.144-7.756-7.757l-56.965,13.962c-1.894,0.465-4.705-0.094-6.292-1.216c-3.015-2.13-6.075-4.19-9.188-6.181
			c-1.641-1.049-3.224-3.436-3.518-5.361l-8.816-57.916c-0.877-5.773-5.414-7.658-10.127-4.21l-47.299,34.614
			c-1.571,1.15-4.378,1.71-6.279,1.281c-3.795-0.856-7.622-1.636-11.481-2.31c-1.918-0.334-4.296-1.93-5.308-3.595L299.161,3.746
			c-3.027-4.994-7.939-4.994-10.967,0l-30.376,50.098c-1.008,1.665-3.391,3.261-5.308,3.595c-3.66,0.641-7.287,1.375-10.89,2.183
			c-1.901,0.425-4.709-0.143-6.275-1.297l-47.21-34.737c-4.704-3.46-9.245-1.587-10.139,4.187l-8.964,57.887
			c-0.298,1.926-1.889,4.309-3.533,5.353c-3.292,2.094-6.523,4.272-9.702,6.521c-1.591,1.122-4.398,1.677-6.291,1.216L92.542,84.787
			c-5.676-1.392-9.144,2.081-7.757,7.756l13.962,56.965c0.466,1.894-0.094,4.704-1.216,6.292c-2.125,3.015-4.189,6.074-6.181,9.188
			c-1.049,1.641-3.436,3.224-5.361,3.518l-57.92,8.816c-5.773,0.877-7.658,5.414-4.21,10.127l34.614,47.295
			c1.15,1.571,1.71,4.378,1.281,6.279c-0.856,3.794-1.636,7.621-2.31,11.481c-0.334,1.917-1.93,4.296-3.595,5.308L3.753,288.187
			c-4.994,3.027-4.994,7.939,0,10.967l50.098,30.376c1.665,1.008,3.261,3.391,3.595,5.308c0.641,3.66,1.375,7.287,2.183,10.89
			c0.425,1.901-0.143,4.708-1.297,6.275L23.59,399.216c-3.46,4.704-1.587,9.245,4.186,10.139l57.892,8.964
			c1.926,0.298,4.309,1.889,5.353,3.533c2.094,3.292,4.272,6.523,6.521,9.702c1.122,1.591,1.677,4.398,1.216,6.291L84.794,494.81
			c-1.392,5.676,2.081,9.144,7.756,7.757l56.965-13.962c1.894-0.466,4.704,0.094,6.291,1.216c3.016,2.13,6.075,4.189,9.188,6.181
			c1.641,1.049,3.224,3.436,3.518,5.361l8.816,57.932c0.877,5.773,5.414,7.658,10.127,4.211l47.299-34.615
			c1.571-1.15,4.378-1.713,6.279-1.28c3.795,0.856,7.621,1.636,11.481,2.309c1.917,0.335,4.296,1.93,5.308,3.595l30.376,50.099
			c3.027,4.994,7.939,4.994,10.967,0l30.376-50.099c1.008-1.665,3.391-3.26,5.308-3.595c3.66-0.641,7.287-1.375,10.89-2.183
			c1.901-0.424,4.709,0.143,6.275,1.298l47.214,34.736c4.704,3.465,9.245,1.588,10.139-4.182l8.964-57.891
			c0.298-1.926,1.889-4.309,3.533-5.354c3.293-2.093,6.523-4.271,9.702-6.52c1.591-1.122,4.398-1.677,6.291-1.216l56.965,13.962
			c5.676,1.391,9.144-2.081,7.757-7.757l-13.962-56.965c-0.465-1.893,0.094-4.704,1.216-6.291c2.126-3.015,4.19-6.075,6.181-9.188
			c1.049-1.64,3.436-3.223,5.361-3.517l57.933-8.817c5.772-0.881,7.657-5.414,4.21-10.126l-34.614-47.3
			c-1.15-1.57-1.71-4.378-1.281-6.279c0.856-3.794,1.636-7.621,2.309-11.48c0.335-1.918,1.931-4.297,3.595-5.309l50.099-30.375
			C588.597,296.126,588.597,291.214,583.603,288.187z"/>
	</g>
</g>
<g>
</g>
<g>
</g>
<g>
</g>
<g>
</g>
<g>
</g>
<g>
</g>
<g>
</g>
<g>
</g>
<g>
</g>
<g>
</g>
<g>
</g>
<g>
</g>
<g>
</g>
<g>
</g>
<g>
</g>
</svg>
